<svg xmlns="http://www.w3.org/2000/svg" width="502.313" height="619.279" viewBox="0 0 502.313 619.279">
  <g id="Man_Floating" data-name="Man Floating" transform="translate(0.03 -0.014)">
    <g id="Background_Complete" data-name="Background Complete" transform="translate(51.617 59.279)">
      <path id="Path_718" data-name="Path 718" d="M251.4,63.271h92.807s-8.2-14.934-32.1-12.7c-22.81,2.075-24-7.34-35.57-8.469S255.268,49.735,251.4,63.271Z" transform="translate(51.848 -42.001)" fill="#e0e0e0"/>
      <path id="Path_719" data-name="Path 719" d="M80.449,231.259s-9.3,5.025,4.235,24.447,22.344,28.738,22.344,28.738,2.555,4.587-1.412,5.914-13.169,1.115-14.3,6.366,3.261,9.881,11.49,13.042,25.972,10.981,27.567,11.687,3.345,2.752.776,4.079-22.5,6.225-19.606,15.527,27.27,14.567,29.924,15.2,3.4,1.609,3.388,3.021-6.86,2.428-12.478,4.051-11.828,4.489-9.711,9.725,17.446,14.736,51.28,13.409l15.654-1.651,6.648-14.327c12.393-31.519,8.469-49.12,4.235-52.833s-9.005,1.214-12.393,5.971-6.592,10.9-7.919,10.445-2.033-1.482-1.75-4.235,3.345-27.454-4.5-33.255-19.013,11.419-21.173,13.4-3.472-.353-3.6-2.061-1.623-21.06-1.976-29.882-3.021-14.454-8.469-15.145-8.159,8.088-10.713,11.4-6.041-.593-6.041-.593-5.914-11.391-19.761-30.559-21.921-11.73-21.921-11.73" transform="translate(-19.782 35.359)" fill="#ebebeb"/>
      <path id="Path_720" data-name="Path 720" d="M186.464,382.941c-10.135-14.115-27.736-39.522-42.966-61.245s-29.035-41.357-39.1-55.529c-5.039-7.058-9.118-12.788-11.941-16.769l-3.246-4.559-.833-1.2-.268-.409.311.381.861,1.172,3.331,4.5c2.823,3.924,7.058,9.612,12.068,16.684,10.135,14.115,24,33.735,39.212,55.444s32.789,47.116,42.867,61.33" transform="translate(-15.347 40.806)" fill="#e0e0e0"/>
      <path id="Path_721" data-name="Path 721" d="M96.34,277.83a3.978,3.978,0,0,1,1.129.155c.72.127,1.75.339,3.021.607,2.555.565,6.069,1.412,9.881,2.442l9.881,2.639,2.992.776a6.236,6.236,0,0,1,1.087.325,4.236,4.236,0,0,1-1.129-.141c-.72-.127-1.764-.339-3.035-.635-2.555-.579-6.041-1.482-9.881-2.5l-9.881-2.569-2.992-.762a6.3,6.3,0,0,1-1.073-.339Z" transform="translate(-11.96 55.044)" fill="#e0e0e0"/>
      <path id="Path_722" data-name="Path 722" d="M116.832,291.425c-.127,0,1.327-7.326,3.246-16.317s3.585-16.246,3.726-16.218-1.327,7.34-3.246,16.317S116.973,291.51,116.832,291.425Z" transform="translate(-3.531 47.25)" fill="#e0e0e0"/>
      <path id="Path_723" data-name="Path 723" d="M132.33,314.048a5.887,5.887,0,0,1,.508-1.044l1.5-2.823c1.256-2.343,2.992-5.646,4.757-9.245s3.289-7.057,4.347-9.457c.508-1.143.932-2.117,1.27-2.894a5.648,5.648,0,0,1,.508-1.044,4.234,4.234,0,0,1-.339,1.115c-.24.706-.621,1.722-1.115,2.95-.988,2.484-2.442,5.872-4.235,9.542s-3.557,6.9-4.9,9.2c-.663,1.157-1.228,2.075-1.623,2.71A4.466,4.466,0,0,1,132.33,314.048Z" transform="translate(2.85 59.04)" fill="#e0e0e0"/>
      <path id="Path_724" data-name="Path 724" d="M113,306.946a5.649,5.649,0,0,1,1.073-.127l2.908-.169c2.47-.127,5.872-.254,9.626-.367s7.156-.2,9.626-.24h2.908a4.051,4.051,0,0,1,1.073.071,5.644,5.644,0,0,1-1.059.127l-2.922.169c-2.456.113-5.858.254-9.612.367s-7.156.2-9.626.226h-2.922a4.716,4.716,0,0,1-1.073-.056Z" transform="translate(-5.104 66.65)" fill="#e0e0e0"/>
      <path id="Path_725" data-name="Path 725" d="M123.92,330.353a8.675,8.675,0,0,1,1.412-.155l3.74-.226c3.148-.169,7.509-.381,12.322-.579s9.175-.339,12.322-.423h3.74a7.889,7.889,0,0,1,1.412,0,6.481,6.481,0,0,1-1.412.155l-3.74.226c-3.148.184-7.509.381-12.322.579s-9.175.353-12.322.438l-3.74.071A7.059,7.059,0,0,1,123.92,330.353Z" transform="translate(-0.611 76.075)" fill="#e0e0e0"/>
      <path id="Path_726" data-name="Path 726" d="M148,338.728a8.711,8.711,0,0,1,.593-1.411l1.778-3.6c1.411-3.021,3.529-7.227,5.646-11.927s3.952-8.991,5.251-12.111l1.524-3.7a8.471,8.471,0,0,1,.621-1.341,9.287,9.287,0,0,1-.438,1.412c-.311.889-.776,2.174-1.412,3.755-1.214,3.162-2.978,7.481-5.124,12.2s-4.235,8.878-5.8,11.885c-.776,1.5-1.411,2.7-1.906,3.515a8.464,8.464,0,0,1-.734,1.327Z" transform="translate(9.298 66.077)" fill="#e0e0e0"/>
      <path id="Path_727" data-name="Path 727" d="M244.882,216.873c-16.8-18.829-15.188-46.029-8.822-69.319,1.059-3.882,1.609-8.116,4.235-11.123s7.594-4.235,10.7-1.821c2.6,2.061,3.063,5.745,4.023,8.921a23.558,23.558,0,0,0,7.058,10.953c2.188,1.891,5.081,3.416,7.876,2.64,3.811-1.073,5.321-5.646,6.225-9.542q2.5-10.925,5.025-21.822a37.064,37.064,0,0,1,3.91-11.292c2.089-3.4,5.646-6.211,9.542-6.366s8.031,3.063,7.9,7.058a36.7,36.7,0,0,1-1.03,4.884,4.235,4.235,0,0,0,1.412,4.432c1.411.819,3.261.085,4.7-.776,4.954-2.992,8.878-7.41,12.633-11.843s7.439-9.02,12.111-12.435,10.516-5.646,16.176-4.63,10.784,5.858,10.9,11.673-4.418,10.643-8.949,14.256a89.5,89.5,0,0,1-22.2,12.986,7.326,7.326,0,0,0-3.811,2.541c-1.411,2.385.4,5.561,2.752,7.058,2.682,1.651,5.9,2.1,8.85,3.176s5.928,3.2,6.408,6.352c.649,4.362-3.67,7.749-7.594,9.7A76.474,76.474,0,0,1,310.037,170c-3.119.367-6.352.579-9.147,2.047s-5.011,4.63-4.235,7.707,4.122,4.813,7.255,4.969,6.211-.847,9.33-1.242c5.829-.748,12.7,1.256,14.99,6.691a12.7,12.7,0,0,1-1.27,11.221,29.134,29.134,0,0,1-8.187,8.229,76.842,76.842,0,0,1-37.32,14.905c-13.452,1.412-25.238-.2-36.516-7.636" transform="translate(43.687 -20.379)" fill="#f5f5f5"/>
      <path id="Path_728" data-name="Path 728" d="M243.43,217.621c3.063-9.1-.141-4.531,6.14-15.527a361.662,361.662,0,0,1,22.768-34.314l6.437-8.681c2.117-2.823,4.235-5.646,6.436-8.3a179.25,179.25,0,0,1,13.649-14.412c4.559-4.376,9.048-8.356,13.268-12.054s8.257-7.058,12.04-9.881a142.438,142.438,0,0,1,18.872-12.478c2.329-1.27,4.235-2.216,5.434-2.823l1.411-.692a2.119,2.119,0,0,1,.508-.212l-.466.268-1.412.762c-1.228.663-3.049,1.637-5.364,2.95a150.492,150.492,0,0,0-18.674,12.6c-3.755,2.922-7.735,6.3-11.941,9.993s-8.681,7.707-13.212,12.082a180.252,180.252,0,0,0-13.565,14.383c-2.2,2.625-4.235,5.42-6.408,8.271s-4.234,5.759-6.422,8.695a370.064,370.064,0,0,0-22.768,34.215c-6.3,10.953-3.134,6.324-6.239,15.371" transform="translate(48.568 -18.854)" fill="#e0e0e0"/>
      <path id="Path_729" data-name="Path 729" d="M273.193,148.363a8.738,8.738,0,0,1,0-1.75c0-1.129.183-2.752.367-4.757.367-4.009,1.059-9.528,1.849-15.625s1.411-11.6,1.722-15.6c.155-2,.268-3.628.339-4.757a7.636,7.636,0,0,1,.184-1.736,8.594,8.594,0,0,1,.1,1.75c0,1.129,0,2.823-.1,4.771-.184,4.023-.72,9.57-1.51,15.668s-1.51,11.433-2.061,15.527c-.24,1.877-.438,3.458-.607,4.729A7.467,7.467,0,0,1,273.193,148.363Z" transform="translate(60.798 -16.43)" fill="#e0e0e0"/>
      <path id="Path_730" data-name="Path 730" d="M325.513,138.253a9.879,9.879,0,0,1-2.047-.226c-1.313-.2-3.218-.48-5.576-.748-4.7-.593-11.292-1.186-18.462-1.524s-13.8-.339-18.547-.212c-2.371,0-4.235.141-5.646.2a10.723,10.723,0,0,1-2.075,0,11.169,11.169,0,0,1,2.047-.311c1.327-.141,3.246-.311,5.646-.423,4.757-.268,11.292-.339,18.59,0a179.914,179.914,0,0,1,18.5,1.75c2.357.339,4.234.706,5.547.988A12.166,12.166,0,0,1,325.513,138.253Z" transform="translate(60.802 -3.822)" fill="#e0e0e0"/>
      <path id="Path_731" data-name="Path 731" d="M251.329,191.648a2.216,2.216,0,0,1-.212-.692l-.423-2c-.367-1.764-.819-4.305-1.411-7.467-1.059-6.309-2.244-15.075-3.43-24.772s-2.287-18.448-3.2-24.772c-.466-3.077-.833-5.646-1.115-7.5-.127-.819-.212-1.412-.3-2.047a2.823,2.823,0,0,1,0-.72,2.4,2.4,0,0,1,.2.692c.113.55.254,1.214.438,2.018.353,1.75.819,4.305,1.341,7.467,1.059,6.309,2.244,15.075,3.43,24.772s2.287,18.448,3.2,24.772c.466,3.077.833,5.646,1.115,7.5.113.819.212,1.411.3,2.033A3.965,3.965,0,0,1,251.329,191.648Z" transform="translate(47.656 -9.212)" fill="#e0e0e0"/>
      <path id="Path_732" data-name="Path 732" d="M320.042,167.223a2.654,2.654,0,0,1-.734.127l-2.075.183-7.679.621c-6.493.536-15.428,1.411-25.322,2.287s-18.844,1.68-25.337,2.075c-3.246.2-5.872.325-7.693.381h-2.1a2.414,2.414,0,0,1-.72,0,4.125,4.125,0,0,1,.72-.113l2.089-.184,7.679-.621c6.479-.536,15.428-1.411,25.308-2.287s18.844-1.68,25.337-2.075c3.246-.2,5.886-.325,7.693-.381h2.1A4.239,4.239,0,0,1,320.042,167.223Z" transform="translate(50.605 9.525)" fill="#e0e0e0"/>
      <path id="Path_733" data-name="Path 733" d="M362.134,269a4.743,4.743,0,0,1-.24.649c-.184.48-.438,1.1-.762,1.891l-3.021,7.058-10.84,25.2-.071.155h-.169l-34.187,5.646L301.4,311.472l-.522.085.127-.522,7.523-29.712.169.325-20.1-8.977-5.533-2.527-1.411-.678-.48-.254a2.272,2.272,0,0,1,.522.169l1.482.607,5.646,2.385L309,281.125l.226.1-.071.24c-2.145,8.61-4.658,18.745-7.41,29.74l-.381-.423,11.447-1.877,34.2-5.561-.226.169L357.9,278.457c1.341-2.992,2.414-5.35,3.162-7.057l.861-1.849a3.146,3.146,0,0,1,.212-.551Z" transform="translate(64.098 51.411)" fill="#e0e0e0"/>
      <path id="Path_734" data-name="Path 734" d="M300.3,296.513l-.932,2.456,1.5,2.16L298.241,301l-1.6,2.089-.692-2.541-2.484-.861,2.2-1.44.056-2.64,2.061,1.651Z" transform="translate(69.16 62.361)" fill="#e0e0e0"/>
      <path id="Path_735" data-name="Path 735" d="M282.672,268.118l-.466,1.228.748,1.073-1.3-.056-.8,1.03-.339-1.256-1.242-.438,1.1-.72.028-1.3,1.03.819Z" transform="translate(63.317 50.868)" fill="#e0e0e0"/>
      <path id="Path_736" data-name="Path 736" d="M329.638,292.692l-.466,1.228.748,1.073-1.3-.071-.8,1.045-.339-1.256-1.228-.438,1.087-.72.028-1.313,1.03.819Z" transform="translate(82.649 60.974)" fill="#e0e0e0"/>
      <path id="Path_737" data-name="Path 737" d="M302.542,277.088l-.466,1.228.748,1.073-1.313-.056-.79,1.03-.339-1.256-1.242-.438,1.1-.72.028-1.3,1.016.819Z" transform="translate(71.493 54.559)" fill="#e0e0e0"/>
      <path id="Path_738" data-name="Path 738" d="M340.652,268.262l-.466,1.228.748,1.073-1.313-.071-.79,1.045-.339-1.256-1.242-.438,1.087-.72.042-1.313,1.016.819Z" transform="translate(87.176 50.921)" fill="#e0e0e0"/>
      <path id="Path_739" data-name="Path 739" d="M36.56,345.862h73.892S103.917,333.977,84.9,335.7c-18.166,1.651-19.1-5.844-28.329-6.775S39.637,335.092,36.56,345.862Z" transform="translate(-36.56 76.036)" fill="#e0e0e0"/>
      <path id="Path_740" data-name="Path 740" d="M47,139.751h73.836s-6.535-11.9-25.562-10.163c-18.166,1.651-19.084-5.858-28.329-6.775S50.021,128.967,47,139.751Z" transform="translate(-32.264 -8.779)" fill="#f5f5f5"/>
      <path id="Path_741" data-name="Path 741" d="M312.84,175.267h60.695s-5.42-9.768-20.947-8.342c-14.92,1.411-15.682-4.813-23.262-5.575S315.367,166.417,312.84,175.267Z" transform="translate(77.131 7.084)" fill="#f5f5f5"/>
    </g>
    <g id="Pencil" transform="translate(106.044 0.014)">
      <path id="Path_742" data-name="Path 742" d="M278.3,308.122c3.021-22.753-12.986-41.526-32.973-52.8s-43.249-15.075-65.31-21.328c-20.82-5.914-41.527-14.539-56.954-29.726s-24.659-38.026-19.126-58.945c1.411-5.251,3.882-10.53,8.469-13.565s11.391-2.95,14.764,1.313c7.156,9.09-6.8,25.407,1.934,32.959,2.018,1.736,4.771,2.371,6.846,4.037,5.533,4.4,3.74,12.972,4.531,20,1.539,13.9,14.567,23.558,27.383,29.19C185,226.8,203.58,230.348,221.774,234.78s36.53,10.092,51.689,21.173,28.23,28.23,28.23,46.975c0,5.237-.692,11.673-3.98,15.752s-7.467,4.912-12.21,2.682-8.046-5.646-7.17-13.226" transform="translate(-63.924 53.332)" fill="#263e72"/>
      <g id="Group_44" data-name="Group 44" transform="translate(38.401 182.98)" opacity="0.8">
        <path id="Path_743" data-name="Path 743" d="M278.3,308.122c3.021-22.753-12.986-41.526-32.973-52.8s-43.249-15.075-65.31-21.328c-20.82-5.914-41.527-14.539-56.954-29.726s-24.659-38.026-19.126-58.945c1.411-5.251,3.882-10.53,8.469-13.565s11.391-2.95,14.764,1.313c7.156,9.09-6.8,25.407,1.934,32.959,2.018,1.736,4.771,2.371,6.846,4.037,5.533,4.4,3.74,12.972,4.531,20,1.539,13.9,14.567,23.558,27.383,29.19C185,226.8,203.58,230.348,221.774,234.78s36.53,10.092,51.689,21.173,28.23,28.23,28.23,46.975c0,5.237-.692,11.673-3.98,15.752s-7.467,4.912-12.21,2.682-8.046-5.646-7.17-13.226" transform="translate(-102.325 -129.648)" fill="#fff"/>
      </g>
      <path id="Path_744" data-name="Path 744" d="M158.466,178.435c-.72-8.469,5.547-15.767,12.7-19.761s15.315-5.533,22.683-9.02c18.35-8.667,29.9-29.049,30.757-49.967s-8.215-41.823-22.4-57.18c-5.759-6.239-12.845-12.7-12.929-21.3-.1-8.878,8.469-15.879,17.136-15.767s16.543,5.872,21.695,13.113S236.1,34.461,238.88,42.93c-1.99-3.543,2.075-7.933,5.985-7.566s7.058,3.642,9.415,6.9a73.4,73.4,0,0,1,14.115,49.177,69.164,69.164,0,0,1-21.878,45.084c-13.917,12.7-32.352,18.66-50.207,24.292l-37.292,11.758" transform="translate(-40.845 2.219)" fill="#263e72"/>
      <g id="Group_45" data-name="Group 45" transform="translate(117.565 7.658)" opacity="0.8">
        <path id="Path_745" data-name="Path 745" d="M158.466,178.435c-.72-8.469,5.547-15.767,12.7-19.761s15.315-5.533,22.683-9.02c18.35-8.667,29.9-29.049,30.757-49.967s-8.215-41.823-22.4-57.18c-5.759-6.239-12.845-12.7-12.929-21.3-.1-8.878,8.469-15.879,17.136-15.767s16.543,5.872,21.695,13.113S236.1,34.461,238.88,42.93c-1.99-3.543,2.075-7.933,5.985-7.566s7.058,3.642,9.415,6.9a73.4,73.4,0,0,1,14.115,49.177,69.164,69.164,0,0,1-21.878,45.084c-13.917,12.7-32.352,18.66-50.207,24.292l-37.292,11.758" transform="translate(-158.41 -5.439)" fill="#fff"/>
      </g>
      <path id="Path_746" data-name="Path 746" d="M152.5,2.695A8.173,8.173,0,0,0,148.121,12.7,8.187,8.187,0,0,0,158,17.487a8.187,8.187,0,0,0,5.194-9.6,8.187,8.187,0,0,0-9.372-5.646" transform="translate(-45.249 0.843)" fill="#263e72"/>
      <g id="Group_46" data-name="Group 46" transform="translate(102.456 2.938)" opacity="0.8">
        <path id="Path_747" data-name="Path 747" d="M152.5,2.695A8.173,8.173,0,0,0,148.121,12.7,8.187,8.187,0,0,0,158,17.487a8.187,8.187,0,0,0,5.194-9.6,8.187,8.187,0,0,0-9.372-5.646" transform="translate(-147.706 -2.095)" fill="#fff"/>
      </g>
      <path id="Path_748" data-name="Path 748" d="M191.431,434.56c-4.573-9.471-.593-21.285,6.691-28.879s17.235-11.927,26.819-16.162c21.243-9.358,43.757-20.509,54.555-41.075,3.642-6.93,5.646-14.553,7.763-22.1,3.966-14.637,7.693-31.251-.282-44.138-2.3-3.7-5.745-7.058-10.05-7.763-4.884-.875-9.881,1.821-12.915,5.773s-4.305,8.935-4.926,13.861c-1.186,9.372-.212,18.9-1.2,28.23s-4.418,19.211-12.167,24.617c-9.4,6.549-22.824,5.081-31.957,12.012-7.382,5.646-10.191,15.3-15.964,22.584-4.841,6.084-11.631,10.248-17.841,14.92s-12.238,10.4-14.341,17.884A21.173,21.173,0,0,0,195.1,439.2" transform="translate(-38.211 112.846)" fill="#263e72"/>
      <g id="Group_47" data-name="Group 47" transform="translate(126.6 387.119)" opacity="0.8">
        <path id="Path_749" data-name="Path 749" d="M191.431,434.56c-4.573-9.471-.593-21.285,6.691-28.879s17.235-11.927,26.819-16.162c21.243-9.358,43.757-20.509,54.555-41.075,3.642-6.93,5.646-14.553,7.763-22.1,3.966-14.637,7.693-31.251-.282-44.138-2.3-3.7-5.745-7.058-10.05-7.763-4.884-.875-9.881,1.821-12.915,5.773s-4.305,8.935-4.926,13.861c-1.186,9.372-.212,18.9-1.2,28.23s-4.418,19.211-12.167,24.617c-9.4,6.549-22.824,5.081-31.957,12.012-7.382,5.646-10.191,15.3-15.964,22.584-4.841,6.084-11.631,10.248-17.841,14.92s-12.238,10.4-14.341,17.884A21.173,21.173,0,0,0,195.1,439.2" transform="translate(-164.811 -274.273)" fill="#fff"/>
      </g>
      <path id="Path_750" data-name="Path 750" d="M87.005,68.947A29.952,29.952,0,0,1,75.12,44.8a29.91,29.91,0,0,1,12.7-23.7c4.333-2.992,9.485-4.813,13.339-8.4,3.43-3.19,5.646-7.622,9.514-10.3a14.228,14.228,0,0,1,16.359.423,14.242,14.242,0,0,1,4.63,15.527c-1.779,4.954-6.225,8.582-8.074,13.508-2,5.293-.72,11.292-1.412,16.839A23.248,23.248,0,0,1,90.972,67.479" transform="translate(-75.119 -0.014)" fill="#263e72"/>
      <g id="Group_48" data-name="Group 48" opacity="0.8">
        <path id="Path_751" data-name="Path 751" d="M87.005,68.947A29.952,29.952,0,0,1,75.12,44.8a29.91,29.91,0,0,1,12.7-23.7c4.333-2.992,9.485-4.813,13.339-8.4,3.43-3.19,5.646-7.622,9.514-10.3a14.228,14.228,0,0,1,16.359.423,14.242,14.242,0,0,1,4.63,15.527c-1.779,4.954-6.225,8.582-8.074,13.508-2,5.293-.72,11.292-1.412,16.839A23.248,23.248,0,0,1,90.972,67.479" transform="translate(-75.119 -0.014)" fill="#fff"/>
      </g>
      <path id="Path_752" data-name="Path 752" d="M83.93,27.41h17.347V63.163A7.636,7.636,0,0,1,93.641,70.8H91.566a7.636,7.636,0,0,1-7.636-7.636V27.41Z" transform="translate(-71.493 11.26)" fill="#263e72"/>
      <path id="Path_753" data-name="Path 753" d="M83.93,32.048,92.6,16.14l8.681,15.908Z" transform="translate(-71.493 6.623)" fill="#ffbe9d"/>
      <path id="Path_754" data-name="Path 754" d="M87.64,22.435s2.625,3.966,6.874,0l-3.444-6.3Z" transform="translate(-69.967 6.623)" fill="#263e72"/>
      <line id="Line_42" data-name="Line 42" x2="3.726" transform="translate(15.005 38.67)" fill="#fff" opacity="0.3"/>
      <path id="Path_755" data-name="Path 755" d="M101.534,51.626a55.047,55.047,0,0,1-8.822.353,55.046,55.046,0,0,1-8.822-.353,55.049,55.049,0,0,1,8.822-.353,55.049,55.049,0,0,1,8.822.353Z" transform="translate(-71.51 21.062)" fill="#263238"/>
      <path id="Path_756" data-name="Path 756" d="M101.305,49.746a54.767,54.767,0,0,1-8.638.353A54.767,54.767,0,0,1,84,49.746a52.8,52.8,0,0,1,8.638-.353A52.805,52.805,0,0,1,101.305,49.746Z" transform="translate(-71.465 20.288)" fill="#263238"/>
      <path id="Path_757" data-name="Path 757" d="M87.643,27.59c.183,0,.339,6.93.339,15.527s-.155,15.527-.339,15.527-.353-6.916-.353-15.527S87.445,27.59,87.643,27.59Z" transform="translate(-70.111 11.334)" fill="#fafafa"/>
      <path id="Path_758" data-name="Path 758" d="M92.613,27.59c.184,0,.353,6.93.353,15.527s-.169,15.527-.353,15.527-.353-6.916-.353-15.527S92.415,27.59,92.613,27.59Z" transform="translate(-68.066 11.334)" fill="#fafafa"/>
    </g>
    <g id="Notebook" transform="translate(186.04 514.765)">
      <path id="Path_759" data-name="Path 759" d="M209.411,373.71l78.818,3.374,1.891,4.587-51.647,83.843L145.23,462.79Z" transform="translate(-126.265 -360.986)" fill="#263238"/>
      <path id="Path_760" data-name="Path 760" d="M142.72,451.634,236.529,457l49.007-76.038-34.412,2.795-87.076,30.672Z" transform="translate(-127.298 -358.003)" fill="#e0e0e0"/>
      <path id="Path_761" data-name="Path 761" d="M134.018,449.686l86.1,1.412c-3.585-11.01,4.856-26.536,16.444-31.759,7.664-3.458,22.118-7.947,29.642-11.772,14.115-7.255,26.96-21.017,25.831-32.818l-35.372-1.129L211.5,371.87c-3.783,11.207-11.857,18.547-24.137,22.965-10.982,3.938-23.487,3.938-34.215,8.469-17.249,7.227-25.534,30.63-19.112,46.481" transform="translate(-131.765 -361.744)" fill="#ebebeb"/>
      <path id="Path_762" data-name="Path 762" d="M134.047,449.81s-.085-.184-.212-.551l-.593-1.666a17.831,17.831,0,0,1-.734-2.823,28.329,28.329,0,0,1-.593-3.924,39.086,39.086,0,0,1,.678-10.939,40.652,40.652,0,0,1,5.533-13.678,31.115,31.115,0,0,1,2.47-3.458c.466-.565.9-1.157,1.411-1.708l1.595-1.609a15.131,15.131,0,0,1,1.722-1.553c.607-.48,1.2-1.016,1.849-1.482a30.718,30.718,0,0,1,4.235-2.5c5.971-3.007,13.1-4.235,20.523-5.646,3.726-.678,7.552-1.412,11.4-2.442a53.224,53.224,0,0,0,11.292-4.573,35.722,35.722,0,0,0,5.307-3.472,31.05,31.05,0,0,0,4.7-4.446,33.791,33.791,0,0,0,6.549-11.546v-.226h.254l37.617,1.411c13.042.508,26.565.861,40.383,1.327l2.527.085h.311v.3a19.07,19.07,0,0,1-1.143,7.975,32.2,32.2,0,0,1-1.567,3.67c-.678,1.143-1.3,2.315-2.061,3.388a53.015,53.015,0,0,1-10.671,11.292,63.376,63.376,0,0,1-12.887,7.961c-4.545,2.033-9.147,3.7-13.649,5.364s-8.963,3.247-13.2,5.1a25.409,25.409,0,0,0-5.787,3.515,31.339,31.339,0,0,0-2.513,2.216,33,33,0,0,0-2.216,2.47,32.112,32.112,0,0,0-6.027,11.292,21.032,21.032,0,0,0-.212,12.054l.113.381h-.4l-62.572-.96-17.376-.353-4.559-.113h4.559l17.376.2,62.657.861-.268.381a21.611,21.611,0,0,1,.169-12.407,32.464,32.464,0,0,1,6.126-11.546c.663-.9,1.5-1.68,2.244-2.527a32.634,32.634,0,0,1,2.569-2.258,26.328,26.328,0,0,1,5.928-3.613c4.235-1.863,8.723-3.444,13.226-5.124s9.09-3.345,13.593-5.364a62.911,62.911,0,0,0,12.7-7.876,51.971,51.971,0,0,0,10.53-11.137,29.7,29.7,0,0,0,2.018-3.317,33.4,33.4,0,0,0,1.539-3.585,18.6,18.6,0,0,0,1.1-7.664l.339.325-2.527-.085c-13.833-.466-27.341-.819-40.4-1.412l-37.617-1.412.311-.212a34.7,34.7,0,0,1-6.676,11.758,32.082,32.082,0,0,1-4.8,4.5,38.433,38.433,0,0,1-5.392,3.529,53.927,53.927,0,0,1-11.49,4.587c-3.882,1.059-7.735,1.764-11.461,2.428-7.439,1.327-14.524,2.569-20.41,5.519a30.208,30.208,0,0,0-4.15,2.442c-.635.466-1.214.974-1.821,1.411a13.564,13.564,0,0,0-1.708,1.524l-1.581,1.581c-.494.536-.932,1.129-1.411,1.68a34.168,34.168,0,0,0-2.47,3.416,40.723,40.723,0,0,0-5.561,13.522,39.522,39.522,0,0,0-.762,10.869,27,27,0,0,0,.536,3.91,20.893,20.893,0,0,0,.678,2.823c.24.72.409,1.27.536,1.666S134.047,449.81,134.047,449.81Z" transform="translate(-131.794 -361.867)" fill="#263238"/>
      <path id="Path_763" data-name="Path 763" d="M210.839,376.219a14.768,14.768,0,0,0,.2-1.539,8.737,8.737,0,0,0-.678-4.065,8.356,8.356,0,0,0-4.079-4.362,9.288,9.288,0,0,0-12.492,4.785,10.318,10.318,0,0,0-.833,6,10.459,10.459,0,0,0,1.412,3.882c.536.833.932,1.228.889,1.27a3.811,3.811,0,0,1-1.115-1.115,9.8,9.8,0,0,1-1.736-3.952,10.727,10.727,0,0,1,.734-6.352,9.914,9.914,0,0,1,13.423-5.1,8.737,8.737,0,0,1,4.234,4.757,8.257,8.257,0,0,1,.48,4.234,6.059,6.059,0,0,1-.282,1.143C210.924,376.106,210.867,376.233,210.839,376.219Z" transform="translate(-106.93 -364.695)" fill="#263238"/>
      <path id="Path_764" data-name="Path 764" d="M220.436,376.22a13.15,13.15,0,0,0,.183-1.539,8.554,8.554,0,0,0-.677-4.065,8.328,8.328,0,0,0-4.065-4.362,9.3,9.3,0,0,0-12.506,4.785,10.558,10.558,0,0,0-.833,6,10.2,10.2,0,0,0,1.411,3.882c.536.833.932,1.228.889,1.27a3.811,3.811,0,0,1-1.115-1.115,9.429,9.429,0,0,1-1.736-3.952,10.6,10.6,0,0,1,.72-6.352,9.923,9.923,0,0,1,13.438-5.1,8.709,8.709,0,0,1,4.234,4.757,8.469,8.469,0,0,1,.494,4.235,5.872,5.872,0,0,1-.3,1.143A1.282,1.282,0,0,0,220.436,376.22Z" transform="translate(-102.99 -364.696)" fill="#263238"/>
      <path id="Path_765" data-name="Path 765" d="M227.648,376.564a14.379,14.379,0,0,0,.113-1.553,8.7,8.7,0,0,0-.918-4.023,8.314,8.314,0,0,0-4.234-4.122,9.373,9.373,0,0,0-7.269.155,9.485,9.485,0,0,0-4.94,5.336,10.29,10.29,0,0,0,1.2,9.881c.579.8,1,1.172.96,1.214a3.6,3.6,0,0,1-1.172-1.044,9.711,9.711,0,0,1-1.962-3.854,10.6,10.6,0,0,1,.367-6.38,10.036,10.036,0,0,1,5.265-5.745,9.88,9.88,0,0,1,7.806-.1,8.724,8.724,0,0,1,4.5,4.5,8.469,8.469,0,0,1,.734,4.234,5.941,5.941,0,0,1-.226,1.158C227.718,376.437,227.676,376.564,227.648,376.564Z" transform="translate(-99.983 -364.334)" fill="#263238"/>
      <path id="Path_766" data-name="Path 766" d="M235.447,376.88a8.814,8.814,0,0,1,0-1.553,8.907,8.907,0,0,0-1.129-3.966,8.356,8.356,0,0,0-4.517-3.9,9.316,9.316,0,0,0-11.9,6.126,10.389,10.389,0,0,0-.169,6.055,10.248,10.248,0,0,0,1.877,3.7c.621.776,1.073,1.129,1.03,1.172a3.827,3.827,0,0,1-1.228-.988,9.513,9.513,0,0,1-2.16-3.74,10.714,10.714,0,0,1,0-6.394,9.881,9.881,0,0,1,12.7-6.535,8.667,8.667,0,0,1,4.743,4.235,8.2,8.2,0,0,1,.96,4.234,6.04,6.04,0,0,1-.155,1.172C235.56,376.753,235.517,376.894,235.447,376.88Z" transform="translate(-96.828 -364.029)" fill="#263238"/>
      <path id="Path_767" data-name="Path 767" d="M243.278,376.651V375.1a8.7,8.7,0,0,0-1.228-3.938,8.37,8.37,0,0,0-4.63-3.769,9.33,9.33,0,0,0-11.73,6.465,10.318,10.318,0,0,0,1.99,9.7c.649.748,1.087,1.087,1.059,1.143a3.74,3.74,0,0,1-1.256-.96,9.655,9.655,0,0,1-2.315-3.726,10.572,10.572,0,0,1-.155-6.394,10.036,10.036,0,0,1,4.785-6.154,9.881,9.881,0,0,1,7.763-.734,8.666,8.666,0,0,1,4.856,4.136,8.228,8.228,0,0,1,1.073,4.235,5.265,5.265,0,0,1-.127,1.157C243.348,376.524,243.306,376.651,243.278,376.651Z" transform="translate(-93.607 -364.055)" fill="#263238"/>
      <path id="Path_768" data-name="Path 768" d="M249.852,377.623V376.07a8.807,8.807,0,0,0-1.073-3.995,8.37,8.37,0,0,0-4.474-3.938,9.415,9.415,0,0,0-7.255.452,9.514,9.514,0,0,0-4.714,5.5,10.558,10.558,0,0,0-.24,6.055,10.247,10.247,0,0,0,1.849,3.712c.607.776,1.045,1.143,1,1.186a4.008,4.008,0,0,1-1.214-1,9.655,9.655,0,0,1-2.1-3.769,10.6,10.6,0,0,1,.1-6.38,9.881,9.881,0,0,1,12.816-6.394,8.709,8.709,0,0,1,4.686,4.319,8.286,8.286,0,0,1,.9,4.234,5.648,5.648,0,0,1-.169,1.158A1.229,1.229,0,0,1,249.852,377.623Z" transform="translate(-90.894 -363.784)" fill="#263238"/>
    </g>
    <g id="Air_Balloon" data-name="Air Balloon" transform="translate(325.365 239.419)">
      <path id="Path_769" data-name="Path 769" d="M288.919,169.661a76.971,76.971,0,0,0-11.673.522A48.57,48.57,0,0,0,234.9,218.6a86.1,86.1,0,0,0,2.964,23.078c6.789,24.066,8.878,45.3,8.1,55.627l22.711,12.21s10.53-15.1,20.679-21.624,44-24,57.378-41.865c8.638-11.546,10.3-35.288-10.276-55.98A69.756,69.756,0,0,0,288.919,169.661Z" transform="translate(-228.69 -169.623)" fill="#263e72"/>
      <path id="Path_770" data-name="Path 770" d="M237.021,278.7l20.523,11.094-13.367,16.98L230.5,300.55Z" transform="translate(-230.5 -124.738)" fill="#455a64"/>
      <path id="Path_771" data-name="Path 771" d="M235.823,287.054c-.169-.071,1.863-6.154,4.559-13.607s5.025-13.438,5.208-13.367-1.863,6.154-4.559,13.607A140.964,140.964,0,0,1,235.823,287.054Z" transform="translate(-228.314 -132.4)" fill="#263238"/>
      <path id="Path_772" data-name="Path 772" d="M248.742,293.391c-.155-.1,3.049-5.844,7.185-12.845s7.622-12.6,7.792-12.506-3.049,5.858-7.185,12.859S248.911,293.391,248.742,293.391Z" transform="translate(-222.996 -129.125)" fill="#263238"/>
      <g id="Group_49" data-name="Group 49" transform="translate(24.56 0.65)" opacity="0.4">
        <path id="Path_773" data-name="Path 773" d="M290.387,170.107c-.917,0-12.224,13.268-17.22,22.217-16.8,30.107-17.559,59.41-22.217,93.569-.678,4.87-3.091,15.4-3.049,15.145,2.484,1.962,10.84,5.83,10.84,5.83s7.89-9.514,11.024-14.3c12.534-19.154,26.155-34.088,36.9-54.315s21.074-38.111,11.123-58.8C317.812,179.451,300.606,169.542,290.387,170.107Z" transform="translate(-247.9 -170.084)"/>
      </g>
      <path id="Path_774" data-name="Path 774" d="M347.022,239.672a2.824,2.824,0,0,1-.3-.649c-.2-.438-.409-1.1-.791-1.92a34.084,34.084,0,0,0-3.966-6.662,34.992,34.992,0,0,0-8.709-8.144A33.509,33.509,0,0,0,318.947,217h-.127l-.085-.113a78.746,78.746,0,0,0-9.175-10.516,45.507,45.507,0,0,0-12.52-8.624,32.465,32.465,0,0,0-14.793-2.823,24.561,24.561,0,0,0-12.944,4.319l-.212.141-.184-.169a25.633,25.633,0,0,0-13.833-6.14,25.1,25.1,0,0,0-11.758,1.5,26.352,26.352,0,0,0-6.747,3.811c-.72.55-1.242,1-1.595,1.313a2.98,2.98,0,0,1-.536.466,2.978,2.978,0,0,1,.466-.536,20.333,20.333,0,0,1,1.539-1.412,25.224,25.224,0,0,1,18.688-5.646,25.986,25.986,0,0,1,14.115,6.2h-.381a24.885,24.885,0,0,1,13.282-4.489,32.747,32.747,0,0,1,15.117,2.823,46.241,46.241,0,0,1,12.7,8.765,79.7,79.7,0,0,1,9.2,10.643l-.212-.127a33.439,33.439,0,0,1,14.51,5.491,34.356,34.356,0,0,1,8.737,8.342,31.733,31.733,0,0,1,3.839,6.818c.353.833.536,1.51.706,1.948a4.558,4.558,0,0,1,.268.692Z" transform="translate(-228.879 -160.237)" fill="#263238"/>
      <path id="Path_775" data-name="Path 775" d="M302.915,256.113a14.269,14.269,0,0,0-1.948-4.94,13.551,13.551,0,0,0-4.362-4.234,12.21,12.21,0,0,0-7.523-1.779H288.8v-.282a19.888,19.888,0,0,0-3.74-8.78,19.394,19.394,0,0,0-8.469-6.535,20.1,20.1,0,0,0-16.656.861l-.212.113-.169-.183a14.284,14.284,0,0,0-7.89-4.234,15.794,15.794,0,0,0-7.058.212,16.372,16.372,0,0,0-5.646,2.823,2.746,2.746,0,0,1,.3-.311,9.23,9.23,0,0,1,.96-.79,13.8,13.8,0,0,1,4.234-2.047,15.752,15.752,0,0,1,7.269-.381,14.778,14.778,0,0,1,8.271,4.362h-.381a20.294,20.294,0,0,1,29.712,14.92l-.339-.254a12.577,12.577,0,0,1,7.848,1.962,13.478,13.478,0,0,1,4.4,4.418,11.644,11.644,0,0,1,1.5,3.712c.1.452.113.8.155,1.044S302.944,256.113,302.915,256.113Z" transform="translate(-227.019 -146.684)" fill="#263238"/>
      <path id="Path_776" data-name="Path 776" d="M252.354,293.049a1.928,1.928,0,0,0-.748-.494,3.6,3.6,0,0,0-2.4.071,6.663,6.663,0,0,1-1.821.325,2.823,2.823,0,0,1-2.033-.889c-1.087-1.129-1.5-2.823-2.527-3.91a2.385,2.385,0,0,0-1.891-.79,11.526,11.526,0,0,0-2.145.423,4.616,4.616,0,0,1-2.145.113,3.585,3.585,0,0,1-1.68-.861,4,4,0,0,1-1.411-2.273,1.567,1.567,0,0,1,0-.974,2.58,2.58,0,0,0,.24.9,4.051,4.051,0,0,0,1.411,1.962,3.345,3.345,0,0,0,1.482.678,4.4,4.4,0,0,0,1.877-.169,12.072,12.072,0,0,1,2.273-.494,3.063,3.063,0,0,1,2.428,1c1.186,1.411,1.567,2.978,2.484,3.938a2.244,2.244,0,0,0,1.581.762,6.607,6.607,0,0,0,1.68-.226,3.642,3.642,0,0,1,2.64.155C252.3,292.654,252.382,293.049,252.354,293.049Z" transform="translate(-229.276 -122.643)" fill="#263238"/>
      <path id="Path_777" data-name="Path 777" d="M254.265,291.066a89.225,89.225,0,0,1-10.022-4.954,89.362,89.362,0,0,1-9.683-5.561,89.212,89.212,0,0,1,10.022,4.954,89.351,89.351,0,0,1,9.683,5.561Z" transform="translate(-228.829 -123.976)" fill="#263238"/>
      <path id="Path_778" data-name="Path 778" d="M250.888,293.976s-.282.141-.79.381c-.24.113-.536.282-.917.438a3.246,3.246,0,0,1-1.412.184,5.9,5.9,0,0,1-3.388-1.3A4.659,4.659,0,0,1,243.1,291.9a7.057,7.057,0,0,0-1-1.849,4.7,4.7,0,0,0-3.712-1.059,8.54,8.54,0,0,1-3.571-.353A3.289,3.289,0,0,1,233,286.989c-.226-.551-.141-.889-.113-.889a6.664,6.664,0,0,0,.353.762,3.289,3.289,0,0,0,1.736,1.327,9.161,9.161,0,0,0,3.373.155,5.223,5.223,0,0,1,4.235,1.242,7.058,7.058,0,0,1,1.1,2.033,4.107,4.107,0,0,0,1.087,1.567,5.646,5.646,0,0,0,3.007,1.3,4.348,4.348,0,0,0,2.2-.381A1.736,1.736,0,0,1,250.888,293.976Z" transform="translate(-229.532 -121.692)" fill="#263238"/>
    </g>
    <g id="Character" transform="translate(97.648 87.528)">
      <path id="Path_779" data-name="Path 779" d="M137.531,206.821l35.514-5.265-16.938-24-9.1.536a16.218,16.218,0,0,0-13.946,9.782h0a16.232,16.232,0,0,0-1.03,9.5Z" transform="translate(-43.428 -14.467)" fill="#263e72"/>
      <path id="Path_780" data-name="Path 780" d="M137.531,206.821l35.514-5.265-16.938-24-9.1.536a16.218,16.218,0,0,0-13.946,9.782h0a16.232,16.232,0,0,0-1.03,9.5Z" transform="translate(-43.428 -14.467)" opacity="0.4"/>
      <path id="Path_781" data-name="Path 781" d="M254.64,254.083c.367,1.016.776,2.23,1.172,3.67a10.756,10.756,0,0,1,.381,3.8,17.263,17.263,0,0,1-.79,4.7c-.593,1.341.762,2.7,1.92,2.018s2.823-4.333,2.738-9.062,4.714.932,6.507,2.964,7.636,8.06,8.709,8c1.553-.085,1.75-1.764-.085-3.755s-6.931-8.328-5.815-9.231,10.092,9.6,10.092,9.6,1.553,2.541,2.823,1.553c2.4-1.793-7.975-12.21-8.991-13.184-.706-.677.48-1.694,1.2-.932s8.723,10.657,11.179,8.864c1.877-1.411-8.469-8.653-8.977-11.631s7.283,6.324,9.02,4.926c.649-.522,1.073-.988-4.235-5.646-2.555-2.273-12.238-9.048-12.238-9.048L240.13,158.27l-22.5,12.887Z" transform="translate(-8.08 -22.405)" fill="#ffbe9d"/>
      <path id="Path_782" data-name="Path 782" d="M142.328,129.9,109.764,91.06h0a20.99,20.99,0,0,0-1.581-3.868,12.153,12.153,0,0,0-7.679-6.408c-2.075-.452-4.432-.24-6.055-1.595-.72-.607-1.2-1.412-1.962-2.033a1.722,1.722,0,0,0-2.512.141,2.188,2.188,0,0,0,.141,1.934,18.025,18.025,0,0,0,5.646,7.3c-3.049.917-7.41,2.329-7.41,2.329s-6.9-7.5-10.417-7.5,2.823,6.662,2.823,6.662-5.646-5.223-7.382-3.755,2.724,5.35,2.724,5.35a7.439,7.439,0,0,0-4.559-1.2c-1.6.268-2.964,2.145-2.1,3.515a3.825,3.825,0,0,0,1.412,1.157l8.667,4.827a10.459,10.459,0,0,0,4.63,1.68c4.4.141,7.735-2.583,12.139-2.47,0,0,24.546,51.675,27.03,54.343s56.46,6.3,56.46,6.3l31.208-26.889Z" transform="translate(-69.172 -55.976)" fill="#ffbe9d"/>
      <path id="Path_783" data-name="Path 783" d="M192.836,313.82,226.091,328.3l-17.813,41.456c-3.853-1.948-2.6-26.819-2.6-26.819L184,334.47Z" transform="translate(-21.919 41.605)" fill="#263e72"/>
      <g id="Group_50" data-name="Group 50" transform="translate(187.14 370.313)" opacity="0.6">
        <path id="Path_784" data-name="Path 784" d="M202.1,325.02a1.849,1.849,0,0,1,2.442-.339,1.792,1.792,0,0,1,.353,2.414,1.948,1.948,0,0,1-2.583.339,1.821,1.821,0,0,1-.085-2.541" transform="translate(-201.753 -324.367)" fill="#fff"/>
      </g>
      <path id="Path_785" data-name="Path 785" d="M219.421,324.467,216,323.14,200.21,363.382s0,2.188,1.411,2.541Z" transform="translate(-15.248 45.44)" fill="#fff" opacity="0.6"/>
      <path id="Path_786" data-name="Path 786" d="M199.015,335.714c.212.085.734-.889,1.807-1.609s2.16-.889,2.16-1.1-1.3-.423-2.583.466S198.831,335.672,199.015,335.714Z" transform="translate(-15.761 49.423)" fill="#263238"/>
      <path id="Path_787" data-name="Path 787" d="M199.014,339.027c.184.127.9-.607,2.047-.917s2.146-.141,2.23-.339-1.016-.833-2.442-.409S198.774,338.928,199.014,339.027Z" transform="translate(-15.761 51.234)" fill="#263238"/>
      <path id="Path_788" data-name="Path 788" d="M203.114,342.074c.113-.169-.776-.889-2.1-.833s-2.188.79-2.047.96.974-.183,2.061-.2S203,342.314,203.114,342.074Z" transform="translate(-15.767 52.888)" fill="#263238"/>
      <path id="Path_789" data-name="Path 789" d="M195.72,334.352c.226,0,.339-1.045.9-2.16s1.313-1.849,1.186-2.033-1.214.367-1.863,1.694S195.522,334.395,195.72,334.352Z" transform="translate(-17.18 48.315)" fill="#263238"/>
      <path id="Path_790" data-name="Path 790" d="M192.893,333.074a4.306,4.306,0,0,0,.875-2.089,9.6,9.6,0,0,0,.268-2.456,10.863,10.863,0,0,0-.127-1.411,2.667,2.667,0,0,0-.212-.833.974.974,0,0,0-1.045-.551,1.171,1.171,0,0,0-.833.692,2.935,2.935,0,0,0-.24.819,7.69,7.69,0,0,0-.1,1.482,8.073,8.073,0,0,0,.423,2.456,3.853,3.853,0,0,0,1.172,1.948c.1-.071-.325-.8-.649-2.1a8.668,8.668,0,0,1-.24-2.3,7.625,7.625,0,0,1,.141-1.412c0-.48.226-.861.466-.889s.127,0,.226.155a2.5,2.5,0,0,1,.155.607,11.955,11.955,0,0,1,0,3.7,16.26,16.26,0,0,0-.282,2.188Z" transform="translate(-18.842 46.502)" fill="#263238"/>
      <path id="Path_791" data-name="Path 791" d="M194.9,331.454a3.938,3.938,0,0,0-1.764-1.411,7.553,7.553,0,0,0-2.4-.692,7.4,7.4,0,0,0-1.482,0,1.863,1.863,0,0,0-1.623.875,1.059,1.059,0,0,0,.212,1.115,3.075,3.075,0,0,0,.663.536,4.827,4.827,0,0,0,1.411.607,5.11,5.11,0,0,0,2.527,0c1.411-.339,2.033-1.087,1.962-1.129a19.782,19.782,0,0,1-2.061.607,5.2,5.2,0,0,1-2.23-.184,5.281,5.281,0,0,1-1.186-.551c-.409-.254-.692-.579-.579-.72a1.256,1.256,0,0,1,.988-.438,7.3,7.3,0,0,1,1.412,0,8.145,8.145,0,0,1,2.244.48C194.167,331,194.831,331.553,194.9,331.454Z" transform="translate(-20.455 47.981)" fill="#263238"/>
      <path id="Path_792" data-name="Path 792" d="M172.12,356.3l13.762,28.795,4.235,25.929a3.261,3.261,0,0,0,3.98,2.64h0a3.233,3.233,0,0,0,2.273-1.948c2.527-6.253,11.7-29.317,10.586-31.378C205.714,377.964,194.535,349,194.535,349Z" transform="translate(-26.808 56.082)" fill="#263e72"/>
      <path id="Path_793" data-name="Path 793" d="M187.74,405.1l11.97-35.288.55,1.242a4.912,4.912,0,0,1,.254,3.388c-.875,2.992-3.472,11.292-10.417,28.682a3.247,3.247,0,0,1-2.357,1.976Z" transform="translate(-20.38 64.646)" fill="#fff" opacity="0.6"/>
      <g id="Group_51" data-name="Group 51" transform="translate(168.875 426.87)" opacity="0.6">
        <path id="Path_794" data-name="Path 794" d="M189.077,365.317a1.962,1.962,0,0,0,.565,2.583,1.891,1.891,0,0,0,2.555-.536,2.1,2.1,0,0,0-.607-2.738,2,2,0,0,0-2.611.861" transform="translate(-188.813 -364.436)" fill="#fff"/>
      </g>
      <path id="Path_795" data-name="Path 795" d="M190.5,384.212a9.98,9.98,0,0,0-3.571-1.115,10.249,10.249,0,0,0-3.642.861,2.279,2.279,0,0,1,.847-.847,5.166,5.166,0,0,1,2.823-.72,5.011,5.011,0,0,1,2.823.918C190.319,383.746,190.559,384.155,190.5,384.212Z" transform="translate(-22.211 69.821)" fill="#263238"/>
      <path id="Path_796" data-name="Path 796" d="M189.964,387.338c-.085.2-1.411-.325-3.134-.085s-2.823,1.073-3.021.9a4.63,4.63,0,0,1,6.154-.819Z" transform="translate(-21.997 71.523)" fill="#263238"/>
      <path id="Path_797" data-name="Path 797" d="M192.342,379.266a31.87,31.87,0,0,0-4.841-.466,35.363,35.363,0,0,0-4.771.931,7.312,7.312,0,0,1,4.743-1.637,7.227,7.227,0,0,1,4.87,1.172Z" transform="translate(-22.442 68.034)" fill="#263238"/>
      <path id="Path_798" data-name="Path 798" d="M189.355,372.511c0,.212-1.906.268-4.037,1.129s-3.557,2.117-3.7,1.962a6.211,6.211,0,0,1,3.444-2.611,6.338,6.338,0,0,1,4.291-.48Z" transform="translate(-22.898 65.685)" fill="#263238"/>
      <path id="Path_799" data-name="Path 799" d="M186.627,366.487a15.864,15.864,0,0,0-4.235,1.059,15.531,15.531,0,0,0-3.416,2.71c-.085,0,.071-.551.565-1.242a7.058,7.058,0,0,1,5.759-2.823C186.147,366.2,186.641,366.4,186.627,366.487Z" transform="translate(-23.995 63.156)" fill="#263238"/>
      <path id="Path_800" data-name="Path 800" d="M182.766,368.058a2.6,2.6,0,0,1-.536-1.087,8.47,8.47,0,0,1-.423-3.275,3.67,3.67,0,0,1,.734-2.272,1.285,1.285,0,0,1,1.412-.339,2.173,2.173,0,0,1,1.059,1.1,4.63,4.63,0,0,1-1.948,5.561,5.35,5.35,0,0,1-5.957-.4,1.793,1.793,0,0,1-.706-1.412,1.284,1.284,0,0,1,.946-1.186,4.658,4.658,0,0,1,2.371.141,9.159,9.159,0,0,1,2.992,1.411c.649.452.932.776.9.8a15.229,15.229,0,0,0-4.009-1.694,4.489,4.489,0,0,0-2.075-.071.706.706,0,0,0-.522.635,1.327,1.327,0,0,0,.522.889,4.785,4.785,0,0,0,5.166.282,4.023,4.023,0,0,0,1.722-4.7,1.609,1.609,0,0,0-.706-.8.706.706,0,0,0-.819.184,3.43,3.43,0,0,0-.649,1.906,12.62,12.62,0,0,0,.522,4.319Z" transform="translate(-25.046 61.02)" fill="#263238"/>
      <path id="Path_801" data-name="Path 801" d="M243.927,367.719l-37.7-25.407L218.7,219.794l-35.711-20.848-32.648-7.566s-13.635,28.371-19.761,46.58c-12.9,38.619-21.949,52.466-19.888,80.456.663,8.864,33.382,31.053,54.047,43.347a64.653,64.653,0,0,0,1.1,7.34c7.058,31.914,28.611,74.372,28.611,74.372l32.761-15.23-10.572-36.191,11.01,6.422Zm-81.035-79.044,4.4-19.634c-.932,12.478-1.778,25.506-2.385,38a38.789,38.789,0,0,1-2.089-18.307Z" transform="translate(-52.205 -8.78)" fill="#263238"/>
      <path id="Path_802" data-name="Path 802" d="M179.212,433.244a2.566,2.566,0,0,1-.254-.508c-.155-.381-.381-.889-.678-1.553l-2.527-5.971c-2.174-5.194-5.293-12.7-9.048-22.09s-8.159-20.509-12.7-33.072c-1.115-3.134-2.2-6.38-3.232-9.711-.452-1.694-1.03-3.374-1.327-5.152-.085-.452-.184-.889-.254-1.341l-.155-1.327c-.1-.9-.2-1.793-.311-2.7q-.565-5.42-.932-11.024c-.113-1.877-.226-3.769-.3-5.646a48.749,48.749,0,0,1,0-5.745c.55-15.4,1.849-29.994,2.908-43.277s2.117-25.21,2.95-35.288,1.411-18.18,1.708-23.8c.169-2.823.268-5,.339-6.479a8.165,8.165,0,0,1,.1-1.694c.1-.423,0-.565,0-.565a2.613,2.613,0,0,1,0,.579c0,.409,0,.96,0,1.68,0,1.411-.071,3.67-.212,6.493-.24,5.646-.734,13.762-1.412,23.812s-1.736,22.02-2.823,35.288-2.3,27.891-2.823,43.234c-.113,1.92,0,3.8,0,5.646s.169,3.769.282,5.646q.353,5.646.932,11.01l.3,2.682.155,1.327c.071.438.169.875.254,1.3.268,1.722.847,3.4,1.284,5.081,1.016,3.331,2.1,6.564,3.2,9.7,4.432,12.548,8.822,23.727,12.492,33.1l8.836,22.175,2.4,6.013.621,1.581a2.444,2.444,0,0,1,.226.593Z" transform="translate(-36.977 1.479)" fill="#455a64"/>
      <path id="Path_803" data-name="Path 803" d="M153.273,221.193a3.866,3.866,0,0,1-.861-.706,9.1,9.1,0,0,1-1.6-2.555,27.877,27.877,0,0,1-1.6-9.725,81.958,81.958,0,0,1,.466-9.81,22.782,22.782,0,0,1,.565-4.037,23.869,23.869,0,0,1,0,4.065c-.127,2.512-.339,5.957-.268,9.768a31.576,31.576,0,0,0,1.412,9.556,10.77,10.77,0,0,0,1.341,2.569C153.146,220.84,153.3,221.15,153.273,221.193Z" transform="translate(-36.233 -7.553)" fill="#455a64"/>
      <path id="Path_804" data-name="Path 804" d="M145.606,192.71a8.088,8.088,0,0,1,.282,3.43,15.767,15.767,0,0,1-9.005,13.226,8.314,8.314,0,0,1-3.3.988c0-.113,1.242-.438,3.077-1.411a16.7,16.7,0,0,0,8.737-12.845C145.648,194.023,145.465,192.724,145.606,192.71Z" transform="translate(-42.667 -8.232)" fill="#455a64"/>
      <path id="Path_805" data-name="Path 805" d="M186.174,243.17a1.214,1.214,0,0,1,0,.367,4.772,4.772,0,0,1-.1,1.1c-.1,1-.24,2.4-.409,4.235-.409,3.684-.974,8.921-1.68,15.371-1.411,13.014-3.5,30.912-5.745,50.673a92.383,92.383,0,0,0,1.863,27.821,95.8,95.8,0,0,0,3.416,11.716c1.27,3.628,2.442,7.057,3.529,10.078,2.117,6.126,3.853,11.109,5.067,14.609.565,1.694,1.016,3.021,1.341,3.98l.325,1.044a1.863,1.863,0,0,1,.1.367,1.214,1.214,0,0,1-.085-.452l-.409-1.016-1.412-3.938c-1.256-3.486-3.063-8.469-5.265-14.539-1.115-3.077-2.315-6.436-3.613-10.05a95.827,95.827,0,0,1-3.5-11.772,91.747,91.747,0,0,1-1.92-28.018c2.2-19.761,4.39-37.7,5.942-50.673.79-6.436,1.412-11.659,1.891-15.343.24-1.764.423-3.162.55-4.235l.169-1.087A.317.317,0,0,1,186.174,243.17Z" transform="translate(-24.658 12.532)" fill="#455a64"/>
      <path id="Path_806" data-name="Path 806" d="M138.65,195.544l5.787-14.764,13.183,19.676-17.587-4.4" transform="translate(-40.581 -13.142)" fill="#ffbe9d"/>
      <path id="Path_807" data-name="Path 807" d="M280.117,179.959l-15.654-35.1c-1.877-5.646-5.392-6.521-8.328-9.8L216.9,112.926c-28.583-11.716-44.152,27.567-44.152,27.567l-25.986,59.283c-30.559,10.135-8.921,33.594-8.921,33.594s-8.314-14.44-.141-19.662c8.568-5.448,18.053,8.921,27.172,22.584,10.77,16.134,45.747,26.607,45.747,26.607,4.079-4.333,2.936-19.422,6.14-27.51,1.016-2.569,25.238-58.676,25.238-58.676l9.386,22.753s12.04-14.115,17.87-16.359a65.9,65.9,0,0,1,10.869-3.148Z" transform="translate(-43.974 -41.962)" fill="#263e72"/>
      <path id="Path_808" data-name="Path 808" d="M196.946,178.949a5.168,5.168,0,0,1-1.2.833,22.581,22.581,0,0,1-3.557,1.694,25.619,25.619,0,0,1-24.786-3.825,22.908,22.908,0,0,1-2.894-2.7,5.167,5.167,0,0,1-.889-1.143c.1-.1,1.411,1.5,4.079,3.444a26.621,26.621,0,0,0,24.32,3.755C195.21,179.951,196.875,178.836,196.946,178.949Z" transform="translate(-30.305 -16.011)" fill="#263238"/>
      <path id="Path_809" data-name="Path 809" d="M141.289,149.493h0L165.5,151.78l38.732-40.934-22.782-.776-40.567,3.995a104.987,104.987,0,0,1,.409,35.429Z" transform="translate(-39.663 -42.239)" fill="#263e72"/>
      <path id="Path_810" data-name="Path 810" d="M174.465,122.73a3.218,3.218,0,0,1-.3.748l-.974,2.089-3.585,7.679c-3.021,6.479-7.058,15.527-11.292,25.534s-8.271,19.1-11.292,25.6c-1.482,3.261-2.71,5.886-3.6,7.679-.409.847-.748,1.524-1.016,2.061a3.2,3.2,0,0,1-.409.706,3.742,3.742,0,0,1,.282-.762c.226-.55.536-1.256.9-2.117.833-1.92,1.976-4.545,3.388-7.763l11.052-25.675c4.333-10.022,8.4-19.041,11.532-25.478,1.553-3.218,2.823-5.815,3.8-7.58l1.087-2.033A2.892,2.892,0,0,1,174.465,122.73Z" transform="translate(-39.202 -37.029)" fill="#263238"/>
      <path id="Path_811" data-name="Path 811" d="M221.114,131.17c0,.113-1.411.889-3.486,2.64a26.154,26.154,0,0,0-3.275,3.388,28.3,28.3,0,0,0-3.063,4.856,28.906,28.906,0,0,0-1.92,5.434,24.535,24.535,0,0,0-.621,4.658c-.113,2.682.212,4.347,0,4.376a4.867,4.867,0,0,1-.3-1.157,9.739,9.739,0,0,1-.184-1.412,14.474,14.474,0,0,1-.1-1.849,23.826,23.826,0,0,1,.494-4.785,27.088,27.088,0,0,1,1.92-5.646,26.65,26.65,0,0,1,3.2-4.969,22.37,22.37,0,0,1,3.458-3.359,13.312,13.312,0,0,1,1.51-1.073,8.169,8.169,0,0,1,1.2-.706A3.7,3.7,0,0,1,221.114,131.17Z" transform="translate(-11.973 -33.556)" fill="#263238"/>
      <path id="Path_812" data-name="Path 812" d="M237.21,102.437l-22.768,42.458a14.99,14.99,0,0,1-19.324,6.606h0a14.976,14.976,0,0,1-7.058-20.664c2.131-4.051,3.91-7.354,3.91-7.354s-9.881-6.408-5.251-17.079c4.122-9.514,19.239-36.375,22.457-42.063l19.14,8.568a21.5,21.5,0,0,1,8.892,29.529Z" transform="translate(-21.308 -61.057)" fill="#ffbe9d"/>
      <path id="Path_813" data-name="Path 813" d="M190.507,106.12a26.946,26.946,0,0,0,15.527,2.258s-6.691,6.182-16.853.48Z" transform="translate(-19.787 -43.865)" fill="#eb996e"/>
      <path id="Path_814" data-name="Path 814" d="M195.335,82.333a1.637,1.637,0,0,0,.776,2.174,1.581,1.581,0,0,0,2.174-.663,1.68,1.68,0,0,0-.776-2.188,1.595,1.595,0,0,0-2.174.678Z" transform="translate(-17.318 -54.01)" fill="#263238"/>
      <path id="Path_815" data-name="Path 815" d="M195.352,81.315c.1.282,1.623,0,3.246.678s2.47,2.089,2.738,1.962.085-.494-.268-1.1a4.517,4.517,0,0,0-2.061-1.821,4.446,4.446,0,0,0-2.71-.3C195.62,80.906,195.3,81.146,195.352,81.315Z" transform="translate(-17.25 -54.347)" fill="#263238"/>
      <path id="Path_816" data-name="Path 816" d="M206.132,87.64a1.68,1.68,0,0,0,.79,2.188,1.6,1.6,0,0,0,2.174-.663,1.68,1.68,0,0,0-.776-2.188,1.609,1.609,0,0,0-2.188.663Z" transform="translate(-12.871 -51.822)" fill="#263238"/>
      <path id="Path_817" data-name="Path 817" d="M206.612,86.615c.1.282,1.623,0,3.246.678s2.47,2.075,2.724,1.962.1-.494-.254-1.1a4.517,4.517,0,0,0-2.061-1.821,4.446,4.446,0,0,0-2.71-.3C206.88,86.206,206.555,86.474,206.612,86.615Z" transform="translate(-12.617 -52.166)" fill="#263238"/>
      <path id="Path_818" data-name="Path 818" d="M199.683,96.974a11.293,11.293,0,0,0-2.428-1.666c-.409-.226-.762-.494-.706-.8a2.385,2.385,0,0,1,.833-1.115l2.654-2.611a62.68,62.68,0,0,0,6.479-7.058,58.214,58.214,0,0,0-7.058,6.521c-.917.917-1.778,1.807-2.611,2.654a2.7,2.7,0,0,0-.946,1.539,1.129,1.129,0,0,0,.409.917,2.923,2.923,0,0,0,.663.409A12.054,12.054,0,0,0,199.683,96.974Z" transform="translate(-17.022 -53.082)" fill="#263238"/>
      <path id="Path_819" data-name="Path 819" d="M203.7,95.432c-.254-.141-1.045,1.637-3.134,2.216s-3.868-.466-3.995-.226.268.536,1.059.917a4.87,4.87,0,0,0,3.289.282,4.235,4.235,0,0,0,2.513-1.905C203.832,96,203.832,95.475,203.7,95.432Z" transform="translate(-16.753 -48.266)" fill="#263238"/>
      <path id="Path_820" data-name="Path 820" d="M208.33,81.884c0,.508,1.694,1.03,3.5,2.117s3.119,2.3,3.557,2.018c.2-.141.113-.678-.311-1.412a7.057,7.057,0,0,0-2.329-2.188,6.86,6.86,0,0,0-3.049-.96C208.866,81.446,208.358,81.63,208.33,81.884Z" transform="translate(-11.907 -54.013)" fill="#263238"/>
      <path id="Path_821" data-name="Path 821" d="M197.271,78.235c.113.494,1.412.607,2.823,1.2s2.385,1.412,2.823,1.087c.2-.127.184-.579-.155-1.157a4.39,4.39,0,0,0-4.5-1.849C197.553,77.642,197.229,77.953,197.271,78.235Z" transform="translate(-16.459 -55.671)" fill="#263238"/>
      <path id="Path_822" data-name="Path 822" d="M218.556,95.84c.212,0,8.257,1.115,4.785,8.257s-9.951,2.188-9.881,1.976S218.556,95.84,218.556,95.84Z" transform="translate(-9.796 -48.095)" fill="#ffbe9d"/>
      <path id="Path_823" data-name="Path 823" d="M216.022,103.407a2.834,2.834,0,0,0,.24.353,1.411,1.411,0,0,0,.917.466A3.416,3.416,0,0,0,220,102.165a4.714,4.714,0,0,0,.508-1.962,1.581,1.581,0,0,0-.466-1.412.72.72,0,0,0-.9,0c-.184.155-.212.325-.254.311s-.1-.2.1-.466a.9.9,0,0,1,.508-.311,1.059,1.059,0,0,1,.776.155,2,2,0,0,1,.762,1.75,4.954,4.954,0,0,1-.536,2.2,3.628,3.628,0,0,1-3.331,2.2,1.411,1.411,0,0,1-1.044-.748C215.894,103.59,215.923,103.407,216.022,103.407Z" transform="translate(-8.772 -47.08)" fill="#eb996e"/>
      <path id="Path_824" data-name="Path 824" d="M226.6,109.067a4.15,4.15,0,0,0-4.234.226c-.946.819-1.567,1.948-2.5,2.823a2.823,2.823,0,0,1-3.416.522,2.442,2.442,0,0,1-.762-2.329,6.648,6.648,0,0,1,1.016-2.343c1.948-3.2,4.164-6.239,5.83-9.6a19.027,19.027,0,0,0,2.273-10.812,10.431,10.431,0,0,0-6.352-8.568c-2.343-.833-4.926-.579-7.312-1.27a9.711,9.711,0,0,1-6.267-5.759,16.3,16.3,0,0,0-.932-1.6c.085-.183.917-1.623,1.764-1.906,6.281-2.117,14.807.311,20.015,4.418a23.233,23.233,0,0,1,8.921,17.347c.071,6.62-4.107,13.946-7.989,18.886" transform="translate(-13.709 -59.684)" fill="#263238"/>
      <path id="Path_825" data-name="Path 825" d="M228.563,110.606c1.976-3.374,5.208-5.83,7.664-8.878s4.15-7.34,2.4-10.854c-.593-1.2-1.553-2.2-2.061-3.444a17.545,17.545,0,0,1-.692-3.966,13.847,13.847,0,0,0-6.832-9.881c-2.513-1.411-5.42-1.976-7.961-3.3-4.037-2.131-6.987-6.055-11.221-7.735a5.42,5.42,0,0,0-4.39-.127,2.625,2.625,0,0,0-1.087,3.8,2.3,2.3,0,0,0-3.176-1.539,3.486,3.486,0,0,0-1.793,3.4,7.65,7.65,0,0,0,1.538,3.741A18.985,18.985,0,0,0,211.822,79.3l9.739-.762,7.989,5.914,5.985,9.372-10.713,13.932Z" transform="translate(-15.583 -62.014)" fill="#263238"/>
    </g>
    <g id="Light_Bulb" data-name="Light Bulb" transform="translate(180.907 48.377)">
      <path id="Path_826" data-name="Path 826" d="M196.916,66.477a34.413,34.413,0,1,0-46.961,34.229c.254,4.079.55,8.667.55,8.667l30.107-1.948s-.141-4.87-.353-9.217A34.37,34.37,0,0,0,196.916,66.477Z" transform="translate(-128.157 -34.278)" fill="#263e72"/>
      <path id="Path_827" data-name="Path 827" d="M164.825,97.833V97.41a9.072,9.072,0,0,1,.071-1.256c0-1.087.141-2.71.325-4.785s.409-4.63.875-7.552a50.915,50.915,0,0,1,2.5-9.754,32.254,32.254,0,0,1,2.442-5.321,6.394,6.394,0,0,1,2.2-2.273,3.571,3.571,0,0,1,3.275-.1,2.329,2.329,0,0,1,1.172,1.285,2.414,2.414,0,0,1,0,1.778,4.926,4.926,0,0,1-2.414,2.456,9.443,9.443,0,0,1-12.393-5.463,7.227,7.227,0,0,1-.466-3.952,3.091,3.091,0,0,1,2.964-2.583,2.287,2.287,0,0,1,1.835,1.1,3.133,3.133,0,0,1,.409,2.1,6.7,6.7,0,0,1-2.23,3.557,10.3,10.3,0,0,1-7.862,2.823,8.977,8.977,0,0,1-6.959-4.531,5.124,5.124,0,0,1-.494-4.136,2.654,2.654,0,0,1,1.411-1.623,2.611,2.611,0,0,1,2.131,0A3.585,3.585,0,0,1,155.17,60.6a5.773,5.773,0,0,1,.649,1.948,10.12,10.12,0,0,1-.268,3.966,10.233,10.233,0,0,1-11.518,7.5,5.321,5.321,0,0,1-3.19-1.411,2.654,2.654,0,0,1-.409-3.289,2.272,2.272,0,0,1,1.5-.861,3.275,3.275,0,0,1,1.651.226,4.982,4.982,0,0,1,2.258,2.216c.988,1.807,1.793,3.571,2.611,5.251,3.19,6.747,5.5,12.322,7.058,16.19.776,1.934,1.412,3.444,1.75,4.474.183.494.325.889.438,1.172l.127.4a3.407,3.407,0,0,1-.169-.381c-.113-.282-.268-.663-.48-1.157l-1.821-4.446c-1.609-3.839-3.966-9.4-7.185-16.119-.819-1.666-1.651-3.444-2.625-5.208a4.545,4.545,0,0,0-2.1-2.075,2.061,2.061,0,0,0-2.357,3.374,5.1,5.1,0,0,0,2.992,1.313,10.05,10.05,0,0,0,6.789-1.412,9.88,9.88,0,0,0,4.235-5.844,9.542,9.542,0,0,0,.254-3.8,3.712,3.712,0,0,0-1.962-3.035,2.075,2.075,0,0,0-2.964,1.313,4.771,4.771,0,0,0,.466,3.811,8.469,8.469,0,0,0,6.634,4.235,9.88,9.88,0,0,0,7.523-2.724,6.451,6.451,0,0,0,2.075-3.331,2.738,2.738,0,0,0-.353-1.821,1.863,1.863,0,0,0-1.5-.9,2.456,2.456,0,0,0-1.666.663,2.823,2.823,0,0,0-.875,1.609,6.846,6.846,0,0,0,.423,3.712,9.147,9.147,0,0,0,5.053,5.336,8.963,8.963,0,0,0,6.86,0,4.517,4.517,0,0,0,2.329-2.244,2.047,2.047,0,0,0-.96-2.625,3.2,3.2,0,0,0-2.95.1A5.858,5.858,0,0,0,171.36,68.9a33.358,33.358,0,0,0-2.484,5.251,50.262,50.262,0,0,0-2.541,9.7c-.494,2.908-.762,5.448-.96,7.523s-.311,3.67-.4,4.785l-.113,1.242A3.231,3.231,0,0,1,164.825,97.833Z" transform="translate(-123.267 -24.121)" fill="#263238"/>
      <path id="Path_828" data-name="Path 828" d="M172.067,91.293l-25.845,1.666a1.948,1.948,0,0,1-2.061-1.821h0a1.948,1.948,0,0,1,1.821-2.061l25.831-1.666a1.948,1.948,0,0,1,2.075,1.807h0a1.962,1.962,0,0,1-1.821,2.075Z" transform="translate(-121.573 -12.415)" fill="#263238"/>
      <path id="Path_829" data-name="Path 829" d="M172.031,91.361,146.2,93.027a1.948,1.948,0,0,0,.254,3.882l2.823-.183,4.235,6.916a2.484,2.484,0,0,0,2.3,1.186l9.231-.593a2.5,2.5,0,0,0,2.131-1.5l3.19-7.382,1.934-.127a1.938,1.938,0,0,0-.254-3.868Z" transform="translate(-121.438 -10.789)" fill="#263238"/>
      <g id="Group_52" data-name="Group 52" transform="translate(3.789 6.945)" opacity="0.2">
        <path id="Path_830" data-name="Path 830" d="M138,46.216a25.279,25.279,0,0,1,6.578-5.011,18.237,18.237,0,0,1,5.194-1.877c1.3-.226,2.047-.141,2.117.127.2.607-2.343,1.708-5.646,4.235a28.23,28.23,0,0,0-11.08,28.555c.748,4.235,1.891,6.691,1.327,7.058-.24.141-.847-.311-1.651-1.412a18.773,18.773,0,0,1-2.569-4.884,25.407,25.407,0,0,1-1.411-8.144,26.819,26.819,0,0,1,1.623-10.008" transform="translate(-130.842 -39.198)" fill="#fff"/>
      </g>
      <g id="Group_53" data-name="Group 53" transform="translate(28.731 3.907)" opacity="0.2">
        <path id="Path_831" data-name="Path 831" d="M152.97,41.286c-2.174.113-4.136-.353-4.432-1.5-.127-.565.226-1.2.988-1.722a6.324,6.324,0,0,1,3.19-1,6.408,6.408,0,0,1,3.3.621c.8.423,1.242,1.016,1.186,1.6" transform="translate(-148.512 -37.046)" fill="#fff"/>
      </g>
      <path id="Path_832" data-name="Path 832" d="M163.787,100.212a16.737,16.737,0,0,1-1.807-.423,14.567,14.567,0,0,0-4.418-.268,14.228,14.228,0,0,0-4.234,1.087c-1.059.438-1.666.819-1.708.762a5.646,5.646,0,0,1,1.581-1.045,12.7,12.7,0,0,1,4.376-1.228,12.478,12.478,0,0,1,4.531.4,5.449,5.449,0,0,1,1.68.72Z" transform="translate(-118.502 -7.628)" fill="#455a64"/>
      <path id="Path_833" data-name="Path 833" d="M168.942,94.259c0,.127-4.658.522-10.417.889s-10.445.579-10.445.466,4.658-.522,10.417-.889S168.942,94.146,168.942,94.259Z" transform="translate(-119.959 -9.607)" fill="#455a64"/>
      <path id="Path_834" data-name="Path 834" d="M166.938,96.5a14.455,14.455,0,0,1-2.527.423c-1.567.2-3.74.423-6.154.621s-4.587.3-6.168.353a15.034,15.034,0,0,1-2.569,0,16.8,16.8,0,0,1,2.555-.282l6.154-.466,6.14-.494A16.471,16.471,0,0,1,166.938,96.5Z" transform="translate(-119.366 -8.673)" fill="#455a64"/>
    </g>
    <g id="Book" transform="translate(-0.03 211.113)">
      <path id="Path_835" data-name="Path 835" d="M30,222.847l5.646,8.991s24-22.034,47.695-15.809C83.327,215.987,61.985,197.892,30,222.847Z" transform="translate(12.388 -124.846)" fill="#263e72"/>
      <path id="Path_836" data-name="Path 836" d="M67.78,220.345s17.573-19.084,43.333-14.722l7.058,1.059-2.244-4.065S71.083,187.273,67.78,220.345Z" transform="translate(27.934 -129.204)" fill="#263e72"/>
      <path id="Path_837" data-name="Path 837" d="M58.491,168.988s-35.2-6.055-58.281,6.436l36.7,69.009s30.009-28.922,58.719-11.109Z" transform="translate(0.129 -142.183)" fill="#f5f5f5"/>
      <path id="Path_838" data-name="Path 838" d="M58.59,169.053a1.313,1.313,0,0,1,.183.282c.141.212.311.494.536.861l2.018,3.43L68.964,186.7l27.03,46.5a.31.31,0,0,1-.113.423.339.339,0,0,1-.325,0,38.872,38.872,0,0,0-13.494-5.18,41.118,41.118,0,0,0-7.608-.522,46.115,46.115,0,0,0-7.792.974,66.948,66.948,0,0,0-29.119,15.527l-.3.282a.339.339,0,0,1-.494,0v-.085L.012,175.617a.268.268,0,0,1,.1-.381h0a70.647,70.647,0,0,1,23.516-6.973,115.889,115.889,0,0,1,18.773-.819c5.194.169,9.259.593,12,.932,1.412.155,2.428.325,3.134.438l.79.141.268.071h-.282l-.79-.1-3.134-.353c-2.823-.282-6.8-.649-11.984-.776a121.871,121.871,0,0,0-18.717.946A70.913,70.913,0,0,0,.436,175.729l.127-.409,36.7,68.994-.565-.085.325-.3a74.313,74.313,0,0,1,14.03-9.881,58.578,58.578,0,0,1,15.414-5.844,47.625,47.625,0,0,1,7.919-.988,42.5,42.5,0,0,1,7.735.551,39.268,39.268,0,0,1,13.72,5.42l-.423.409c-11-19.168-20.213-35.288-26.692-46.58l-7.509-13.183-1.92-3.557-.508-.917Z" transform="translate(0.03 -142.248)" fill="#263238"/>
      <path id="Path_839" data-name="Path 839" d="M96.7,159.864S70.078,142.926,41.82,173.979l37.094,64.393s7.566-26.113,51.859-17.023Z" transform="translate(17.252 -147.231)" fill="#f5f5f5"/>
      <path id="Path_840" data-name="Path 840" d="M96.79,159.91a2.536,2.536,0,0,1,.184.268l.48.833,1.863,3.275,7.058,12.478,24.715,44.519a.311.311,0,0,1-.325.452h0l-6.592-1.087a30.192,30.192,0,0,0-3.4-.381L117.285,220a24.462,24.462,0,0,0-3.529-.085h-3.585c-1.214,0-2.414.24-3.628.353a26.686,26.686,0,0,0-3.642.55l-3.642.833L95.7,222.891c-1.186.409-2.287,1.073-3.444,1.6a9.8,9.8,0,0,0-1.666.96l-1.623,1.03c-1.073.72-2.033,1.595-3.035,2.414a34.232,34.232,0,0,0-2.682,2.823,22.655,22.655,0,0,0-3.938,6.775h0a.353.353,0,0,1-.438.226.367.367,0,0,1-.2-.155l-1.411-2.6L41.656,174.222a.282.282,0,0,1,0-.339,62.106,62.106,0,0,1,20.128-15.117,40.114,40.114,0,0,1,18.957-3.557,38.462,38.462,0,0,1,12.125,2.724,27.052,27.052,0,0,1,2.964,1.412l.734.423.226.155a.46.46,0,0,1-.254-.127,7.04,7.04,0,0,0-.748-.381c-.663-.325-1.651-.79-2.992-1.3a38.831,38.831,0,0,0-12.068-2.541,39.86,39.86,0,0,0-18.8,3.6,62.106,62.106,0,0,0-19.761,15.1v-.353l35.655,61.725,1.412,2.6H78.6a23.05,23.05,0,0,1,4.079-7.058,33.7,33.7,0,0,1,2.809-2.851c1.03-.833,2.018-1.722,3.119-2.456l1.651-1.059a10.248,10.248,0,0,1,1.708-.974,37.563,37.563,0,0,1,3.515-1.623l3.628-1.27,3.755-.8a27.3,27.3,0,0,1,3.684-.55c1.242-.113,2.456-.325,3.67-.353h3.628a27.3,27.3,0,0,1,3.571.1l3.5.282a27.417,27.417,0,0,1,3.43.4l6.634,1.1-.339.452L106.049,177c-2.936-5.392-5.265-9.641-6.874-12.577l-1.793-3.345c-.183-.367-.339-.649-.452-.861a2.188,2.188,0,0,1-.141-.311Z" transform="translate(17.161 -147.277)" fill="#263238"/>
      <path id="Path_841" data-name="Path 841" d="M7.23,149.61l39.692,76.433s32.267-1.411,45.93,14.313l-36.8-64S34.486,149.61,7.23,149.61Z" transform="translate(3.018 -149.554)" fill="#f5f5f5"/>
      <path id="Path_842" data-name="Path 842" d="M7.23,149.626h1l3.063.127a5.627,5.627,0,0,1,1.073.071l1.157.183,2.654.438a26.309,26.309,0,0,1,3.049.734c1.059.325,2.23.536,3.4,1,9.485,3.162,22.2,10.812,33.65,24h0l36.84,63.969a.353.353,0,0,1-.127.48.381.381,0,0,1-.423,0h0L91.017,239.1a33.635,33.635,0,0,0-10.149-6.719,58.789,58.789,0,0,0-11.292-3.726,94.965,94.965,0,0,0-22.584-2.23h0a.311.311,0,0,1-.3-.169L18.2,171.011l-8.13-15.781L7.936,151,7.4,149.923a1.567,1.567,0,0,1-.169-.353,1.99,1.99,0,0,1,.212.381l.593,1.1c.522.974,1.256,2.4,2.23,4.235,1.934,3.7,4.757,9.048,8.286,15.795,7.058,13.48,17.023,32.465,28.668,54.781l-.311-.169a94.91,94.91,0,0,1,22.754,2.216,58.759,58.759,0,0,1,11.49,3.755,34.116,34.116,0,0,1,10.36,6.846c.55.55,1.1,1.087,1.595,1.595l-.565.4-36.7-64.026h0a92.934,92.934,0,0,0-17.376-15.71,66.85,66.85,0,0,0-15.936-8.314c-1.157-.466-2.315-.692-3.374-1.03a22.923,22.923,0,0,0-3.007-.762l-2.64-.48-1.157-.212-1.03-.085Z" transform="translate(3.018 -149.57)" fill="#263238"/>
    </g>
    <g id="Stars" transform="translate(49.994 98.8)">
      <path id="Path_843" data-name="Path 843" d="M96.7,303.19l.847,1.411a9.712,9.712,0,0,0,4.009,3.684l1.482.734-1.412.861a9.57,9.57,0,0,0-3.7,4.009l-.734,1.482-.847-1.411a9.8,9.8,0,0,0-4.009-3.684l-1.482-.734,1.412-.861a9.655,9.655,0,0,0,3.7-4.009Z" transform="translate(-12.592 25.959)" fill="#263e72"/>
      <path id="Path_844" data-name="Path 844" d="M41.282,96.93l.861,1.412a9.655,9.655,0,0,0,3.98,3.7l1.411.734-1.412.847a9.641,9.641,0,0,0-3.7,4.009l-.734,1.412-.861-1.412a9.57,9.57,0,0,0-4.009-3.7L35.41,103.2l1.412-.847a9.8,9.8,0,0,0,3.726-3.91Z" transform="translate(-35.41 -58.918)" fill="#263e72"/>
      <path id="Path_845" data-name="Path 845" d="M297.872,132.51l.847,1.411a9.8,9.8,0,0,0,4.009,3.684l1.412.734-1.411.861a9.739,9.739,0,0,0-3.67,4.023l-.734,1.482-.847-1.412a9.641,9.641,0,0,0-4.009-3.7L292,138.848l1.411-.847a9.683,9.683,0,0,0,3.7-4.023Z" transform="translate(70.178 -44.277)" fill="#263e72"/>
      <path id="Path_846" data-name="Path 846" d="M267.543,316.15l.847,1.411a9.881,9.881,0,0,0,4.009,3.7l1.482.734-1.412.847a9.739,9.739,0,0,0-3.7,4.009l-.734,1.411-.847-1.411a9.641,9.641,0,0,0-4.009-3.7l-1.411-.734,1.411-.847a9.74,9.74,0,0,0,3.7-4.009Z" transform="translate(57.739 31.292)" fill="#263e72"/>
      <path id="Path_847" data-name="Path 847" d="M271.692,354.74l.409.155a2.5,2.5,0,0,0,1.412.141l.423-.085-.155.409a2.554,2.554,0,0,0-.141,1.412l.085.423-.409-.155a2.555,2.555,0,0,0-1.411-.141l-.423.071.155-.4a2.555,2.555,0,0,0,.141-1.412Z" transform="translate(61.734 47.172)" fill="#263e72"/>
      <path id="Path_848" data-name="Path 848" d="M289.14,93.8l.409.169a2.555,2.555,0,0,0,1.411.141l.423-.085-.169.409a2.653,2.653,0,0,0-.141,1.411l.085.438-.409-.169a2.64,2.64,0,0,0-1.412-.141l-.438.085.169-.409a2.512,2.512,0,0,0,.141-1.412Z" transform="translate(68.903 -60.206)" fill="#263e72"/>
      <path id="Path_849" data-name="Path 849" d="M50.916,70l.409.169a2.639,2.639,0,0,0,1.411.141l.438-.085L53,70.635a2.512,2.512,0,0,0-.141,1.412l.085.438-.409-.169a2.654,2.654,0,0,0-1.412-.141l-.438.085.169-.409A2.654,2.654,0,0,0,51,70.438Z" transform="translate(-29.122 -70)" fill="#263e72"/>
      <path id="Path_850" data-name="Path 850" d="M80.316,273.15l.409.169a2.639,2.639,0,0,0,1.412.141l.438-.085-.169.409a2.64,2.64,0,0,0-.141,1.412l.085.438-.409-.169a2.639,2.639,0,0,0-1.411-.141l-.438.085.169-.409a2.639,2.639,0,0,0,.141-1.411Z" transform="translate(-17.024 13.597)" fill="#263e72"/>
      <path id="Path_851" data-name="Path 851" d="M136.81,351.68a3.42,3.42,0,0,1-.381.409l-1.172,1.172-4.559,4.517L113.76,374.095v-.169c.8,17.714,1.891,41.781,3.119,68.557v.607l-.508-.339-6.112-4.079L71.627,412.657h0v-.085l-14.2-42.091c-1.694-5.11-3.021-9.161-3.952-11.955l-1.03-3.162c-.1-.353-.183-.621-.24-.819l-.085-.282a.572.572,0,0,0,.127.268,3.7,3.7,0,0,1,.282.8c.268.734.635,1.793,1.115,3.134l4.093,11.9c3.5,10.262,8.469,24.8,14.313,42.035l-.113-.141,38.774,25.873,6.112,4.093-.48.268c-1.143-26.819-2.174-50.814-2.936-68.571v-.1h0l17.051-16.19,4.644-4.347,1.214-1.129Z" transform="translate(-28.534 45.913)" fill="#263e72"/>
      <path id="Path_852" data-name="Path 852" d="M101.753,410.25l-.127,3.995,3.218,2.371-3.839,1.115-1.256,3.8L97.5,418.211,93.51,418.2l2.442-3.162-1.214-3.811,3.769,1.355Z" transform="translate(-11.501 70.015)" fill="#263e72"/>
      <path id="Path_853" data-name="Path 853" d="M67.751,391.03l.071,2.6,2.174,1.4-2.428.875-.663,2.5-1.581-2.047-2.583.141,1.454-2.131-.932-2.414,2.484.72Z" transform="translate(-24.164 62.106)" fill="#263e72"/>
      <path id="Path_854" data-name="Path 854" d="M53.157,350.11l1.948,2.5,3.176-.184L56.5,355.05l1.157,2.964-3.063-.889-2.456,2.018-.1-3.176L49.36,354.26l2.992-1.087Z" transform="translate(-29.67 45.267)" fill="#263e72"/>
      <path id="Path_855" data-name="Path 855" d="M111.843,348.33l1.948,2.512,3.176-.2-1.778,2.639,1.157,2.95-3.049-.875-2.456,2.018-.113-3.176-2.668-1.722,2.978-1.073Z" transform="translate(-5.514 44.534)" fill="#263e72"/>
      <path id="Path_856" data-name="Path 856" d="M96.034,365.48l1.256,1.595,2.018-.127-1.143,1.68.748,1.891-1.948-.565L95.4,371.239l-.071-2.018-1.708-1.087,1.906-.692Z" transform="translate(-11.456 51.592)" fill="#263e72"/>
    </g>
    <g id="Planets" transform="translate(13.679 84.449)">
      <circle id="Ellipse_51" data-name="Ellipse 51" cx="28.145" cy="28.145" r="28.145" transform="translate(18.05 268.366)" fill="#263e72"/>
      <g id="Group_54" data-name="Group 54" transform="translate(33.337 300.717)" opacity="0.3">
        <path id="Path_857" data-name="Path 857" d="M42.5,277.467a4.6,4.6,0,1,1-4.6-4.587,4.6,4.6,0,0,1,4.6,4.587Z" transform="translate(-33.3 -272.88)" fill="#fff"/>
      </g>
      <g id="Group_55" data-name="Group 55" transform="translate(30.683 289.383)" opacity="0.3">
        <path id="Path_858" data-name="Path 858" d="M36.755,267.518a2.654,2.654,0,1,1-.777-1.891,2.668,2.668,0,0,1,.777,1.891Z" transform="translate(-31.42 -264.85)" fill="#fff"/>
      </g>
      <path id="Path_859" data-name="Path 859" d="M28.565,287.638c.127.494-24.094,23.727-17.856,28.682s32.465-7.749,54.908-25.831,42.839-40.044,37.236-45.86-33.58,11.4-33.58,11.4l3.345,2.131s16.938-10.855,22.274-6.648S85.011,272.2,63.457,287.906s-42.345,26.748-45.563,22.443,12-18.674,12-18.674Z" transform="translate(-9.682 15.719)" fill="#263e72"/>
      <g id="Group_56" data-name="Group 56" transform="translate(0 259.149)" opacity="0.3">
        <path id="Path_860" data-name="Path 860" d="M28.565,287.638c.127.494-24.094,23.727-17.856,28.682s32.465-7.749,54.908-25.831,42.839-40.044,37.236-45.86-33.58,11.4-33.58,11.4l3.345,2.131s16.938-10.855,22.274-6.648S85.011,272.2,63.457,287.906s-42.345,26.748-45.563,22.443,12-18.674,12-18.674Z" transform="translate(-9.682 -243.43)"/>
      </g>
      <g id="Group_57" data-name="Group 57" transform="translate(20.205 276.659)" opacity="0.3">
        <path id="Path_861" data-name="Path 861" d="M34.475,255.856c.226.282-1.68,1.891-3.839,5.152a25.9,25.9,0,0,0-.565,28.47c2.018,3.331,3.868,5.025,3.628,5.293s-2.4-1.115-4.912-4.432a24.461,24.461,0,0,1-3.374-6.408A25.251,25.251,0,0,1,24,275.109a24.941,24.941,0,0,1,1.821-8.751,24.151,24.151,0,0,1,3.67-6.267C32.019,256.872,34.334,255.658,34.475,255.856Z" transform="translate(-23.997 -255.835)" fill="#fff"/>
      </g>
      <circle id="Ellipse_52" data-name="Ellipse 52" cx="23.219" cy="23.219" r="23.219" transform="translate(323.563 32.13) rotate(-43.78)" fill="#263e72"/>
      <g id="Group_58" data-name="Group 58" transform="translate(363.981 20.252)" opacity="0.4">
        <path id="Path_862" data-name="Path 862" d="M267.55,77.864a3.783,3.783,0,1,1,3.684,3.882,3.783,3.783,0,0,1-3.684-3.882Z" transform="translate(-267.549 -74.181)"/>
      </g>
      <g id="Group_59" data-name="Group 59" transform="translate(371.547 30.626)" opacity="0.4">
        <path id="Path_863" data-name="Path 863" d="M272.91,83.689a2.2,2.2,0,1,1,2.16,2.244,2.2,2.2,0,0,1-2.16-2.244Z" transform="translate(-272.91 -81.53)"/>
      </g>
      <g id="Group_60" data-name="Group 60" transform="translate(367.764 39.546)" opacity="0.4">
        <path id="Path_864" data-name="Path 864" d="M271.063,87.85a.819.819,0,1,1-.833.79.8.8,0,0,1,.833-.79Z" transform="translate(-270.23 -87.85)"/>
      </g>
    </g>
  </g>
</svg>
