<svg xmlns="http://www.w3.org/2000/svg" width="17.243" height="14.214" viewBox="0 0 17.243 14.214">
  <g id="twitter" transform="translate(-0.009 0.017)">
    <g id="ELEMENTS" transform="translate(0.009 -0.017)">
      <path id="Path_52" data-name="Path 52" d="M17.176,1.69a7.067,7.067,0,0,1-1.745.5c.281-.048.694-.553.858-.758A3.209,3.209,0,0,0,16.851.391c0-.028.028-.068,0-.088a.1.1,0,0,0-.092,0,8.824,8.824,0,0,1-2.066.8.144.144,0,0,1-.144-.036,2.006,2.006,0,0,0-.18-.189,3.762,3.762,0,0,0-.987-.638A3.469,3.469,0,0,0,11.845-.01a3.718,3.718,0,0,0-1.46.4,3.782,3.782,0,0,0-1.155.979,3.706,3.706,0,0,0-.7,1.4,3.854,3.854,0,0,0-.036,1.484c0,.084,0,.1-.072.084A11.044,11.044,0,0,1,1.3.728c-.084-.1-.128-.1-.2,0a3.615,3.615,0,0,0,.614,4.263c.14.132.285.261.437.381A3.582,3.582,0,0,1,.779,4.991C.7,4.939.655,4.967.651,5.063a2.362,2.362,0,0,0,0,.4A3.642,3.642,0,0,0,2.9,8.368a2.278,2.278,0,0,0,.453.14,4.1,4.1,0,0,1-1.344.04c-.1-.02-.132.032-.1.124a3.8,3.8,0,0,0,2.808,2.366c.128.02.257.02.4.052l-.024.024c-.277.505-1.4.846-1.909,1.023a6.863,6.863,0,0,1-2.928.377c-.156-.024-.193-.02-.233,0s0,.064.044.1c.2.132.4.249.61.361a9.6,9.6,0,0,0,1.957.8,10.432,10.432,0,0,0,10.127-2.37A10.62,10.62,0,0,0,15.571,3.66c0-.108.132-.172.209-.229A6.887,6.887,0,0,0,17.156,2a.449.449,0,0,0,.1-.289h0C17.252,1.646,17.252,1.658,17.176,1.69Z" transform="translate(-0.009 0.017)" fill="#253e72"/>
    </g>
  </g>
</svg>
