<svg xmlns="http://www.w3.org/2000/svg" xmlns:xlink="http://www.w3.org/1999/xlink" width="176.591" height="175.996" viewBox="0 0 176.591 175.996">
  <defs>
    <linearGradient id="linear-gradient" x1="1.13" y1="1.295" x2="0.236" y2="0.19" gradientUnits="objectBoundingBox">
      <stop offset="0" stop-color="#dae3fe"/>
      <stop offset="1" stop-color="#e9effd"/>
    </linearGradient>
    <linearGradient id="linear-gradient-2" x1="0.957" y1="-1.361" x2="0.237" y2="1.334" gradientUnits="objectBoundingBox">
      <stop offset="0" stop-color="#ff928e"/>
      <stop offset="1" stop-color="#fe7062"/>
    </linearGradient>
    <linearGradient id="linear-gradient-3" y1="0.5" x2="1" y2="0.5" gradientUnits="objectBoundingBox">
      <stop offset="0" stop-color="#febbba"/>
      <stop offset="1" stop-color="#ff928e"/>
    </linearGradient>
    <linearGradient id="linear-gradient-4" x1="0.181" y1="1.241" x2="0.917" y2="0.21" gradientUnits="objectBoundingBox">
      <stop offset="0" stop-color="#4f52ff"/>
      <stop offset="1" stop-color="#4042e2"/>
    </linearGradient>
    <linearGradient id="linear-gradient-5" x1="0.565" y1="-0.418" x2="0.767" y2="-3.249" xlink:href="#linear-gradient-3"/>
    <linearGradient id="linear-gradient-6" x1="0.978" y1="0.026" x2="0.043" y2="1.071" xlink:href="#linear-gradient-4"/>
    <linearGradient id="linear-gradient-7" x1="0.849" y1="1.079" x2="0.11" y2="0.074" xlink:href="#linear-gradient-4"/>
    <linearGradient id="linear-gradient-8" x1="1.03" y1="-0.112" x2="0.011" y2="0.996" xlink:href="#linear-gradient-4"/>
    <linearGradient id="linear-gradient-9" x1="0.768" y1="0.829" x2="-0.25" y2="-0.385" xlink:href="#linear-gradient-4"/>
    <linearGradient id="linear-gradient-10" x1="3.829" y1="3.026" x2="4.5" y2="2.248" gradientUnits="objectBoundingBox">
      <stop offset="0" stop-color="#e1473d"/>
      <stop offset="1" stop-color="#e9605a"/>
    </linearGradient>
    <linearGradient id="linear-gradient-11" x1="5.029" y1="1.721" x2="2.978" y2="4.82" xlink:href="#linear-gradient-2"/>
    <linearGradient id="linear-gradient-12" x1="0.214" y1="1.533" x2="1.107" y2="-1.724" xlink:href="#linear-gradient-2"/>
    <linearGradient id="linear-gradient-13" x1="2.303" y1="2.388" x2="2.974" y2="1.609" xlink:href="#linear-gradient-10"/>
    <linearGradient id="linear-gradient-14" x1="3.451" y1="1.06" x2="1.4" y2="4.16" xlink:href="#linear-gradient-2"/>
    <linearGradient id="linear-gradient-15" x1="-4.491" y1="10.863" x2="-3.594" y2="8.921" xlink:href="#linear-gradient-2"/>
    <linearGradient id="linear-gradient-16" x1="2.189" y1="2.372" x2="2.86" y2="1.593" xlink:href="#linear-gradient-10"/>
    <linearGradient id="linear-gradient-17" x1="3.333" y1="1.044" x2="1.282" y2="4.143" xlink:href="#linear-gradient-2"/>
    <linearGradient id="linear-gradient-18" x1="-6.375" y1="9.277" x2="-4.823" y2="7.255" xlink:href="#linear-gradient-2"/>
    <linearGradient id="linear-gradient-19" x1="2.827" y1="2.673" x2="3.497" y2="1.894" xlink:href="#linear-gradient-10"/>
    <linearGradient id="linear-gradient-20" x1="3.993" y1="1.355" x2="1.941" y2="4.454" xlink:href="#linear-gradient-2"/>
    <linearGradient id="linear-gradient-21" x1="-6.762" y1="12.352" x2="-5.393" y2="9.919" xlink:href="#linear-gradient-2"/>
    <linearGradient id="linear-gradient-22" y1="0.5" x2="1" y2="0.5" gradientUnits="objectBoundingBox">
      <stop offset="0" stop-color="#53d8ff"/>
      <stop offset="1" stop-color="#3840f7"/>
    </linearGradient>
    <linearGradient id="linear-gradient-23" y1="0.5" x2="1" y2="0.5" gradientUnits="objectBoundingBox">
      <stop offset="0" stop-color="#09005d"/>
      <stop offset="1" stop-color="#1a0f91"/>
    </linearGradient>
    <linearGradient id="linear-gradient-24" x1="0" y1="0.5" x2="1" y2="0.5" xlink:href="#linear-gradient-3"/>
    <linearGradient id="linear-gradient-25" x1="0" y1="0.5" x2="1" y2="0.5" xlink:href="#linear-gradient-22"/>
    <linearGradient id="linear-gradient-26" x1="0" y1="0.5" x2="1" y2="0.5" xlink:href="#linear-gradient-23"/>
    <linearGradient id="linear-gradient-27" x1="0" y1="0.5" x2="1" y2="0.5" xlink:href="#linear-gradient-3"/>
    <linearGradient id="linear-gradient-28" x1="-2.608" y1="2.366" x2="2.487" y2="-0.544" xlink:href="#linear-gradient-23"/>
    <linearGradient id="linear-gradient-29" x1="0.2" y1="1.085" x2="0.8" y2="-0.085" xlink:href="#linear-gradient-4"/>
    <linearGradient id="linear-gradient-30" x1="0.534" y1="0.308" x2="-0.336" y2="1.354" xlink:href="#linear-gradient-3"/>
    <linearGradient id="linear-gradient-31" x1="-0.311" y1="1.523" x2="0.516" y2="0.276" xlink:href="#linear-gradient-2"/>
    <linearGradient id="linear-gradient-32" x1="13.613" y1="-5.979" x2="-9.099" y2="5.241" xlink:href="#linear-gradient-10"/>
    <linearGradient id="linear-gradient-33" x1="0.443" y1="1.83" x2="0.549" y2="-0.038" xlink:href="#linear-gradient-3"/>
    <linearGradient id="linear-gradient-34" x1="0.821" y1="0.35" x2="-0.291" y2="1.106" xlink:href="#linear-gradient-3"/>
    <linearGradient id="linear-gradient-35" x1="0.28" y1="0.152" x2="1.03" y2="1.128" xlink:href="#linear-gradient-23"/>
    <linearGradient id="linear-gradient-36" x1="2.738" y1="-0.685" x2="-1.807" y2="1.783" xlink:href="#linear-gradient-3"/>
    <linearGradient id="linear-gradient-37" x1="0.028" y1="2.051" x2="1.652" y2="-2.577" xlink:href="#linear-gradient-3"/>
    <linearGradient id="linear-gradient-38" x1="-10.137" y1="-5.077" x2="-10.876" y2="-2.615" xlink:href="#linear-gradient-23"/>
    <linearGradient id="linear-gradient-39" x1="-8.808" y1="0.133" x2="-9.206" y2="0.802" xlink:href="#linear-gradient-23"/>
  </defs>
  <g id="Business_Planning" data-name="Business Planning" transform="translate(0.01 -0.002)">
    <g id="Illustration" transform="translate(-0.01 0.002)">
      <path id="Path_173" data-name="Path 173" d="M152.353,148.793a62.343,62.343,0,0,1-9.533,8.027c-31.1,22.314-67.9,15.809-75.716,14.221-11.55-2.346-33.87-6.88-50.008-25.858C-7.32,116.468-3.52,71.231,15.421,41.369,18.886,35.907,37.185,5.59,74.38.728c22.507-2.942,48.745,2.992,67.747,18.911C182.011,53.055,179.172,120.559,152.353,148.793Z" transform="translate(0.01 -0.002)" fill="url(#linear-gradient)"/>
      <path id="Path_174" data-name="Path 174" d="M770.63,162.278a.232.232,0,0,1-.2-.089c-.189-.24-.377-.478-.576-.708a.231.231,0,0,1,.351-.3c.2.235.4.479.59.725a.231.231,0,0,1-.167.371Z" transform="translate(-721.414 -150.975)" fill="#91b3fa"/>
      <path id="Path_175" data-name="Path 175" d="M540.835,241.1c-.349.028-.709.04-1.06.045a.231.231,0,0,1-.234-.227.234.234,0,0,1,.227-.234c.343-.005.7-.022,1.035-.044.251-.018.5-.04.761-.069a.224.224,0,0,1,.251.2.231.231,0,0,1-.2.251C541.354,241.063,541.091,241.086,540.835,241.1Zm3.675-.618a.231.231,0,0,1-.075-.453c.559-.15,1.121-.329,1.668-.53l.048-.018a.231.231,0,0,1,.159.434l-.047.018c-.56.206-1.135.388-1.707.542A.183.183,0,0,1,544.51,240.486Zm4.424-1.787a.231.231,0,0,1-.126-.432c.524-.29,1.039-.609,1.531-.943a.231.231,0,1,1,.261.381c-.5.344-1.031.671-1.567.968a.236.236,0,0,1-.1.026Zm3.852-2.81a.228.228,0,0,1-.184-.072.231.231,0,0,1,.01-.326c.435-.409.856-.843,1.251-1.292a.231.231,0,0,1,.346.305c-.4.459-.836.9-1.282,1.323a.229.229,0,0,1-.144.062Zm3.047-3.667a.231.231,0,0,1-.21-.355c.322-.5.625-1.026.9-1.558a.231.231,0,1,1,.41.212c-.281.544-.591,1.08-.922,1.6a.231.231,0,0,1-.18.106Zm2.064-4.3a.232.232,0,0,1-.234-.3c.189-.566.358-1.149.5-1.73a.231.231,0,0,1,.449.106c-.141.595-.311,1.191-.507,1.771A.232.232,0,0,1,557.9,227.927Zm.962-4.672h-.035a.231.231,0,0,1-.212-.248c.047-.6.067-1.2.058-1.8a.228.228,0,0,1,.227-.234.231.231,0,0,1,.234.227c.009.612-.011,1.231-.063,1.842a.231.231,0,0,1-.211.209Zm-.212-4.766a.231.231,0,0,1-.243-.192c-.1-.589-.229-1.18-.385-1.76a.231.231,0,0,1,.446-.119c.159.591.292,1.2.394,1.8a.231.231,0,0,1-.189.267Zm-1.368-4.57a.231.231,0,0,1-.227-.138c-.241-.549-.509-1.092-.8-1.613a.231.231,0,0,1,.4-.224c.3.533.57,1.089.817,1.651a.231.231,0,0,1-.119.3.236.236,0,0,1-.077.016Z" transform="translate(-505.626 -198.51)" fill="#91b3fa"/>
      <path id="Path_176" data-name="Path 176" d="M479.079,666.365a.267.267,0,0,1-.048,0c-.306-.043-.616-.094-.921-.151a.231.231,0,0,1,.085-.454c.3.056.6.106.9.147a.231.231,0,0,1-.016.459Z" transform="translate(-447.881 -623.91)" fill="#91b3fa"/>
      <path id="Path_177" data-name="Path 177" d="M276.164,531.232a.232.232,0,0,1-.2-.1c-.179-.251-.356-.509-.525-.772a.231.231,0,1,1,.387-.251c.166.256.339.51.514.754a.231.231,0,0,1-.053.323A.233.233,0,0,1,276.164,531.232Z" transform="translate(-258.086 -496.693)" fill="#91b3fa"/>
      <path id="Path_178" data-name="Path 178" d="M228.179,80.672a.231.231,0,0,1-.226-.136c-.194-.43-.377-.874-.539-1.32-.045-.122-.089-.245-.131-.366a.231.231,0,0,1,.436-.151c.041.119.084.239.126.359.16.433.337.866.527,1.287a.231.231,0,0,1-.116.305A.22.22,0,0,1,228.179,80.672Zm-1.407-4.478a.23.23,0,0,1-.243-.189c-.11-.592-.194-1.194-.251-1.8a.231.231,0,0,1,.209-.251.234.234,0,0,1,.251.209c.054.586.136,1.175.243,1.754a.231.231,0,0,1-.185.269Zm-.291-4.685h-.03a.231.231,0,0,1-.216-.245c.036-.6.1-1.207.189-1.8a.231.231,0,1,1,.456.07c-.089.581-.152,1.173-.189,1.76a.231.231,0,0,1-.21.217Zm.846-4.616a.231.231,0,0,1-.236-.3c.179-.575.387-1.148.619-1.7a.231.231,0,1,1,.426.177c-.226.543-.429,1.1-.6,1.664A.231.231,0,0,1,227.326,66.893Zm1.924-4.28a.231.231,0,0,1-.213-.349c.311-.515.649-1.022,1.006-1.509a.231.231,0,0,1,.371.274c-.349.474-.679.969-.983,1.471a.23.23,0,0,1-.181.113Zm2.891-3.7a.231.231,0,0,1-.179-.393c.425-.426.876-.836,1.339-1.221a.231.231,0,1,1,.295.355c-.453.377-.892.778-1.307,1.194A.232.232,0,0,1,232.142,58.918Zm3.7-2.891a.231.231,0,0,1-.135-.428c.515-.311,1.052-.6,1.595-.862a.231.231,0,1,1,.2.415c-.53.256-1.053.539-1.557.842a.241.241,0,0,1-.1.033Zm4.282-1.919a.231.231,0,0,1-.084-.451c.575-.179,1.165-.334,1.754-.459a.231.231,0,0,1,.1.451c-.575.123-1.152.273-1.713.448a.224.224,0,0,1-.053.011Zm6.411-.866h-.024c-.589-.02-1.184-.013-1.77.022a.231.231,0,0,1-.03-.461h0c.6-.036,1.211-.043,1.813-.023a.231.231,0,0,1,.009.461Z" transform="translate(-212.013 -49.452)" fill="#91b3fa"/>
      <path id="Path_179" data-name="Path 179" d="M592.511,58.7a.26.26,0,0,1-.069-.006c-.294-.07-.594-.133-.892-.189a.231.231,0,1,1,.085-.454c.305.057.613.122.913.194a.231.231,0,0,1-.037.455Z" transform="translate(-554.191 -54.398)" fill="#91b3fa"/>
      <path id="Path_180" data-name="Path 180" d="M324.839,134.148a.233.233,0,0,0-.268.042l-2.029,1.983a12.37,12.37,0,0,0-3.994-.289l-1.722-2.252a.233.233,0,0,0-.259-.08l-3.23,1.073a.234.234,0,0,0-.16.219l-.032,2.835a12.362,12.362,0,0,0-3.027,2.622l-2.813-.377a.233.233,0,0,0-.24.126l-1.526,3.042a.234.234,0,0,0,.042.268l1.984,2.029a12.352,12.352,0,0,0-.289,3.994l-2.253,1.723a.235.235,0,0,0-.079.259l1.073,3.23a.233.233,0,0,0,.218.16l2.836.033a12.359,12.359,0,0,0,2.622,3.027l-.377,2.813a.232.232,0,0,0,.126.239l3.043,1.525a.233.233,0,0,0,.268-.041l2.029-1.984a12.371,12.371,0,0,0,4,.294l1.722,2.253a.233.233,0,0,0,.259.08l3.232-1.075a.234.234,0,0,0,.16-.219l.032-2.835a12.367,12.367,0,0,0,3.028-2.622l2.812.377a.233.233,0,0,0,.24-.126l1.527-3.045a.233.233,0,0,0-.042-.267l-1.984-2.03a12.369,12.369,0,0,0,.29-3.994l2.253-1.722a.233.233,0,0,0,.079-.258l-1.074-3.23a.232.232,0,0,0-.218-.16l-2.836-.032a12.349,12.349,0,0,0-2.622-3.03l.377-2.813a.234.234,0,0,0-.126-.239Z" transform="translate(-285.764 -125.147)" fill="#91b3fa"/>
      <path id="Path_181" data-name="Path 181" d="M489.593,321.544a3.4,3.4,0,0,1-.964-.072,3.352,3.352,0,1,1,.964.072Zm-.425-6.034a2.681,2.681,0,1,0,.766.057,2.681,2.681,0,0,0-.766-.057Z" transform="translate(-455.458 -295.058)" fill="#bdd0fb"/>
      <path id="Path_182" data-name="Path 182" d="M411.767,250.577a8.561,8.561,0,0,1-3.273-16.667l.17-.054a8.585,8.585,0,0,1,1.429-.314l.18-.022.075.688a7.935,7.935,0,0,0-1.634.358h0a7.813,7.813,0,0,0-4.4,3.646q-.08.146-.156.3a7.818,7.818,0,0,0-.817,4.053,7.868,7.868,0,1,0,12.987-6.489l.451-.525a8.568,8.568,0,0,1-5.013,15.031Z" transform="translate(-377.322 -218.842)" fill="#bdd0fb"/>
      <path id="Path_183" data-name="Path 183" d="M436.157,626.3a.282.282,0,0,1-.251-.119c-.211-.3-.44-.593-.676-.871a.282.282,0,1,1,.429-.367c.248.291.487.6.708.912a.282.282,0,0,1-.068.393A.279.279,0,0,1,436.157,626.3Z" transform="translate(-407.809 -585.572)" fill="#91b3fa"/>
      <path id="Path_184" data-name="Path 184" d="M328.946,708.1a.282.282,0,0,1-.079-.557,12.083,12.083,0,0,0,1.59-.464q.275-.1.542-.214a.282.282,0,1,1,.22.52c-.189.079-.377.153-.566.224a12.767,12.767,0,0,1-1.664.486A.234.234,0,0,1,328.946,708.1Zm5.338-2.643a.282.282,0,0,1-.2-.5,11.88,11.88,0,0,0,1.555-1.6.282.282,0,1,1,.44.353,12.482,12.482,0,0,1-1.628,1.681A.279.279,0,0,1,334.284,705.457Zm3.447-4.856a.277.277,0,0,1-.122-.018.282.282,0,0,1-.16-.366,12.023,12.023,0,0,0,.614-2.15.282.282,0,0,1,.555.1,12.552,12.552,0,0,1-.644,2.252A.28.28,0,0,1,337.731,700.6Zm.744-5.908a.282.282,0,0,1-.3-.247,11.935,11.935,0,0,0-.48-2.184.282.282,0,1,1,.537-.173,12.582,12.582,0,0,1,.5,2.287.283.283,0,0,1-.246.314Z" transform="translate(-307.985 -648.404)" fill="#91b3fa"/>
      <path id="Path_185" data-name="Path 185" d="M253.181,942.582h-.047c-.382-.036-.767-.09-1.143-.161a.282.282,0,0,1,.1-.555c.359.068.726.12,1.091.153a.283.283,0,1,1-.006.566Z" transform="translate(-235.936 -882.659)" fill="#91b3fa"/>
      <path id="Path_186" data-name="Path 186" d="M120.835,850.653a.284.284,0,0,1-.251-.117c-.223-.314-.434-.637-.629-.97a.282.282,0,1,1,.488-.285c.189.314.387.629.6.925a.281.281,0,0,1-.207.446Z" transform="translate(-112.378 -795.768)" fill="#91b3fa"/>
      <path id="Path_187" data-name="Path 187" d="M94.111,574.705a.283.283,0,0,1-.294-.217,12.508,12.508,0,0,1-.3-1.989c-.006-.1-.012-.2-.016-.293a.292.292,0,0,1,.27-.295.282.282,0,0,1,.294.27c0,.093.009.189.016.279a11.9,11.9,0,0,0,.287,1.9.282.282,0,0,1-.21.339Zm.075-5.858a.282.282,0,0,1-.292-.353,12.574,12.574,0,0,1,.784-2.164.282.282,0,1,1,.511.241,12.028,12.028,0,0,0-.749,2.067.283.283,0,0,1-.254.211Zm2.793-5.149a.278.278,0,0,1-.209-.073.282.282,0,0,1-.019-.4,12.492,12.492,0,0,1,1.7-1.551.282.282,0,0,1,.34.451,11.9,11.9,0,0,0-1.625,1.481A.278.278,0,0,1,96.979,563.7Zm4.872-3.251a.282.282,0,0,1-.115-.547,12.545,12.545,0,0,1,2.229-.581.276.276,0,0,1,.324.233.282.282,0,0,1-.233.324,12.045,12.045,0,0,0-2.128.556A.274.274,0,0,1,101.851,560.447Z" transform="translate(-87.622 -524.158)" fill="#91b3fa"/>
      <path id="Path_188" data-name="Path 188" d="M315.727,559.464a.278.278,0,0,1-.085-.007c-.356-.084-.721-.153-1.083-.2a.282.282,0,1,1,.079-.559c.377.053.761.126,1.135.214a.282.282,0,0,1-.045.556Z" transform="translate(-294.552 -523.573)" fill="#91b3fa"/>
      <path id="Path_189" data-name="Path 189" d="M157.78,610.069a.146.146,0,0,0-.168.026l-1.275,1.245a7.774,7.774,0,0,0-2.51-.182l-1.082-1.415a.146.146,0,0,0-.163-.05l-2.029.674a.146.146,0,0,0-.1.138l-.02,1.781a7.762,7.762,0,0,0-1.9,1.647l-1.766-.236a.148.148,0,0,0-.151.08l-.958,1.911a.146.146,0,0,0,.026.168l1.246,1.275a7.751,7.751,0,0,0-.182,2.509l-1.416,1.082a.148.148,0,0,0-.05.163l.674,2.03a.146.146,0,0,0,.137.1l1.781.02a7.765,7.765,0,0,0,1.647,1.9l-.236,1.767a.148.148,0,0,0,.079.15l1.912.958a.146.146,0,0,0,.168-.026l1.275-1.246a7.773,7.773,0,0,0,2.51.182l1.082,1.415a.147.147,0,0,0,.163.05l2.029-.674a.147.147,0,0,0,.1-.138l.02-1.781a7.765,7.765,0,0,0,1.9-1.648l1.765.236a.145.145,0,0,0,.15-.079l.959-1.911a.146.146,0,0,0-.026-.168l-1.246-1.275a7.752,7.752,0,0,0,.182-2.509l1.416-1.082a.146.146,0,0,0,.05-.162l-.673-2.03a.148.148,0,0,0-.137-.1l-1.782-.02a7.772,7.772,0,0,0-1.647-1.9l.236-1.767a.146.146,0,0,0-.079-.15Z" transform="translate(-136.142 -571.365)" fill="#91b3fa"/>
      <path id="Path_190" data-name="Path 190" d="M258.023,724.494a2.322,2.322,0,0,1-1.413-4.274h0a2.326,2.326,0,1,1,1.413,4.274Zm-.957-3.559a1.475,1.475,0,1,0,2.037.45A1.475,1.475,0,0,0,257.066,720.935Z" transform="translate(-239.473 -674.601)" fill="#bdd0fb"/>
      <path id="Path_191" data-name="Path 191" d="M207.672,680.375a5.584,5.584,0,1,1-.974-11.126l.091.842a4.777,4.777,0,0,0-.986.216,4.7,4.7,0,0,0-2.664,2.226l-.026.048-.051.1a4.736,4.736,0,1,0,7.326-1.466l.552-.642a5.588,5.588,0,0,1-3.269,9.806Z" transform="translate(-188.927 -627.182)" fill="#bdd0fb"/>
      <path id="Path_192" data-name="Path 192" d="M1229.24,1059.55c.188.032.383.063.575.1,29.044,4.592,56.352-15.487,60.995-44.849l-53.162-8.406Z" transform="translate(-1151.974 -943.133)" fill="url(#linear-gradient-2)"/>
      <path id="Path_193" data-name="Path 193" d="M834.162,1005.35l-35.732,40.263a53.577,53.577,0,0,0,26.635,12.787c.324.055.647.107.97.157Z" transform="translate(-748.243 -942.158)" fill="url(#linear-gradient-3)"/>
      <path id="Path_194" data-name="Path 194" d="M560.326,845.632,507.59,834.85q-.1.5-.194,1a53.8,53.8,0,0,0,17.2,50.049Z" transform="translate(-474.653 -782.375)" fill="#91b3fa"/>
      <path id="Path_195" data-name="Path 195" d="M1464.071,214.395l52.194,10.124a53.843,53.843,0,0,0-29-58.519l-23.394,47.989a.286.286,0,0,0,.2.406Z" transform="translate(-1371.828 -155.566)" fill="url(#linear-gradient-4)"/>
      <path id="Path_196" data-name="Path 196" d="M675.78,206.965l22.32-48.882a47.713,47.713,0,0,0-12.918-4.017,53.843,53.843,0,0,0-55.7,25.447Z" transform="translate(-589.913 -143.591)" fill="#7d97f4"/>
      <path id="Path_197" data-name="Path 197" d="M530.074,563.87a53.653,53.653,0,0,0-6.694,17.093h0L576.1,591.8Z" transform="translate(-490.482 -528.428)" fill="#bdd0fb"/>
      <path id="Path_198" data-name="Path 198" d="M770.224,199.5a.426.426,0,0,1-.3-.728,52.1,52.1,0,0,1,45.018-14.617c.738.117,1.483.251,2.213.4a.426.426,0,1,1-.168.835c-.719-.145-1.452-.277-2.178-.392a51.511,51.511,0,0,0-44.283,14.378A.425.425,0,0,1,770.224,199.5Z" transform="translate(-721.411 -171.983)" fill="#91b3fa"/>
      <path id="Path_199" data-name="Path 199" d="M544.9,1032.611a.424.424,0,0,1-.294-.117,52.28,52.28,0,0,1-16.249-38.675.427.427,0,0,1,.426-.419h.008a.426.426,0,0,1,.419.434,51.428,51.428,0,0,0,15.984,38.042.426.426,0,0,1-.294.735Z" transform="translate(-495.138 -930.959)" fill="#fff"/>
      <path id="Path_200" data-name="Path 200" d="M1556.567,1557.275a.426.426,0,0,1-.106-.839,51.185,51.185,0,0,0,26.342-16.468.426.426,0,1,1,.649.552,52.028,52.028,0,0,1-26.776,16.742A.42.42,0,0,1,1556.567,1557.275Z" transform="translate(-1458.329 -1443.025)" fill="url(#linear-gradient-5)"/>
      <path id="Path_201" data-name="Path 201" d="M1659.877,229.732a.427.427,0,0,1-.382-.615l12.185-24.627.4.243a73.322,73.322,0,0,1,11.616,8.885.427.427,0,1,1-.578.629,72.847,72.847,0,0,0-11.086-8.54l-11.77,23.788A.428.428,0,0,1,1659.877,229.732Z" transform="translate(-1555.145 -191.637)" fill="#91b3fa"/>
      <path id="Path_202" data-name="Path 202" d="M1535.641,830.188a.42.42,0,0,1-.079-.008l-27.484-5.135a.644.644,0,0,1-.459-.919l2.48-5.009a.426.426,0,1,1,.764.377l-2.358,4.763,27.217,5.084a.426.426,0,0,1-.078.845Z" transform="translate(-1412.793 -767.395)" fill="#91b3fa"/>
      <path id="Path_203" data-name="Path 203" d="M1794.47,904.3l32.555-62.368h-6.67a1.457,1.457,0,0,1-1.126-2.381l34.7-42.288a2.449,2.449,0,0,1,4.337,1.7l-2.439,41.353a4.132,4.132,0,0,1-4.595,3.862l-4.651-.532-32.3,69.95a5.143,5.143,0,0,1-4.669,2.988h-11.2Z" transform="translate(-1681.676 -746.307)" fill="url(#linear-gradient-6)"/>
      <path id="Path_204" data-name="Path 204" d="M1366.26,1686.312l22.983,51.054a8.428,8.428,0,0,0,7.686,4.97h11.848a4.326,4.326,0,0,0,3.783-2.227l.422-.76h0a3.387,3.387,0,0,1-3.017-1.847l-30.623-60Z" transform="translate(-1280.382 -1572.059)" fill="url(#linear-gradient-7)"/>
      <path id="Path_205" data-name="Path 205" d="M701.2,1595.109h0a5.029,5.029,0,0,0-7.3,1.16l-33.791,50.769a14.6,14.6,0,0,1-12.152,6.509H643.2L639.33,1642.4s31.414-48.166,39.511-55.457c0,0,8.063-7.267,16.014-1.773a13.269,13.269,0,0,1,4.669,5.883Z" transform="translate(-599.144 -1483.608)" fill="url(#linear-gradient-8)"/>
      <path id="Path_206" data-name="Path 206" d="M54.61,1927.491a25.53,25.53,0,0,1,16.618-8.171s5.206,1.774,15.578,20.358,17.255,27.06,25.331,22.431l-.669,1.11a12.182,12.182,0,0,1-10.434,5.9H96.566c-4.919,0-9.191-7.577-12.063-11.571C76.43,1946.328,59.569,1929.231,54.61,1927.491Z" transform="translate(-51.177 -1798.68)" fill="url(#linear-gradient-9)"/>
      <path id="Path_207" data-name="Path 207" d="M2742.281,1006.021h-.037a.319.319,0,0,1-.281-.356l.229-2.02a.32.32,0,0,1,.635.072l-.229,2.019A.319.319,0,0,1,2742.281,1006.021Z" transform="translate(-2569.612 -940.295)" fill="#91b3fa"/>
      <path id="Path_208" data-name="Path 208" d="M2281.5,881.49a.319.319,0,0,1-.251-.515l28.651-37.228a1.2,1.2,0,0,1,2.142.866l-.5,4.463a.319.319,0,1,1-.635-.072l.5-4.463a.559.559,0,0,0-1-.4l-28.651,37.228A.319.319,0,0,1,2281.5,881.49Z" transform="translate(-2137.8 -790.275)" fill="#91b3fa"/>
      <path id="Path_209" data-name="Path 209" d="M1247.413,1720.037a.319.319,0,0,1-.265-.5l14.818-21.964a2.609,2.609,0,0,1,4.521.343.32.32,0,0,1-.578.273,1.97,1.97,0,0,0-3.413-.259l-14.818,21.964A.317.317,0,0,1,1247.413,1720.037Z" transform="translate(-1168.705 -1589.795)" fill="#91b3fa"/>
      <path id="Path_210" data-name="Path 210" d="M1186.155,2132.173a.319.319,0,0,1-.265-.5l.95-1.408a.32.32,0,1,1,.53.358l-.95,1.409A.32.32,0,0,1,1186.155,2132.173Z" transform="translate(-1111.298 -1996.224)" fill="#91b3fa"/>
      <circle id="Ellipse_30" data-name="Ellipse 30" cx="8.017" cy="8.017" r="8.017" transform="translate(104.265 41.236) rotate(-58.58)" fill="url(#linear-gradient-10)"/>
      <circle id="Ellipse_31" data-name="Ellipse 31" cx="7.751" cy="7.751" r="7.751" transform="translate(104.331 38.581) rotate(-45)" fill="url(#linear-gradient-11)"/>
      <path id="Path_211" data-name="Path 211" d="M1726.7,500.607a.252.252,0,0,1-.118-.023.258.258,0,0,1-.126-.343,7.382,7.382,0,0,1,6.446-4.343,7.511,7.511,0,0,1,1.341.063.259.259,0,0,1-.072.513,7.06,7.06,0,0,0-1.248-.063,6.867,6.867,0,0,0-6,4.042A.26.26,0,0,1,1726.7,500.607Z" transform="translate(-1617.914 -464.722)" fill="#fff" opacity="0.78"/>
      <circle id="Ellipse_32" data-name="Ellipse 32" cx="6.56" cy="6.56" r="6.56" transform="translate(106.19 38.742) rotate(-45)" fill="#fff" opacity="0.78"/>
      <path id="Path_212" data-name="Path 212" d="M1792.936,552l-.029-.713a5.834,5.834,0,0,1-2.019-.352.412.412,0,0,1-.248-.478l.154-.672a.416.416,0,0,1,.553-.295,4.839,4.839,0,0,0,1.863.314c.717-.029,1.24-.294,1.22-.792-.019-.449-.44-.7-1.446-.925-1.436-.33-2.481-.907-2.532-2.157-.046-1.131.743-2.025,2.166-2.314l-.029-.713a.416.416,0,0,1,.4-.432l.419-.017a.415.415,0,0,1,.433.4l.026.64a5.289,5.289,0,0,1,1.6.22.414.414,0,0,1,.279.488l-.141.621a.415.415,0,0,1-.535.3,4.333,4.333,0,0,0-1.567-.219c-.85.035-1.078.4-1.065.713.016.388.537.634,1.655.928,1.6.409,2.279,1.037,2.326,2.214a2.431,2.431,0,0,1-2.263,2.389l.033.8a.416.416,0,0,1-.4.432l-.419.017A.416.416,0,0,1,1792.936,552Z" transform="translate(-1677.909 -508.358)" fill="url(#linear-gradient-12)"/>
      <circle id="Ellipse_33" data-name="Ellipse 33" cx="13.085" cy="13.085" r="13.085" transform="translate(122.558 6.846)" fill="url(#linear-gradient-13)"/>
      <circle id="Ellipse_34" data-name="Ellipse 34" cx="12.649" cy="12.649" r="12.649" transform="translate(117.755 19.93) rotate(-45)" fill="url(#linear-gradient-14)"/>
      <path id="Path_213" data-name="Path 213" d="M1985.137,134.789a.246.246,0,0,1-.111-.022.243.243,0,0,1-.121-.321,11.87,11.87,0,0,1,10.371-6.988,12.039,12.039,0,0,1,2.157.1.243.243,0,1,1-.068.481,11.526,11.526,0,0,0-2.068-.1,11.387,11.387,0,0,0-9.949,6.7A.242.242,0,0,1,1985.137,134.789Z" transform="translate(-1860.122 -119.437)" fill="#fff" opacity="0.78"/>
      <circle id="Ellipse_35" data-name="Ellipse 35" cx="10.706" cy="10.706" r="10.706" transform="translate(120.789 20.195) rotate(-45)" fill="#fff" opacity="0.78"/>
      <path id="Path_214" data-name="Path 214" d="M2090.51,216.21l-.048-1.163a9.53,9.53,0,0,1-3.295-.574.674.674,0,0,1-.4-.78l.251-1.1a.679.679,0,0,1,.9-.482,7.875,7.875,0,0,0,3.041.511c1.169-.048,2.024-.48,1.991-1.292-.03-.733-.721-1.141-2.363-1.509-2.343-.539-4.048-1.48-4.132-3.52-.076-1.842,1.213-3.3,3.535-3.776l-.048-1.164a.679.679,0,0,1,.651-.706l.684-.028a.679.679,0,0,1,.706.651l.042,1.045a8.683,8.683,0,0,1,2.607.359.675.675,0,0,1,.456.8l-.23,1.014a.678.678,0,0,1-.875.493,7.065,7.065,0,0,0-2.558-.357c-1.386.057-1.76.648-1.737,1.163.026.634.875,1.035,2.7,1.516,2.606.666,3.72,1.692,3.8,3.613.073,1.763-1.169,3.4-3.688,3.9l.053,1.3a.677.677,0,0,1-.65.706l-.684.028a.678.678,0,0,1-.708-.653Z" transform="translate(-1955.303 -188.02)" fill="url(#linear-gradient-15)"/>
      <circle id="Ellipse_36" data-name="Ellipse 36" cx="13.464" cy="13.464" r="13.464" transform="translate(126.819 48.76) rotate(-45)" fill="url(#linear-gradient-16)"/>
      <circle id="Ellipse_37" data-name="Ellipse 37" cx="13.016" cy="13.016" r="13.016" transform="translate(127.452 48.76) rotate(-45)" fill="url(#linear-gradient-17)"/>
      <path id="Path_215" data-name="Path 215" d="M2142.764,588.266a.243.243,0,0,1-.231-.343,12.208,12.208,0,0,1,10.664-7.186,12.362,12.362,0,0,1,2.217.109.243.243,0,0,1-.067.481,11.854,11.854,0,0,0-2.13-.1,11.724,11.724,0,0,0-10.241,6.9A.243.243,0,0,1,2142.764,588.266Z" transform="translate(-2007.841 -544.224)" fill="#fff" opacity="0.78"/>
      <circle id="Ellipse_38" data-name="Ellipse 38" cx="11.017" cy="11.017" r="11.017" transform="translate(130.574 49.031) rotate(-45)" fill="#fff" opacity="0.78"/>
      <path id="Path_216" data-name="Path 216" d="M2251.087,671.954l-.049-1.2a9.8,9.8,0,0,1-3.391-.59.692.692,0,0,1-.416-.8l.258-1.128a.7.7,0,0,1,.929-.5,8.115,8.115,0,0,0,3.129.525c1.2-.049,2.083-.494,2.048-1.329-.031-.754-.742-1.174-2.432-1.554-2.411-.554-4.166-1.523-4.252-3.622-.078-1.9,1.249-3.4,3.638-3.885l-.049-1.2a.7.7,0,0,1,.669-.727l.7-.029a.7.7,0,0,1,.727.669l.044,1.075a8.965,8.965,0,0,1,2.684.369.7.7,0,0,1,.468.82l-.237,1.043a.7.7,0,0,1-.9.507,7.272,7.272,0,0,0-2.631-.366c-1.427.058-1.81.666-1.788,1.194.027.652.9,1.065,2.779,1.559,2.682.686,3.828,1.742,3.909,3.719.075,1.813-1.2,3.5-3.8,4.014l.055,1.34a.7.7,0,0,1-.669.727l-.7.029A.7.7,0,0,1,2251.087,671.954Z" transform="translate(-2105.676 -614.692)" fill="url(#linear-gradient-18)"/>
      <circle id="Ellipse_39" data-name="Ellipse 39" cx="10.768" cy="10.768" r="10.768" transform="translate(150.737 36.203) rotate(-88.78)" fill="url(#linear-gradient-19)"/>
      <circle id="Ellipse_40" data-name="Ellipse 40" cx="10.41" cy="10.41" r="10.41" transform="translate(147.017 25.667) rotate(-45)" fill="url(#linear-gradient-20)"/>
      <path id="Path_217" data-name="Path 217" d="M2429.875,257.389a.265.265,0,0,1-.251-.377,9.833,9.833,0,0,1,8.59-5.788,9.97,9.97,0,0,1,1.786.087.265.265,0,0,1-.073.525,9.431,9.431,0,0,0-1.691-.082,9.306,9.306,0,0,0-8.127,5.482A.265.265,0,0,1,2429.875,257.389Z" transform="translate(-2276.883 -235.425)" fill="#fff" opacity="0.78"/>
      <circle id="Ellipse_41" data-name="Ellipse 41" cx="8.811" cy="8.811" r="8.811" transform="translate(149.514 25.884) rotate(-45)" fill="#fff" opacity="0.78"/>
      <path id="Path_218" data-name="Path 218" d="M2517.563,325.316l-.039-.958a7.852,7.852,0,0,1-2.711-.472.555.555,0,0,1-.333-.642l.207-.9a.56.56,0,0,1,.743-.4,6.48,6.48,0,0,0,2.5.421c.962-.04,1.665-.395,1.634-1.063-.024-.6-.593-.939-1.945-1.243-1.929-.443-3.332-1.218-3.4-2.9-.063-1.516,1-2.719,2.909-3.108l-.04-.957a.559.559,0,0,1,.536-.581l.563-.023a.559.559,0,0,1,.581.536l.036.86a7.168,7.168,0,0,1,2.146.295.556.556,0,0,1,.377.656l-.189.834a.556.556,0,0,1-.719.406,5.824,5.824,0,0,0-2.1-.294c-1.141.047-1.446.533-1.43.957.021.522.721.852,2.223,1.248,2.145.549,3.061,1.393,3.126,2.974.06,1.451-.962,2.8-3.035,3.211l.044,1.069a.558.558,0,0,1-.535.581l-.566.023A.558.558,0,0,1,2517.563,325.316Z" transform="translate(-2356.184 -292.851)" fill="url(#linear-gradient-21)"/>
      <path id="Path_219" data-name="Path 219" d="M461.707,2708.09c-2.559.221-7,.581-10.5.735a10.126,10.126,0,0,1-4.015-.393c0,.078,0,.153.006.222a.725.725,0,0,0,.688.684,123.5,123.5,0,0,0,13.752.014.516.516,0,0,0,.42-.775A4.2,4.2,0,0,0,461.707,2708.09Z" transform="translate(-419.081 -2537.871)" fill="url(#linear-gradient-22)"/>
      <path id="Path_220" data-name="Path 220" d="M451.175,2631.782c3.5-.154,7.943-.513,10.5-.735-2.514-3.087-10.5-5.167-10.5-5.167h-2.256a9.472,9.472,0,0,0-1.76,5.51A10.1,10.1,0,0,0,451.175,2631.782Z" transform="translate(-419.051 -2460.828)" fill="url(#linear-gradient-23)"/>
      <path id="Path_221" data-name="Path 221" d="M469.13,2567.3l.211,4.177a.954.954,0,0,0,.817.9,3.71,3.71,0,0,0,1.694-.14,1.132,1.132,0,0,0,.756-.867l.73-4.065Z" transform="translate(-439.642 -2405.93)" fill="url(#linear-gradient-24)"/>
      <path id="Path_222" data-name="Path 222" d="M24.847,2758.782a2.2,2.2,0,0,1-1.823-1.742.136.136,0,0,1,0,.021,1.985,1.985,0,0,0,.972,2.125,5.04,5.04,0,0,0,2.691.544,2.488,2.488,0,0,0,2.018-1.2l.006-.011C27.872,2759.052,26.7,2759.115,24.847,2758.782Z" transform="translate(-21.537 -2583.744)" fill="url(#linear-gradient-25)"/>
      <path id="Path_223" data-name="Path 223" d="M30.715,2587.762H28.854c-2.833-.075-4.612,7.648-5.194,10.64a2.2,2.2,0,0,0,1.823,1.742c1.85.334,3.025.271,3.861-.264,1.531-2.6,2.289-6.416,2.654-8.641A3.228,3.228,0,0,0,30.715,2587.762Z" transform="translate(-22.172 -2425.105)" fill="url(#linear-gradient-26)"/>
      <path id="Path_224" data-name="Path 224" d="M94.215,2526.09l-1.033,4.108a1.116,1.116,0,0,0,.58,1.264,3.962,3.962,0,0,0,2.137.518.931.931,0,0,0,.76-.622l1.517-4.322Z" transform="translate(-87.293 -2367.311)" fill="url(#linear-gradient-27)"/>
      <path id="Path_225" data-name="Path 225" d="M134.421,1647.934s-9.23,57.7-9.078,58.016a7.676,7.676,0,0,1-5.329.148s.835-30.843,2.791-42.669c0,0-15.754,27.568-20.756,41.3A12.5,12.5,0,0,1,97.28,1703s16.962-49.621,21.487-56.23Z" transform="translate(-91.165 -1543.261)" fill="url(#linear-gradient-28)"/>
      <path id="Path_226" data-name="Path 226" d="M505.151,1809.044a.277.277,0,0,1-.145-.041.273.273,0,0,1-.086-.377l3.45-5.51a.274.274,0,0,1,.177-.126l2.539-.511a.273.273,0,1,1,.107.535l-2.423.488-3.387,5.416A.273.273,0,0,1,505.151,1809.044Z" transform="translate(-473.143 -1689.178)" fill="url(#linear-gradient-29)"/>
      <path id="Path_227" data-name="Path 227" d="M1021.96,766.44a61.845,61.845,0,0,0-10.017,3.123,3.462,3.462,0,0,0-1.7,1.7c-1.131,2.482-4.526,8.706-11.1,11.675a18.117,18.117,0,0,1,3.135,8.264c3.948-2.938,7.354-7.846,8.993-15.9a3.212,3.212,0,0,0,2.8-.077c.822-.4,1.769-.965,2.482-1.41a3.251,3.251,0,0,0,1.446-1.937,11.238,11.238,0,0,0,.111-3l3.2-.992A1.138,1.138,0,0,0,1021.96,766.44Z" transform="translate(-936.347 -718.265)" fill="url(#linear-gradient-30)"/>
      <path id="Path_228" data-name="Path 228" d="M242.383,1030.9a18.115,18.115,0,0,0-3.135-8.264c-4.086,1.845-9.4,2.435-16.161.091a7.19,7.19,0,0,0-1.933-.381c-3.6-.211-15.468-.6-25.288,2.648a7.629,7.629,0,0,0-4.6,4.19c-2.656,6.1-6.957,19.979,4.982,26.987a29.581,29.581,0,0,1,2.881-5.453c-1.923-3.243-2.492-7.672.92-13.44,2.488,6.718,3.655,16.52,3.9,20.857a9.319,9.319,0,0,1-.731,4.172l-.063.144a.493.493,0,0,0,.347.674,56.655,56.655,0,0,0,15.8.927.861.861,0,0,0,.769-.657c3.269-13.772,3.276-23.166,2.475-29.1C225.6,1034.971,234.949,1036.429,242.383,1030.9Z" transform="translate(-176.442 -957.956)" fill="url(#linear-gradient-31)"/>
      <path id="Path_229" data-name="Path 229" d="M694.066,1086.083a.273.273,0,0,1-.27-.237c-.767-5.8-2.331-8.328-2.346-8.354a.273.273,0,0,1,.461-.292c.067.1,1.641,2.64,2.426,8.574a.273.273,0,0,1-.234.306Z" transform="translate(-647.952 -1009.381)" fill="url(#linear-gradient-32)"/>
      <path id="Path_230" data-name="Path 230" d="M450.28,896.72s-.68,7.189-1.279,9.316a.727.727,0,0,0,.343.83,7.044,7.044,0,0,0,6.788-.106,1.512,1.512,0,0,0,.839-1.423l-.294-6.947Z" transform="translate(-420.753 -840.356)" fill="url(#linear-gradient-33)"/>
      <path id="Path_231" data-name="Path 231" d="M443.838,750.4s2.175,5,2.321,7.618.711,4.323-2.321,4.851a6.441,6.441,0,0,1-6.967-3.594s-2.168-4.023-1.681-5.673S443.838,750.4,443.838,750.4Z" transform="translate(-407.768 -703.233)" fill="url(#linear-gradient-34)"/>
      <path id="Path_232" data-name="Path 232" d="M379.7,676.12l.173-.076a.416.416,0,0,0,.2-.571c-.427-.827-1.261-2.719-.184-3.161,1.388-.566,6.884-1.69,8.07-3.64a3.623,3.623,0,0,0-1.388-4.979.208.208,0,0,0-.273.089l-.126.239a.206.206,0,0,1-.38-.039.2.2,0,0,0-.371-.053c-.365.584-1.349,1.53-3.981,2.015-3.74.691-6.213,2.2-6.274,4.789a.207.207,0,0,1-.319.17c-.276-.168-.718-.247-1.309.251-1.027.864-.607,3.1,1.645,4.947a.205.205,0,0,1-.009.33c-.409.265-1.017.9.56,1.74a5.312,5.312,0,0,0,3.318.723.206.206,0,0,0,.167-.248l-.5-2.272a.205.205,0,0,1,.2-.251Z" transform="translate(-349.563 -621.956)" fill="url(#linear-gradient-35)"/>
      <path id="Path_233" data-name="Path 233" d="M440.156,832.749s-.83-3.191-2.263-2.3.742,3.576,1.893,3.7Z" transform="translate(-409.925 -778.105)" fill="url(#linear-gradient-36)"/>
      <path id="Path_234" data-name="Path 234" d="M1205.111,820.058a.272.272,0,0,1-.211-.444,22.9,22.9,0,0,1,3.131-3.3c.293-.165.468-.336.5-.494a.405.405,0,0,0-.036-.256l-2.456.492-1.391,1.194a.273.273,0,0,1-.355-.414l1.446-1.24a.264.264,0,0,1,.126-.063l2.719-.545a.271.271,0,0,1,.28.115,1.039,1.039,0,0,1,.2.84,1.4,1.4,0,0,1-.767.844,22.685,22.685,0,0,0-2.977,3.169A.269.269,0,0,1,1205.111,820.058Z" transform="translate(-1128.516 -763.756)" fill="#f8a570"/>
      <path id="Path_235" data-name="Path 235" d="M325.325,1484.676l9.613.119-3.364-3.165a2.514,2.514,0,0,0-3.08-.289,7.281,7.281,0,0,0-1.709,1.523s-6-2.191-8.9-7.094a29.57,29.57,0,0,0-2.881,5.451A29.979,29.979,0,0,0,325.325,1484.676Z" transform="translate(-295.2 -1383.009)" fill="url(#linear-gradient-37)"/>
      <path id="Path_236" data-name="Path 236" d="M480.446,1604.563h.056l24.4-.026a1.081,1.081,0,1,0,0-2.161l-24.4.026a1.081,1.081,0,0,0-.053,2.16Z" transform="translate(-449.285 -1501.656)" fill="url(#linear-gradient-38)"/>
      <path id="Path_237" data-name="Path 237" d="M738.539,1288.44H718.217a3.878,3.878,0,0,0-3.5,2.2l-9.394,19.709h25.254a2.352,2.352,0,0,0,2.189-1.473l7.285-18.238A1.609,1.609,0,0,0,738.539,1288.44Z" transform="translate(-660.986 -1207.454)" fill="url(#linear-gradient-39)"/>
      <ellipse id="Ellipse_42" data-name="Ellipse 42" cx="2.578" cy="1.599" rx="2.578" ry="1.599" transform="translate(62.433 93.521) rotate(-71.76)" fill="#91b3fa"/>
    </g>
  </g>
</svg>
