<svg xmlns="http://www.w3.org/2000/svg" width="1101.658" height="383.231" viewBox="0 0 1101.658 383.231">
  <g id="Currencies_" data-name="Currencies " transform="translate(22 -80.018)" opacity="0.55">
    <g id="Curremcie" transform="translate(176.322 348.074)">
      <path id="Path_865" data-name="Path 865" d="M153.524,473.938a59.473,59.473,0,0,0,9.775-4.194,25.112,25.112,0,0,0,4.66-3.3,50.318,50.318,0,0,0,7.161-8.956,32.758,32.758,0,0,0,1.847-4.128l.639-1.534a13.841,13.841,0,0,0,.818-3.391c.056-.414.256-2.271.317-2.941h16.081l6.731-11.422H177.717a13.065,13.065,0,0,0-.731-1.8,26.638,26.638,0,0,0-3.069-4.864l-.409-.588a22.076,22.076,0,0,0-2.624-2.747h23.9l6.066-11.422h-56.5c-.68-.026-1.361-.077-2.046-.067l-4.327.067H127.125l-8.834,11.432H144.02l1.99.235,1.2.225a20.757,20.757,0,0,1,7.7,3.069l.061.041c1.478.977,2,1.586,3.447,2.629l.747.711a11.967,11.967,0,0,1,2.169,2.45l.338.629H127.125l-9.575,11.422h45.943a17.655,17.655,0,0,1-.363,2.532l-.327,1.453a16.236,16.236,0,0,1-1.049,2.261,13.81,13.81,0,0,1-2.511,3.5,22.726,22.726,0,0,1-6.02,4.5,34.7,34.7,0,0,1-6.112,2.839,25.765,25.765,0,0,1-2.685.829,52.128,52.128,0,0,1-10.312,1.6l-11.411.107-.036,12.977,45.042,49.661,19.836-.143-44.868-51.3c1.468-.235,2.916-.512,4.271-.813C148.547,475.13,151.969,474.465,153.524,473.938Z" transform="translate(-117.55 -412.577)" fill="#d5e1ff"/>
    </g>
    <g id="objects" transform="translate(44 94.018)">
      <path id="Path_866" data-name="Path 866" d="M65.829,135.527l-10.046-6.049a.99.99,0,0,0-.749-.108.977.977,0,0,0-.6.456c-.861,1.515-1.691,2.8-2.409,3.816a15.622,15.622,0,0,1-1.9,2.28,4.733,4.733,0,0,1-3.382,1.355c-1.885,0-5-.861-9.281-2.582l-2.625-.947c-.942-.34-1.983-.7-3.128-1.1a37.71,37.71,0,0,0,1.373-7.947,32.34,32.34,0,0,0-1.132-6.695H43.327a.977.977,0,0,0,.977-.977v-8.807a.977.977,0,0,0-.977-.981H27.639l-.069-.116q-.142-.258-.258-.43c-3.709-6.647-5.593-11.785-5.593-15.265a13.541,13.541,0,0,1,13.992-14.1c5.55,0,9.328,2.151,11.552,6.647,1.144,2.263,1.721,6.368,1.721,12.2A.972.972,0,0,0,50.3,97.1l12.37-4.591a.977.977,0,0,0,.637-.916c0-8.175-2.62-14.964-7.783-20.132-5.137-5.249-11.789-7.908-19.77-7.908a29.132,29.132,0,0,0-20.437,7.822A24.959,24.959,0,0,0,6.905,90.4c0,4.733,1.562,10.382,4.651,16.845h-8.2a.981.981,0,0,0-.981.981v8.8a.981.981,0,0,0,.981.977H17.021a14.1,14.1,0,0,1,1.506,6.26,25.23,25.23,0,0,1-1.076,6.832,18.259,18.259,0,0,0-9.074,3.52c-2.091,1.6-4.784,5.055-8.226,10.576a.977.977,0,0,0-.116.779.99.99,0,0,0,.5.611l10.8,5.456a.985.985,0,0,0,.43.108.9.9,0,0,0,.318-.056.977.977,0,0,0,.568-.5c1.368-2.878,2.582-4.763,3.623-5.593a6.327,6.327,0,0,1,4.079-1.188c2.28,0,6.415,1.14,12.323,3.4,6.359,2.181,10.984,3.24,14.147,3.24a18.193,18.193,0,0,0,11.187-3.442c2.964-2.177,5.722-5.955,8.2-11.23a.985.985,0,0,0-.383-1.252Z" transform="translate(-66 95.67)" fill="#d5e1ff"/>
      <path id="Path_867" data-name="Path 867" d="M884.9,115.459a1.214,1.214,0,0,0,.719-1.374l-3.2-15.048a1.215,1.215,0,0,0-.687-.847,1.2,1.2,0,0,0-1.065.048c-.975.533-1.934,1.023-2.9,1.444a29.814,29.814,0,0,1-13.083,2.6c-10.462,0-17.754-3.015-24.38-10.078A38.08,38.08,0,0,1,834.7,84.6h25.984a1.209,1.209,0,0,0,1.209-1.209V69.894a1.215,1.215,0,0,0-1.209-1.214H830.064c-.1-1.273-.155-2.45-.155-3.574a43.422,43.422,0,0,1,.234-4.395h30.533a1.215,1.215,0,0,0,1.209-1.214V46a1.209,1.209,0,0,0-1.209-1.209H834.986a39.1,39.1,0,0,1,5.289-7.218c6.6-7.244,13.85-10.339,24.306-10.339a33.66,33.66,0,0,1,11.788,2.173,1.214,1.214,0,0,0,1.523-.634l6.078-13.317a1.22,1.22,0,0,0,0-.938,1.236,1.236,0,0,0-.655-.676c-5.79-2.488-10.8-4.016-17.7-4.016-17.205,0-30.064,5.977-40.483,18.809A58.7,58.7,0,0,0,815.8,44.795h-12.15A1.209,1.209,0,0,0,802.44,46V59.5a1.214,1.214,0,0,0,1.214,1.214h8.715c-.128,1.6-.186,3.105-.186,4.528,0,1.215.053,2.4.112,3.441h-8.64a1.215,1.215,0,0,0-1.215,1.215V83.387a1.214,1.214,0,0,0,1.214,1.209h11.772a55.041,55.041,0,0,0,12.252,19.778c10.036,10.36,21.712,15.187,36.754,15.187a53.166,53.166,0,0,0,20.463-4.1Z" transform="translate(150.009 10.763)" fill="#d5e1ff"/>
      <path id="Path_868" data-name="Path 868" d="M381.031,82.43V54.945h22.525a.954.954,0,0,0,.954-.954V45.336a.958.958,0,0,0-.954-.958h-20.8l3.9-7.007h16.906a.954.954,0,0,0,.954-.954V27.762a.954.954,0,0,0-.954-.954h-11.1L406.439,1.416A.958.958,0,0,0,405.6,0H392.262a.95.95,0,0,0-.841.5L374.326,31.524,357.375.5a.946.946,0,0,0-.841-.5H343.189a.944.944,0,0,0-.841,1.417l13.946,25.392h-11.05a.954.954,0,0,0-.954.954v8.655a.954.954,0,0,0,.954.954h16.851l3.854,7.007H345.244a.958.958,0,0,0-.954.958v8.655a.954.954,0,0,0,.954.954h22.42V82.43a.958.958,0,0,0,.958.958h11.45A.958.958,0,0,0,381.031,82.43Z" transform="translate(-349.843 -13.999)" fill="#d5e1ff"/>
      <path id="Path_869" data-name="Path 869" d="M789.184,427.968h0a113.268,113.268,0,0,0-12.069-6.246c-5.416-2.435-9.033-4.544-10.755-6.266a8.35,8.35,0,0,1-2.466-6.22,8.809,8.809,0,0,1,3.057-6.9,11.341,11.341,0,0,1,7.937-2.807c5.242,0,9.4,2.929,12.736,8.946a1.126,1.126,0,0,0,.693.555,1.146,1.146,0,0,0,.886-.1l11.636-6.506a1.162,1.162,0,0,0,.448-1.574c-2.771-4.967-5.742-8.717-8.834-11.147a25.213,25.213,0,0,0-11.076-4.718v-10.7a1.151,1.151,0,0,0-1.156-1.156H769.779a1.151,1.151,0,0,0-1.156,1.156V385.1a35.06,35.06,0,0,0-8.075,3.347,25.844,25.844,0,0,0-6.715,5.466,23.1,23.1,0,0,0-4.178,7.066,24.093,24.093,0,0,0-1.447,8.4,23.7,23.7,0,0,0,6.063,16.3c2.547,3.057,7.672,6.3,15.625,9.858a93.5,93.5,0,0,1,9.1,4.687,32.882,32.882,0,0,1,5.242,3.739,11.491,11.491,0,0,1,3.3,8.661,13.086,13.086,0,0,1-4,9.965A14.133,14.133,0,0,1,773.35,466.5c-4.178,0-7.55-1.141-9.985-3.357-2.435-2.435-4.544-6.623-6.271-12.461a1.156,1.156,0,0,0-1.345-.8l-13.134,2.746a1.126,1.126,0,0,0-.734.509,1.162,1.162,0,0,0-.158.881c1.992,8.727,5.146,15.284,9.384,19.538,4.076,4.076,9.965,6.842,17.5,8.212v11.02a1.156,1.156,0,0,0,1.156,1.162h10.444a1.156,1.156,0,0,0,1.156-1.162V481.307a30.522,30.522,0,0,0,15.869-10.546,29.451,29.451,0,0,0,6.333-18.621,26.249,26.249,0,0,0-7.036-18.376A32.9,32.9,0,0,0,789.184,427.968Z" transform="translate(137.789 -151.615)" fill="#d5e1ff"/>
    </g>
  </g>
</svg>
