<svg xmlns="http://www.w3.org/2000/svg" xmlns:xlink="http://www.w3.org/1999/xlink" width="159.174" height="177.251" viewBox="0 0 159.174 177.251">
  <defs>
    <clipPath id="clip-path">
      <path id="Path_113" data-name="Path 113" d="M251.006,247.949c2.159-6.436,7.958-10.928,13.863-14.28s12.315-6.05,17.255-10.709a28.288,28.288,0,0,0,8.121-14.232c1.049-4.624.5-10.27-3.431-12.916a9.693,9.693,0,0,0-8.336-.79,21.253,21.253,0,0,0-7.278,4.607c-12.951,11.543-19.5,28.455-25.595,44.7a8.661,8.661,0,0,0-.812,4.049,2.964,2.964,0,0,0,2.659,2.729c1.391-.022,2.409-2.031,1.342-2.922" transform="translate(-244.758 -194.446)" fill="none"/>
    </clipPath>
    <clipPath id="clip-path-2">
      <path id="Path_127" data-name="Path 127" d="M82.636,287.168c-3.7-7.077-11.279-11.222-18.76-14.039S48.442,268.4,41.84,263.9a33.281,33.281,0,0,1-12.074-15.03c-2.075-5.181-2.492-11.845,1.593-15.645a11.414,11.414,0,0,1,9.542-2.466,24.975,24.975,0,0,1,9.31,4C67.4,245.771,78.144,264.21,88.234,281.952a10.147,10.147,0,0,1,1.689,4.554c.048,1.636-.961,3.426-2.58,3.663s-3.176-1.913-2.1-3.146" transform="translate(-28.231 -230.584)" fill="none"/>
    </clipPath>
    <linearGradient id="linear-gradient" x1="0.346" y1="0.641" x2="-0.804" y2="2.323" gradientUnits="objectBoundingBox">
      <stop offset="0" stop-color="#fff"/>
      <stop offset="1" stop-color="#d9b7b3"/>
    </linearGradient>
  </defs>
  <g id="Digital_Marketing" data-name="Digital Marketing" transform="translate(-0.004 0.558)">
    <g id="Layer_2" data-name="Layer 2" transform="translate(0.004 -0.558)">
      <g id="OBJECTS">
        <path id="Path_100" data-name="Path 100" d="M288.108,154.182a1.128,1.128,0,0,1,.842-.82,1.119,1.119,0,0,1,.948-1.961l.175.039,2.632.654a13.033,13.033,0,0,1,.461-3.716c.491-1.224,2.33-1.4,2.044,0a3.944,3.944,0,0,0,.6,3.426,10.028,10.028,0,0,1,.877,2.075,1.211,1.211,0,0,1,0,.588l-1.158,5.374a.544.544,0,0,1-.649.412l-6.449-1.439-.18-.039a1.062,1.062,0,0,1-.877-1.29c.154-.487.8-.54.8-.54a.842.842,0,0,1-.562-.961.759.759,0,0,1,.877-.693A1.127,1.127,0,0,1,288.108,154.182Z" transform="translate(-161.285 -82.483)" fill="#7557e4"/>
        <rect id="Rectangle_44" data-name="Rectangle 44" width="7.647" height="3.799" rx="1.61" transform="translate(134.658 79.236) rotate(-77.4)" fill="#7557e4"/>
        <g id="Group_27" data-name="Group 27" transform="translate(107.378 85.552)" clip-path="url(#clip-path)">
          <path id="Path_101" data-name="Path 101" d="M251.006,247.949c2.159-6.436,7.958-10.928,13.863-14.28s12.315-6.05,17.255-10.709a28.288,28.288,0,0,0,8.121-14.232c1.049-4.624.5-10.27-3.431-12.916a9.693,9.693,0,0,0-8.336-.79,21.253,21.253,0,0,0-7.278,4.607c-12.951,11.543-19.5,28.455-25.595,44.7a8.661,8.661,0,0,0-.812,4.049,2.964,2.964,0,0,0,2.659,2.729c1.391-.022,2.409-2.031,1.342-2.922" transform="translate(-244.758 -194.446)" fill="#788fec"/>
          <path id="Path_102" data-name="Path 102" d="M291.142,191.83S266.534,207.4,243.12,254.606" transform="translate(-243.839 -192.978)" fill="none" stroke="#fff" stroke-miterlimit="10" stroke-width="0.5"/>
          <path id="Path_103" data-name="Path 103" d="M321.322,198.136s-.733-10.806.838-16.176" transform="translate(-287.636 -187.438)" fill="none" stroke="#fff" stroke-miterlimit="10" stroke-width="0.5"/>
          <path id="Path_104" data-name="Path 104" d="M314.59,227.23s14.526,4.615,22.133,1.386" transform="translate(-283.953 -212.847)" fill="none" stroke="#fff" stroke-miterlimit="10" stroke-width="0.5"/>
          <path id="Path_105" data-name="Path 105" d="M327.5,210.6s14.539,1.614,19.194-2.325" transform="translate(-291.2 -202.205)" fill="none" stroke="#fff" stroke-miterlimit="10" stroke-width="0.5"/>
          <path id="Path_106" data-name="Path 106" d="M301.576,213.17s-4.7-9.463-4.826-16" transform="translate(-273.94 -195.975)" fill="none" stroke="#fff" stroke-miterlimit="10" stroke-width="0.5"/>
          <path id="Path_107" data-name="Path 107" d="M299.44,244.38s19.3,7.379,26.047.926" transform="translate(-275.45 -222.473)" fill="none" stroke="#fff" stroke-miterlimit="10" stroke-width="0.5"/>
          <path id="Path_108" data-name="Path 108" d="M283.256,228.569s-8.441-11.644-7.827-18.659" transform="translate(-261.955 -203.125)" fill="none" stroke="#fff" stroke-miterlimit="10" stroke-width="0.5"/>
          <path id="Path_109" data-name="Path 109" d="M288.85,259.39s13.162,6.822,17.623,5.866" transform="translate(-269.506 -230.898)" fill="none" stroke="#fff" stroke-miterlimit="10" stroke-width="0.5"/>
          <path id="Path_110" data-name="Path 110" d="M267.814,249.743s-10.288-7.524-11.714-12.9" transform="translate(-251.124 -218.241)" fill="none" stroke="#fff" stroke-miterlimit="10" stroke-width="0.5"/>
          <path id="Path_111" data-name="Path 111" d="M277.36,276s12.069,7.283,21.137,6.085" transform="translate(-263.057 -240.221)" fill="none" stroke="#fff" stroke-miterlimit="10" stroke-width="0.5"/>
          <path id="Path_112" data-name="Path 112" d="M252.91,268.281s-12.179-8.336-13.64-13.2" transform="translate(-241.678 -228.479)" fill="none" stroke="#fff" stroke-miterlimit="10" stroke-width="0.5"/>
        </g>
        <path id="Path_114" data-name="Path 114" d="M278.7,287.111c1.106-4.269,4.826-7.436,8.88-9.178s8.489-2.325,12.806-3.216,8.722-2.194,12.073-5.054a8.533,8.533,0,0,0,3.071-4.769,4.513,4.513,0,0,0-2.251-4.883c-2.781-1.264-5.7,1.294-7.8,3.51a79.485,79.485,0,0,1-17.549,13.815" transform="translate(-156.431 -145.507)" fill="#7557e4"/>
        <g id="Group_28" data-name="Group 28" transform="translate(12.384 101.406)" clip-path="url(#clip-path-2)">
          <path id="Path_115" data-name="Path 115" d="M82.636,287.168c-3.7-7.077-11.279-11.222-18.76-14.039S48.442,268.4,41.84,263.9a33.281,33.281,0,0,1-12.074-15.03c-2.075-5.181-2.492-11.845,1.593-15.645a11.414,11.414,0,0,1,9.542-2.466,24.975,24.975,0,0,1,9.31,4C67.4,245.771,78.144,264.21,88.234,281.952a10.147,10.147,0,0,1,1.689,4.554c.048,1.636-.961,3.426-2.58,3.663s-3.176-1.913-2.1-3.146" transform="translate(-28.231 -230.584)" fill="#7557e4"/>
          <path id="Path_116" data-name="Path 116" d="M20.4,232.16s31.478,13.526,67.44,64.053" transform="translate(-23.836 -231.469)" fill="none" stroke="#fff" stroke-miterlimit="10" stroke-width="0.5"/>
          <path id="Path_117" data-name="Path 117" d="M56.418,233.937S55.269,221.245,52.47,215.3" transform="translate(-41.836 -222.005)" fill="none" stroke="#fff" stroke-miterlimit="10" stroke-width="0.5"/>
          <path id="Path_118" data-name="Path 118" d="M38.556,266.26s-16.022,8.055-25.446,5.7" transform="translate(-19.744 -250.608)" fill="none" stroke="#fff" stroke-miterlimit="10" stroke-width="0.5"/>
          <path id="Path_119" data-name="Path 119" d="M24.484,252.78s-16.592,4.571-22.734.855" transform="translate(-13.368 -243.042)" fill="none" stroke="#fff" stroke-miterlimit="10" stroke-width="0.5"/>
          <path id="Path_120" data-name="Path 120" d="M80.24,247.513s3.7-11.872,2.632-19.483" transform="translate(-57.423 -229.15)" fill="none" stroke="#fff" stroke-miterlimit="10" stroke-width="0.5"/>
          <path id="Path_121" data-name="Path 121" d="M53.392,283.37S32.333,295.522,23.3,289.275" transform="translate(-25.463 -260.212)" fill="none" stroke="#fff" stroke-miterlimit="10" stroke-width="0.5"/>
          <path id="Path_122" data-name="Path 122" d="M100.51,262.009s7.651-15.092,5.633-23.129" transform="translate(-68.8 -235.24)" fill="none" stroke="#fff" stroke-miterlimit="10" stroke-width="0.5"/>
          <path id="Path_123" data-name="Path 123" d="M82.2,298.85S68.18,309.217,62.81,308.94" transform="translate(-47.64 -268.9)" fill="none" stroke="#fff" stroke-miterlimit="10" stroke-width="0.5"/>
          <path id="Path_124" data-name="Path 124" d="M115.28,283.737s10.56-10.648,11.222-17.167" transform="translate(-77.09 -250.782)" fill="none" stroke="#fff" stroke-miterlimit="10" stroke-width="0.5"/>
          <path id="Path_125" data-name="Path 125" d="M93.428,316S80.757,326.687,70,326.968" transform="translate(-51.675 -278.526)" fill="none" stroke="#fff" stroke-miterlimit="10" stroke-width="0.5"/>
          <path id="Path_126" data-name="Path 126" d="M133.25,302.519s12.6-11.959,13.394-17.869" transform="translate(-87.176 -260.93)" fill="none" stroke="#fff" stroke-miterlimit="10" stroke-width="0.5"/>
        </g>
        <path id="Path_128" data-name="Path 128" d="M210.9,292.765c2.417-2.882,6.826-2.689,10.56-2.251a2.6,2.6,0,0,1-2.566-2.764,3.15,3.15,0,0,1,2.865-2.7,4.036,4.036,0,0,1,3.6,1.9,13.535,13.535,0,0,1-3.049-5.2c-.461-1.974.206-4.365,2.04-5.234a4.562,4.562,0,0,1,4.7.877,13.554,13.554,0,0,1,2.988,4.023c0-2.54-1.347-4.857-2.632-7.019s-2.632-4.5-2.632-7.019,1.913-5.265,4.449-5.155,4.128,2.7,5.01,5.058a34.961,34.961,0,0,1,2.141,13.96,37.5,37.5,0,0,1,4.76-14.2,3.4,3.4,0,0,1,1.185-1.36,2.334,2.334,0,0,1,2.773.737,5.515,5.515,0,0,1,1.022,2.887,18.865,18.865,0,0,1-2.527,11.929c1.487-1.1,2.194-2.948,2.742-4.712a10.91,10.91,0,0,1,2.47-4.892c1.342-1.268,3.755-1.619,4.94-.2a4.329,4.329,0,0,1,.535,3.641,13.556,13.556,0,0,1-4.409,7.524,22.611,22.611,0,0,1,7.265-5.326,4.276,4.276,0,0,1,3.33-.439c2.018.825,1.851,3.883.553,5.633s-3.321,2.939-4.348,4.865a9.125,9.125,0,0,1,15.741,7.348l-46.065.5c-6.186.066-12.381.136-18.553-.219" transform="translate(-117.753 -146.936)" fill="#ff597d"/>
        <path id="Path_129" data-name="Path 129" d="M64.22,326.6c-1.2-4.624-5.23-8.055-9.617-9.941s-9.213-2.518-13.868-3.483-9.446-2.365-13.078-5.471a9.175,9.175,0,0,1-3.317-5.168,4.9,4.9,0,0,1,2.435-5.287c3.014-1.364,6.142,1.4,8.445,3.791A86.091,86.091,0,0,0,54.23,316" transform="translate(-13.619 -166.391)" fill="#ff597d"/>
        <path id="Path_130" data-name="Path 130" d="M54.092,319.325c2.448-2.922,6.919-2.729,10.7-2.281a2.632,2.632,0,0,1-2.6-2.8,3.194,3.194,0,0,1,2.9-2.742,4.085,4.085,0,0,1,3.65,1.93,13.089,13.089,0,0,1-3.071-5.265c-.439-2,.215-4.427,2.071-5.309a4.656,4.656,0,0,1,4.764.877,13.624,13.624,0,0,1,3.032,4.076c0-2.571-1.369-4.922-2.681-7.129s-2.672-4.567-2.667-7.138,1.939-5.33,4.51-5.225,4.155,2.729,5.058,5.124a35.431,35.431,0,0,1,2.194,14.153A38.029,38.029,0,0,1,86.785,293.2a3.422,3.422,0,0,1,1.2-1.378,2.36,2.36,0,0,1,2.812.746,5.593,5.593,0,0,1,1.04,2.926,19.163,19.163,0,0,1-2.562,12.1c1.5-1.114,2.194-2.992,2.777-4.778s1.145-3.672,2.505-4.962,3.808-1.636,5.01-.2a4.386,4.386,0,0,1,.54,3.694,13.732,13.732,0,0,1-4.466,7.629,22.9,22.9,0,0,1,7.353-5.4,4.364,4.364,0,0,1,3.374-.439c2.049.838,1.882,3.948.562,5.7s-3.365,2.979-4.387,4.931a9.253,9.253,0,0,1,15.961,7.458l-46.728.491c-6.274.07-12.552.136-18.812-.219" transform="translate(-29.727 -161.58)" fill="#3a5dec"/>
        <ellipse id="Ellipse_28" data-name="Ellipse 28" cx="42.551" cy="6.059" rx="42.551" ry="6.059" transform="translate(53.734 165.284) rotate(-9.04)" fill="#ff597d" opacity="0.23"/>
        <path id="Path_131" data-name="Path 131" d="M160.629,63.2l20.08,117.55a10.015,10.015,0,0,1,.14,2,8.841,8.841,0,0,1-.083.97c-.022.167-.048.329-.075.487a9.718,9.718,0,0,1-.926,2.711,10.171,10.171,0,0,1-.737,1.224,10.811,10.811,0,0,1-.9,1.1c-.219.228-.439.439-.689.662h0c-.237.211-.487.4-.746.592h0a9.573,9.573,0,0,1-1.237.75h0a9.023,9.023,0,0,1-.877.4,10.21,10.21,0,0,1-1.939.535l-48.246,8.239a10.152,10.152,0,0,1-2.115.132l-.342-.022-.382-.035a10.09,10.09,0,0,1-1.557-.316c-.254-.075-.5-.158-.746-.246l-.333-.136c-.237-.1-.469-.206-.7-.32a10.088,10.088,0,0,1-1.965-1.316c-.241-.206-.469-.439-.693-.658a9.694,9.694,0,0,1-.913-1.106,9.318,9.318,0,0,1-.961-1.676h0a9.849,9.849,0,0,1-.728-2.387L92.878,74.78a9.915,9.915,0,0,1,8.1-11.437L149.2,55.108A9.911,9.911,0,0,1,160.629,63.2Z" transform="translate(-52.053 -30.606)" fill="#292929"/>
        <path id="Path_132" data-name="Path 132" d="M161.3,66.357,181.383,183.9a7.9,7.9,0,0,1,.11,1.575,6.428,6.428,0,0,1-.061.733l-.07.439a7.506,7.506,0,0,1-.711,2.066,7.138,7.138,0,0,1-.583.956,7.275,7.275,0,0,1-.711.877c-.127.132-.285.285-.465.439l-.07.066c-.154.132-.307.259-.469.382l-.118.075a6.8,6.8,0,0,1-.856.531l-.105.053a7.175,7.175,0,0,1-.689.312,7.983,7.983,0,0,1-1.522.439l-48.215,8.235a7.459,7.459,0,0,1-1.65.105,2.587,2.587,0,0,1-.553-.039,8.03,8.03,0,0,1-1.237-.25c-.2-.057-.39-.123-.562-.189l-.241-.092-.053-.022a5.706,5.706,0,0,1-.522-.246,7.984,7.984,0,0,1-1.54-1.04c-.2-.167-.368-.333-.531-.5a7.738,7.738,0,0,1-.715-.877,7.31,7.31,0,0,1-.7-1.2l-.053-.114a7.831,7.831,0,0,1-.566-1.865L97.864,77.2a7.748,7.748,0,0,1,6.3-8.9l48.219-8.257A7.739,7.739,0,0,1,161.3,66.357Z" transform="translate(-54.872 -33.393)" fill="#edf1ff"/>
        <path id="Path_133" data-name="Path 133" d="M279.967,265.459c-.026-.439-.044-.974-.057-1.579l1.584,9.266a28.951,28.951,0,0,1-1.4-2.781A16.962,16.962,0,0,1,279.967,265.459Z" transform="translate(-157.084 -147.866)" fill="#292929" opacity="0.2"/>
        <path id="Path_134" data-name="Path 134" d="M256.049,123.822h0l-2.369-13.859h0a1.987,1.987,0,0,1,2.294,1.623l1.7,9.959a1.987,1.987,0,0,1-1.628,2.277Z" transform="translate(-142.388 -61.459)" fill="#292929"/>
        <path id="Path_135" data-name="Path 135" d="M0,0H.952A1.035,1.035,0,0,1,1.987,1.035V6.006A1.035,1.035,0,0,1,.952,7.041H0V.022Z" transform="matrix(-0.986, 0.168, -0.168, -0.986, 45.706, 66.832)" fill="#292929"/>
        <path id="Path_136" data-name="Path 136" d="M0,0H.952A1.035,1.035,0,0,1,1.987,1.035V6.01A1.035,1.035,0,0,1,.952,7.046H0V0Z" transform="matrix(-0.986, 0.168, -0.168, -0.986, 47.138, 75.198)" fill="#292929"/>
        <path id="Path_137" data-name="Path 137" d="M159.938,66.92,145.6,69.368a4.422,4.422,0,0,1-5.111-3.619h0L163.558,61.8h0a4.431,4.431,0,0,1-3.619,5.12Z" transform="translate(-78.856 -34.442)" fill="#292929"/>
        <path id="Path_138" data-name="Path 138" d="M322.345,353.436a5.6,5.6,0,0,0,.184.671h1.215l.6,1.044-.623,1.049a6.047,6.047,0,0,0,1.04.939l.974-.728,1.106.491.105,1.215a6.056,6.056,0,0,0,1.356.145l.364-1.163,1.185-.241.8.926a6.172,6.172,0,0,0,1.22-.693l-.39-1.158.816-.877,1.185.276a5.878,5.878,0,0,0,.579-1.277l-.992-.706.136-1.2,1.119-.474a5.3,5.3,0,0,0-.105-.728,6.357,6.357,0,0,0-.175-.645h-1.22l-.6-1.066.632-1.044a6.108,6.108,0,0,0-1.044-.948l-.974.728-1.1-.5-.105-1.215a6.142,6.142,0,0,0-1.4-.154l-.364,1.167-1.18.246-.8-.926a6.083,6.083,0,0,0-1.22.7l.39,1.154-.812.877-1.185-.276a5.992,5.992,0,0,0-.575,1.281l1,.7-.127,1.2-1.123.478a5.527,5.527,0,0,0,.105.719Zm3.808-2.953a2.72,2.72,0,1,1,.439,3.826A2.72,2.72,0,0,1,326.153,350.484Z" transform="translate(-180.869 -194.02)" fill="#788fec"/>
        <path id="Path_139" data-name="Path 139" d="M229.349,20.662a6.34,6.34,0,0,0,.035.768l1.316.276.4,1.281-.93.987a6.682,6.682,0,0,0,.9,1.272l1.237-.557,1.079.8-.171,1.347a6.432,6.432,0,0,0,1.435.487l.68-1.176h1.342l.645,1.2a6.66,6.66,0,0,0,1.522-.443l-.145-1.347,1.1-.777,1.224.588a6.879,6.879,0,0,0,.934-1.25l-.921-1.009.439-1.272,1.316-.246a7.019,7.019,0,0,0,.057-.812,5.307,5.307,0,0,0-.035-.75l-1.316-.276-.4-1.285.939-.983a7.1,7.1,0,0,0-.9-1.281l-1.242.557-1.079-.8.18-1.347a6.748,6.748,0,0,0-1.465-.5l-.676,1.18h-1.347l-.645-1.2a6.791,6.791,0,0,0-1.492.469l.145,1.351-1.11.772-1.224-.583a6.909,6.909,0,0,0-.934,1.255l.917,1-.439,1.277-1.316.246a5.932,5.932,0,0,0-.061.781Zm4.852-2.3a3.027,3.027,0,1,1-.439,4.264,3.027,3.027,0,0,1,.439-4.264Z" transform="translate(-128.731 -7.664)" fill="#7557e4"/>
        <path id="Path_140" data-name="Path 140" d="M54,58.435a4.826,4.826,0,0,0,.026.566l.983.2.307.948-.684.728a4.861,4.861,0,0,0,.684.939l.877-.412.794.588-.11,1a5.032,5.032,0,0,0,1.062.355l.5-.877h.992l.474.877a4.861,4.861,0,0,0,1.114-.307l-.105-1,.812-.57.9.439a4.9,4.9,0,0,0,.689-.921l-.671-.741.32-.939.987-.18a5.458,5.458,0,0,0,.039-.6q0-.285-.026-.553l-.978-.206-.294-.948.693-.724a5.111,5.111,0,0,0-.671-.943l-.913.408-.785-.6.132-.992a4.927,4.927,0,0,0-1.092-.369l-.5.877h-.992l-.478-.877a5.111,5.111,0,0,0-1.1.347l.079.97-.812.575-.9-.439a4.905,4.905,0,0,0-.676.917l.671.737-.316.943-.983.18a4.362,4.362,0,0,0-.053.605Zm3.58-1.7a.974.974,0,1,0,.013,0Z" transform="translate(-30.31 -29.84)" fill="#7557e4"/>
        <path id="Path_141" data-name="Path 141" d="M260.282,33.779a2.815,2.815,0,0,0,0,.386l.671.14.2.649-.469.5a3.509,3.509,0,0,0,.439.645l.623-.285.548.4-.088.68a3.128,3.128,0,0,0,.724.246l.342-.592h.68l.325.605a3.422,3.422,0,0,0,.755-.233l-.053-.662.557-.39.619.3a3.325,3.325,0,0,0,.483-.632l-.439-.509.219-.641.671-.123a3.2,3.2,0,0,0,.031-.412v-.377l-.706-.132-.2-.649.474-.5a3.354,3.354,0,0,0-.439-.645l-.627.281-.544-.408.092-.68a3.351,3.351,0,0,0-.75-.25l-.338.592h-.68l-.325-.605a3.36,3.36,0,0,0-.755.237l.075.68-.553.395-.619-.294a3.325,3.325,0,0,0-.469.632l.461.5-.219.645-.671.127A2.99,2.99,0,0,0,260.282,33.779Zm2.448-1.158a10.375,10.375,0,1,0,0,.013Z" transform="translate(-146.089 -16.863)" fill="#3a5dec"/>
        <path id="Path_142" data-name="Path 142" d="M100.874,377.74a3.822,3.822,0,0,0,0,.39l.671.14.2.645-.469.5a3.325,3.325,0,0,0,.439.641l.627-.281.544.4-.088.68a3.7,3.7,0,0,0,.724.246l.342-.6h.68l.325.6a3.35,3.35,0,0,0,.755-.233l-.075-.68.557-.39.619.294a3.509,3.509,0,0,0,.474-.627l-.439-.509.219-.645.671-.123a3.142,3.142,0,0,0,.031-.412,3.618,3.618,0,0,0,0-.377l-.671-.14-.2-.645.474-.5a3.513,3.513,0,0,0-.439-.649l-.627.281-.544-.4.079-.684a3.654,3.654,0,0,0-.746-.254l-.342.6h-.68l-.325-.6a3.422,3.422,0,0,0-.755.233l.075.684-.553.391-.619-.294a3.471,3.471,0,0,0-.469.632l.439.509-.215.645-.676.123a3.074,3.074,0,0,0-.013.408Zm2.448-1.158a1.22,1.22,0,1,1,0-.013Z" transform="translate(-56.617 -209.905)" fill="#ff597d"/>
        <path id="Path_143" data-name="Path 143" d="M19.338,86.136a11.1,11.1,0,0,0,.1,1.316l2.312.439.746,2.194-1.579,1.755a11.732,11.732,0,0,0,1.619,2.194l2.123-1.018,1.9,1.347-.25,2.343a11.458,11.458,0,0,0,2.531.812l1.132-2.071h2.334L33.469,97.5a11.915,11.915,0,0,0,2.575-.877l-.3-2.338,1.873-1.391,2.145.974a11.556,11.556,0,0,0,1.575-2.194l-1.61-1.715.7-2.224,2.308-.474a11.541,11.541,0,0,0,.07-1.413,11.308,11.308,0,0,0-.088-1.294L40.4,84.113l-.737-2.194,1.588-1.755a11.845,11.845,0,0,0-1.614-2.194L37.506,78.98l-1.9-1.351.263-2.343a11.547,11.547,0,0,0-2.588-.816l-1.128,2.071H29.819l-1.163-2.053a11.846,11.846,0,0,0-2.575.877l.307,2.334L24.5,79.09l-2.15-.97a11.543,11.543,0,0,0-1.571,2.194L22.4,82.02l-.7,2.229-2.308.478a12.017,12.017,0,0,0-.061,1.408Zm8.336-4.163a5.265,5.265,0,1,1-.614,7.414,5.265,5.265,0,0,1,.614-7.414Z" transform="translate(-10.855 -41.554)" fill="#ff597d"/>
        <path id="Path_144" data-name="Path 144" d="M230.79,89.541v7.392a4.536,4.536,0,0,0,4.532,4.532h3.6v6.085l6.655-6.085H257.1a8.226,8.226,0,0,0,8.226-8.23h0A8.222,8.222,0,0,0,257.1,85H235.322a4.532,4.532,0,0,0-4.532,4.541Z" transform="translate(-129.54 -47.464)" fill="#ff597d"/>
        <path id="Path_145" data-name="Path 145" d="M253.74,101.465a1.391,1.391,0,1,1-.407-.988A1.4,1.4,0,0,1,253.74,101.465Z" transform="translate(-140.855 -55.923)" fill="#fff"/>
        <path id="Path_146" data-name="Path 146" d="M269.58,101.465a1.4,1.4,0,1,1-1.4-1.4A1.4,1.4,0,0,1,269.58,101.465Z" transform="translate(-149.746 -55.923)" fill="#fff"/>
        <path id="Path_147" data-name="Path 147" d="M285.43,101.465a1.391,1.391,0,1,1-.406-.986,1.4,1.4,0,0,1,.406.986Z" transform="translate(-158.642 -55.923)" fill="#fff"/>
        <rect id="Rectangle_45" data-name="Rectangle 45" width="45.153" height="32.136" transform="translate(53.812 48.407) rotate(-9)" fill="#fff"/>
        <path id="Path_148" data-name="Path 148" d="M179.265,138.492l-6.475-2.672,1.145,7.208Z" transform="translate(-96.986 -75.989)" fill="#7557e4" fill-rule="evenodd"/>
        <rect id="Rectangle_46" data-name="Rectangle 46" width="44.188" height="31.127" transform="translate(61.217 88.234) rotate(-9.6)" fill="#fff"/>
        <rect id="Rectangle_47" data-name="Rectangle 47" width="44.188" height="6.813" transform="translate(61.216 88.228) rotate(-9.6)" fill="#ff597d"/>
        <rect id="Rectangle_48" data-name="Rectangle 48" width="21.401" height="1.391" transform="translate(80.886 97.872) rotate(-9.6)" fill="#788fec"/>
        <rect id="Rectangle_49" data-name="Rectangle 49" width="21.401" height="1.391" transform="translate(81.361 100.68) rotate(-9.6)" fill="#788fec"/>
        <rect id="Rectangle_50" data-name="Rectangle 50" width="16.825" height="1.378" transform="translate(81.833 103.487) rotate(-9.6)" fill="#788fec"/>
        <rect id="Rectangle_51" data-name="Rectangle 51" width="11.433" height="1.391" transform="translate(82.308 106.299) rotate(-9.6)" fill="#788fec"/>
        <rect id="Rectangle_52" data-name="Rectangle 52" width="11.788" height="10.187" transform="translate(66.803 100.203) rotate(-9.6)" fill="#7557e4"/>
        <path id="Path_149" data-name="Path 149" d="M149.466,206.082a.667.667,0,1,1-.768-.544A.667.667,0,0,1,149.466,206.082Z" transform="translate(-83.151 -115.115)" fill="#fff"/>
        <path id="Path_150" data-name="Path 150" d="M155.156,205.122a.667.667,0,1,1-.768-.544A.667.667,0,0,1,155.156,205.122Z" transform="translate(-86.345 -114.576)" fill="#fff"/>
        <path id="Path_151" data-name="Path 151" d="M160.835,204.157a.667.667,0,1,1-.768-.548.667.667,0,0,1,.768.548Z" transform="translate(-89.532 -114.032)" fill="#fff"/>
        <path id="Path_152" data-name="Path 152" d="M196.733,271.794l5.19,30.574h0l-43.433,7.37-5.19-30.583h0l43.411-7.366Z" transform="translate(-86.046 -152.306)" fill="url(#linear-gradient)"/>
        <rect id="Rectangle_53" data-name="Rectangle 53" width="44.038" height="6.787" transform="matrix(0.986, -0.167, 0.167, 0.986, 67.265, 126.856)" fill="#3a5dec"/>
        <circle id="Ellipse_29" data-name="Ellipse 29" cx="5.817" cy="5.817" r="5.817" transform="matrix(0.992, -0.127, 0.127, 0.992, 72.511, 138.085)" fill="#ff597d"/>
        <rect id="Rectangle_54" data-name="Rectangle 54" width="21.326" height="1.386" transform="matrix(0.986, -0.167, 0.167, 0.986, 86.87, 136.453)" fill="#7557e4"/>
        <rect id="Rectangle_55" data-name="Rectangle 55" width="21.326" height="1.386" transform="matrix(0.986, -0.167, 0.167, 0.986, 87.345, 139.252)" fill="#7557e4"/>
        <rect id="Rectangle_56" data-name="Rectangle 56" width="21.326" height="1.386" transform="matrix(0.986, -0.167, 0.167, 0.986, 87.82, 142.05)" fill="#7557e4"/>
        <rect id="Rectangle_57" data-name="Rectangle 57" width="21.326" height="1.386" transform="matrix(0.986, -0.167, 0.167, 0.986, 88.295, 144.853)" fill="#7557e4"/>
        <path id="Path_153" data-name="Path 153" d="M178.319,320.575a1.014,1.014,0,0,0,.246-.834,1.031,1.031,0,1,0-2.031.342,1.013,1.013,0,0,0,.553.733,1.623,1.623,0,0,0-.706,1.632l.233,1.373,3.229-.526-.233-1.378a1.636,1.636,0,0,0-1.29-1.342Z" transform="translate(-98.987 -178.712)" fill="#fff"/>
        <path id="Path_154" data-name="Path 154" d="M163.237,294.148a.583.583,0,1,1-.676-.478A.583.583,0,0,1,163.237,294.148Z" transform="translate(-90.973 -164.582)" fill="#fff"/>
        <path id="Path_155" data-name="Path 155" d="M168.217,293.307a.579.579,0,1,1-.236-.379.584.584,0,0,1,.236.379Z" transform="translate(-93.769 -164.11)" fill="#fff"/>
        <path id="Path_156" data-name="Path 156" d="M173.207,292.458a.583.583,0,1,1-.676-.478.584.584,0,0,1,.676.478Z" transform="translate(-96.569 -163.634)" fill="#fff"/>
        <rect id="Rectangle_58" data-name="Rectangle 58" width="45.324" height="6.787" transform="translate(53.627 48.441) rotate(-9.1)" fill="#3a5dec"/>
        <path id="Path_157" data-name="Path 157" d="M132.147,115.888a.583.583,0,1,1-.671-.478A.583.583,0,0,1,132.147,115.888Z" transform="translate(-73.523 -64.528)" fill="#fff"/>
        <path id="Path_158" data-name="Path 158" d="M137.144,115.084a.583.583,0,1,1-.667-.45A.583.583,0,0,1,137.144,115.084Z" transform="translate(-76.331 -64.092)" fill="#fff"/>
        <path id="Path_159" data-name="Path 159" d="M142.127,114.2a.584.584,0,1,1-.238-.38A.584.584,0,0,1,142.127,114.2Z" transform="translate(-79.125 -63.579)" fill="#fff"/>
        <g id="hands_mobile" data-name="hands &amp; mobile" transform="translate(0 65.561)">
          <path id="Path_160" data-name="Path 160" d="M83.669,175.11a5.352,5.352,0,1,1-6.581-3.738A5.352,5.352,0,0,1,83.669,175.11Z" transform="translate(-41.063 -161.396)" fill="#ff597d"/>
          <path id="Path_161" data-name="Path 161" d="M79.536,176.619a1.272,1.272,0,0,1-.439,1.755l-.566.342a1.268,1.268,0,0,1-1.755-.439L60.491,151.161a1.268,1.268,0,0,1,.439-1.755l.57-.342a1.272,1.272,0,0,1,1.755.439Z" transform="translate(-33.85 -148.879)" fill="#292929"/>
          <path id="Path_162" data-name="Path 162" d="M20.621,211.3,11.5,216.8a1.527,1.527,0,0,1-2.088-.522l-6.375-10.6a1.527,1.527,0,0,1,.518-2.088l7.822-4.707a1.531,1.531,0,0,1,2.088.522Z" transform="translate(-1.582 -176.822)" fill="#292929"/>
          <path id="Path_163" data-name="Path 163" d="M1.612,215.25a5.444,5.444,0,0,0-.838,6.655l.75,1.25A5.458,5.458,0,0,0,7.8,225.534Z" transform="translate(-0.004 -186.132)" fill="#3a5dec"/>
          <path id="Path_164" data-name="Path 164" d="M27.08,175.183l6.471,10.757A44.446,44.446,0,0,1,57.795,181.4L42.211,155.52A43.793,43.793,0,0,1,27.08,175.183Z" transform="translate(-15.201 -152.606)" fill="#3a5dec"/>
          <path id="Path_165" data-name="Path 165" d="M21.66,234.355a1.427,1.427,0,0,0,.1.127l1.939,1.65a.759.759,0,0,0,1.057-.075l5.7,9.8.211.351.351.636a.763.763,0,0,0,1.044.259l4.492-2.7a.768.768,0,0,0,.259-1.044l-.592-.978a.777.777,0,0,0-1.04-.263s-1.878-2.531-2.593-3.72c-.877-1.492-3.282-5.453-4.067-6.765l1.075-1.259a.763.763,0,0,0,.092-.847Z" transform="translate(-12.159 -194.141)" fill="#3a5dec"/>
          <path id="Path_166" data-name="Path 166" d="M37.34,234.31l2.382,2.036-.627.882Z" transform="translate(-20.96 -196.83)" fill="#afafaf"/>
        </g>
        <path id="Path_167" data-name="Path 167" d="M92.263,143.346l-2.86,7.09a.649.649,0,0,1-.842.36h0a.654.654,0,0,1-.36-.847l2.874-7.09a.645.645,0,0,1,.842-.36h0A.649.649,0,0,1,92.263,143.346Z" transform="translate(-49.481 -79.711)" fill="#ff597d"/>
        <path id="Path_168" data-name="Path 168" d="M104.126,155.579,98.734,161a.649.649,0,0,1-.917,0h0a.649.649,0,0,1,0-.917l5.4-5.427a.649.649,0,0,1,.917,0h0a.645.645,0,0,1,0,.921Z" transform="translate(-54.799 -86.455)" fill="#ff597d"/>
        <path id="Path_169" data-name="Path 169" d="M111.168,171.894l-7.261,2.466a.645.645,0,0,1-.82-.408h0a.649.649,0,0,1,.4-.82l7.243-2.466a.645.645,0,0,1,.82.408h0a.645.645,0,0,1-.386.82Z" transform="translate(-57.843 -95.528)" fill="#ff597d"/>
        <path id="Path_170" data-name="Path 170" d="M114.727,187.587l-7.634.724a.649.649,0,0,1-.706-.583h0a.654.654,0,0,1,.584-.706l7.616-.724a.654.654,0,0,1,.706.583h0a.649.649,0,0,1-.566.706Z" transform="translate(-59.713 -104.319)" fill="#ff597d"/>
        <rect id="Rectangle_59" data-name="Rectangle 59" width="14.236" height="14.236" rx="2.98" transform="translate(56.91 3.023) rotate(-12.26)" fill="#3a5dec"/>
        <path id="Path_171" data-name="Path 171" d="M146.133,10.387a2.553,2.553,0,0,0-3.426.877l-.044.066-.07-.044a2.549,2.549,0,0,0-3.479.627,2.488,2.488,0,0,0,.7,3.51l3.668,2.237a.79.79,0,0,0,1.062-.228l2.4-3.558a2.483,2.483,0,0,0-.812-3.488Z" transform="translate(-77.836 -5.399)" fill="#fff"/>
        <path id="Path_172" data-name="Path 172" d="M151.321,31.85l-2.6,3.729-3.729-2.6" transform="translate(-81.382 -17.632)" fill="#3a5dec"/>
      </g>
    </g>
  </g>
</svg>
