<svg xmlns="http://www.w3.org/2000/svg" width="17.349" height="13.628" viewBox="0 0 17.349 13.628">
  <g id="Email" transform="translate(0 0)">
    <g id="ELEMENTS" transform="translate(0 0)">
      <path id="Path_5" data-name="Path 5" d="M14.847,0H2.52A2.506,2.506,0,0,0,0,2.506v8.62a2.506,2.506,0,0,0,2.506,2.5H14.833a2.506,2.506,0,0,0,2.516-2.5V2.506A2.506,2.506,0,0,0,14.847,0Zm0,1.2a1.287,1.287,0,0,1,.3.037L9.939,7.14a1.68,1.68,0,0,1-2.525,0L2.21,1.233a1.228,1.228,0,0,1,.3-.037Zm1.306,9.93a1.306,1.306,0,0,1-1.306,1.306H2.52a1.31,1.31,0,0,1-1.31-1.306V2.506a1.292,1.292,0,0,1,.087-.5L6.515,7.944a2.876,2.876,0,0,0,4.319,0l5.223-5.935a1.37,1.37,0,0,1,.1.5Z" transform="translate(0 0)" fill="#616368"/>
    </g>
  </g>
</svg>
