<svg xmlns="http://www.w3.org/2000/svg" width="60" height="60" viewBox="0 0 60 60">
  <g id="facebook" transform="translate(0.001 -0.006)">
    <g id="ELEMENTS" transform="translate(-0.001 0.006)">
      <path id="Path_43" data-name="Path 43" d="M60,30A30,30,0,1,0,25.319,59.642V38.663H17.688V30h7.631V23.383c0-7.513,4.477-11.668,11.328-11.668a45.783,45.783,0,0,1,6.783.594v7.377H39.581a4.341,4.341,0,0,0-4.9,4.681V30h8.326l-1.323,8.666h-7V59.642A30.017,30.017,0,0,0,60,30Z" transform="translate(0.001 -0.006)" fill="#324070"/>
      <path id="Path_44" data-name="Path 44" d="M35.01,34.479l1.353-8.866H27.844v-5.76a4.442,4.442,0,0,1,5.014-4.789h3.869V7.517a46.846,46.846,0,0,0-6.94-.607c-6.94,0-11.59,4.251-11.59,11.937v6.767H10.39v8.866H18.2V55.942a31.647,31.647,0,0,0,9.577,0V34.479Z" transform="translate(6.925 3.694)" fill="#fff"/>
    </g>
  </g>
</svg>
