<svg xmlns="http://www.w3.org/2000/svg" width="365" height="1028.14" viewBox="0 0 365 1028.14">
  <g id="Half_Hand_" data-name="Half Hand " transform="translate(0 0.002)">
    <g id="Process_Layer" data-name="Process Layer">
      <path id="Path_67" data-name="Path 67" d="M89.73,764.21c.07.63-.5,1.12-1,1.49q-6.43,4.56-13.14,8.71a20.689,20.689,0,0,0-3.87,2.81c-.74.75-1.37,1.61-2.13,2.33-1.73,1.63-4.07,2.43-6.09,3.68-3.82,2.36-6.55,6.33-10.63,8.21" fill="none" stroke="#253e72" stroke-miterlimit="10" stroke-width="3"/>
      <path id="Path_68" data-name="Path 68" d="M40.89,1026.61c-.61.15-1.17-.37-1.59-.84q-5.25-5.88-10.13-12.08a20.473,20.473,0,0,0-3.23-3.53c-.83-.66-1.76-1.18-2.56-1.86-1.81-1.54-2.87-3.76-4.34-5.63-2.77-3.54-7-5.8-9.35-9.64" fill="none" stroke="#253e72" stroke-miterlimit="10" stroke-width="3"/>
      <rect id="Rectangle_40" data-name="Rectangle 40" width="37" height="37" transform="translate(116.34 550.647) rotate(-45)" fill="#ee6b04"/>
      <path id="Path_69" data-name="Path 69" d="M236.27,272.14c-.38,3.36,1.69,6.44,3.28,9.42a74.144,74.144,0,0,1,4.23,10.31l3.47,9.86c1.47,4.17,3,8.42,3.12,12.84" fill="none" stroke="#253e72" stroke-miterlimit="10" stroke-width="3"/>
      <path id="Path_70" data-name="Path 70" d="M33.76,23.2c3.37-.25,6-2.86,8.65-5a73.77,73.77,0,0,1,9.33-6.06L60.8,6.91c3.82-2.22,7.72-4.47,12-5.45" fill="none" stroke="#253e72" stroke-miterlimit="10" stroke-width="3"/>
      <circle id="Ellipse_25" data-name="Ellipse 25" cx="11" cy="11" r="11" transform="translate(341.5 142.65)" fill="none" stroke="#253e72" stroke-miterlimit="10" stroke-width="3"/>
      <path id="Path_71" data-name="Path 71" d="M126.06,299.15a75.168,75.168,0,0,1-2,8.75c-.18.65-.38,1.3-.59,2-.46,1.44-1,2.84-1.53,4.18a2.868,2.868,0,0,1-.15.37c-.88,2.19-2.84,4.58-3.81,6.75-2,2.21-3,3-4,5.47a14.329,14.329,0,0,1-1.54,1.21,20.679,20.679,0,0,1-8.61,3.06,70.372,70.372,0,0,1-10.59.78,29.72,29.72,0,0,1-3.4,0c-2.67,0-5.85-.08-8.47-1.56A7,7,0,0,1,77.76,324a16.21,16.21,0,0,1-7.55-3.08,8.12,8.12,0,0,1-3-7.05l-.66-.45a5.19,5.19,0,0,1-2.18-2.1,5.41,5.41,0,0,1-.23-2.79,12.839,12.839,0,0,1,.35-2.09,5,5,0,0,1-2-2.81,4,4,0,0,1,.95-3.32,9.821,9.821,0,0,1,2.53-2.07,10.576,10.576,0,0,1,1-.62,4.6,4.6,0,0,1,.5-.24,1.81,1.81,0,0,1-1.24-.47,55.749,55.749,0,0,1-4.49-3.94c-1.75-2.78-4.75-4.78-6.87-8-.4-.56-.78-1.13-1.16-1.7a4.83,4.83,0,0,1-.84-1.81,4.72,4.72,0,0,1,.15-1.67c1.47-6.45,5.49-12.07,10.18-16.74.58-.57,1.16-1.13,1.76-1.69h0c5-3.13,9-6.13,12.57-10.41l.57-.46a15.48,15.48,0,0,1,2.93-2,6,6,0,0,1,5,0c.55.23,1.1.47,1.64.72l.2.1h0c2.07,1,3.07,3,6,3.51a57.59,57.59,0,0,1,8.12,6.83c1.72,1.72,3.28,3.55,4.82,5.41,3.08,4.23,6.08,8.23,11.08,12.23.09.15.18.08.26.23a50.929,50.929,0,0,1,4.8,6.88,22.13,22.13,0,0,1,3.4,8.67A22.51,22.51,0,0,1,126.06,299.15Z" fill="#fff"/>
      <path id="Path_72" data-name="Path 72" d="M108.52,314.93a11,11,0,0,0-1.94-3h0a5.29,5.29,0,0,1,.84,2.68c.21,2.64-1.39,5.45-4.8,5.45a4.52,4.52,0,0,1-4.24-2.52A4.66,4.66,0,0,1,94.82,319a5.16,5.16,0,0,1-1.91-.35,27.91,27.91,0,0,0,8.47,2.64c1.57.23,5.4.49,7-2a4.9,4.9,0,0,0,.14-4.36Z" fill="none"/>
      <path id="Path_73" data-name="Path 73" d="M106.61,310.43a1.562,1.562,0,0,0,.16-.28,4.571,4.571,0,0,0,.32-1.2q1.06-6.39,2.16-12.8a69.152,69.152,0,0,1-21-3.39,87.189,87.189,0,0,0,10,9.78,112.012,112.012,0,0,1,8.26,7.77Z" fill="none"/>
      <path id="Path_74" data-name="Path 74" d="M76.77,305.87a29.617,29.617,0,0,0-4,1.71c-2.86,1.47-4.58,3.16-5.27,5.19l-.34-.23a4.39,4.39,0,0,1-1.82-1.68,4.45,4.45,0,0,1-.14-2.27,13.431,13.431,0,0,1,.23-1.62h.06a.508.508,0,0,0,.3-.91h0a3.76,3.76,0,0,1,.3-.56,6,6,0,0,1,2-1.59,31.759,31.759,0,0,1,4.22-2C73.69,303.16,75.25,304.49,76.77,305.87Z" fill="none"/>
      <path id="Path_75" data-name="Path 75" d="M90.12,317.12c-5.19-1.63-8.32-6.71-11.4-10.83a6.221,6.221,0,0,1,1.39,1.16,6.171,6.171,0,0,1-1.39-1.16A2.34,2.34,0,0,0,81,304.94c-3,.95-6-1-7.73-3.42" fill="none"/>
      <path id="Path_76" data-name="Path 76" d="M86.91,292.6c5.77,6,11.71,11.89,18,17.43" fill="none"/>
      <path id="Path_77" data-name="Path 77" d="M84.32,289.31a4.391,4.391,0,0,1-.18-.69,5.51,5.51,0,0,1-.14-1.57v-.11a.529.529,0,0,1,.06.1h0a5.179,5.179,0,0,1,.55.83,2.7,2.7,0,0,1-.56-.83.531.531,0,0,0-.06-.1l.08.1a13.426,13.426,0,0,0,1,1.14c5.91,6.39,15.75,6,24,6.81l1.19.13h.19c-.38.41-1,3.67-1.25,1.92a6.35,6.35,0,0,1-.07-.91h0v-1.2a4.48,4.48,0,0,1,1.19.18h.22a.81.81,0,0,1,.58.73,47.709,47.709,0,0,1-1.65,5.62h0c-.93,2.83-1.79,5.66-1.47,8.48a8.892,8.892,0,0,0,.13.88c.16.64.37,1.3.6,2a32.9,32.9,0,0,1,1.33,4.48c.26,1.6,0,2.89-1.56,3.44l-.37.11c-5,2-11,0-16-2-2-1-5,0-8,0a9,9,0,0,0-2.64,1.49,8.42,8.42,0,0,0-2.51,3.07.769.769,0,0,0-.07.16,1.139,1.139,0,0,0-.09.26h0a3.32,3.32,0,0,0,.32,3c2.84,3.24,6.66,4.52,10.87,4.75a29.72,29.72,0,0,0,3.4,0c5.26-.3,10.85-1.76,15.73-2.73a15.37,15.37,0,0,0,5-2.32c2.07-1.45,2.85-3.19,4-5.47,1-2.17,2.93-4.56,3.81-6.75A2.871,2.871,0,0,0,122,314c.56-1.39,1.07-2.78,1.53-4.18a34.87,34.87,0,0,0,2-13.57,26.2,26.2,0,0,0-.45-3.34,29.619,29.619,0,0,0-2.13-7,72,72,0,0,0-4.61-8.56c-.08-.15-.17-.29-.26-.44-3.62-4.22-7.24-8.08-11.08-12-2.53-2.59-5.14-5.2-7.92-8-1.79-1.34-3.37-2.88-5-4.26a16.5,16.5,0,0,0-6-3.51h0c-.29-.08-.6-.16-.91-.22-3-1-6,0-8,1-.48.31-1,.61-1.43.93A72.212,72.212,0,0,0,65,261.28h0a46.38,46.38,0,0,0-9.38,14.14c-.21.5-.41,1-.59,1.5a11.479,11.479,0,0,0-.68,2.35,9.36,9.36,0,0,0-.15,2.22,9.79,9.79,0,0,0,.71,3.4c1.21,3.14,3.84,5.82,6.87,8a42.619,42.619,0,0,0,4.7,2.94c1.14.62,2.26,1.18,3.33,1.67-.25.15-.51.29-.77.43l3.38,2.81" fill="none"/>
      <path id="Path_78" data-name="Path 78" d="M84.32,290.31a4.391,4.391,0,0,1-.18-.69,5.51,5.51,0,0,1-.14-1.57v-.11a.529.529,0,0,1,.06.1h0a5.18,5.18,0,0,1,.55.83,2.7,2.7,0,0,1-.56-.83.531.531,0,0,0-.06-.1l.08.1a13.434,13.434,0,0,0,1,1.14c5.91,6.39,15.75,6,24,6.81l1.19.13h.19c-.38.41-1,3.67-1.25,1.92a6.348,6.348,0,0,1-.07-.91h0v-1.2a4.48,4.48,0,0,1,1.19.18h.22a.81.81,0,0,1,.58.73,47.707,47.707,0,0,1-1.65,5.62h0c-.93,2.83-1.79,5.66-1.47,8.48a8.892,8.892,0,0,0,.13.88c.16.64.37,1.3.6,2a32.9,32.9,0,0,1,1.33,4.48c.26,1.6,0,2.89-1.56,3.44l-.37.11c-5,2-11,0-16-2-2-1-5,0-8,0a9,9,0,0,0-2.64,1.49,8.42,8.42,0,0,0-2.51,3.07.769.769,0,0,0-.07.16,1.14,1.14,0,0,0-.09.26h0a3.32,3.32,0,0,0,.32,3c2.84,3.24,6.66,4.52,10.87,4.75a29.72,29.72,0,0,0,3.4,0c5.26-.3,10.85-1.76,15.73-2.73a15.83,15.83,0,0,0,10-8c1-2.17,1.93-4.35,2.81-6.54A2.871,2.871,0,0,0,122,315c.56-1.39,1.07-2.78,1.53-4.18a34.87,34.87,0,0,0,2-13.57,26.2,26.2,0,0,0-.45-3.34,29.619,29.619,0,0,0-2.13-7,72,72,0,0,0-4.61-8.56c-.08-.15-.17-.29-.26-.44-3.62-4.22-7.24-8.08-11.08-12-2.53-2.59-5.14-5.2-7.92-8-1.79-1.34-3.37-2.88-5-4.26a16.5,16.5,0,0,0-6-3.51h0c-.29-.08-.6-.16-.91-.22-3-1-6,0-8,1-.48.31-1,.61-1.43.93A72.21,72.21,0,0,0,65,262.28h0a46.38,46.38,0,0,0-9.38,14.14c-.21.5-.41,1-.59,1.5a11.48,11.48,0,0,0-.68,2.35,9.36,9.36,0,0,0-.15,2.22,9.79,9.79,0,0,0,.71,3.4c1.21,3.14,3.84,5.82,6.87,8a42.618,42.618,0,0,0,4.7,2.94c1.14.62,2.26,1.18,3.33,1.67-.25.15-.51.29-.77.43l3.38,2.81" fill="none"/>
      <path id="Path_79" data-name="Path 79" d="M67.49,303a33.613,33.613,0,0,1,3.82-1.85l-.63-.51c-1-.79-1.91-1.58-2.86-2.39a10.472,10.472,0,0,0-1.34.76,9.2,9.2,0,0,0-2.3,1.86,3.14,3.14,0,0,0-.74,2.49,3.74,3.74,0,0,0,1.44,2,3.1,3.1,0,0,1,.29-.5A6.659,6.659,0,0,1,67.49,303Z" fill="none"/>
      <path id="Path_80" data-name="Path 80" d="M89.78,318c-.71.11-1.42.19-2.12.24h-.45c-3.28.25-7.38.57-9,3.7a4.909,4.909,0,0,0-.34,1,15.2,15.2,0,0,1-7.05-2.85,7.32,7.32,0,0,1-2.69-5.44l.07.08a.5.5,0,0,0,.41.22.46.46,0,0,0,.29-.1.5.5,0,0,0,.12-.69,4.22,4.22,0,0,0-.74-.78.468.468,0,0,1,.08-.32c.6-1.76,2.16-3.28,4.79-4.63a32,32,0,0,1,4.43-1.84c1.09,1,2.17,2.05,3.2,3.13.57.59,1.12,1.19,1.68,1.8,1.08,1.18,2.2,2.4,3.41,3.51A27.783,27.783,0,0,0,89.78,318Z" fill="none"/>
      <path id="Path_81" data-name="Path 81" d="M109.84,295.15H109a67.859,67.859,0,0,1-21.88-3.81A32.282,32.282,0,0,1,85,288.18c-.18-.29-.34-.58-.5-.88a.49.49,0,0,0-.46-.26H84l-.14.05a.5.5,0,0,0-.2.68q.23.42.48.84c.41.71.86,1.42,1.33,2.12h-.08a4.681,4.681,0,0,1,.45.62,5,5,0,0,1,.56.8h.1c3.14,4.14,7.15,7.67,11,11.09h0c2.43,2.13,4.94,4.34,7.22,6.67l.06.06.9,1,.16.18a4.24,4.24,0,0,1,.63.77h0a11,11,0,0,1,1.94,3,4.9,4.9,0,0,1-.19,4.4,3.455,3.455,0,0,1-.22.31,2.1,2.1,0,0,1-.24.27,4.43,4.43,0,0,1-1.81,1.11l-.24.08a10.18,10.18,0,0,1-3.6.29l-.84-.1-1.09-.17c-.63-.12-1.27-.26-1.9-.42a28.611,28.611,0,0,1-5.45-2,4.5,4.5,0,0,1-.73-.36h-.07a4.45,4.45,0,0,1-1.2-.7,25.42,25.42,0,0,1-4.36-3.24c-1.18-1.08-2.29-2.28-3.36-3.45-.56-.61-1.12-1.22-1.69-1.82s-1.39-1.41-2.11-2.09h0c-.22-.22-.43-.43-.65-.63l-.84.24c-.09,0-.18.07-.27.09,1.09,1,2.17,2.05,3.2,3.13.57.59,1.12,1.19,1.68,1.8,1.08,1.18,2.2,2.4,3.41,3.51a27.777,27.777,0,0,0,3.88,3c-.71.11-1.42.19-2.12.24h-.45c-3.28.25-7.38.57-9,3.7a4.91,4.91,0,0,0-.34,1l.46.09a.5.5,0,0,1,.47.33,3.57,3.57,0,0,1,.31-.92,4.5,4.5,0,0,1,2.22-2,18.121,18.121,0,0,1,5.93-1.12h.45c1.1-.09,2.23-.24,3.37-.44a29.06,29.06,0,0,0,10.13,3.45c1.54.22,5,.45,7.13-1.46a4.69,4.69,0,0,0,.8-1,5.09,5.09,0,0,0,.76-2.48,6.89,6.89,0,0,0-.47-2.82,10.379,10.379,0,0,0-.86-1.66,14.851,14.851,0,0,0-1.31-1.72,3.19,3.19,0,0,0,.38-.6,3.817,3.817,0,0,0,.2-.53,7.88,7.88,0,0,0,.2-.94q.63-3.76,1.27-7.54h0q.48-2.91,1-5.83l.09-.52v-.06Zm-2.6,12.92a5.674,5.674,0,0,1-.13.88,5.428,5.428,0,0,1-.2.84,2,2,0,0,1-.1.26,1.77,1.77,0,0,1-.15.31h0l-.15-.07h0a10.15,10.15,0,0,1-1.77-1.81l-.18-.19-.06-.07-.84-.8-1.49-1.4-1.78-1.6-2.11-1.86-.9-.79c-1-.9-2-1.8-3-2.72l-.6-.55-1.4-1.34-.84-.83c-.48-.48-1-1-1.4-1.47-.27-.28-.53-.57-.78-.86s-.7-.8-1-1.21q2.53.83,5.13,1.44a71.128,71.128,0,0,0,7.25,1.34c1.53.2,3.06.35,4.6.45,1.06.07,2.12.11,3.17.12h.83l-.15.91q-.78,4.59-1.54,9.18A11.511,11.511,0,0,0,107.24,308.07Z"/>
      <path id="Path_82" data-name="Path 82" d="M71.31,301.18l1.08-.4-1.07-.88L69,298a3.439,3.439,0,0,0-1.19.31c1,.81,1.91,1.6,2.86,2.39Z"/>
      <path id="Path_83" data-name="Path 83" d="M126.06,299.15a75.168,75.168,0,0,1-2,8.75c-.18.65-.38,1.3-.59,2-.46,1.44-1,2.84-1.53,4.18a2.868,2.868,0,0,1-.15.37,47.749,47.749,0,0,1-3.73,7.19,24,24,0,0,1-4.07,5,14.333,14.333,0,0,1-1.54,1.21,20.68,20.68,0,0,1-8.61,3.06,70.368,70.368,0,0,1-10.59.78H89.83c-2.67,0-5.85-.08-8.47-1.56a7,7,0,0,1-3.6-6.13l.46.09h.14a.44.44,0,0,0,.32-.13h0a.27.27,0,0,0,.07-.08,6,6,0,0,0,3.14,5.41c2.53,1.44,5.64,1.44,8.39,1.44a84,84,0,0,0,13.41-.78,19.91,19.91,0,0,0,8.21-2.9,19.859,19.859,0,0,0,5.33-6c3.78-6,6.35-13.19,7.84-22.06.16-1,.29-1.86.37-2.71a16.72,16.72,0,0,0,0-3.24,19.12,19.12,0,0,0-2.59-7.1c-.22-.4-.44-.79-.67-1.17a50.811,50.811,0,0,0-5.11-7.24c-2.46-2.83-5.32-5.36-7.8-8.21s-4.85-5.7-7.42-8.42c-4.77-5.06-10.31-9.69-16.94-11.79a5,5,0,0,0-2.48-.32c-1.65.3-2.88,1.69-4.12,2.7-1.48,1.2-3,2.37-4.48,3.55-2.93,2.31-5.86,4.64-8.58,7.2a39.78,39.78,0,0,0-9.68,13.2A26.569,26.569,0,0,0,54.38,279a2,2,0,0,0-.06.26,5.34,5.34,0,0,0-.18,2.1.53.53,0,0,0,0,.12,6.6,6.6,0,0,0,1.29,2.56,63.75,63.75,0,0,0,11,11.8c.49.41,1,.81,1.48,1.2a.87.87,0,0,1-.16.17,1.566,1.566,0,0,0-.28.1h0a1.81,1.81,0,0,1-1.24-.47,58.181,58.181,0,0,1-11.36-12c-.4-.56-.78-1.13-1.16-1.7a4.83,4.83,0,0,1-.84-1.81,4.72,4.72,0,0,1,.15-1.67c1.47-6.45,5.49-12.07,10.18-16.74.58-.57,1.16-1.13,1.76-1.69h0c4-3.7,8.35-7,12.57-10.41l.57-.46a15.48,15.48,0,0,1,2.93-2,6,6,0,0,1,5,0c.55.23,1.1.47,1.64.72l.2.1h0a42.34,42.34,0,0,1,6,3.51,57.591,57.591,0,0,1,8.12,6.83c1.72,1.72,3.28,3.55,4.82,5.41a94.375,94.375,0,0,0,7.26,8.22c.92.87,1.86,1.78,2.74,2.72.46.48.9,1,1.34,1.52a50.929,50.929,0,0,1,4.8,6.88,22.13,22.13,0,0,1,3.4,8.67A22.51,22.51,0,0,1,126.06,299.15Z"/>
      <path id="Path_84" data-name="Path 84" d="M76.77,305.87l.81-.3.28-.08c-1.52-1.39-3.08-2.71-4.59-4-.36.12-.72.26-1.07.4C73.69,303.16,75.25,304.49,76.77,305.87Z"/>
      <path id="Path_85" data-name="Path 85" d="M64.18,300.9a3.14,3.14,0,0,0-.74,2.49,3.71,3.71,0,0,0,1.44,2,4.85,4.85,0,0,0-.38,1,5,5,0,0,1-2-2.81,4,4,0,0,1,.95-3.32,9.821,9.821,0,0,1,2.53-2.07,10.575,10.575,0,0,1,1-.62c.2.17.4.35.6.51l.12.1.12.1a9.315,9.315,0,0,0-1.34.75A9.2,9.2,0,0,0,64.18,300.9Z"/>
      <path id="Path_86" data-name="Path 86" d="M69,298a3.46,3.46,0,0,0-1.19.32l-.12-.1-.12-.1c-.2-.16-.4-.34-.6-.51a4.594,4.594,0,0,1,.5-.24h0a1.569,1.569,0,0,1,.28-.1l.24-.09.07.06.15.12Z"/>
      <path id="Path_87" data-name="Path 87" d="M67.45,312.77h0a6.311,6.311,0,0,0-.18.72v.33l-.66-.45a5.19,5.19,0,0,1-2.18-2.1,5.41,5.41,0,0,1-.23-2.79,12.839,12.839,0,0,1,.35-2.09c.21.17.43.33.65.49a.49.49,0,0,0,.23.08,13.43,13.43,0,0,0-.23,1.62,4.45,4.45,0,0,0,.14,2.27,4.39,4.39,0,0,0,1.82,1.68Z"/>
      <path id="Path_88" data-name="Path 88" d="M68,303.9a31.759,31.759,0,0,1,4.22-2l-.24-.2-.65-.54A33.606,33.606,0,0,0,67.49,303a6.66,6.66,0,0,0-2.32,1.89,3.1,3.1,0,0,0-.29.5c.25.21.53.42.81.63a3.321,3.321,0,0,1,.3-.56A6,6,0,0,1,68,303.9Z"/>
      <path id="Path_89" data-name="Path 89" d="M72.39,300.78l.21.18.67.56" fill="none"/>
      <path id="Path_90" data-name="Path 90" d="M72,301.72l.24.2c.35-.14.71-.28,1.07-.4L72.6,301l-.21-.17-1.08.4Z"/>
      <path id="Path_91" data-name="Path 91" d="M65.69,306.05a5.529,5.529,0,0,0-.31.92.49.49,0,0,1-.23-.08c-.22-.16-.44-.32-.65-.49a4.85,4.85,0,0,1,.38-1C65.13,305.63,65.41,305.84,65.69,306.05Z"/>
      <path id="Path_92" data-name="Path 92" d="M73.18,308.46a30.827,30.827,0,0,1,4.43-1.84l-.22-.2c-.2-.19-.41-.37-.62-.55a30.874,30.874,0,0,0-4,1.7c-2.86,1.48-4.58,3.17-5.27,5.2a6.609,6.609,0,0,1,.86.64.468.468,0,0,1,.08-.32C69,311.33,70.55,309.81,73.18,308.46Z"/>
      <path id="Path_93" data-name="Path 93" d="M77.9,323a3.22,3.22,0,0,0-.11.5,4,4,0,0,0,0,.49,16.21,16.21,0,0,1-7.55-3.08,8.12,8.12,0,0,1-3-7.05,4,4,0,0,1,.94.85,7.32,7.32,0,0,0,2.69,5.44A15.2,15.2,0,0,0,77.9,323Z"/>
      <path id="Path_94" data-name="Path 94" d="M78.83,323.39a1.742,1.742,0,0,0,0,.22,1.791,1.791,0,0,0,0,.23.48.48,0,0,0,.1-.28A.47.47,0,0,0,78.83,323.39Z"/>
      <path id="Path_95" data-name="Path 95" d="M78.36,324.06a.48.48,0,0,0,.4-.22,1.79,1.79,0,0,1,0-.23,1.743,1.743,0,0,1,0-.22.49.49,0,0,0-.47-.33L77.9,323a3.22,3.22,0,0,0-.11.5,4,4,0,0,0,0,.49l.46.08Z"/>
      <path id="Path_96" data-name="Path 96" d="M78.72,306.29l-.84.24c-.09,0-.18.07-.27.09l-.22-.2c-.2-.19-.41-.37-.62-.55l.81-.3.28-.07.21.18Z"/>
      <path id="Path_97" data-name="Path 97" d="M68.31,313.41a.434.434,0,0,1-.07.28,5.369,5.369,0,0,0-.08,1,4,4,0,0,0-.94-.85v-.33a6.308,6.308,0,0,1,.18-.72h0a7.673,7.673,0,0,1,.91.62Z"/>
      <path id="Path_98" data-name="Path 98" d="M100.78,295c-2.15,1.73-5.15,1.75-7.42,3.28-.39.27,0,.92.38.65,2.33-1.57,5.35-1.62,7.57-3.4C101.69,295.22,101.16,294.7,100.78,295Z"/>
      <path id="Path_99" data-name="Path 99" d="M47,296.15l-47-44v-109l89,103Z" fill="#253e72"/>
    </g>
  </g>
</svg>
