<svg id="Instagram" xmlns="http://www.w3.org/2000/svg" width="60" height="60" viewBox="0 0 60 60">
  <g id="ELEMENTS" transform="translate(0 0)">
    <circle id="Ellipse_9" data-name="Ellipse 9" cx="30" cy="30" r="30" fill="#324070"/>
    <path id="Path_45" data-name="Path 45" d="M24.077,11a2.1,2.1,0,1,0,1.5.609A2.117,2.117,0,0,0,24.077,11Z" transform="translate(15.218 7.623)" fill="#fff"/>
    <path id="Path_46" data-name="Path 46" d="M21.543,12.56a8.865,8.865,0,1,0,8.848,8.865,8.865,8.865,0,0,0-8.848-8.865Zm0,14.538a5.69,5.69,0,1,1,5.673-5.673A5.69,5.69,0,0,1,21.543,27.1Z" transform="translate(8.609 8.541)" fill="#fff"/>
    <path id="Path_47" data-name="Path 47" d="M31.528,41.839H17.714A10.41,10.41,0,0,1,7.32,31.446V17.7A10.41,10.41,0,0,1,17.714,7.29H31.528A10.41,10.41,0,0,1,41.921,17.7V31.513A10.41,10.41,0,0,1,31.528,41.839ZM17.714,10.56a7.14,7.14,0,0,0-7.14,7.14V31.513a7.14,7.14,0,0,0,7.14,7.14H31.528a7.14,7.14,0,0,0,7.14-7.14V17.7a7.14,7.14,0,0,0-7.141-7.14Z" transform="translate(5.379 5.357)" fill="#fff"/>
  </g>
</svg>
