<svg xmlns="http://www.w3.org/2000/svg" width="13.824" height="19.756" viewBox="0 0 13.824 19.756">
  <g id="Phone" transform="translate(0)">
    <g id="ELEMENTS" transform="translate(0)">
      <path id="Path_2" data-name="Path 2" d="M10.9,0H2.922A2.927,2.927,0,0,0,0,2.922V16.813a2.927,2.927,0,0,0,2.922,2.943H10.9a2.927,2.927,0,0,0,2.922-2.922V2.943A2.927,2.927,0,0,0,10.9,0ZM2.922,1.348H10.9a1.579,1.579,0,0,1,1.574,1.574V14.066H1.348V2.922A1.579,1.579,0,0,1,2.922,1.348Zm7.98,17.06H2.922a1.579,1.579,0,0,1-1.574-1.574v-1.4H12.476v1.42A1.574,1.574,0,0,1,10.9,18.408Z" transform="translate(0)" fill="#616368"/>
      <path id="Path_3" data-name="Path 3" d="M12.555,5.381A.54.54,0,1,0,12,4.84a.514.514,0,0,0,.556.54Z" transform="translate(-5.825 -2.088)" fill="#616368"/>
      <path id="Path_4" data-name="Path 4" d="M12.619,31.6a.514.514,0,1,0,.381.141A.514.514,0,0,0,12.619,31.6Z" transform="translate(-5.889 -15.342)" fill="#616368"/>
    </g>
  </g>
</svg>
