<svg xmlns="http://www.w3.org/2000/svg" width="596.706" height="535.995" viewBox="0 0 596.706 535.995">
  <g id="Processing_Vector" data-name="Processing Vector" transform="translate(-0.002)">
    <g id="Shadow" transform="translate(0.002)">
      <path id="Path_506" data-name="Path 506" d="M334.842,264.41l-3.181,19.058L310.141,399.723H306.67l15.656-116.255,2.31-19.058Z" transform="translate(117.452 101.269)" fill="#dbdbdb"/>
      <path id="Path_507" data-name="Path 507" d="M320.3,264.41h10.207l-3.181,19.058H317.99Z" transform="translate(121.787 101.269)" fill="#a6a6a6"/>
      <path id="Path_508" data-name="Path 508" d="M383.722,399.723H380.25L358.731,283.468,355.55,264.41h10.207l2.31,19.058Z" transform="translate(136.173 101.269)" fill="#dbdbdb"/>
      <path id="Path_509" data-name="Path 509" d="M365.757,264.41l2.31,19.058h-9.335L355.55,264.41Z" transform="translate(136.173 101.269)" fill="#a6a6a6"/>
      <path id="Path_510" data-name="Path 510" d="M430.412,399.723H426.94L405.407,283.468,402.24,264.41h10.207l2.31,19.058Z" transform="translate(154.055 101.269)" fill="#dbdbdb"/>
      <path id="Path_511" data-name="Path 511" d="M414.756,283.468h-9.349L402.24,264.41h10.207Z" transform="translate(154.055 101.269)" fill="#a6a6a6"/>
      <path id="Path_512" data-name="Path 512" d="M462.315,307.456H304.57v-16.61h59.054L383.47,175.38H456.3Z" transform="translate(116.648 67.17)" fill="#dbdbdb"/>
      <path id="Path_513" data-name="Path 513" d="M422.563,307.456h-8.6l-5.6-132.076h8.187Z" transform="translate(156.399 67.17)" fill="#a6a6a6"/>
      <path id="Path_514" data-name="Path 514" d="M10.5,366.248H253.546l5.048-99.728H5.45Z" transform="translate(2.085 102.077)" fill="#ebebeb"/>
      <path id="Path_515" data-name="Path 515" d="M205.193,309.105H103.529L101.62,274.53H207.364Zm-100.447-1.231h99.3l2.061-32.169H102.975Z" transform="translate(38.918 105.145)" fill="#dbdbdb"/>
      <path id="Path_516" data-name="Path 516" d="M202.1,336.986H106.353L104.79,305.73h99.272Zm-94.583-1.231H200.95l1.8-28.794H106.076Z" transform="translate(40.132 117.094)" fill="#dbdbdb"/>
      <path id="Path_517" data-name="Path 517" d="M151.879,292.028H134.8l-1.079-8.3h19.238Zm-16-1.231H150.8l.761-5.892H135.117Z" transform="translate(51.212 108.668)" fill="#dbdbdb"/>
      <path id="Path_518" data-name="Path 518" d="M151.879,322.348H134.8l-1.079-8.3h19.238Zm-16-1.231H150.8l.761-5.892H135.117Z" transform="translate(51.212 120.281)" fill="#dbdbdb"/>
      <path id="Path_519" data-name="Path 519" d="M118.757,309.105H17.149L15.24,274.53H120.984ZM18.31,307.874h99.3l2.061-32.169H16.54Z" transform="translate(5.834 105.145)" fill="#dbdbdb"/>
      <path id="Path_520" data-name="Path 520" d="M115.678,336.986H19.933L18.37,305.73h99.272Zm-94.583-1.231H114.53l1.8-28.794H19.67Z" transform="translate(7.033 117.094)" fill="#dbdbdb"/>
      <path id="Path_521" data-name="Path 521" d="M65.455,292.028H48.375l-1.065-8.3H66.534Zm-16-1.231H64.376l.761-5.892H48.693Z" transform="translate(18.117 108.668)" fill="#dbdbdb"/>
      <path id="Path_522" data-name="Path 522" d="M65.455,322.348H48.375l-1.065-8.3H66.534Zm-16-1.231H64.376l.761-5.892H48.693Z" transform="translate(18.117 120.281)" fill="#dbdbdb"/>
      <path id="Path_523" data-name="Path 523" d="M27.794,338.63,26.272,349.5,23.2,371.324h-6V338.63Z" transform="translate(6.585 129.695)" fill="#ebebeb"/>
      <path id="Path_524" data-name="Path 524" d="M27.794,338.63,26.272,349.5H17.2V338.63Z" transform="translate(6.585 129.695)" fill="#dbdbdb"/>
      <path id="Path_525" data-name="Path 525" d="M169.08,338.63,170.6,349.5l3.07,21.824h6V338.63Z" transform="translate(64.755 129.695)" fill="#ebebeb"/>
      <path id="Path_526" data-name="Path 526" d="M169.08,338.63,170.6,349.5h9.072V338.63Z" transform="translate(64.755 129.695)" fill="#dbdbdb"/>
      <path id="Path_527" data-name="Path 527" d="M4.4,362.461l73.824-.332,73.825-.124,147.663-.235,147.649.235,73.838.111,73.824.346-73.824.332-73.838.124-147.649.235-147.663-.235-73.825-.124Z" transform="translate(1.683 138.558)" fill="#263238"/>
      <rect id="Rectangle_60" data-name="Rectangle 60" width="434.276" height="274.816" transform="translate(84.25)" fill="#ebebeb"/>
      <rect id="Rectangle_61" data-name="Rectangle 61" width="413.171" height="253.711" transform="translate(94.802 10.552)" fill="#fff"/>
      <rect id="Rectangle_62" data-name="Rectangle 62" width="4.827" height="253.711" transform="translate(194.807 10.552)" fill="#ebebeb"/>
      <rect id="Rectangle_63" data-name="Rectangle 63" width="4.827" height="253.711" transform="translate(298.974 10.552)" fill="#ebebeb"/>
      <rect id="Rectangle_64" data-name="Rectangle 64" width="4.827" height="413.171" transform="translate(507.987 38.821) rotate(90)" fill="#ebebeb"/>
      <rect id="Rectangle_65" data-name="Rectangle 65" width="4.827" height="253.711" transform="translate(403.156 10.552)" fill="#ebebeb"/>
      <path id="Path_528" data-name="Path 528" d="M162.352,183.505H184.48a38.328,38.328,0,0,0,.484-5.532V155.61H157.11v22.667C157.11,180.5,162.352,183.505,162.352,183.505Z" transform="translate(60.171 59.599)" fill="#455a64"/>
      <path id="Path_529" data-name="Path 529" d="M157.11,172c0,2.2,4.923,5.076,5.228,5.255-.816-.553-.678-4.923-.678-4.923A27.327,27.327,0,0,0,157.11,172Z" transform="translate(60.171 65.875)" fill="#37474f"/>
      <path id="Path_530" data-name="Path 530" d="M160.08,160.466c3.278-.263,6.569-.332,9.847-.346s6.569.083,9.847.346c-3.278.277-6.569.346-9.847.346S163.358,160.743,160.08,160.466Z" transform="translate(61.308 61.325)" fill="#fff"/>
      <path id="Path_531" data-name="Path 531" d="M160.08,163.093c2.586-.263,5.159-.318,7.745-.332a76.159,76.159,0,0,1,7.745.332,72.381,72.381,0,0,1-7.745.346,76.36,76.36,0,0,1-7.745-.346Z" transform="translate(61.308 62.336)" fill="#fff"/>
      <path id="Path_532" data-name="Path 532" d="M160.08,165.8a76.364,76.364,0,0,1,7.745-.346,72.391,72.391,0,0,1,7.745.346c-2.572.263-5.159.332-7.745.346A73.367,73.367,0,0,1,160.08,165.8Z" transform="translate(61.308 63.366)" fill="#fff"/>
      <rect id="Rectangle_66" data-name="Rectangle 66" width="27.909" height="27.909" transform="translate(423.61 54.38)" fill="#37474f"/>
      <path id="Path_533" data-name="Path 533" d="M309.27,43.836c3.278-.263,6.555-.332,9.847-.346s6.555.083,9.833.346c-3.278.277-6.555.332-9.833.346S312.548,44.113,309.27,43.836Z" transform="translate(118.448 16.656)" fill="#fff"/>
      <path id="Path_534" data-name="Path 534" d="M309.27,46.5a35.225,35.225,0,0,1,9.847,0,35.224,35.224,0,0,1-9.847,0Z" transform="translate(118.448 17.675)" fill="#fff"/>
      <path id="Path_535" data-name="Path 535" d="M309.27,49.156c2.572-.263,5.159-.332,7.745-.346a72.554,72.554,0,0,1,7.745.346,76.55,76.55,0,0,1-7.745.346,76.19,76.19,0,0,1-7.745-.346Z" transform="translate(118.448 18.694)" fill="#fff"/>
      <path id="Path_536" data-name="Path 536" d="M309.27,51.816c3.278-.263,6.555-.332,9.847-.346s6.555.083,9.833.346c-3.278.277-6.555.332-9.833.346S312.548,52.093,309.27,51.816Z" transform="translate(118.448 19.713)" fill="#fff"/>
      <path id="Path_537" data-name="Path 537" d="M309.27,54.476c2.517-.263,5.048-.332,7.565-.346a69.649,69.649,0,0,1,7.579.346,73.136,73.136,0,0,1-7.579.346,72.865,72.865,0,0,1-7.565-.346Z" transform="translate(118.448 20.731)" fill="#fff"/>
      <rect id="Rectangle_67" data-name="Rectangle 67" width="27.909" height="27.909" transform="matrix(0.984, -0.176, 0.176, 0.984, 244.272, 135.838)" fill="#455a64"/>
      <path id="Path_538" data-name="Path 538" d="M180.33,103.008c3.181-.844,6.4-1.48,9.681-2.074s6.472-1.079,9.75-1.383c-3.181.844-6.4,1.48-9.681,2.074S183.608,102.689,180.33,103.008Z" transform="translate(69.064 38.128)" fill="#fff"/>
      <path id="Path_539" data-name="Path 539" d="M180.79,105.139a32.747,32.747,0,0,1,4.785-1.2,32.305,32.305,0,0,1,4.91-.526,35.362,35.362,0,0,1-9.681,1.729Z" transform="translate(69.24 39.606)" fill="#fff"/>
      <path id="Path_540" data-name="Path 540" d="M181.26,108.035c2.489-.719,5.02-1.231,7.565-1.7a71.775,71.775,0,0,1,7.689-1.023,76.4,76.4,0,0,1-7.565,1.7,75.466,75.466,0,0,1-7.69,1.023Z" transform="translate(69.42 40.334)" fill="#fff"/>
      <path id="Path_541" data-name="Path 541" d="M181.73,110.857c3.181-.844,6.4-1.48,9.681-2.074s6.472-1.079,9.75-1.383c-3.181.844-6.389,1.48-9.681,2.075S185.008,110.553,181.73,110.857Z" transform="translate(69.6 41.134)" fill="#fff"/>
      <path id="Path_542" data-name="Path 542" d="M182.2,113.255c2.434-.705,4.91-1.217,7.385-1.673a72.194,72.194,0,0,1,7.524-.982,75.217,75.217,0,0,1-7.4,1.66,71.912,71.912,0,0,1-7.51,1Z" transform="translate(69.78 42.36)" fill="#fff"/>
      <rect id="Rectangle_68" data-name="Rectangle 68" width="27.909" height="27.909" transform="translate(144.673 116.933)" fill="#455a64"/>
      <path id="Path_543" data-name="Path 543" d="M107.58,89.1c3.278-.277,6.569-.332,9.847-.346a90.12,90.12,0,0,1,9.847.346c-3.278.263-6.569.332-9.847.346S110.927,89.318,107.58,89.1Z" transform="translate(41.201 33.99)" fill="#fff"/>
      <path id="Path_544" data-name="Path 544" d="M107.58,91.726a35.226,35.226,0,0,1,9.847,0,35.225,35.225,0,0,1-9.847,0Z" transform="translate(41.201 34.998)" fill="#fff"/>
      <path id="Path_545" data-name="Path 545" d="M107.58,94.386a86.907,86.907,0,0,1,15.49,0c-2.572.263-5.159.332-7.745.346A72.548,72.548,0,0,1,107.58,94.386Z" transform="translate(41.201 36.017)" fill="#fff"/>
      <path id="Path_546" data-name="Path 546" d="M107.58,97.1c3.278-.277,6.569-.332,9.847-.346a90.122,90.122,0,0,1,9.847.346c-3.278.263-6.569.332-9.847.346S110.927,97.29,107.58,97.1Z" transform="translate(41.201 37.054)" fill="#fff"/>
      <path id="Path_547" data-name="Path 547" d="M107.58,99.707a83.093,83.093,0,0,1,15.213,0c-2.517.263-5.048.332-7.565.346A70.916,70.916,0,0,1,107.58,99.707Z" transform="translate(41.201 38.054)" fill="#fff"/>
      <rect id="Rectangle_69" data-name="Rectangle 69" width="27.909" height="27.909" transform="translate(146.775 209.635)" fill="#37474f"/>
      <path id="Path_548" data-name="Path 548" d="M109.1,156.1c3.278-.277,6.569-.332,9.847-.346s6.555.069,9.847.346c-3.292.263-6.569.332-9.847.346S112.378,156.359,109.1,156.1Z" transform="translate(41.783 59.652)" fill="#fff"/>
      <path id="Path_549" data-name="Path 549" d="M109.1,158.756a35.224,35.224,0,0,1,9.847,0A35.226,35.226,0,0,1,109.1,158.756Z" transform="translate(41.783 60.671)" fill="#fff"/>
      <path id="Path_550" data-name="Path 550" d="M109.1,161.416a86.906,86.906,0,0,1,15.49,0c-2.586.263-5.159.332-7.745.346A73.049,73.049,0,0,1,109.1,161.416Z" transform="translate(41.783 61.69)" fill="#fff"/>
      <path id="Path_551" data-name="Path 551" d="M109.1,164.1c3.278-.277,6.569-.332,9.847-.346s6.555.069,9.847.346c-3.292.263-6.569.332-9.847.346S112.378,164.331,109.1,164.1Z" transform="translate(41.783 62.716)" fill="#fff"/>
      <path id="Path_552" data-name="Path 552" d="M109.1,166.737a83.089,83.089,0,0,1,15.213,0c-2.517.263-5.048.332-7.565.346A70.762,70.762,0,0,1,109.1,166.737Z" transform="translate(41.783 63.726)" fill="#fff"/>
      <rect id="Rectangle_70" data-name="Rectangle 70" width="27.909" height="27.909" transform="translate(323.052 126.143)" fill="#37474f"/>
      <path id="Path_553" data-name="Path 553" d="M236.56,95.726c3.292-.277,6.569-.332,9.847-.346s6.569.069,9.847.346c-3.278.277-6.569.332-9.847.346S239.852,95.989,236.56,95.726Z" transform="translate(90.6 36.53)" fill="#fff"/>
      <path id="Path_554" data-name="Path 554" d="M236.56,98.386a32.878,32.878,0,0,1,4.923-.346,31.017,31.017,0,0,1,4.923.346,31.02,31.02,0,0,1-4.923.346A32.878,32.878,0,0,1,236.56,98.386Z" transform="translate(90.6 37.549)" fill="#fff"/>
      <path id="Path_555" data-name="Path 555" d="M236.56,101.1c2.586-.263,5.172-.332,7.745-.346a76.187,76.187,0,0,1,7.745.346,76.188,76.188,0,0,1-7.745.346C241.732,101.359,239.146,101.29,236.56,101.1Z" transform="translate(90.6 38.587)" fill="#fff"/>
      <path id="Path_556" data-name="Path 556" d="M236.56,103.707c3.292-.263,6.569-.332,9.847-.346a90.118,90.118,0,0,1,9.847.346c-3.278.277-6.569.332-9.847.346S239.852,103.983,236.56,103.707Z" transform="translate(90.6 39.586)" fill="#fff"/>
      <path id="Path_557" data-name="Path 557" d="M236.56,106.366c2.531-.263,5.048-.332,7.579-.346a72.877,72.877,0,0,1,7.565.346,83.087,83.087,0,0,1-15.144,0Z" transform="translate(90.6 40.605)" fill="#fff"/>
      <rect id="Rectangle_71" data-name="Rectangle 71" width="27.909" height="27.909" transform="matrix(0.989, 0.148, -0.148, 0.989, 346.658, 71.159)" fill="#1a5def"/>
      <path id="Path_558" data-name="Path 558" d="M252.94,56.27c3.292.221,6.542.65,9.792,1.12s6.472,1.037,9.681,1.8c-3.278-.221-6.542-.65-9.792-1.12S256.149,57.031,252.94,56.27Z" transform="translate(96.873 21.551)" fill="#fff"/>
      <path id="Path_559" data-name="Path 559" d="M252.55,58.9a34.061,34.061,0,0,1,4.91.387,32.4,32.4,0,0,1,4.827,1.079,34.407,34.407,0,0,1-4.923-.387A32.226,32.226,0,0,1,252.55,58.9Z" transform="translate(96.724 22.559)" fill="#fff"/>
      <path id="Path_560" data-name="Path 560" d="M252.15,61.53c2.6.124,5.159.443,7.717.816a76.063,76.063,0,0,1,7.606,1.48,75.319,75.319,0,0,1-7.7-.8C257.212,62.623,254.709,62.18,252.15,61.53Z" transform="translate(96.571 23.566)" fill="#fff"/>
      <path id="Path_561" data-name="Path 561" d="M251.76,64.16c3.292.221,6.542.65,9.792,1.12s6.472,1.051,9.681,1.8c-3.278-.221-6.542-.636-9.792-1.106S254.969,64.921,251.76,64.16Z" transform="translate(96.421 24.573)" fill="#fff"/>
      <path id="Path_562" data-name="Path 562" d="M251.37,66.8a82.3,82.3,0,0,1,14.978,2.24,75.6,75.6,0,0,1-7.537-.788A75.184,75.184,0,0,1,251.37,66.8Z" transform="translate(96.272 25.584)" fill="#fff"/>
      <rect id="Rectangle_72" data-name="Rectangle 72" width="27.909" height="27.909" transform="translate(261.993 156.113)" fill="#1a5def"/>
      <path id="Path_563" data-name="Path 563" d="M192.41,117.4c3.292-.263,6.569-.332,9.847-.346s6.569.083,9.847.346c-3.278.277-6.569.346-9.847.346S195.7,117.673,192.41,117.4Z" transform="translate(73.69 44.83)" fill="#fff"/>
      <path id="Path_564" data-name="Path 564" d="M192.41,120.1a35.226,35.226,0,0,1,9.847,0,29.374,29.374,0,0,1-4.923.346A31.144,31.144,0,0,1,192.41,120.1Z" transform="translate(73.69 45.864)" fill="#fff"/>
      <path id="Path_565" data-name="Path 565" d="M192.41,122.727a76.55,76.55,0,0,1,7.745-.346,72.392,72.392,0,0,1,7.745.346,76.168,76.168,0,0,1-7.745.332C197.582,123.045,195,122.989,192.41,122.727Z" transform="translate(73.69 46.871)" fill="#fff"/>
      <path id="Path_566" data-name="Path 566" d="M192.41,125.387c3.292-.277,6.569-.332,9.847-.346a90.114,90.114,0,0,1,9.847.346c-3.278.263-6.569.332-9.847.346S195.7,125.649,192.41,125.387Z" transform="translate(73.69 47.889)" fill="#fff"/>
      <path id="Path_567" data-name="Path 567" d="M192.41,128.1a73.137,73.137,0,0,1,7.579-.346,69.232,69.232,0,0,1,7.565.346c-2.517.263-5.048.332-7.565.346S194.941,128.29,192.41,128.1Z" transform="translate(73.69 48.927)" fill="#fff"/>
      <rect id="Rectangle_73" data-name="Rectangle 73" width="27.909" height="27.909" transform="translate(137.966 77.586)" fill="#1a5def"/>
      <path id="Path_568" data-name="Path 568" d="M102.73,60.616c3.278-.263,6.555-.332,9.847-.346s6.555.083,9.847.346c-3.292.277-6.569.332-9.847.346S106.008,60.893,102.73,60.616Z" transform="translate(39.343 23.083)" fill="#fff"/>
      <path id="Path_569" data-name="Path 569" d="M102.73,63.276a35.225,35.225,0,0,1,9.847,0,35.225,35.225,0,0,1-9.847,0Z" transform="translate(39.343 24.102)" fill="#fff"/>
      <path id="Path_570" data-name="Path 570" d="M102.73,65.936c2.586-.263,5.159-.332,7.745-.346a72.556,72.556,0,0,1,7.745.346,86.919,86.919,0,0,1-15.49,0Z" transform="translate(39.343 25.121)" fill="#fff"/>
      <path id="Path_571" data-name="Path 571" d="M102.73,68.6c3.278-.263,6.555-.332,9.847-.346s6.555.083,9.847.346c-3.292.277-6.569.332-9.847.346S106.008,68.873,102.73,68.6Z" transform="translate(39.343 26.139)" fill="#fff"/>
      <path id="Path_572" data-name="Path 572" d="M102.73,71.256c2.517-.263,5.048-.332,7.565-.346a69.649,69.649,0,0,1,7.579.346,73.128,73.128,0,0,1-7.579.346,72.868,72.868,0,0,1-7.565-.346Z" transform="translate(39.343 27.158)" fill="#fff"/>
      <rect id="Rectangle_74" data-name="Rectangle 74" width="27.909" height="27.909" transform="translate(371.125 177.66)" fill="#1a5def"/>
      <path id="Path_573" data-name="Path 573" d="M271.32,132.976c3.278-.263,6.555-.332,9.833-.346s6.569.069,9.847.346c-3.278.277-6.555.332-9.847.346S274.6,133.253,271.32,132.976Z" transform="translate(103.913 50.797)" fill="#fff"/>
      <path id="Path_574" data-name="Path 574" d="M271.32,135.636a35.129,35.129,0,0,1,9.833,0A35.129,35.129,0,0,1,271.32,135.636Z" transform="translate(103.913 51.816)" fill="#fff"/>
      <path id="Path_575" data-name="Path 575" d="M271.32,138.3c2.572-.263,5.159-.332,7.745-.346a72.558,72.558,0,0,1,7.745.346,86.909,86.909,0,0,1-15.49,0Z" transform="translate(103.913 52.834)" fill="#fff"/>
      <path id="Path_576" data-name="Path 576" d="M271.32,140.956c3.278-.263,6.555-.332,9.833-.346s6.569.083,9.847.346c-3.278.277-6.555.332-9.847.346S274.6,141.233,271.32,140.956Z" transform="translate(103.913 53.853)" fill="#fff"/>
      <path id="Path_577" data-name="Path 577" d="M271.32,143.616c2.517-.263,5.048-.332,7.565-.346a69.652,69.652,0,0,1,7.579.346,83.091,83.091,0,0,1-15.144,0Z" transform="translate(103.913 54.872)" fill="#fff"/>
      <path id="Path_578" data-name="Path 578" d="M359.438,94.1h-27.9a14.9,14.9,0,0,1-1.383-5.532V66.19h27.9V88.83a15.738,15.738,0,0,0,1.383,5.269Z" transform="translate(126.449 25.351)" fill="#1a5def"/>
      <path id="Path_579" data-name="Path 579" d="M333.63,71.1c3.278-.263,6.555-.332,9.833-.346s6.569.069,9.847.346c-3.278.277-6.555.332-9.847.346S336.908,71.3,333.63,71.1Z" transform="translate(127.778 27.097)" fill="#fff"/>
      <path id="Path_580" data-name="Path 580" d="M333.63,73.717c2.946-.263,5.892-.332,8.851-.346a72.751,72.751,0,0,1,8.851.346c-2.946.277-5.905.332-8.851.346S336.576,73.979,333.63,73.717Z" transform="translate(127.778 28.1)" fill="#fff"/>
      <path id="Path_581" data-name="Path 581" d="M333.63,76.376c2.572-.263,5.159-.332,7.745-.346a76.544,76.544,0,0,1,7.745.346,76.547,76.547,0,0,1-7.745.346C338.789,76.708,336.2,76.639,333.63,76.376Z" transform="translate(127.778 29.119)" fill="#fff"/>
      <path id="Path_582" data-name="Path 582" d="M333.63,79.037c3.278-.263,6.555-.332,9.833-.346a90.119,90.119,0,0,1,9.847.346c-3.278.277-6.555.332-9.847.346S336.908,79.313,333.63,79.037Z" transform="translate(127.778 30.137)" fill="#fff"/>
      <path id="Path_583" data-name="Path 583" d="M86.79,128.025h27.95a14.882,14.882,0,0,0,1.383-5.532V100.13H88.173v22.64a15.738,15.738,0,0,1-1.383,5.255Z" transform="translate(33.238 38.35)" fill="#1a5def"/>
      <path id="Path_584" data-name="Path 584" d="M90.26,104.986c3.278-.263,6.569-.332,9.847-.346s6.569.083,9.847.346c-3.278.277-6.569.332-9.847.346S93.538,105.263,90.26,104.986Z" transform="translate(34.567 40.077)" fill="#fff"/>
      <path id="Path_585" data-name="Path 585" d="M90.26,107.646c2.96-.263,5.905-.332,8.851-.346s5.905.083,8.865.346c-2.96.277-5.905.346-8.865.346S93.22,107.923,90.26,107.646Z" transform="translate(34.567 41.095)" fill="#fff"/>
      <path id="Path_586" data-name="Path 586" d="M90.26,110.306c2.586-.263,5.172-.332,7.745-.346a72.551,72.551,0,0,1,7.745.346,72.392,72.392,0,0,1-7.745.346A76.551,76.551,0,0,1,90.26,110.306Z" transform="translate(34.567 42.114)" fill="#fff"/>
      <path id="Path_587" data-name="Path 587" d="M90.26,112.976c3.278-.277,6.569-.332,9.847-.346s6.569.069,9.847.346c-3.278.263-6.569.332-9.847.332S93.538,113.239,90.26,112.976Z" transform="translate(34.567 43.137)" fill="#fff"/>
      <path id="Path_588" data-name="Path 588" d="M188.652,177.95H160.743a14.881,14.881,0,0,1-1.383-5.532V150h27.909v22.64A15.739,15.739,0,0,0,188.652,177.95Z" transform="translate(61.032 57.45)" fill="#1a5def"/>
      <path id="Path_589" data-name="Path 589" d="M162.83,154.9c3.278-.263,6.569-.332,9.847-.346s6.569.083,9.847.346c-3.278.277-6.569.346-9.847.346S166.108,155.173,162.83,154.9Z" transform="translate(62.361 59.192)" fill="#fff"/>
      <path id="Path_590" data-name="Path 590" d="M162.83,157.556c2.96-.263,5.905-.332,8.851-.346s5.905.083,8.865.346c-2.96.277-5.905.346-8.865.346S165.831,157.833,162.83,157.556Z" transform="translate(62.361 60.211)" fill="#fff"/>
      <path id="Path_591" data-name="Path 591" d="M162.83,160.212a90.514,90.514,0,0,1,15.49,0,72.389,72.389,0,0,1-7.745.346A76.552,76.552,0,0,1,162.83,160.212Z" transform="translate(62.361 61.234)" fill="#fff"/>
      <path id="Path_592" data-name="Path 592" d="M162.83,162.886c3.278-.277,6.569-.332,9.847-.346s6.569.069,9.847.346c-3.278.263-6.569.332-9.847.332S166.108,163.177,162.83,162.886Z" transform="translate(62.361 62.252)" fill="#fff"/>
      <path id="Path_593" data-name="Path 593" d="M262.882,67.229H234.973A14.9,14.9,0,0,1,233.59,61.7V39.32H261.5V61.96a15.739,15.739,0,0,0,1.383,5.269Z" transform="translate(89.462 15.06)" fill="#455a64"/>
      <path id="Path_594" data-name="Path 594" d="M237.06,44.187c3.292-.263,6.569-.332,9.847-.346a90.12,90.12,0,0,1,9.847.346c-3.278.277-6.569.332-9.847.346S240.352,44.463,237.06,44.187Z" transform="translate(90.791 16.79)" fill="#fff"/>
      <path id="Path_595" data-name="Path 595" d="M237.06,46.846c2.96-.263,5.905-.332,8.865-.346s5.892.083,8.851.346c-2.96.277-5.905.332-8.851.346A73.2,73.2,0,0,1,237.06,46.846Z" transform="translate(90.791 17.809)" fill="#fff"/>
      <path id="Path_596" data-name="Path 596" d="M237.06,49.506c2.586-.263,5.172-.332,7.745-.346a72.552,72.552,0,0,1,7.745.346,76.189,76.189,0,0,1-7.745.346,76.547,76.547,0,0,1-7.745-.346Z" transform="translate(90.791 18.828)" fill="#fff"/>
      <path id="Path_597" data-name="Path 597" d="M237.06,52.166c3.292-.263,6.569-.332,9.847-.346s6.569.083,9.847.346c-3.278.277-6.569.332-9.847.346S240.352,52.443,237.06,52.166Z" transform="translate(90.791 19.847)" fill="#fff"/>
      <path id="Path_598" data-name="Path 598" d="M193.732,76.969H165.823a14.881,14.881,0,0,1-1.383-5.532V49.06h27.909V71.7A15.738,15.738,0,0,0,193.732,76.969Z" transform="translate(62.978 18.79)" fill="#37474f"/>
      <path id="Path_599" data-name="Path 599" d="M167.92,53.926c3.278-.263,6.555-.332,9.833-.346s6.569.083,9.847.346c-3.278.277-6.555.332-9.847.346S171.2,54.161,167.92,53.926Z" transform="translate(64.311 20.521)" fill="#fff"/>
      <path id="Path_600" data-name="Path 600" d="M167.92,56.586c2.946-.263,5.892-.332,8.851-.346s5.905.083,8.851.346c-2.946.277-5.905.332-8.851.346S170.866,56.863,167.92,56.586Z" transform="translate(64.311 21.54)" fill="#fff"/>
      <path id="Path_601" data-name="Path 601" d="M167.92,59.246c2.572-.263,5.159-.332,7.745-.346a72.553,72.553,0,0,1,7.745.346,76.546,76.546,0,0,1-7.745.346A76.188,76.188,0,0,1,167.92,59.246Z" transform="translate(64.311 22.558)" fill="#fff"/>
      <path id="Path_602" data-name="Path 602" d="M167.92,61.906c3.278-.263,6.555-.332,9.833-.346s6.569.083,9.847.346c-3.278.277-6.555.332-9.847.346S171.2,62.169,167.92,61.906Z" transform="translate(64.311 23.577)" fill="#fff"/>
      <path id="Path_603" data-name="Path 603" d="M291.452,173.429H263.543a14.989,14.989,0,0,1-1.383-5.532V145.52h27.909v22.64A15.739,15.739,0,0,0,291.452,173.429Z" transform="translate(100.405 55.734)" fill="#37474f"/>
      <path id="Path_604" data-name="Path 604" d="M265.63,150.386c3.278-.277,6.555-.332,9.847-.346s6.555.069,9.847.346c-3.292.263-6.569.332-9.847.346S268.908,150.649,265.63,150.386Z" transform="translate(101.734 57.465)" fill="#fff"/>
      <path id="Path_605" data-name="Path 605" d="M265.63,153.1c2.946-.277,5.905-.332,8.851-.346s5.905.069,8.851.346c-2.946.263-5.892.332-8.851.346S268.576,153.29,265.63,153.1Z" transform="translate(101.734 58.503)" fill="#fff"/>
      <path id="Path_606" data-name="Path 606" d="M265.63,155.706a86.906,86.906,0,0,1,15.49,0c-2.586.263-5.159.332-7.745.346A72.554,72.554,0,0,1,265.63,155.706Z" transform="translate(101.734 59.503)" fill="#fff"/>
      <path id="Path_607" data-name="Path 607" d="M265.63,158.367c3.278-.277,6.555-.332,9.847-.346a90.119,90.119,0,0,1,9.847.346c-3.292.263-6.569.332-9.847.346S268.908,158.629,265.63,158.367Z" transform="translate(101.734 60.521)" fill="#fff"/>
      <path id="Path_608" data-name="Path 608" d="M329.207,123.95h-22.2a39.437,39.437,0,0,1-.47-5.532V96h27.9v22.64C334.435,120.894,329.207,123.95,329.207,123.95Z" transform="translate(117.402 36.768)" fill="#455a64"/>
      <path id="Path_609" data-name="Path 609" d="M328.158,112.4c0,2.2-4.923,5.076-5.228,5.255.816-.553.678-4.923.678-4.923A27.328,27.328,0,0,1,328.158,112.4Z" transform="translate(123.679 43.049)" fill="#37474f"/>
      <path id="Path_610" data-name="Path 610" d="M309.51,100.9c3.278-.263,6.555-.332,9.833-.346s6.569.083,9.847.346c-3.278.277-6.555.346-9.847.346S312.788,101.173,309.51,100.9Z" transform="translate(118.54 38.51)" fill="#fff"/>
      <path id="Path_611" data-name="Path 611" d="M309.51,103.556c2.572-.263,5.159-.332,7.745-.346a72.551,72.551,0,0,1,7.745.346,72.717,72.717,0,0,1-7.745.346,76.187,76.187,0,0,1-7.745-.346Z" transform="translate(118.54 39.529)" fill="#fff"/>
      <path id="Path_612" data-name="Path 612" d="M309.51,106.227a76.185,76.185,0,0,1,7.745-.346,72.714,72.714,0,0,1,7.745.346c-2.586.263-5.172.332-7.745.346A72.546,72.546,0,0,1,309.51,106.227Z" transform="translate(118.54 40.551)" fill="#fff"/>
      <path id="Path_613" data-name="Path 613" d="M248.922,138.119H271.05a38.345,38.345,0,0,0,.484-5.532V110.21H243.68v22.654C243.68,135.118,248.922,138.119,248.922,138.119Z" transform="translate(93.327 42.21)" fill="#455a64"/>
      <path id="Path_614" data-name="Path 614" d="M243.68,126.58c0,2.2,4.923,5.076,5.228,5.255-.816-.553-.678-4.923-.678-4.923a27.33,27.33,0,0,0-4.55-.332Z" transform="translate(93.327 48.48)" fill="#37474f"/>
      <path id="Path_615" data-name="Path 615" d="M246.65,115.1c3.278-.263,6.569-.332,9.847-.346s6.569.083,9.847.346c-3.278.277-6.569.332-9.847.346S249.9,115.345,246.65,115.1Z" transform="translate(94.464 43.949)" fill="#fff"/>
      <path id="Path_616" data-name="Path 616" d="M246.65,117.736c2.586-.263,5.172-.332,7.745-.346a72.55,72.55,0,0,1,7.745.346,86.92,86.92,0,0,1-15.49,0Z" transform="translate(94.464 44.96)" fill="#fff"/>
      <path id="Path_617" data-name="Path 617" d="M246.65,120.4c2.586-.263,5.172-.332,7.745-.346a72.546,72.546,0,0,1,7.745.346,86.923,86.923,0,0,1-15.49,0Z" transform="translate(94.464 45.979)" fill="#fff"/>
      <path id="Path_618" data-name="Path 618" d="M107.172,71.4H85.044a38.391,38.391,0,0,1-.484-5.532V43.49h27.854V66.13C112.414,68.4,107.172,71.4,107.172,71.4Z" transform="translate(32.384 16.657)" fill="#455a64"/>
      <path id="Path_619" data-name="Path 619" d="M106.148,59.86c0,2.2-4.923,5.076-5.228,5.255.816-.553.678-4.923.678-4.923A27.327,27.327,0,0,1,106.148,59.86Z" transform="translate(38.65 22.926)" fill="#37474f"/>
      <path id="Path_620" data-name="Path 620" d="M87.49,48.356c3.292-.263,6.569-.332,9.847-.346s6.569.069,9.847.346c-3.278.277-6.555.332-9.847.346S90.782,48.633,87.49,48.356Z" transform="translate(33.506 18.387)" fill="#fff"/>
      <path id="Path_621" data-name="Path 621" d="M87.49,51.016c2.586-.263,5.172-.332,7.745-.346a72.974,72.974,0,0,1,7.759.346,76.632,76.632,0,0,1-7.759.346,76.547,76.547,0,0,1-7.745-.346Z" transform="translate(33.506 19.406)" fill="#fff"/>
      <path id="Path_622" data-name="Path 622" d="M87.49,53.676c2.586-.263,5.172-.332,7.745-.346a72.974,72.974,0,0,1,7.759.346,76.631,76.631,0,0,1-7.759.346,76.549,76.549,0,0,1-7.745-.346Z" transform="translate(33.506 20.425)" fill="#fff"/>
      <path id="Path_623" data-name="Path 623" d="M203.372,89.229H181.244a38.334,38.334,0,0,1-.484-5.532V61.32h27.854V83.974C208.614,86.228,203.372,89.229,203.372,89.229Z" transform="translate(69.228 23.486)" fill="#1a5def"/>
      <path id="Path_624" data-name="Path 624" d="M202.348,77.69c0,2.2-4.923,5.076-5.228,5.255.816-.553.678-4.923.678-4.923A27.327,27.327,0,0,1,202.348,77.69Z" transform="translate(75.494 29.755)" opacity="0.2"/>
      <path id="Path_625" data-name="Path 625" d="M183.69,66.186c3.278-.263,6.569-.332,9.847-.346s6.569.083,9.847.346c-3.278.277-6.569.332-9.847.346S186.968,66.463,183.69,66.186Z" transform="translate(70.351 25.216)" fill="#fff"/>
      <path id="Path_626" data-name="Path 626" d="M183.69,68.846c2.586-.263,5.172-.332,7.745-.346a72.55,72.55,0,0,1,7.745.346,76.188,76.188,0,0,1-7.745.346A76.551,76.551,0,0,1,183.69,68.846Z" transform="translate(70.351 26.235)" fill="#fff"/>
      <path id="Path_627" data-name="Path 627" d="M183.69,71.506c2.586-.263,5.172-.332,7.745-.346a72.548,72.548,0,0,1,7.745.346,76.188,76.188,0,0,1-7.745.346A76.551,76.551,0,0,1,183.69,71.506Z" transform="translate(70.351 27.254)" fill="#fff"/>
      <path id="Path_628" data-name="Path 628" d="M97.985,17.419H96.436v5.172a.526.526,0,0,1-.526.526.539.539,0,0,1-.539-.526V17.419H93.849a.539.539,0,0,1-.539-.553.526.526,0,0,1,.539-.526H98a.526.526,0,0,1,.526.526.539.539,0,0,1-.539.553Z" transform="translate(35.735 6.258)" fill="#dbdbdb"/>
      <path id="Path_629" data-name="Path 629" d="M103.276,17.306a3.582,3.582,0,0,1,0,4.9,3.167,3.167,0,0,1-2.323,1.037A3.209,3.209,0,0,1,98.588,22.2a3.582,3.582,0,0,1,0-4.9,3.209,3.209,0,0,1,2.323-1.106A3.167,3.167,0,0,1,103.276,17.306Zm-.138,2.448a2.434,2.434,0,0,0-.65-1.687,2.088,2.088,0,0,0-1.577-.761A2.061,2.061,0,0,0,99.348,18a2.476,2.476,0,0,0,0,3.375,2.061,2.061,0,0,0,1.563.691,2.088,2.088,0,0,0,1.535-.691,2.434,2.434,0,0,0,.691-1.687Z" transform="translate(37.386 6.205)" fill="#dbdbdb"/>
      <path id="Path_630" data-name="Path 630" d="M105.89,22.591V16.866a.526.526,0,0,1,.526-.526h1.148a3.388,3.388,0,0,1,0,6.777h-1.148A.526.526,0,0,1,105.89,22.591Zm1.079-.553h.595a2.31,2.31,0,0,0,0-4.619h-.595Z" transform="translate(40.553 6.258)" fill="#dbdbdb"/>
      <path id="Path_631" data-name="Path 631" d="M116.242,17.306a3.54,3.54,0,0,1,0,4.9,3.139,3.139,0,0,1-2.31,1.037,3.264,3.264,0,0,1-2.379-1.037,3.623,3.623,0,0,1,0-4.9,3.264,3.264,0,0,1,2.365-1.106A3.139,3.139,0,0,1,116.242,17.306Zm-.124,2.448a2.5,2.5,0,0,0-.65-1.687,2.088,2.088,0,0,0-1.549-.761,2.061,2.061,0,0,0-1.563.691,2.476,2.476,0,0,0,0,3.375,2.061,2.061,0,0,0,1.563.691,2.088,2.088,0,0,0,1.535-.691,2.5,2.5,0,0,0,.664-1.687Z" transform="translate(42.358 6.205)" fill="#dbdbdb"/>
      <path id="Path_632" data-name="Path 632" d="M157.08,16.866a.525.525,0,0,1,.526-.526.553.553,0,0,1,.553.526v5.726a.553.553,0,0,1-.553.526.526.526,0,0,1-.526-.526Z" transform="translate(60.159 6.258)" fill="#dbdbdb"/>
      <path id="Path_633" data-name="Path 633" d="M160.221,22.57a.526.526,0,1,1-1.051,0V16.941h0a.526.526,0,0,1,.207-.443.539.539,0,0,1,.747.111l3.126,4.329v-4a.526.526,0,0,1,1.051,0V22.57a.526.526,0,0,1-.526.526.512.512,0,0,1-.4-.194h0l-3.153-4.287Z" transform="translate(60.959 6.279)" fill="#dbdbdb"/>
      <path id="Path_634" data-name="Path 634" d="M168.928,20.489h-1.189v2.1a.539.539,0,1,1-1.079,0V16.866a.539.539,0,0,1,.539-.526h1.729a2.074,2.074,0,0,1,0,4.149Zm-1.189-1.079h1.189a1,1,0,0,0,0-1.992h-1.189Z" transform="translate(63.828 6.258)" fill="#dbdbdb"/>
      <path id="Path_635" data-name="Path 635" d="M175.275,22.315a.539.539,0,0,1-.332.678h-.207a.678.678,0,0,1-.373-.1.954.954,0,0,1-.318-.346,2.558,2.558,0,0,1-.207-1.162.733.733,0,0,0-.111-.415.8.8,0,0,0-.29-.277,1.728,1.728,0,0,0-.539-.235h-1.148v2.1a.539.539,0,0,1-1.079,0v-5.7a.525.525,0,0,1,.539-.526h1.729a2.075,2.075,0,0,1,1.383,3.665,1.66,1.66,0,0,1,.332.36,1.9,1.9,0,0,1,.318,1.051,2.432,2.432,0,0,0,0,.567.525.525,0,0,1,.3.332Zm-1.383-3.886a1,1,0,0,0-1-1.01h-1.189V19.41H172.9a.982.982,0,0,0,1-.982Z" transform="translate(65.364 6.258)" fill="#dbdbdb"/>
      <path id="Path_636" data-name="Path 636" d="M180.422,17.287a3.54,3.54,0,0,1,0,4.9,3.139,3.139,0,0,1-2.31,1.037,3.264,3.264,0,0,1-2.379-1.037,3.624,3.624,0,0,1,0-4.9,3.264,3.264,0,0,1,2.379-1.037,3.139,3.139,0,0,1,2.31,1.037Zm-.124,2.448a2.5,2.5,0,0,0-.65-1.687,2.088,2.088,0,0,0-1.535-.691,2.061,2.061,0,0,0-1.563.691,2.476,2.476,0,0,0,0,3.375,2.061,2.061,0,0,0,1.563.692,2.088,2.088,0,0,0,1.535-.692,2.5,2.5,0,0,0,.65-1.756Z" transform="translate(66.939 6.224)" fill="#dbdbdb"/>
      <path id="Path_637" data-name="Path 637" d="M180.73,19.705a3.582,3.582,0,0,1,5.781-2.766.553.553,0,0,1,.111.774.567.567,0,0,1-.788.1,2.5,2.5,0,0,0-1.521-.526,2.448,2.448,0,0,0-1.756.705,2.31,2.31,0,0,0,0,3.347,2.393,2.393,0,0,0,1.756.705,2.628,2.628,0,0,0,1.383-.36V20.3h-1.383a.567.567,0,0,1-.553-.553.539.539,0,0,1,.553-.539h1.936a.539.539,0,0,1,.553.539V21.89a.691.691,0,0,1,0,.166h0a.512.512,0,0,1-.194.235,3.568,3.568,0,0,1-2.185.747,3.513,3.513,0,0,1-3.693-3.333Z" transform="translate(69.217 6.199)" fill="#dbdbdb"/>
      <path id="Path_638" data-name="Path 638" d="M191.165,22.315a.526.526,0,0,1-.346.678h-.207a.719.719,0,0,1-.373-.1.927.927,0,0,1-.3-.346,2.559,2.559,0,0,1-.207-1.162.872.872,0,0,0-.124-.415.705.705,0,0,0-.29-.277,1.6,1.6,0,0,0-.539-.235h-1.148v2.1a.539.539,0,0,1-1.065,0v-5.7a.525.525,0,0,1,.526-.526h1.743a2.075,2.075,0,0,1,2.075,2.088A2.019,2.019,0,0,1,190.142,20a1.66,1.66,0,0,1,.332.36,1.9,1.9,0,0,1,.332,1.051,2.766,2.766,0,0,0,0,.567.525.525,0,0,1,.36.332Zm-1.383-3.886a1,1,0,0,0-1-1.01h-1.2V19.41h1.2a.982.982,0,0,0,1.023-.982Z" transform="translate(71.45 6.258)" fill="#dbdbdb"/>
      <path id="Path_639" data-name="Path 639" d="M191,22.591V16.866a.526.526,0,0,1,.539-.526h3.167a.539.539,0,0,1,.526.526.553.553,0,0,1-.526.553h-2.628v1.77h2.254a.539.539,0,0,1,0,1.079h-2.227v1.77h2.628a.553.553,0,0,1,.526.553.539.539,0,0,1-.526.526h-3.167a.526.526,0,0,1-.567-.526Z" transform="translate(73.15 6.258)" fill="#dbdbdb"/>
      <path id="Path_640" data-name="Path 640" d="M195.04,21.455a.512.512,0,0,1,.705-.069,3.07,3.07,0,0,0,1.853.747,2.1,2.1,0,0,0,1.2-.346.885.885,0,0,0,.415-.705.553.553,0,0,0-.083-.3.955.955,0,0,0-.29-.29,3.513,3.513,0,0,0-1.383-.456h0a5.532,5.532,0,0,1-1.259-.387,2.143,2.143,0,0,1-.9-.747,1.59,1.59,0,0,1-.221-.8,1.8,1.8,0,0,1,.774-1.383,2.863,2.863,0,0,1,1.673-.512,3.845,3.845,0,0,1,2.116.774.512.512,0,0,1,.138.691.5.5,0,0,1-.691.138,2.766,2.766,0,0,0-1.563-.622,1.853,1.853,0,0,0-1.079.332.788.788,0,0,0-.373.609.54.54,0,0,0,0,.277.913.913,0,0,0,.346.29,3.236,3.236,0,0,0,1.217.429h0a5.891,5.891,0,0,1,1.383.4,2.324,2.324,0,0,1,.968.816,1.563,1.563,0,0,1,.221.816,1.9,1.9,0,0,1-.83,1.507,3.043,3.043,0,0,1-1.784.553,4.149,4.149,0,0,1-2.489-.982.512.512,0,0,1-.069-.774Z" transform="translate(74.642 6.205)" fill="#dbdbdb"/>
      <path id="Path_641" data-name="Path 641" d="M199.665,21.455a.512.512,0,0,1,.705-.069,3.07,3.07,0,0,0,1.853.747,2.1,2.1,0,0,0,1.2-.346.885.885,0,0,0,.415-.705.553.553,0,0,0-.083-.3.954.954,0,0,0-.29-.29,3.513,3.513,0,0,0-1.383-.456h0a5.532,5.532,0,0,1-1.259-.387,2.061,2.061,0,0,1-.9-.747,1.59,1.59,0,0,1-.221-.8,1.8,1.8,0,0,1,.774-1.383,2.863,2.863,0,0,1,1.673-.512,3.845,3.845,0,0,1,2.116.774.512.512,0,0,1,.138.692.5.5,0,0,1-.692.138,2.766,2.766,0,0,0-1.563-.622,1.853,1.853,0,0,0-1.079.332.788.788,0,0,0-.373.609.429.429,0,0,0,0,.277.913.913,0,0,0,.263.249,3.25,3.25,0,0,0,1.2.429h0a5.768,5.768,0,0,1,1.383.4,2.365,2.365,0,0,1,.982.816,1.563,1.563,0,0,1,.221.816,1.9,1.9,0,0,1-.83,1.507,3.043,3.043,0,0,1-1.784.553,4.149,4.149,0,0,1-2.489-.982.512.512,0,0,1,.014-.733Z" transform="translate(76.407 6.205)" fill="#dbdbdb"/>
      <path id="Path_642" data-name="Path 642" d="M245.191,17.419h-1.535v5.172a.539.539,0,0,1-1.065,0V17.419h-1.535a.539.539,0,0,1-.526-.553.526.526,0,0,1,.526-.526H245.2a.539.539,0,0,1,.539.526.553.553,0,0,1-.553.553Z" transform="translate(92.12 6.258)" fill="#dbdbdb"/>
      <path id="Path_643" data-name="Path 643" d="M245.44,22.591V16.866a.526.526,0,0,1,.539-.526h3.167a.539.539,0,0,1,.526.526.553.553,0,0,1-.526.553h-2.628v1.77h2.254a.539.539,0,0,1,0,1.079h-2.254v1.77h2.628a.553.553,0,0,1,.526.553.539.539,0,0,1-.526.526h-3.167a.526.526,0,0,1-.539-.526Z" transform="translate(94.001 6.258)" fill="#dbdbdb"/>
      <path id="Path_644" data-name="Path 644" d="M249.48,21.436a.512.512,0,0,1,.775,0,3.07,3.07,0,0,0,1.853.747,2.1,2.1,0,0,0,1.2-.346.885.885,0,0,0,.415-.705.553.553,0,0,0-.083-.3.817.817,0,0,0-.29-.29,3.513,3.513,0,0,0-1.383-.456h0a5.532,5.532,0,0,1-1.259-.387,2.144,2.144,0,0,1-.9-.747,1.591,1.591,0,0,1-.221-.8,1.8,1.8,0,0,1,.774-1.383,2.863,2.863,0,0,1,1.673-.512,3.8,3.8,0,0,1,2.116.774.512.512,0,0,1,.138.691.5.5,0,0,1-.692.138,2.766,2.766,0,0,0-1.563-.622,1.853,1.853,0,0,0-1.079.332.788.788,0,0,0-.373.609.539.539,0,0,0,.069.277.912.912,0,0,0,.263.249,3.236,3.236,0,0,0,1.217.429h0a5.891,5.891,0,0,1,1.383.4,2.323,2.323,0,0,1,.968.816,1.563,1.563,0,0,1,.235.816,1.909,1.909,0,0,1-.844,1.507,3,3,0,0,1-1.784.553,4.149,4.149,0,0,1-2.476-.982.5.5,0,0,1-.138-.8Z" transform="translate(95.492 6.224)" fill="#dbdbdb"/>
      <path id="Path_645" data-name="Path 645" d="M258.456,17.419h-1.59v5.172a.526.526,0,0,1-.526.526.539.539,0,0,1-.539-.526V17.419h-1.535a.539.539,0,0,1-.526-.553.526.526,0,0,1,.526-.526h4.149a.539.539,0,0,1,.539.526.553.553,0,0,1-.5.553Z" transform="translate(97.18 6.258)" fill="#dbdbdb"/>
      <path id="Path_646" data-name="Path 646" d="M258.74,16.866a.526.526,0,0,1,.539-.526.539.539,0,0,1,.539.526v5.726a.539.539,0,0,1-.539.526.526.526,0,0,1-.539-.526Z" transform="translate(99.095 6.258)" fill="#dbdbdb"/>
      <path id="Path_647" data-name="Path 647" d="M261.892,22.57a.539.539,0,0,1-.525.526.512.512,0,0,1-.526-.526V16.941h0a.484.484,0,0,1,.207-.443.525.525,0,0,1,.733.111l3.126,4.329v-4a.526.526,0,0,1,.526-.526.539.539,0,0,1,.539.526V22.57a.539.539,0,0,1-.539.526.512.512,0,0,1-.4-.194h0l-3.139-4.287Z" transform="translate(99.898 6.28)" fill="#dbdbdb"/>
      <path id="Path_648" data-name="Path 648" d="M265.66,19.705a3.582,3.582,0,0,1,5.781-2.766.553.553,0,0,1,.111.774.567.567,0,0,1-.788.1,2.545,2.545,0,0,0-1.535-.526,2.434,2.434,0,0,0-1.743.705,2.309,2.309,0,0,0,0,3.347,2.379,2.379,0,0,0,1.743.705,2.683,2.683,0,0,0,1.383-.36V20.3h-1.383a.553.553,0,0,1-.553-.553.539.539,0,0,1,.553-.539h1.922a.539.539,0,0,1,.567.539V21.89a.692.692,0,0,1,0,.166h0a.47.47,0,0,1-.18.235,3.582,3.582,0,0,1-2.2.747A3.513,3.513,0,0,1,265.66,19.705Z" transform="translate(101.745 6.199)" fill="#dbdbdb"/>
      <path id="Path_649" data-name="Path 649" d="M321.85,22.591V16.866a.526.526,0,0,1,.539-.526h1.134a3.388,3.388,0,1,1,0,6.777h-1.134a.526.526,0,0,1-.539-.526Zm1.079-.553h.595a2.31,2.31,0,1,0,0-4.619h-.595Z" transform="translate(123.266 6.258)" fill="#dbdbdb"/>
      <path id="Path_650" data-name="Path 650" d="M332.2,17.306a3.541,3.541,0,0,1,0,4.9,3.112,3.112,0,0,1-2.31,1.037,3.208,3.208,0,0,1-2.365-1.037,3.582,3.582,0,0,1,0-4.9,3.209,3.209,0,0,1,2.406-1.106,3.112,3.112,0,0,1,2.268,1.106Zm-.124,2.448a2.5,2.5,0,0,0-.65-1.687,2.088,2.088,0,0,0-1.494-.761,2.061,2.061,0,0,0-1.563.692,2.476,2.476,0,0,0,0,3.375,2.061,2.061,0,0,0,1.563.692,2.088,2.088,0,0,0,1.535-.691,2.5,2.5,0,0,0,.608-1.687Z" transform="translate(125.07 6.205)" fill="#dbdbdb"/>
      <path id="Path_651" data-name="Path 651" d="M333.615,22.57a.539.539,0,0,1-.526.526.526.526,0,0,1-.539-.526V16.941h0a.539.539,0,0,1,.221-.443.526.526,0,0,1,.733.111l3.126,4.329v-4a.525.525,0,0,1,.525-.526.539.539,0,0,1,.539.526V22.57a.539.539,0,0,1-.539.526.512.512,0,0,1-.4-.194h0l-3.139-4.287Z" transform="translate(127.364 6.28)" fill="#dbdbdb"/>
      <path id="Path_652" data-name="Path 652" d="M337.49,22.591V16.866a.526.526,0,0,1,.526-.526h3.167a.539.539,0,0,1,.539.526.553.553,0,0,1-.539.553h-2.614v1.77h2.254a.54.54,0,0,1,0,1.079h-2.254v1.77h2.614a.553.553,0,0,1,.539.553.539.539,0,0,1-.539.526h-3.167A.526.526,0,0,1,337.49,22.591Z" transform="translate(129.256 6.258)" fill="#dbdbdb"/>
      <path id="Path_653" data-name="Path 653" d="M189.846,41.08a50.77,50.77,0,0,0-26.277,11.258A34.575,34.575,0,0,0,154.677,63.5a25.6,25.6,0,0,0-2.213,6.777,23.829,23.829,0,0,0-.138,7.081,21.754,21.754,0,0,0,5.892,12.613,28.545,28.545,0,0,0,12.2,7.039,56.965,56.965,0,0,0,14.176,2.213,90.821,90.821,0,0,0,14.383-.581,46.87,46.87,0,0,0,13.733-3.886,36.94,36.94,0,0,0,11.534-8.3,29.679,29.679,0,0,0,6.929-12.295,20.358,20.358,0,0,0-.774-13.83,24.175,24.175,0,0,0-9.681-10.137A43.993,43.993,0,0,0,207.3,45.118a55.113,55.113,0,0,0-28.614,1.494,55.486,55.486,0,0,1,28.753-2.13,43.924,43.924,0,0,1,13.706,5.006,25.3,25.3,0,0,1,10.22,10.442,18.325,18.325,0,0,1,1.784,7.205,23.636,23.636,0,0,1-.8,7.371,30.771,30.771,0,0,1-7.178,12.82,38.17,38.17,0,0,1-11.894,8.63,47.644,47.644,0,0,1-14.12,4.066,90.738,90.738,0,0,1-14.632.526,57.878,57.878,0,0,1-14.466-2.337,29.665,29.665,0,0,1-12.7-7.454,22.419,22.419,0,0,1-6.071-13.318,24.507,24.507,0,0,1,.235-7.385,26.455,26.455,0,0,1,2.379-6.915,34.99,34.99,0,0,1,9.238-11.3,51.019,51.019,0,0,1,26.706-10.76Z" transform="translate(57.874 15.734)" fill="#263238"/>
      <path id="Path_654" data-name="Path 654" d="M112.06,60.321a27.577,27.577,0,0,1,9.128-9.308,20.012,20.012,0,0,1,6.154-2.462,21.284,21.284,0,0,1,6.625-.263,15.822,15.822,0,0,1,11.4,6.445,10.815,10.815,0,0,1,1.466,3.07,6.6,6.6,0,0,1,.166,3.527,3.983,3.983,0,0,1-6.113,2.393A5.338,5.338,0,0,1,139.1,60.57a11.742,11.742,0,0,1-.124-3.471,17.163,17.163,0,0,1,2.047-6.472,19.556,19.556,0,0,1,10.1-8.7,19.21,19.21,0,0,1,13.235-.553,22.626,22.626,0,0,1,10.538,7.8l-.207.166a23.359,23.359,0,0,0-10.649-6.915,18.09,18.09,0,0,0-6.265-.636,19.874,19.874,0,0,0-6.1,1.535,18.975,18.975,0,0,0-9.266,8.049,16.5,16.5,0,0,0-2.019,5.878,10.179,10.179,0,0,0,0,3.043,4.149,4.149,0,0,0,1.245,2.448,2.476,2.476,0,0,0,2.489.263,2.655,2.655,0,0,0,1.7-1.95,7.634,7.634,0,0,0-1.383-5.739,14.909,14.909,0,0,0-10.608-6.2,22.128,22.128,0,0,0-6.4.124,19.708,19.708,0,0,0-6.016,2.213,27.3,27.3,0,0,0-9.266,8.948Z" transform="translate(42.916 15.495)" fill="#263238"/>
      <path id="Path_655" data-name="Path 655" d="M152.33,47.818l6.652.622.138-6.68,1.189,8.16Z" transform="translate(58.34 15.994)" fill="#263238"/>
      <path id="Path_656" data-name="Path 656" d="M237.764,114.878a67.949,67.949,0,0,0-2.365,18.56,49.484,49.484,0,0,0,3.374,18.214,36.441,36.441,0,0,0,4.467,8.063,41.947,41.947,0,0,0,13.83,11.963c1.383.83,2.766,1.383,4.149,2.116s2.877,1.176,4.329,1.784l-.111.346a44.131,44.131,0,0,1-16.969-8.3,36.276,36.276,0,0,1-10.87-15.531,49.969,49.969,0,0,1-3-18.657,68.14,68.14,0,0,1,2.96-18.588Z" transform="translate(89.839 43.987)" fill="#263238"/>
      <path id="Path_657" data-name="Path 657" d="M251.72,163.557l6.749-3.043L254.942,154l5.615,7.219Z" transform="translate(96.406 58.982)" fill="#263238"/>
      <path id="Path_658" data-name="Path 658" d="M302.78,69.513c2.766-.207,5.532-.3,8.187-.387s5.463-.111,8.2-.124,5.463,0,8.187.111,5.463.194,8.2.4c-2.766.221-5.532.318-8.2.4s-5.463.111-8.187.124-5.463,0-8.2-.124S305.5,69.734,302.78,69.513Z" transform="translate(115.962 26.426)" fill="#263238"/>
      <path id="Path_659" data-name="Path 659" d="M302.78,72.342a77.048,77.048,0,0,1,17.73,0A75.027,75.027,0,0,1,302.78,72.342Z" transform="translate(115.962 27.511)" fill="#263238"/>
      <path id="Path_660" data-name="Path 660" d="M302.78,75.147c2.406-.221,4.827-.318,7.247-.4s4.827-.111,7.247-.124,4.827,0,7.247.124,4.841.18,7.247.4c-2.406.207-4.827.3-7.247.387s-4.827.111-7.247.124-4.827,0-7.247-.124S305.186,75.41,302.78,75.147Z" transform="translate(115.962 28.578)" fill="#263238"/>
      <path id="Path_661" data-name="Path 661" d="M302.78,78.017c1.964-.221,3.928-.318,5.892-.4s3.942-.111,5.905-.124,3.928,0,5.892.124,3.942.18,5.905.4c-1.964.207-3.942.3-5.905.4s-3.928.1-5.892.111-3.942,0-5.905-.124S304.744,78.2,302.78,78.017Z" transform="translate(115.962 29.677)" fill="#263238"/>
      <path id="Path_662" data-name="Path 662" d="M183,139c2.766-.207,5.532-.3,8.2-.387s5.463-.111,8.187-.124,5.532,0,8.2.111,5.532.194,8.187.4c-2.766.221-5.532.318-8.187.4s-5.463.111-8.2.124-5.463,0-8.187-.124S185.766,139.2,183,139Z" transform="translate(70.086 53.04)" fill="#263238"/>
      <path id="Path_663" data-name="Path 663" d="M183,141.833c2.116-.207,4.218-.3,6.334-.387s4.149-.111,6.32-.124,4.218,0,6.334.124,4.149.18,6.32.387c-2.1.221-4.218.318-6.32.4s-4.218.111-6.334.124-4.218,0-6.32-.124S185.171,142.054,183,141.833Z" transform="translate(70.086 54.124)" fill="#263238"/>
      <path id="Path_664" data-name="Path 664" d="M183,144.677c2.42-.221,4.84-.318,7.261-.4s4.827-.111,7.247-.124,4.827,0,7.247.124,4.827.18,7.247.4c-2.42.207-4.827.3-7.247.387s-4.84.111-7.247.124-4.84,0-7.247-.124S185.476,144.884,183,144.677Z" transform="translate(70.086 55.208)" fill="#263238"/>
      <path id="Path_665" data-name="Path 665" d="M191.711,319.536A80.918,80.918,0,0,0,189.152,334c.138.249.111,1.148,0,.9,0,.788-1.245.65-1.245-.138v-1.507c-2.766-3.513-6.915-5.739-10.248-8.782a19.2,19.2,0,0,1-5.615-8.948c-2.766-9.474-.18-19.528-3.485-29.043-2.863-8.16-7.98-15.213-12.309-22.64-4.564-7.814-7.938-16.015-8.3-25.171-.277-7.012.567-16.347,5.905-21.6,5.656-5.532,12.668-1.383,17,3.582,12.558,14.411,18.38,32.625,20.745,51.254,1.3,10.3,2.642,20.745,2.337,31.09a83.725,83.725,0,0,1-2.227,16.541Z" transform="translate(56.646 82.129)" fill="#1a5def"/>
      <path id="Path_666" data-name="Path 666" d="M185.519,330.771a177.564,177.564,0,0,0-.346-29.209.138.138,0,0,0,0-.1c.152-7.9.788-15.766.47-23.663a140.073,140.073,0,0,0-3.416-25.35c0-.1-.166-.083-.152,0a166.275,166.275,0,0,1,2.766,24.825c.152,4.467.124,8.92-.111,13.387-.083,1.383-.207,2.9-.3,4.37h0a156.279,156.279,0,0,0-23.511-62.166c-.166-.249-.622,0-.456.29a162.211,162.211,0,0,1,19.113,46.082c-6.03-11.188-15.213-20.385-21.934-31.145h-.1c6.085,11.963,16.126,21.409,22.529,33.192,1.106,4.8,2.019,9.681,2.7,14.535a161.966,161.966,0,0,1,1.452,20.247,229.2,229.2,0,0,1-10.5-20.745c-.083-.194-.36,0-.3.138,2.572,7.551,6,15.683,10.829,22.128q0,7.178-.4,14.342c-.747,12.751-2.932,25.337-3.928,38.046,0,.373.5.429.581,0a292.915,292.915,0,0,0,5.02-39.208Z" transform="translate(60.334 89.149)" fill="#263238"/>
      <path id="Path_667" data-name="Path 667" d="M168.039,232.541c0-.1-.166,0-.138.069,2.323,6.431,3.651,12.959,5.325,19.556a.249.249,0,0,0,.484-.069A69.593,69.593,0,0,0,168.039,232.541Z" transform="translate(64.302 89.047)" fill="#263238"/>
      <path id="Path_668" data-name="Path 668" d="M223.483,254.062a98.467,98.467,0,0,1-5.366,10.995c-4.149,7.62-8.561,14.6-9.363,23.511a54.283,54.283,0,0,1-1.673,11.755,35.638,35.638,0,0,1-4.688,9.2c-4.55,6.625-10.234,12.323-14.439,19.2a80.642,80.642,0,0,0-9.6,23.138c-.1.443-.8.318-.705-.124a.152.152,0,0,0,0-.1.208.208,0,0,1,0-.1c-.664-19.016.857-38.185,6.652-56.4a197.385,197.385,0,0,1,9.211-23.511,55.611,55.611,0,0,1,12.447-17.9c3.54-3.181,11.216-9.225,16.264-6.03C224.6,249.263,224.423,251.684,223.483,254.062Z" transform="translate(67.982 94.523)" fill="#1a5def"/>
      <path id="Path_669" data-name="Path 669" d="M205.7,292.669a157.2,157.2,0,0,1-11.064,15.877c-1.839,2.406-3.706,4.785-5.532,7.192-.871,1.134-1.839,2.268-2.642,3.5.5-2.005,1-4.011,1.507-6,2.448-9.612,4.813-19.362,8.464-28.545a193.759,193.759,0,0,1,13.194-25.876c.138-.221-.221-.373-.346-.166-4.025,6.611-8.1,13.208-11.479,20.178a104.2,104.2,0,0,0-4.868,11.963,184.211,184.211,0,0,1,6.486-25.572c0-.083-.083-.138-.124,0a87.794,87.794,0,0,0-6.721,26.6h0q-1.245,3.693-2.3,7.468c-2.987,10.635-5.615,21.381-8.063,32.169a115.3,115.3,0,0,1,1.853-21.1.124.124,0,1,0-.249,0,66.937,66.937,0,0,0-1.839,22.294c-.927,4.149-1.812,8.215-2.7,12.323-1.867,8.768-4.149,17.689-5.255,26.581a.18.18,0,0,0,.346,0c1.314-4.8,2.1-9.764,3.167-14.618s2.171-9.681,3.305-14.6q2.462-10.608,5.145-21.174c1.176-2.586,3.457-4.882,5.159-7.039,1.867-2.379,3.748-4.758,5.532-7.178a106.191,106.191,0,0,0,9.155-14.162C205.922,292.628,205.8,292.558,205.7,292.669Z" transform="translate(66.651 99.024)" fill="#263238"/>
      <path id="Path_670" data-name="Path 670" d="M200.5,277.339a99.438,99.438,0,0,0-10.8,17.191c0,.069.069.152.124.083,3.637-5.712,7.219-11.451,10.857-17.163C200.736,277.353,200.57,277.256,200.5,277.339Z" transform="translate(72.652 106.208)" fill="#263238"/>
      <path id="Path_671" data-name="Path 671" d="M140.562,270.982c2.462,4.246,5.269,9.349,4.149,14.439-.678,3.222-3.029,5.85-3.458,9.128-.954,7.275,6.279,12.074,11.52,15.5,13.056,8.561,30.965,16.209,33.33,33.69.1.622,1.162.47,1.093-.138a.331.331,0,0,0,0-.111s0,0,0-.111a66.854,66.854,0,0,0-.235-26.72c-1.95-9.017-5.892-17.108-10.538-25.032-7.855-13.415-16.167-27.134-28.047-37.341-3.292-2.835-10.027-7.938-12.654-1.535S137.52,265.81,140.562,270.982Z" transform="translate(51.672 95.623)" fill="#1a5def"/>
      <path id="Path_672" data-name="Path 672" d="M147.679,290.773c8.658,9.377,22.418,14.632,29.873,25.129a105.107,105.107,0,0,0-22.958-43.122.337.337,0,1,1,.47-.484,85.179,85.179,0,0,1,18.767,27.176,122.573,122.573,0,0,0-8.077-20.634c-.124-.249.235-.47.373-.221a78.678,78.678,0,0,1,8.713,23.221c9.819,23.774,10.732,51.641,8.671,76.7,0,.346-.581.36-.567,0,.567-19.749.249-39.83-4.495-59.123-.1-.4-.207-.788-.3-1.189-8.1-11.3-21.81-16.6-30.62-27.273C147.444,290.829,147.582,290.676,147.679,290.773Z" transform="translate(56.491 104.253)" fill="#263238"/>
      <path id="Path_673" data-name="Path 673" d="M146.283,279.833c4.536,4.149,9.017,8.436,13.567,12.6,0,0,0,.124-.069.1a66.868,66.868,0,0,1-13.83-12.447.207.207,0,0,1,.332-.249Z" transform="translate(55.881 107.144)" fill="#263238"/>
      <path id="Path_674" data-name="Path 674" d="M145.734,266.77a141.757,141.757,0,0,0,13.595,18.7c0,.083,0,.194-.111.124a66.094,66.094,0,0,1-13.733-18.684.142.142,0,0,1,.249-.138Z" transform="translate(55.711 102.145)" fill="#263238"/>
      <path id="Path_675" data-name="Path 675" d="M160.45,376.67h39.8l-5.366-53.55h-28.31Z" transform="translate(61.45 123.755)" fill="#455a64"/>
      <path id="Path_676" data-name="Path 676" d="M164.16,331.819h30.191l-.885-8.7h-28.31Z" transform="translate(62.871 123.755)" fill="#263238"/>
      <rect id="Rectangle_75" data-name="Rectangle 75" width="37.313" height="8.547" transform="translate(260.458 449.489) rotate(180)" fill="#455a64"/>
      <path id="Path_677" data-name="Path 677" d="M42.6,391.162s-1.01-8.091-3.43-12.876-17.689-1.743-17.689-1.743-3.056,2.614-3.706,14.84Z" transform="translate(6.807 143.851)" fill="#120e59"/>
      <path id="Path_678" data-name="Path 678" d="M73.96,393.841c-3.6-2.185-1.549-18.532-1.549-18.532s16.734-13.387,19.03-3.139,15.891,14.84,23.622,16.1c5.338.871,7,3.831,7.51,5.532Z" transform="translate(27.509 141.061)" fill="#120e59"/>
      <path id="Path_679" data-name="Path 679" d="M55.131,335.377a76.291,76.291,0,0,1,1.217,9.031c1.563,30.329,25.53,99.687,29.831,101.3,6.625,2.5,17.08-2.766,22.543-4.564a4.675,4.675,0,0,0,3.292-5.325c-11.866-54.587-16.236-133.2-17.827-179.79a210.894,210.894,0,0,0-4.827-39.623S30.887,200.8,30.541,220.561C30.237,238.056,49.9,306.6,55.131,335.377Z" transform="translate(11.693 80.643)" fill="#0b0754"/>
      <path id="Path_680" data-name="Path 680" d="M55.131,335.362l39.056-79.287a210.9,210.9,0,0,0-4.827-39.623S30.887,200.838,30.541,220.6C30.237,238.04,49.9,306.582,55.131,335.362Z" transform="translate(11.693 80.658)" fill="#030231"/>
      <path id="Path_681" data-name="Path 681" d="M75.885,219.84,44.975,443.886s-13.581,3.264-24.133.65c0,0-9.059-119.173-8.3-147.981s-6.5-77.088,1.66-82.413S75.885,219.84,75.885,219.84Z" transform="translate(3.939 81.46)" fill="#0b0754"/>
      <path id="Path_682" data-name="Path 682" d="M8.763,253.123a4.287,4.287,0,0,0,3.1,4.439c4.315,1.245,9.28,2.116,18.864,4.149a183.862,183.862,0,0,0,35.958,3.623c23.691.152,32.653-8.021,32.653-8.021,1.023,0-.539-4.937-1.95-28.49-.47-7.994-.927-18.1-1.259-30.9-.3-11.507-.5-25.171-.526-41.393,0-19.514-30.219-40.494-30.772-40.494h0c0,2.766-4.426,7.994-11.244,8.45-8.091.526-17.979-3.5-17.979-8.16,0,0-14.632,23.4-19.818,48.4-.664,3.167-1.176,6.5-1.577,10.027C12.968,185.3,14.157,177.736,8.763,253.123Z" transform="translate(3.349 44.443)" fill="#ed6966"/>
      <path id="Path_683" data-name="Path 683" d="M49.34,116s28.075-.235,34.838,9.238,21.575,60.465,13.83,77.448-22.211-7.012-30.232-17.4S49.34,116,49.34,116Z" transform="translate(18.895 44.428)" fill="#ed6966"/>
      <path id="Path_684" data-name="Path 684" d="M57.745,117.548v2.9s.8,9.072-10.386,10.4-19.5-1.673-19.2-8.671a102.341,102.341,0,0,0,2.047-15.5,30.8,30.8,0,0,0-.4-5.435l21.644-.443,6.389,1.051Z" transform="translate(10.781 38.606)" fill="#fc9290"/>
      <path id="Path_685" data-name="Path 685" d="M57.377,101.851l-.083,15.7a18.477,18.477,0,0,1-7.814,1.729c-9.958,0-16.389-7.3-19.749-12.6a30.8,30.8,0,0,0-.4-5.435L51,100.8Z" transform="translate(11.231 38.606)" fill="#ea8888"/>
      <path id="Path_686" data-name="Path 686" d="M29.109,108.035C31.626,121.56,49.08,121.1,56.617,120.26c2.13-.235,3.457-.512,3.457-.512,2.393-.636,3.734-4.4,4.343-9.349,1.245-9.764-.318-24.106-1.964-27.771C59.964,77.1,55.29,71.136,37.712,75.437S25.887,90.706,29.109,108.035Z" transform="translate(9.792 28.329)" fill="#fc9290"/>
      <path id="Path_687" data-name="Path 687" d="M71.138,143.48s10.926,23.981,10.538,31.145a37.674,37.674,0,0,0-10.538,1.383C62.7,178.539,71.138,143.48,71.138,143.48Z" transform="translate(25.807 54.953)" fill="#e75755"/>
      <path id="Path_688" data-name="Path 688" d="M69.949,72.547a58.086,58.086,0,0,1-16.79-4.564c-7.413-3.222-16.748.318-19.791,1.922a4.453,4.453,0,0,1,.747-1.826,4.052,4.052,0,0,0-1.563,2.31c-.138.111-.207.18-.166.207a5.131,5.131,0,0,0-2.545.166s.705-.111.94.346a.526.526,0,0,0,.124.124C19.345,76.765,18.28,95.062,22,99.294c4.467,5.076,11.064,16.389,11.064,16.389a17.647,17.647,0,0,0-.152-7.067c-.816-4.467,3.043-4.467,7.925-6.5s.816-7.731,5.076-11.188,19.929-1.383,19.722-4.066C71.456,84.772,69.949,73.141,69.949,72.547Z" transform="translate(7.69 25.536)" fill="#120e59"/>
      <path id="Path_689" data-name="Path 689" d="M25.57,176.287C30.162,194.695,79.742,204.21,91,206.146c-.47-7.994-.927-18.1-1.259-30.9Z" transform="translate(9.791 67.121)" fill="#e75755"/>
      <path id="Path_690" data-name="Path 690" d="M38.887,185.662c-.47,0-11.064-1.563-12.9-2.517S15.446,169.924,21.1,166.77s20.856,9.446,20.856,9.446Z" transform="translate(7.358 63.679)" fill="#fc9290"/>
      <path id="Path_691" data-name="Path 691" d="M98.723,189.044s-40.812,2.213-68.182-3.651a11.769,11.769,0,0,1,7.911-11.465s42.666-9.045,52.927-6.514S98.723,189.044,98.723,189.044Z" transform="translate(11.693 63.948)" fill="#ed6966"/>
      <path id="Path_692" data-name="Path 692" d="M16.72,176.467c8.464,10.207,19.528,18.546,31.726,20.5h0a22.778,22.778,0,0,0,3.015-13.623,27.176,27.176,0,0,0-4.439-12.516A27.549,27.549,0,0,1,44.615,166c-6.666-17.011-5.67-49.788-5.67-49.788s-28.282,2.973-37.092,15.573C-3.555,139.5,3.332,160.328,16.72,176.467Z" transform="translate(-0.002 44.508)" fill="#ed6966"/>
      <path id="Path_693" data-name="Path 693" d="M48.016,110.171c2.13-.235,3.458-.512,3.458-.512,2.393-.636,3.734-4.4,4.343-9.349a11.838,11.838,0,0,0-7.4,6.058,8.782,8.782,0,0,0-.4,3.8Z" transform="translate(18.366 38.419)" fill="#ea8888"/>
      <path id="Path_694" data-name="Path 694" d="M59.028,117.686s9.778-16.126,2.171-16.831a11.507,11.507,0,0,0-11.742,6.334c-1.106,1.895.29,10.414.29,10.414Z" transform="translate(18.777 38.593)" fill="#fc9290"/>
      <path id="Path_695" data-name="Path 695" d="M29.342,184.838a21.077,21.077,0,0,0,1.673,5.532A26.623,26.623,0,0,0,37.184,199h0c25.378-11.451,30.509-50.8,31.366-72.414.36-8.685,0-14.508,0-14.508-11.437-3.8-14.66,2.766-14.66,2.766S40.42,147,33.408,168.034C30.725,176.042,29,182.473,29.342,184.838Z" transform="translate(11.219 42.472)" fill="#ed6966"/>
      <path id="Path_696" data-name="Path 696" d="M12.09,174.158c8.464,10.207,19.528,18.546,31.726,20.5h0c25.378-11.451,30.509-50.8,31.366-72.414,0,0-12,43.564-28.351,58.791a17.841,17.841,0,0,1-9.238,5.048S16.972,180.257,12.7,174.766a2.765,2.765,0,0,0-.609-.609Z" transform="translate(4.628 46.818)" fill="#e75755"/>
      <path id="Path_697" data-name="Path 697" d="M389.391,80.023c-8.091-4.149-14.577-1.563-14.577-1.563-24.742-2.9-31.961,25.959-31.629,35.958s1.466,20.593-9.584,33.5c-31.92,37.341,34.935,38.918,34.935,38.918.567-29.776,36.262-18.919,34.7-15.9C448.985,181.854,407.785,89.566,389.391,80.023Z" transform="translate(124.46 29.745)" fill="#0b0754"/>
      <path id="Path_698" data-name="Path 698" d="M309.771,171.3s-4.356-6.625-7.855-6.749-10-1.95-9.487-.65,4.55,1.383,4.937,2.2-5.975,1.95-7.8,2.088-6.1,0-5.975.9,7.731,4.688,13.1,4.149a36.51,36.51,0,0,1,11.977,1.563Z" transform="translate(108.612 62.595)" fill="#fc9290"/>
      <path id="Path_699" data-name="Path 699" d="M366.162,185.32a65.169,65.169,0,0,1-6.652,10.068c-5.172,6.472-13.152,13.968-23.165,15.434A24.894,24.894,0,0,1,322.6,208.6h0c-12.17-5.408-21.312-17.813-21.312-17.813a10.013,10.013,0,0,1,1.383-9.819s24.548,5.532,26.886,4.356,15.987-40.467,19.224-45.4,14.328-7.5,14.328-7.5Z" transform="translate(115.119 50.717)" fill="#6d89cf"/>
      <path id="Path_700" data-name="Path 700" d="M353.442,181.6c-5.172,6.472-13.152,13.968-23.165,15.434a24.894,24.894,0,0,1-13.747-2.227c.47,0,12.613,1.563,17.453-7.095s10.276-22.875,17.619-18.2C354.756,171.465,354.618,176.485,353.442,181.6Z" transform="translate(121.228 64.572)" fill="#3662c1"/>
      <path id="Path_701" data-name="Path 701" d="M421.788,363.212s7.5,6.832,6.03,11.686-8.229,8.1-9.142,14.037-4.564,9.183-7.855,9.183H395.137s-2.42-4.149,3.43-5.449,8.049-8.229,7.634-14.687a113.191,113.191,0,0,1,.539-15.1l12.447-2.89Z" transform="translate(151.145 137.876)" fill="#120e59"/>
      <path id="Path_702" data-name="Path 702" d="M380.243,364.41s2.7,28.974-.595,30.592l-42.1-.083s0-4.868,6.763-5.947,18.643-5.034,20.648-13.83S380.243,364.41,380.243,364.41Z" transform="translate(129.279 139.569)" fill="#120e59"/>
      <path id="Path_703" data-name="Path 703" d="M409.716,252.969c-8.671-19.362-13.968-25-12.959-31.035.761-4.495-2.3-83.671-2.3-83.671-1.023-.318-3.084-.609-4.149-.857a10.566,10.566,0,0,1-7.717-6.708,53.758,53.758,0,0,1-2.628-17.868l-1.106.221L360.2,116.744s.429,5.864.443,11.4v.138a10.732,10.732,0,0,1-7.745,10.372l-4.412,1.272a171.341,171.341,0,0,0-8.16,39.651c-1.314,20.1,12.447,28.822-.111,68.97C327.344,289.564,414.5,263.7,409.716,252.969Z" transform="translate(129.804 43.214)" fill="#fc9290"/>
      <path id="Path_704" data-name="Path 704" d="M354.27,116.683s.429,5.864.443,11.4c10.428-.29,15.96-9.819,18.214-15.089Z" transform="translate(135.683 43.275)" fill="#ea8888"/>
      <path id="Path_705" data-name="Path 705" d="M354.035,130.981s24.7.415,24.714-14.978,3.292-25.738-12.558-26.609-18.836,5.02-20.109,10.1S347.6,130.483,354.035,130.981Z" transform="translate(132.432 34.205)" fill="#fc9290"/>
      <path id="Path_706" data-name="Path 706" d="M352.41,89.964s6.763,18.048,17.149,20.745,14.881-.111,14.881-.111a29.4,29.4,0,0,1-9.681-17.357S357.513,81.376,352.41,89.964Z" transform="translate(134.97 33.261)" fill="#0b0754"/>
      <path id="Path_707" data-name="Path 707" d="M357.084,90.976s-5.02,1.881-7.081,5.532a24.894,24.894,0,0,0-3.333,14.134s-5.1-12.281.622-19.224C353.364,84.061,357.084,90.976,357.084,90.976Z" transform="translate(131.97 33.715)" fill="#0b0754"/>
      <path id="Path_708" data-name="Path 708" d="M358.1,112.779a6.21,6.21,0,0,1-5.1,2.088,4.577,4.577,0,0,1-3.817-2.517S354.228,111.133,358.1,112.779Z" transform="translate(133.733 42.864)" fill="#dde8fd"/>
      <path id="Path_709" data-name="Path 709" d="M412.9,166.251a168.736,168.736,0,0,1,0,19.445c-.415,7.039-7.537,16.458-8.547,18.795-2.531,5.85-5.38,6.791-5.38,6.791L376.84,216.7l-7.759,1.909-24.507-7.33s-11.175-31.145-6.68-48.7a134.636,134.636,0,0,1,11.327-29.707s20,19.569,46.04-1.66Z" transform="translate(129.003 50.257)" fill="#6d89cf"/>
      <path id="Path_710" data-name="Path 710" d="M398,174.647c-.415,7.039-1.065,13.581-2.075,15.918-2.531,5.85-5.38,6.791-5.38,6.791l-22.128,5.421-9.6-2.766s32.044-4.854,28.5-32.431Z" transform="translate(137.425 64.183)" fill="#fa7269"/>
      <path id="Path_711" data-name="Path 711" d="M347.142,192.53s-12.129,37.784-12.917,50.645S357.432,425.884,358.4,431.8c.9,5.532,7.842,9.155,7.842,9.155a10.511,10.511,0,0,0,7.745.595c6.32-1.784,8.3-3.928,8.3-3.928s9.446-121.123,3.6-164.4a686.594,686.594,0,0,1-5.905-80.7Z" transform="translate(127.998 73.739)" fill="#e75755"/>
      <path id="Path_712" data-name="Path 712" d="M393.872,191.72s18.518,24.894,20.247,41.628,2.7,75.775,6.376,92.135,17.191,47.879,17.191,98.926a10.22,10.22,0,0,1-5.739,4.495,47.88,47.88,0,0,1-5.048,1.383,7.952,7.952,0,0,1-8.879-4.218c-9.128-18.394-38.226-77.7-39.72-90.006-1.051-8.713-10.234-66.384-30.274-100.212-4.813-8.132,2.946-40.425,2.946-40.425Z" transform="translate(132.688 73.429)" fill="#ed6966"/>
      <path id="Path_713" data-name="Path 713" d="M357.627,113.166s-.429,1.812-4.937,1.535c0,0-3.789-.235-3.679-2.227a12.171,12.171,0,0,1,8.616.691Z" transform="translate(133.667 42.892)" fill="#fff"/>
      <path id="Path_714" data-name="Path 714" d="M342.351,188.32s4.868,3.845,14.549,4.038c11.562.235,40.218-2.946,40.218-2.946a23.639,23.639,0,0,1,1.217,7.316s-34.99,8.824-55.32,1.286C343.07,198.015,340.456,193.091,342.351,188.32Z" transform="translate(130.853 72.126)" fill="#120e59"/>
      <path id="Path_715" data-name="Path 715" d="M352.553,201.769a6.016,6.016,0,1,1,5.269-5.975A5.67,5.67,0,0,1,352.553,201.769Zm0-10.193a4.287,4.287,0,1,0,3.527,4.149A3.928,3.928,0,0,0,352.553,191.577Z" transform="translate(132.435 72.687)" fill="#fff"/>
      <rect id="Rectangle_76" data-name="Rectangle 76" width="47.534" height="65.056" transform="translate(487.054 249.388) rotate(-41.05)" fill="#9e332e"/>
      <path id="Path_716" data-name="Path 716" d="M379.537,193.34s-13.139,1.535-13.1,4.647,3.278,9.529,4.9,9.819,10.691-8.671,10.691-8.671Z" transform="translate(140.344 74.049)" fill="#fc9290"/>
      <path id="Path_717" data-name="Path 717" d="M381.3,131.22s17.523,1.217,24.244,17.564,19.486,43.772,19.486,48.4-7.136,18.836-45.39,27.024c0,0-3.955-4.149-3.72-7.454,0,0,23.884-20.524,23.829-22.916-.124-4.536-3.928-10.525-24.894-31.491C369.153,156.626,381.3,131.22,381.3,131.22Z" transform="translate(142.983 50.257)" fill="#6d89cf"/>
    </g>
  </g>
</svg>
