<svg xmlns="http://www.w3.org/2000/svg" xmlns:xlink="http://www.w3.org/1999/xlink" width="228.335" height="172.352" viewBox="0 0 228.335 172.352">
  <defs>
    <clipPath id="clip-path">
      <path id="Path_463" data-name="Path 463" d="M240.829,137.392c1.158,2.927,2.5,9.328,1.585,12.926-.488,1.89-2.073,5.853-3.414,9.206l34.692,18.108c-.061-7.194.061-18.6.975-20.73,1.341-3.17,12.255-33.106,11.584-39.935s-13.9-16.584-13.9-16.584L274.362,83.8l-12.011,7.316s-1.341,6.585-2.744,8.17-12.5,3.841-15.669,7.926-2.073,16.584-2.073,17.254S239.671,134.4,240.829,137.392Z" transform="translate(-239 -83.8)"/>
    </clipPath>
    <clipPath id="clip-path-2">
      <path id="Path_469" data-name="Path 469" d="M248.308,30.434s1.585,8.17,1.341,13.84-2.5,7.926-1.829,10.426,8.841,11.767,13.84,12.682,16.828-6.768,20.181-10.182a12.964,12.964,0,0,0,3.414-10.426c-.427-2.012-2.256-18.352-9.084-24.936S251.479,15.923,248.308,30.434Z" transform="translate(-247.697 -17.834)"/>
    </clipPath>
    <clipPath id="clip-path-3">
      <path id="Path_492" data-name="Path 492" d="M241.436,144.167l-15.669,35.606s-42.618,7.926-46.52,7.926-11.584,2.744-13.169,3.6-17.01,7.987-14.023,8.475c1.829.244,6.585-2.317,6.585-2.317s-7.5,3.6-6.829,4.756,9.755-3.414,9.755-3.414-8.292,4.878-6.585,5.182c1.524.244,3.414-.61,5-1.768a17.04,17.04,0,0,1,4.451-1.951s-3.658,2.439-4.085,3.536.915.427,2.256,0a65.719,65.719,0,0,0,12.8-7.5l3.6-3.17s24.266.671,35.362.244,16.584-1.585,20.669-5.67,15.669-29.936,18.352-36.947.915-11.1-1.829-15.852" transform="translate(-151.672 -134.9)"/>
    </clipPath>
    <clipPath id="clip-path-4">
      <path id="Path_497" data-name="Path 497" d="M216.636,175.5c-4.634,1.341-22.8,6.646-24.449,7.072a28.742,28.742,0,0,1-3.17.549,76.65,76.65,0,0,1-8.048-3.963c-1.707-1.219-3.719-.488-4.756,0s-1.829,3.658.122,3.658,2.256-.122,4.451,1.707,2.134,2.744,3.719,3.414,4.207.244,5.548,0c1.219-.183,22.315-1.585,27.5-1.89C218.221,183.182,217.489,178.731,216.636,175.5Z" transform="translate(-175.14 -175.5)"/>
    </clipPath>
  </defs>
  <g id="Product_Design" data-name="Product Design" transform="translate(0.098 -0.054)">
    <g id="Layer_2_1_" transform="translate(0.5 0.556)">
      <g id="Character">
        <path id="Path_372" data-name="Path 372" d="M112.7,161.864s.732-.488,5.182,1.4c4.512,1.89,6.28,1.463,10.609.732,5.243-.915,9.572-1.829,10.121.3.915,3.658-2.744,3.6-9.389,4.329a21.131,21.131,0,0,1-12.56-2.256,20.059,20.059,0,0,1-2.8-1.4Z" transform="translate(-44.292 -63.493)" fill="#fff" stroke="#263238" stroke-linecap="round" stroke-linejoin="round" stroke-width="1"/>
        <path id="Path_373" data-name="Path 373" d="M96.084,161.45s5.914,6.829,8.475,4.939,2.378-7.987,0-9.938S95.6,158.158,96.084,161.45Z" transform="translate(-37.797 -61.189)" fill="#fff" stroke="#263238" stroke-linecap="round" stroke-linejoin="round" stroke-width="1"/>
        <path id="Path_374" data-name="Path 374" d="M105.327,129.4s.244,6.341-1.4,10.609-4.695,7.072-5.182,9.45-.244,5.67-2.622,6.585-2.378-.732-2.134-2.622.732-8.963.732-8.963l-7.8,4.695s2.134,5.914-2.378,6.585-9.877-6.036-10.609-11.218S76.061,127.757,81,124.709s11.34-2.622,14.633-2.622S103.924,124.465,105.327,129.4Z" transform="translate(-29.115 -47.982)" fill="#fff" stroke="#263238" stroke-linecap="round" stroke-linejoin="round" stroke-width="1"/>
        <path id="Path_375" data-name="Path 375" d="M92.182,122.832s-1.219.61-3.353,3.963,2.134,6.219,4.39,4.695.3-4.695,1.951-6.219A5.431,5.431,0,0,0,97,122.1Z" transform="translate(-34.748 -47.995)" fill="#263238"/>
        <path id="Path_376" data-name="Path 376" d="M82.108,130.431a4.98,4.98,0,0,0-2.012,3.353c-.183,2.134,3.658-1.829,4.085-3.658S82.108,130.431,82.108,130.431Z" transform="translate(-31.564 -50.838)" fill="#263238"/>
        <path id="Path_377" data-name="Path 377" d="M105.3,123.019a6.084,6.084,0,0,0,.244,6.341c2.134,3.292,6.829,4.695,8.719,2.378s2.622-3.536,1.89-4.695S108.6,121.129,105.3,123.019Z" transform="translate(-41.104 -48.182)" fill="#ff597d" stroke="#263238" stroke-linecap="round" stroke-linejoin="round" stroke-width="1"/>
        <path id="Path_378" data-name="Path 378" d="M121.053,99.025a6.363,6.363,0,0,1-4.939-1.646c-2.378-2.134-4.512-6.829-5.426-6.585s-4.268,7.072-4.268,7.072-5.67.488-6.158,2.134,2.134,9.45,4.268,12.743a11.273,11.273,0,0,0,8.962,4.939c2.8,0,11.34.732,12.5-2.134s.244-11.34.244-11.34,3.78-3.78,2.134-4.451S121.053,99.025,121.053,99.025Z" transform="translate(-39.415 -35.773)" fill="#fff" stroke="#263238" stroke-linecap="round" stroke-linejoin="round" stroke-width="1"/>
        <path id="Path_379" data-name="Path 379" d="M127.576,122.172c-.3-.366-.549-.732-.854-1.158a2.9,2.9,0,0,0-3.536-1.036c-2.866.915-4.878,3.658-1.646,5.914C124.588,128.086,130.624,126.135,127.576,122.172Z" transform="translate(-47.096 -47.091)" fill="#263238"/>
        <path id="Path_380" data-name="Path 380" d="M110.391,97.759s3.292,1.89,5.182,1.158.732-8.719-.915-8.231S110.147,94.71,110.391,97.759Z" transform="translate(-43.385 -35.726)" fill="#fff" stroke="#263238" stroke-linecap="round" stroke-linejoin="round" stroke-width="1"/>
        <path id="Path_381" data-name="Path 381" d="M142.641,105.395a6.482,6.482,0,0,0-4.939,1.89c-1.89,2.134-.732,4.268,1.89,4.695S143.556,105.395,142.641,105.395Z" transform="translate(-53.687 -41.472)" fill="#fff" stroke="#263238" stroke-linecap="round" stroke-linejoin="round" stroke-width="1"/>
        <path id="Path_382" data-name="Path 382" d="M114.616,126.321s-3.048-2.378-2.378-.488,1.89,2.134,3.048,1.646S114.616,126.321,114.616,126.321Z" transform="translate(-44.074 -49.167)" fill="#ff597d" stroke="#263238" stroke-linecap="round" stroke-linejoin="round" stroke-width="1"/>
        <path id="Path_383" data-name="Path 383" d="M112.346,116.528c-.183.61-.671,1.036-1.1.915a1.045,1.045,0,0,1-.488-1.341c.183-.61.671-1.036,1.1-.915A1.045,1.045,0,0,1,112.346,116.528Z" transform="translate(-43.511 -45.289)" fill="#263238"/>
        <path id="Path_384" data-name="Path 384" d="M124.409,125.509a1.057,1.057,0,0,1-1.463-.122c-.244-.427.061-.976.61-1.341a1.057,1.057,0,0,1,1.463.122A1.163,1.163,0,0,1,124.409,125.509Z" transform="translate(-48.258 -48.661)" fill="#fff"/>
        <path id="Path_385" data-name="Path 385" d="M90.531,150.515s-.732,5.182.244,7.316,1.89,10.121,3.78,10.365,1.158-4.268,1.158-4.939.244-8.231.244-8.231,1.646-3.536,2.622-5.426" transform="translate(-35.537 -58.728)" fill="#fff" stroke="#263238" stroke-linecap="round" stroke-linejoin="round" stroke-width="1"/>
        <path id="Path_386" data-name="Path 386" d="M77.9,150.553s6.341-1.89,7.072,5.182" transform="translate(-30.71 -59.011)" fill="none" stroke="#263238" stroke-linecap="round" stroke-linejoin="round" stroke-width="1"/>
        <path id="Path_387" data-name="Path 387" d="M108.1,153.163s5.426-2.8,5.67-8.963" transform="translate(-42.497 -56.621)" fill="none" stroke="#263238" stroke-linecap="round" stroke-linejoin="round" stroke-width="1"/>
        <line id="Line_34" data-name="Line 34" y1="0.915" x2="4.024" transform="translate(0 105.26)" fill="none" stroke="#263238" stroke-linecap="round" stroke-linejoin="round" stroke-width="1"/>
        <line id="Line_35" data-name="Line 35" x1="5.243" y1="2.744" transform="translate(211.137 160.803)" fill="none" stroke="#263238" stroke-linecap="round" stroke-linejoin="round" stroke-width="1"/>
        <line id="Line_36" data-name="Line 36" y1="3.536" x2="15.669" transform="translate(6.28 101.236)" fill="none" stroke="#263238" stroke-linecap="round" stroke-linejoin="round" stroke-width="1"/>
        <line id="Line_37" data-name="Line 37" x1="127.975" y1="66.822" transform="translate(79.931 92.274)" fill="none" stroke="#263238" stroke-linecap="round" stroke-linejoin="round" stroke-width="1"/>
        <path id="Path_388" data-name="Path 388" d="M55.5,207.687l32.375-9.206a4.164,4.164,0,0,1,2.927.732l52.739,33.716a1.3,1.3,0,0,1,.366,1.829,1.38,1.38,0,0,1-.915.61L98.666,249.146Z" transform="translate(-21.967 -77.795)" fill="#ff597d" stroke="#263238" stroke-linecap="round" stroke-linejoin="round" stroke-width="1"/>
        <path id="Path_389" data-name="Path 389" d="M86.6,215.824l4.573,3.17,5.3-1.524L91.9,214.3Z" transform="translate(-34.105 -83.981)" fill="#263238"/>
        <path id="Path_390" data-name="Path 390" d="M84.938,229.27,80.3,226.1,75,227.624l4.634,3.17Z" transform="translate(-29.578 -88.587)" fill="#263238"/>
        <path id="Path_391" data-name="Path 391" d="M105.5,219.024l4.573,3.109,5.3-1.463L110.8,217.5Z" transform="translate(-41.482 -85.23)" fill="#263238"/>
        <path id="Path_392" data-name="Path 392" d="M114.3,225.024l4.573,3.17,5.3-1.524L119.6,223.5Z" transform="translate(-44.917 -87.572)" fill="#263238"/>
        <path id="Path_393" data-name="Path 393" d="M95.3,221.863l4.634,3.17,5.3-1.463L100.6,220.4Z" transform="translate(-37.501 -86.362)" fill="#263238"/>
        <path id="Path_394" data-name="Path 394" d="M76.4,218.663l4.573,3.17,5.3-1.463L81.7,217.2Z" transform="translate(-30.124 -85.113)" fill="#263238"/>
        <path id="Path_395" data-name="Path 395" d="M130.177,250.57l-4.634-3.17-5.243,1.524,4.573,3.109Z" transform="translate(-47.259 -96.9)" fill="#263238"/>
        <path id="Path_396" data-name="Path 396" d="M119.977,253.409,115.4,250.3l-5.3,1.463,4.573,3.17Z" transform="translate(-43.278 -98.032)" fill="#263238"/>
        <path id="Path_397" data-name="Path 397" d="M93.677,235.27,89.1,232.1l-5.3,1.524,4.573,3.17Z" transform="translate(-33.012 -90.929)" fill="#263238"/>
        <path id="Path_398" data-name="Path 398" d="M138.877,256.57,134.3,253.4l-5.3,1.524,4.573,3.17Z" transform="translate(-50.654 -99.242)" fill="#263238"/>
        <path id="Path_399" data-name="Path 399" d="M102.477,241.37,97.9,238.2l-5.3,1.463,4.573,3.17Z" transform="translate(-36.447 -93.31)" fill="#263238"/>
        <path id="Path_400" data-name="Path 400" d="M111.238,247.37,106.6,244.2l-5.3,1.524,4.573,3.17Z" transform="translate(-39.843 -95.651)" fill="#263238"/>
        <path id="Path_401" data-name="Path 401" d="M123,231.063l4.573,3.17,5.3-1.463L128.3,229.6Z" transform="translate(-48.312 -89.953)" fill="#263238"/>
        <path id="Path_402" data-name="Path 402" d="M85.2,224.724l4.573,3.17,5.3-1.524L90.5,223.2Z" transform="translate(-33.559 -87.455)" fill="#263238"/>
        <path id="Path_403" data-name="Path 403" d="M149.077,253.77,144.5,250.6l-5.3,1.463,4.573,3.17Z" transform="translate(-54.635 -98.149)" fill="#263238"/>
        <path id="Path_404" data-name="Path 404" d="M122.777,235.57,118.2,232.4l-5.3,1.524,4.573,3.17Z" transform="translate(-44.37 -91.046)" fill="#263238"/>
        <path id="Path_405" data-name="Path 405" d="M103.838,232.47l-4.573-3.17L93.9,230.763l4.634,3.17Z" transform="translate(-36.955 -89.836)" fill="#263238"/>
        <path id="Path_406" data-name="Path 406" d="M69.68,218.029,67,216.2l-3.6.976,2.134,2.012Z" transform="translate(-25.05 -84.723)" fill="#263238"/>
        <path id="Path_407" data-name="Path 407" d="M76.762,223.27,72.19,220.1l-4.39,1.219,3.6,3.414h.061Z" transform="translate(-26.768 -86.245)" fill="#263238"/>
        <path id="Path_408" data-name="Path 408" d="M104.1,227.924l4.573,3.17,5.3-1.524L109.4,226.4Z" transform="translate(-40.936 -88.704)" fill="#263238"/>
        <path id="Path_409" data-name="Path 409" d="M112.577,238.47,108,235.3l-5.3,1.524,4.573,3.17Z" transform="translate(-40.389 -92.178)" fill="#263238"/>
        <path id="Path_410" data-name="Path 410" d="M150.477,244.87,145.9,241.7l-5.3,1.463,4.573,3.17Z" transform="translate(-55.182 -94.676)" fill="#263238"/>
        <path id="Path_411" data-name="Path 411" d="M131.8,237.124l4.573,3.17,5.3-1.524L137.1,235.6Z" transform="translate(-51.747 -92.295)" fill="#263238"/>
        <path id="Path_412" data-name="Path 412" d="M140.277,247.67,135.7,244.5l-5.3,1.524,4.573,3.17Z" transform="translate(-51.201 -95.769)" fill="#263238"/>
        <path id="Path_413" data-name="Path 413" d="M131.538,241.67,126.9,238.5l-5.3,1.463,4.634,3.17Z" transform="translate(-47.766 -93.427)" fill="#263238"/>
        <path id="Path_414" data-name="Path 414" d="M121.377,244.509,116.8,241.4l-5.3,1.463,4.573,3.17Z" transform="translate(-43.824 -94.559)" fill="#263238"/>
        <path id="Path_415" data-name="Path 415" d="M86.7,238.17,82.066,235l-.366.122,3.6,3.414Z" transform="translate(-32.193 -92.061)" fill="#263238"/>
        <path id="Path_416" data-name="Path 416" d="M153.2,256.6l-5.3,1.524,5.487,3.78,5.182-1.585Z" transform="translate(-58.031 -100.491)" fill="#263238"/>
        <path id="Path_417" data-name="Path 417" d="M143.1,259.5l-5.3,1.463,5.67,3.9,5.121-1.585Z" transform="translate(-54.089 -101.623)" fill="#263238"/>
        <path id="Path_418" data-name="Path 418" d="M102.755,250.27l-4.573-3.17-2.683.732,3.6,3.475Z" transform="translate(-37.579 -96.783)" fill="#263238"/>
        <path id="Path_419" data-name="Path 419" d="M159.177,250.87,154.6,247.7l-5.3,1.524,4.573,3.109Z" transform="translate(-58.578 -97.018)" fill="#263238"/>
        <path id="Path_420" data-name="Path 420" d="M110.814,256.27l-4.634-3.17-3.78,1.1,3.658,3.414Z" transform="translate(-40.272 -99.125)" fill="#263238"/>
        <path id="Path_421" data-name="Path 421" d="M118.811,262.37l-4.573-3.17-4.939,1.4,3.658,3.414Z" transform="translate(-42.965 -101.506)" fill="#263238"/>
        <path id="Path_422" data-name="Path 422" d="M128.777,259.47,124.2,256.3l-5.3,1.524,4.573,3.17Z" transform="translate(-46.712 -100.374)" fill="#263238"/>
        <path id="Path_423" data-name="Path 423" d="M177.955,252.19l-3.048-1.89-6.707,1.89,5.182,3.6,4.024-1.219a1.3,1.3,0,0,0,1.158-1.4A1.209,1.209,0,0,0,177.955,252.19Z" transform="translate(-65.954 -98.032)" fill="#263238"/>
        <path id="Path_424" data-name="Path 424" d="M122.336,265.2l-6.036,1.707,4.756,4.512,7.133-2.195Z" transform="translate(-45.697 -103.848)" fill="#263238"/>
        <path id="Path_425" data-name="Path 425" d="M165.841,244.3l-6.341,1.829,4.573,3.17,6.646-1.89Z" transform="translate(-62.559 -95.69)" fill="#263238"/>
        <path id="Path_426" data-name="Path 426" d="M163.4,253.7l-5.3,1.524,5.3,3.658,5.182-1.585Z" transform="translate(-62.012 -99.359)" fill="#263238"/>
        <path id="Path_427" data-name="Path 427" d="M103.922,208.287l4.39-1.219-2.8-1.768-4.207,1.158Z" transform="translate(-39.843 -80.469)" fill="#263238"/>
        <path id="Path_428" data-name="Path 428" d="M138.574,266.3l-5.67-3.9-5.3,1.463,5.853,4.024Z" transform="translate(-50.108 -102.755)" fill="#263238"/>
        <path id="Path_429" data-name="Path 429" d="M106.9,210.28l4.573,3.109,4.695-1.28L111.29,209Z" transform="translate(-42.029 -81.913)" fill="#263238"/>
        <path id="Path_430" data-name="Path 430" d="M124.4,222.2l4.573,3.17,5.365-1.524L129.46,220.8Z" transform="translate(-48.859 -86.518)" fill="#263238"/>
        <path id="Path_431" data-name="Path 431" d="M115.6,216.241l4.634,3.17,5-1.4-4.878-3.109Z" transform="translate(-45.424 -84.215)" fill="#263238"/>
        <path id="Path_432" data-name="Path 432" d="M133.2,228.224l4.573,3.17,5.67-1.646-4.878-3.048Z" transform="translate(-52.294 -88.821)" fill="#263238"/>
        <path id="Path_433" data-name="Path 433" d="M141.9,234.185l4.634,3.17,5.975-1.707-4.878-3.048Z" transform="translate(-55.689 -91.124)" fill="#263238"/>
        <path id="Path_434" data-name="Path 434" d="M156.736,238.4l-6.036,1.768,4.573,3.109,6.341-1.768Z" transform="translate(-59.124 -93.388)" fill="#263238"/>
        <path id="Path_435" data-name="Path 435" d="M96.7,212.963l4.634,3.17,5.243-1.524L102,211.5Z" transform="translate(-38.047 -82.888)" fill="#263238"/>
        <path id="Path_436" data-name="Path 436" d="M79.2,232.8l.915.915.244-.061Z" transform="translate(-31.217 -91.202)" fill="#263238"/>
        <path id="Path_437" data-name="Path 437" d="M73.483,216.653l5.3-1.524L76.1,213.3l-5.3,1.524Z" transform="translate(-27.939 -83.591)" fill="#263238"/>
        <path id="Path_438" data-name="Path 438" d="M83.583,213.792l5.3-1.463L86.265,210.5,80.9,211.963Z" transform="translate(-31.881 -82.498)" fill="#263238"/>
        <path id="Path_439" data-name="Path 439" d="M91.1,209.124l2.683,1.829,5.3-1.524L96.4,207.6Z" transform="translate(-35.862 -81.366)" fill="#263238"/>
        <path id="Path_440" data-name="Path 440" d="M94.7,244.209,90.124,241.1l-1.524.427,3.6,3.414Z" transform="translate(-34.886 -94.441)" fill="#263238"/>
        <path id="Path_441" data-name="Path 441" d="M90.729,220.285,76.706,163.523a6.821,6.821,0,0,0-2.012-3.353l-37.8-35.24a1.051,1.051,0,0,0-1.463.061,1.02,1.02,0,0,0-.244.915L47.5,178.887Z" transform="translate(-14.03 -48.995)" fill="#ff597d" stroke="#263238" stroke-linecap="round" stroke-linejoin="round" stroke-width="1"/>
        <path id="Path_442" data-name="Path 442" d="M91.5,179.1l4.329,3.78s1.341.244,2.683,7.011" transform="translate(-36.018 -70.243)" fill="none" stroke="#263238" stroke-linecap="round" stroke-linejoin="round" stroke-width="0.5"/>
        <line id="Line_38" data-name="Line 38" x2="7.987" y2="34.57" transform="translate(63.286 123.124)" fill="none" stroke="#263238" stroke-linecap="round" stroke-linejoin="round" stroke-width="0.5"/>
        <path id="Path_443" data-name="Path 443" d="M60.421,172.152c1.89,4.573,1.707,8.9-.366,9.816s-5.3-2.134-7.194-6.707-1.707-8.9.366-9.755S58.531,167.641,60.421,172.152Z" transform="translate(-20.425 -64.88)" fill="#ff597d"/>
        <path id="Path_444" data-name="Path 444" d="M60.421,172.152c1.89,4.573,1.707,8.9-.366,9.816s-5.3-2.134-7.194-6.707-1.707-8.9.366-9.755S58.531,167.641,60.421,172.152Z" transform="translate(-20.425 -64.88)" fill="#fff" opacity="0.6"/>
        <ellipse id="Ellipse_45" data-name="Ellipse 45" cx="2.927" cy="6.341" rx="2.927" ry="6.341" transform="translate(31.091 104.105) rotate(-22.377)" fill="none" stroke="#263238" stroke-miterlimit="10" stroke-width="1"/>
        <path id="Path_445" data-name="Path 445" d="M67.068,204.982c.976,2.378.549,4.756-.915,5.365s-3.414-.793-4.39-3.17-.549-4.756.915-5.365S66.092,202.665,67.068,204.982Z" transform="translate(-24.206 -79.053)" fill="#263238"/>
        <path id="Path_446" data-name="Path 446" d="M65.73,210a3.011,3.011,0,0,1-2.439-2.134,4.247,4.247,0,0,1-.3-2.134,1.711,1.711,0,0,1,.976-1.4c1.036-.427,2.317.488,2.988,2.012h0c.671,1.585.366,3.109-.671,3.536A1.781,1.781,0,0,1,65.73,210Zm-1.219-5.182a.55.55,0,0,0-.3.061,1.086,1.086,0,0,0-.61.976,3.48,3.48,0,0,0,.244,1.768c.488,1.219,1.524,2.012,2.195,1.707s.854-1.524.366-2.744c-.427-1.036-1.28-1.768-1.89-1.768Z" transform="translate(-24.881 -80.05)" fill="#ff597d"/>
        <g id="Group_34" data-name="Group 34" transform="translate(38.085 124.178)" opacity="0.5">
          <path id="Path_447" data-name="Path 447" d="M65.73,210a3.011,3.011,0,0,1-2.439-2.134,4.247,4.247,0,0,1-.3-2.134,1.711,1.711,0,0,1,.976-1.4c1.036-.427,2.317.488,2.988,2.012h0c.671,1.585.366,3.109-.671,3.536A1.781,1.781,0,0,1,65.73,210Zm-1.219-5.182a.55.55,0,0,0-.3.061,1.086,1.086,0,0,0-.61.976,3.48,3.48,0,0,0,.244,1.768c.488,1.219,1.524,2.012,2.195,1.707s.854-1.524.366-2.744c-.427-1.036-1.28-1.768-1.89-1.768Z" transform="translate(-62.965 -204.228)" fill="#fff"/>
        </g>
        <path id="Path_448" data-name="Path 448" d="M86.287,208.212,82.812,213.7a.829.829,0,0,0,0,.915l7.438,10.853a.855.855,0,0,0,1.158.244.06.06,0,0,0,.061-.061l3.841-3.109a.773.773,0,0,0,.183-1.036l-7.8-13.169a.813.813,0,0,0-1.1-.3C86.47,207.968,86.409,208.09,86.287,208.212Z" transform="translate(-32.573 -81.49)" fill="#263238"/>
        <path id="Path_449" data-name="Path 449" d="M78.232,218.7s9.633-1.585,16.218,11.95l1.646-2.012s-6.341-10.609-11.523-11.523A48.646,48.646,0,0,0,77.5,216.2Z" transform="translate(-30.554 -84.723)" fill="#ff597d"/>
        <path id="Path_450" data-name="Path 450" d="M78.232,218.7s9.633-1.585,16.218,11.95l1.646-2.012s-6.341-10.609-11.523-11.523A48.646,48.646,0,0,0,77.5,216.2Z" transform="translate(-30.554 -84.723)" fill="#fff" opacity="0.5"/>
        <line id="Line_39" data-name="Line 39" x2="30.79" y2="28.595" transform="translate(23.351 78.617)" fill="none" stroke="#263238" stroke-linecap="round" stroke-linejoin="round" stroke-width="0.5"/>
        <path id="Path_451" data-name="Path 451" d="M183.4,163.327s1.1-1.951,1.585.488Z" transform="translate(-71.887 -63.798)" fill="#263238"/>
        <path id="Path_452" data-name="Path 452" d="M137.1,190.429,163.988,207.8l22.132-9.023L156.305,183.6Z" transform="translate(-53.816 -71.999)" fill="#263238" stroke="#263238" stroke-linecap="round" stroke-linejoin="round" stroke-width="1"/>
        <line id="Line_40" data-name="Line 40" x1="10.67" y2="3.78" transform="translate(89.869 114.832)" fill="none" stroke="#fff" stroke-linecap="round" stroke-linejoin="round" stroke-width="0.5"/>
        <path id="Path_453" data-name="Path 453" d="M150.6,197.2l19.327,12.194,15.791-6.1" transform="translate(-59.085 -77.307)" fill="none" stroke="#fff" stroke-linecap="round" stroke-linejoin="round" stroke-width="0.5"/>
        <path id="Path_454" data-name="Path 454" d="M309.94,60.5s15.425,2.439,20.364,10.67,1.4,21.217-.244,25.729c-1.524,4.085,2.927,7.438,5.609,9.694,6.1,4.939,9.206,11.95,6.1,19.571-1.951,4.756-10.731,6.829-9.572,12.56s6.341,13.657-.244,19.571c-6.951,6.219-17.437,2.987-23.534-2.8-6.89-6.524-9.206-17.925-5.731-26.7,4.268-10.609,6.585-17.437,2.622-21.949S296.1,99.52,296.1,93.18s5.67-8.231,8.048-14.633-.915-12.986-.915-12.986Z" transform="translate(-115.874 -23.952)" fill="#263238" stroke="#263238" stroke-linecap="round" stroke-linejoin="round" stroke-width="1"/>
        <path id="Path_455" data-name="Path 455" d="M340.959,78.5c2.987,2.256,5.67,6.036,4.756,12.194-1.89,12.5-11.157,13.291-5.182,21.217s11.4,4.329,10.3,14.145-4.634,13.291-4.634,13.291" transform="translate(-132.443 -30.978)" fill="none" stroke="#fff" stroke-miterlimit="10" stroke-width="1"/>
        <path id="Path_456" data-name="Path 456" d="M332,73.6a16.765,16.765,0,0,1,3.475,1.219" transform="translate(-129.886 -29.065)" fill="none" stroke="#fff" stroke-miterlimit="10" stroke-width="1"/>
        <path id="Path_457" data-name="Path 457" d="M327.1,79.4s7.865,2.195,10.3,8.719-7.316,11.95-7.865,16.035" transform="translate(-127.974 -31.329)" fill="none" stroke="#fff" stroke-miterlimit="10" stroke-width="1"/>
        <path id="Path_458" data-name="Path 458" d="M308.685,217.97c-.122-3.719-.183-8.719.061-13.962.488-10.853,13.474-25.241,13.9-27.863s-.732-3.048-.732-3.048L296.247,162c-11.95,7.865-14.877,30.668-15.547,41.337Z" transform="translate(-109.864 -63.568)" fill="#ff597d" stroke="#263238" stroke-linecap="round" stroke-linejoin="round" stroke-width="1"/>
        <path id="Path_459" data-name="Path 459" d="M337.048,181.3s2.134,1.341,0,3.536-8.109,11.34-10.548,16.706" transform="translate(-127.74 -71.101)" fill="none" stroke="#263238" stroke-linecap="round" stroke-linejoin="round" stroke-width="0.5"/>
        <path id="Path_460" data-name="Path 460" d="M323.764,218.9a21.114,21.114,0,0,0-1.585,8.658c.3,4.329.244,8.353.244,8.353" transform="translate(-126.04 -85.777)" fill="none" stroke="#263238" stroke-linecap="round" stroke-linejoin="round" stroke-width="0.5"/>
        <path id="Path_461" data-name="Path 461" d="M240.829,137.392c1.158,2.927,2.5,9.328,1.585,12.926-.488,1.89-2.073,5.853-3.414,9.206l34.692,18.108c-.061-7.194.061-18.6.975-20.73,1.341-3.17,12.255-33.106,11.584-39.935s-13.9-16.584-13.9-16.584L274.362,83.8l-12.011,7.316s-1.341,6.585-2.744,8.17-12.5,3.841-15.669,7.926-2.073,16.584-2.073,17.254S239.671,134.4,240.829,137.392Z" transform="translate(-93.588 -33.046)" fill="#fff"/>
        <g id="Group_36" data-name="Group 36" transform="translate(145.412 50.754)">
          <g id="Group_35" data-name="Group 35" clip-path="url(#clip-path)">
            <path id="Path_462" data-name="Path 462" d="M300.515,116.967c-.671-6.829-13.84-16.584-13.84-16.584L288.686,83.8l-12.011,7.316s-.366,1.89-.976,3.9a24.4,24.4,0,0,0,2.622-.366,19.375,19.375,0,0,0,7.011-2.439l-2.439,10.243s12.438,7.316,15.669,16.218c.427,1.219.915,2.378,1.4,3.475A18.511,18.511,0,0,0,300.515,116.967Z" transform="translate(-253.324 -83.8)" fill="#ff597d" opacity="0.5"/>
          </g>
        </g>
        <path id="Path_464" data-name="Path 464" d="M240.829,137.392c1.158,2.927,2.5,9.328,1.585,12.926-.488,1.89-2.073,5.853-3.414,9.206l34.692,18.108c-.061-7.194.061-18.6.975-20.73,1.341-3.17,12.255-33.106,11.584-39.935s-13.9-16.584-13.9-16.584L274.362,83.8l-12.011,7.316s-1.341,6.585-2.744,8.17-12.5,3.841-15.669,7.926-2.073,16.584-2.073,17.254S239.671,134.4,240.829,137.392Z" transform="translate(-93.588 -33.046)" fill="none" stroke="#263238" stroke-linecap="round" stroke-linejoin="round" stroke-width="1"/>
        <path id="Path_465" data-name="Path 465" d="M240.829,148.906c1.158,2.927,2.5,9.328,1.585,12.926-.488,1.89-2.073,5.853-3.414,9.206l34.692,18.108c-.061-7.194.061-18.6.975-20.73,1.341-3.17,12.255-33.106,11.584-39.935-.427-4.207-5.67-9.633-9.572-13.047-3.841,4.085-12.194,11.706-18.291,8.292-5.487-3.048-5.121-7.682-4.329-10.426-3.719,1.341-8.17,3.109-9.938,5.426-3.17,4.085-2.073,16.584-2.073,17.254S239.671,145.919,240.829,148.906Z" transform="translate(-93.588 -44.56)" fill="#263238" stroke="#263238" stroke-linecap="round" stroke-linejoin="round" stroke-width="1"/>
        <path id="Path_466" data-name="Path 466" d="M265.174,153.972l-7.56-3.536s-2.134-3.536-3.292-3.536-1.89,4.939-1.89,4.939-4.024,3.78-2.622,7.56,6.585,9.45,12.987,7.316,4.512-8.78,4.512-8.78,2.622-4.512,2.622-5.426S265.174,153.972,265.174,153.972Z" transform="translate(-97.691 -57.675)" fill="#fff" stroke="#263238" stroke-linecap="round" stroke-linejoin="round" stroke-width="1"/>
        <path id="Path_467" data-name="Path 467" d="M248.308,30.434s1.585,8.17,1.341,13.84-2.5,7.926-1.829,10.426,8.841,11.767,13.84,12.682,16.828-6.768,20.181-10.182a12.964,12.964,0,0,0,3.414-10.426c-.427-2.012-2.256-18.352-9.084-24.936S251.479,15.923,248.308,30.434Z" transform="translate(-96.982 -7.299)" fill="#fff"/>
        <g id="Group_38" data-name="Group 38" transform="translate(150.714 10.535)">
          <g id="Group_37" data-name="Group 37" clip-path="url(#clip-path-2)">
            <path id="Path_468" data-name="Path 468" d="M285.64,21.863A16.437,16.437,0,0,0,274.727,17.9l-.3,8.475s-1.341,8.353,3.536,15.12,9.145,8.658,9.694,11.34-1.89,5.426-8.109,10A47.962,47.962,0,0,1,271.8,67.59c5.3.183,16.279-7.011,19.51-10.243a12.748,12.748,0,0,0,3.414-10.426C294.3,44.909,292.408,28.448,285.64,21.863Z" transform="translate(-257.104 -17.86)" fill="#ff597d" opacity="0.5"/>
          </g>
        </g>
        <path id="Path_470" data-name="Path 470" d="M248.308,30.434s1.585,8.17,1.341,13.84-2.5,7.926-1.829,10.426,8.841,11.767,13.84,12.682,16.828-6.768,20.181-10.182a12.964,12.964,0,0,0,3.414-10.426c-.427-2.012-2.256-18.352-9.084-24.936S251.479,15.923,248.308,30.434Z" transform="translate(-96.982 -7.299)" fill="none" stroke="#263238" stroke-linecap="round" stroke-linejoin="round" stroke-width="1"/>
        <path id="Path_471" data-name="Path 471" d="M261.729,66s-.671,4.329-1.829,5.67a5.281,5.281,0,0,0,3.17,1.341" transform="translate(-101.745 -26.099)" fill="none" stroke="#263238" stroke-linecap="round" stroke-linejoin="round" stroke-width="1"/>
        <path id="Path_472" data-name="Path 472" d="M263.6,83.627a10.473,10.473,0,0,0,9.328-.427" transform="translate(-103.189 -32.812)" fill="none" stroke="#263238" stroke-linecap="round" stroke-linejoin="round" stroke-width="1"/>
        <path id="Path_473" data-name="Path 473" d="M275.985,61.441c0,.732-.366,1.341-.793,1.341s-.793-.61-.793-1.341.366-1.341.793-1.341S275.985,60.71,275.985,61.441Z" transform="translate(-107.405 -23.796)" fill="#263238"/>
        <path id="Path_474" data-name="Path 474" d="M257.585,58.441c0,.732-.366,1.341-.793,1.341s-.793-.61-.793-1.341.366-1.341.793-1.341S257.585,57.71,257.585,58.441Z" transform="translate(-100.223 -22.625)" fill="#263238"/>
        <path id="Path_475" data-name="Path 475" d="M253.6,49.164a5.674,5.674,0,0,1,4.329-.671" transform="translate(-99.286 -19.201)" fill="none" stroke="#263238" stroke-linecap="round" stroke-linejoin="round" stroke-width="1"/>
        <path id="Path_476" data-name="Path 476" d="M271,49.923s1.341-.671,4.329,1.158" transform="translate(-106.078 -19.777)" fill="none" stroke="#263238" stroke-linecap="round" stroke-linejoin="round" stroke-width="1"/>
        <path id="Path_477" data-name="Path 477" d="M257.838,19.169s-6.341,5.182-9.511,8.414S243.816,33.009,239,31s-8.17-9.084-1.829-17.437,18.6-10.914,30.607-7.5,17.01,11.1,17.925,19.51-.915,17.681-5.182,20.181-13.84-7.743-17.254-14.084A90.08,90.08,0,0,1,257.838,19.169Z" transform="translate(-91.514 -2.131)" fill="#263238" stroke="#263238" stroke-linecap="round" stroke-linejoin="round" stroke-width="1"/>
        <path id="Path_478" data-name="Path 478" d="M261.772,28.5S244.64,31,243.847,34.841s4.39,2.683,4.39,2.683" transform="translate(-95.448 -11.462)" fill="none" stroke="#fff" stroke-miterlimit="10" stroke-width="1"/>
        <path id="Path_479" data-name="Path 479" d="M239.824,32.6a4.608,4.608,0,0,0-.244,4.085" transform="translate(-93.681 -13.063)" fill="none" stroke="#fff" stroke-miterlimit="10" stroke-width="1"/>
        <path id="Path_480" data-name="Path 480" d="M278.35,14.893s-16.584-2.683-16.584,4.634c0,0-10.06-3.536-16.584,1.341a17.005,17.005,0,0,0-2.683,2.439" transform="translate(-94.954 -5.964)" fill="none" stroke="#fff" stroke-miterlimit="10" stroke-width="1"/>
        <path id="Path_481" data-name="Path 481" d="M275.5,25.5s4.207,13.657,13.047,17.132" transform="translate(-107.834 -10.292)" fill="none" stroke="#fff" stroke-miterlimit="10" stroke-width="1"/>
        <path id="Path_482" data-name="Path 482" d="M289.9,31.5c3.414,2.8,8.231,5.548,14.023,5.3" transform="translate(-113.454 -12.633)" fill="none" stroke="#fff" stroke-miterlimit="10" stroke-width="1"/>
        <path id="Path_483" data-name="Path 483" d="M281.3,22.3a25.286,25.286,0,0,0,2.622,3.109" transform="translate(-110.098 -9.043)" fill="none" stroke="#fff" stroke-miterlimit="10" stroke-width="1"/>
        <path id="Path_484" data-name="Path 484" d="M245.337,51.5l26.522,4.573s0,4.024-1.158,6.1-2.5,2.073-5.426,2.073-7.072-1.829-7.255-2.5c-.488-1.585-.183-6.89-.183-6.89l-2.134-.366s.3,6.158-.854,6.89-8.6-.671-10-2.5S244.423,51.314,245.337,51.5Z" transform="translate(-95.596 -20.437)" fill="none" stroke="#263238" stroke-linecap="round" stroke-linejoin="round" stroke-width="1"/>
        <path id="Path_485" data-name="Path 485" d="M289.6,57.673,301.428,55.6v1.585L289.6,60.112Z" transform="translate(-113.337 -22.04)" fill="#ff597d" stroke="#263238" stroke-linecap="round" stroke-linejoin="round" stroke-width="1"/>
        <ellipse id="Ellipse_46" data-name="Ellipse 46" cx="10.548" cy="6.585" rx="10.548" ry="6.585" transform="translate(182.141 45.359) rotate(-80.868)" fill="#ff597d" stroke="#263238" stroke-linecap="round" stroke-linejoin="round" stroke-width="1"/>
        <path id="Path_486" data-name="Path 486" d="M320.407,55.628c-.793,4.817-3.475,8.414-5.975,7.987s-3.963-4.634-3.17-9.45,3.475-8.414,5.975-7.987S321.139,50.751,320.407,55.628Z" transform="translate(-121.708 -18.349)" fill="#ff597d" stroke="#263238" stroke-linecap="round" stroke-linejoin="round" stroke-width="1"/>
        <path id="Path_487" data-name="Path 487" d="M319.171,26a53.2,53.2,0,0,1-2.073,18.84s-.244,3.658,3.17,2.012,2.927-15.425,2.5-21.1S318.012,21.673,319.171,26Z" transform="translate(-124.068 -8.964)" fill="#fff" stroke="#263238" stroke-linecap="round" stroke-linejoin="round" stroke-width="1"/>
        <path id="Path_488" data-name="Path 488" d="M296.5,6.923a7.263,7.263,0,0,1,7.926,3.414c2.744,4.756,2.256,9.084,6.1,9.511s4.085-3.841,2.073-9.328S306.255,1.009,300.341.583A9.921,9.921,0,0,0,291.5,4.911,11.224,11.224,0,0,1,296.5,6.923Z" transform="translate(-114.079 -0.556)" fill="#ff597d" stroke="#263238" stroke-linecap="round" stroke-linejoin="round" stroke-width="1"/>
        <path id="Path_489" data-name="Path 489" d="M168.024,228.4a44.609,44.609,0,0,1-5.67.549c-2.927.122-4.207.122-3.719.793s3.963,1.341,5.243,1.585S168.024,228.4,168.024,228.4Z" transform="translate(-62.182 -89.485)" fill="#fff" stroke="#263238" stroke-miterlimit="10" stroke-width="1"/>
        <path id="Path_490" data-name="Path 490" d="M241.436,144.167l-15.669,35.606s-42.618,7.926-46.52,7.926-11.584,2.744-13.169,3.6-17.01,7.987-14.023,8.475c1.829.244,6.585-2.317,6.585-2.317s-7.5,3.6-6.829,4.756,9.755-3.414,9.755-3.414-8.292,4.878-6.585,5.182c1.524.244,3.414-.61,5-1.768a17.04,17.04,0,0,1,4.451-1.951s-3.658,2.439-4.085,3.536.915.427,2.256,0a65.719,65.719,0,0,0,12.8-7.5l3.6-3.17s24.266.671,35.362.244,16.584-1.585,20.669-5.67,15.669-29.936,18.352-36.947.915-11.1-1.829-15.852" transform="translate(-59.503 -52.991)" fill="#fff"/>
        <g id="Group_40" data-name="Group 40" transform="translate(92.169 81.909)">
          <g id="Group_39" data-name="Group 39" clip-path="url(#clip-path-3)">
            <path id="Path_491" data-name="Path 491" d="M260.228,172.436c-7.316,13.779-13.474,18.047-20,21.339S198.1,197.8,198.1,197.8l1.524.366c6.463.183,23.961.549,32.924.183,11.1-.427,16.584-1.585,20.669-5.67s15.669-29.936,18.352-36.947a16.117,16.117,0,0,0,1.219-8.231l-1.524.976A223.436,223.436,0,0,1,260.228,172.436Z" transform="translate(-169.793 -139.818)" fill="#ff597d" opacity="0.5"/>
          </g>
        </g>
        <path id="Path_493" data-name="Path 493" d="M241.436,144.167l-15.669,35.606s-42.618,7.926-46.52,7.926-11.584,2.744-13.169,3.6-17.01,7.987-14.023,8.475c1.829.244,6.585-2.317,6.585-2.317s-7.5,3.6-6.829,4.756,9.755-3.414,9.755-3.414-8.292,4.878-6.585,5.182c1.524.244,3.414-.61,5-1.768a17.04,17.04,0,0,1,4.451-1.951s-3.658,2.439-4.085,3.536.915.427,2.256,0a65.719,65.719,0,0,0,12.8-7.5l3.6-3.17s24.266.671,35.362.244,16.584-1.585,20.669-5.67,15.669-29.936,18.352-36.947.915-11.1-1.829-15.852" transform="translate(-59.503 -52.991)" fill="none" stroke="#263238" stroke-miterlimit="10" stroke-width="1"/>
        <path id="Path_494" data-name="Path 494" d="M295.456,143.214,290.7,155.53c3.475-1.89,10.06-4.39,15.3-.61.732-1.707,1.341-3.17,1.768-4.268,2.744-7.011.915-11.1-1.829-15.852" transform="translate(-113.767 -52.952)" fill="#263238" stroke="#263238" stroke-linecap="round" stroke-linejoin="round" stroke-width="1"/>
        <path id="Path_495" data-name="Path 495" d="M216.636,175.5c-4.634,1.341-22.8,6.646-24.449,7.072a28.742,28.742,0,0,1-3.17.549,76.65,76.65,0,0,1-8.048-3.963c-1.707-1.219-3.719-.488-4.756,0s-1.829,3.658.122,3.658,2.256-.122,4.451,1.707,2.134,2.744,3.719,3.414,4.207.244,5.548,0c1.219-.183,22.315-1.585,27.5-1.89C218.221,183.182,217.489,178.731,216.636,175.5Z" transform="translate(-68.663 -68.837)" fill="#fff"/>
        <g id="Group_42" data-name="Group 42" transform="translate(106.477 106.663)">
          <g id="Group_41" data-name="Group 41" clip-path="url(#clip-path-4)">
            <path id="Path_496" data-name="Path 496" d="M226.875,180.9,199.5,189.984c1.219-.183,22.315-1.585,27.5-1.89A19.179,19.179,0,0,0,226.875,180.9Z" transform="translate(-184.648 -177.608)" fill="#ff597d" opacity="0.5"/>
          </g>
        </g>
        <path id="Path_498" data-name="Path 498" d="M216.636,175.5c-4.634,1.341-22.8,6.646-24.449,7.072a28.742,28.742,0,0,1-3.17.549,76.65,76.65,0,0,1-8.048-3.963c-1.707-1.219-3.719-.488-4.756,0s-1.829,3.658.122,3.658,2.256-.122,4.451,1.707,2.134,2.744,3.719,3.414,4.207.244,5.548,0c1.219-.183,22.315-1.585,27.5-1.89C218.221,183.182,217.489,178.731,216.636,175.5Z" transform="translate(-68.663 -68.837)" fill="none" stroke="#263238" stroke-linecap="round" stroke-linejoin="round" stroke-width="1"/>
        <path id="Path_499" data-name="Path 499" d="M166.631,187.6s-2.378,1.341-3.048,2.927.671,1.158,1.158.793,2.378-1.951,2.378-1.951Z" transform="translate(-64.08 -73.56)" fill="#fff" stroke="#263238" stroke-linecap="round" stroke-linejoin="round" stroke-width="1"/>
        <path id="Path_500" data-name="Path 500" d="M169,185.8a2.727,2.727,0,0,0-1.219,2.744c.244,1.951,2.256,4.756,2.5,3.658S169,185.8,169,185.8Z" transform="translate(-65.774 -72.858)" fill="#fff" stroke="#263238" stroke-linecap="round" stroke-linejoin="round" stroke-width="1"/>
        <path id="Path_501" data-name="Path 501" d="M172.472,183s-2.134.549-2.8,1.707.427,6.036,1.28,6.341a1.161,1.161,0,0,0,1.585-.61.55.55,0,0,0,.061-.3C172.838,189.341,172.472,183,172.472,183Z" transform="translate(-66.446 -71.765)" fill="#fff" stroke="#263238" stroke-linecap="round" stroke-linejoin="round" stroke-width="1"/>
        <path id="Path_502" data-name="Path 502" d="M176.495,181.1s-2.866,0-3.17,1.341-.915,7.255-.366,8.17,1.463.549,1.951-.549S176.495,181.1,176.495,181.1Z" transform="translate(-67.725 -71.023)" fill="#fff" stroke="#263238" stroke-linecap="round" stroke-linejoin="round" stroke-width="1"/>
        <path id="Path_503" data-name="Path 503" d="M180.134,163.8,175.5,185.017l.732,2.683a.335.335,0,0,0,.3.183c.061,0,.061-.061.122-.061l2.012-2.012,3.414-21.461Z" transform="translate(-68.804 -64.271)" fill="#263238"/>
        <path id="Path_504" data-name="Path 504" d="M185.162,191.9s-2.622,1.036-4.634,1.951-4.085,1.341-3.841,2.622,1.158.793,2.622.366a27.927,27.927,0,0,1,6.219-1.463c2.8-.366,5.121-2.927,5.121-2.927" transform="translate(-69.259 -75.238)" fill="#fff" stroke="#263238" stroke-linecap="round" stroke-linejoin="round" stroke-width="1"/>
        <path id="Path_505" data-name="Path 505" d="M175.6,199.1l.488,2.012a.562.562,0,0,0,.671.427.317.317,0,0,0,.244-.122l1.1-1.036" transform="translate(-68.843 -78.049)" fill="none" stroke="#fff" stroke-linecap="round" stroke-linejoin="round" stroke-width="0.5"/>
        <line id="Line_41" data-name="Line 41" y1="10.731" x2="2.439" transform="translate(106.696 110.016)" fill="none" stroke="#fff" stroke-linecap="round" stroke-linejoin="round" stroke-width="0.5"/>
      </g>
    </g>
  </g>
</svg>
