<svg id="Twitter" xmlns="http://www.w3.org/2000/svg" width="62" height="62" viewBox="0 0 62 62">
  <g id="ELEMENTS" transform="translate(0 0)">
    <circle id="Ellipse_8" data-name="Ellipse 8" cx="31" cy="31" r="31" transform="translate(0 0)" fill="#324070"/>
    <path id="Path_42" data-name="Path 42" d="M41.81,13.062a14.729,14.729,0,0,1-3.495.978c.559-.1,1.363-1.1,1.747-1.485A6.045,6.045,0,0,0,41.2,10.476a.14.14,0,0,0,0-.175.245.245,0,0,0-.192,0,17.472,17.472,0,0,1-4.036,1.66.262.262,0,0,1-.28,0l-.349-.349a7.3,7.3,0,0,0-1.957-1.4,7.111,7.111,0,0,0-3.005-.489,7.321,7.321,0,0,0-2.848.8,7.548,7.548,0,0,0-2.306,1.887,6.884,6.884,0,0,0-1.433,5.644c0,.175,0,.192-.14.175a21.579,21.579,0,0,1-13.891-6.989c-.175-.192-.262-.192-.384,0a6.989,6.989,0,0,0,1.188,8.317c.28.262.559.524.856.751a7.111,7.111,0,0,1-2.673-.751c-.21-.157-.21-.087-.21.087a4.333,4.333,0,0,0,0,.8,7.129,7.129,0,0,0,4.386,5.679,5.242,5.242,0,0,0,.891.262,7.775,7.775,0,0,1-2.638,0c-.192,0-.262,0-.192.245a7.391,7.391,0,0,0,5.521,4.613l.769.1h0A8.841,8.841,0,0,1,14.5,33.347a13.331,13.331,0,0,1-5.731.734H8.315c-.087,0,0,.122.087.21.4.262.786.489,1.188.716a18.73,18.73,0,0,0,3.844,1.52,20.39,20.39,0,0,0,19.8-4.63,20.792,20.792,0,0,0,5.486-15.149c0-.227.245-.349.4-.454a13.7,13.7,0,0,0,2.638-2.586.8.8,0,0,0,.175-.524h0C41.933,12.974,41.933,12.992,41.81,13.062Z" transform="translate(6.187 7.259)" fill="#fff"/>
  </g>
</svg>
