<svg xmlns="http://www.w3.org/2000/svg" viewBox="0 0 38 29.85"><title>Asset 2</title><g id="Layer_2" data-name="Layer 2"><g id="ELEMENTS"><path d="M32.52,0h-27A5.49,5.49,0,0,0,0,5.49V24.37a5.49,5.49,0,0,0,5.49,5.48h27A5.49,5.49,0,0,0,38,24.37V5.49A5.49,5.49,0,0,0,32.52,0Zm0,2.62a2.82,2.82,0,0,1,.65.08L21.77,15.64a3.68,3.68,0,0,1-5.53,0L4.84,2.7a2.69,2.69,0,0,1,.65-.08Zm2.86,21.75a2.86,2.86,0,0,1-2.86,2.86h-27a2.87,2.87,0,0,1-2.87-2.86V5.49A2.83,2.83,0,0,1,2.84,4.4l11.43,13a6.3,6.3,0,0,0,9.46,0l11.44-13a3,3,0,0,1,.21,1.09Z"/></g></g></svg>