<svg xmlns="http://www.w3.org/2000/svg" xmlns:xlink="http://www.w3.org/1999/xlink" viewBox="0 0 2809.41 2800"><defs><style>.cls-1{fill:url(#linear-gradient);}.cls-2{fill:#91b3fa;}.cls-3{fill:#bdd0fb;}.cls-4{fill:url(#linear-gradient-2);}.cls-5{fill:url(#linear-gradient-3);}.cls-6{fill:url(#linear-gradient-4);}.cls-7{fill:#7d97f4;}.cls-16,.cls-8{fill:#fff;}.cls-9{fill:url(#linear-gradient-5);}.cls-10{fill:url(#linear-gradient-6);}.cls-11{fill:url(#linear-gradient-7);}.cls-12{fill:url(#linear-gradient-8);}.cls-13{fill:url(#linear-gradient-9);}.cls-14{fill:url(#linear-gradient-10);}.cls-15{fill:url(#linear-gradient-11);}.cls-16{opacity:0.78;}.cls-17{fill:url(#linear-gradient-12);}.cls-18{fill:url(#linear-gradient-13);}.cls-19{fill:url(#linear-gradient-14);}.cls-20{fill:url(#linear-gradient-15);}.cls-21{fill:url(#linear-gradient-16);}.cls-22{fill:url(#linear-gradient-17);}.cls-23{fill:url(#linear-gradient-18);}.cls-24{fill:url(#linear-gradient-19);}.cls-25{fill:url(#linear-gradient-20);}.cls-26{fill:url(#linear-gradient-21);}.cls-27{fill:url(#linear-gradient-22);}.cls-28{fill:url(#linear-gradient-23);}.cls-29{fill:url(#linear-gradient-24);}.cls-30{fill:url(#linear-gradient-25);}.cls-31{fill:url(#linear-gradient-26);}.cls-32{fill:url(#linear-gradient-27);}.cls-33{fill:url(#linear-gradient-28);}.cls-34{fill:url(#linear-gradient-29);}.cls-35{fill:url(#linear-gradient-30);}.cls-36{fill:url(#linear-gradient-31);}.cls-37{fill:url(#linear-gradient-32);}.cls-38{fill:url(#linear-gradient-33);}.cls-39{fill:url(#linear-gradient-34);}.cls-40{fill:url(#linear-gradient-35);}.cls-41{fill:url(#linear-gradient-36);}.cls-42{fill:#f8a570;}.cls-43{fill:url(#linear-gradient-37);}.cls-44{fill:url(#linear-gradient-38);}.cls-45{fill:url(#linear-gradient-39);}</style><linearGradient id="linear-gradient" x1="3098.34" y1="3567.68" x2="647.21" y2="523.54" gradientUnits="userSpaceOnUse"><stop offset="0" stop-color="#dae3fe"/><stop offset="1" stop-color="#e9effd"/></linearGradient><linearGradient id="linear-gradient-2" x1="2166.82" y1="-161.26" x2="1461.74" y2="2150.58" gradientUnits="userSpaceOnUse"><stop offset="0" stop-color="#ff928e"/><stop offset="1" stop-color="#fe7062"/></linearGradient><linearGradient id="linear-gradient-3" x1="798.43" y1="1428.59" x2="1366.9" y2="1428.59" gradientUnits="userSpaceOnUse"><stop offset="0" stop-color="#febbba"/><stop offset="1" stop-color="#ff928e"/></linearGradient><linearGradient id="linear-gradient-4" x1="1617.53" y1="1320.99" x2="2243.12" y2="361.75" gradientUnits="userSpaceOnUse"><stop offset="0" stop-color="#4f52ff"/><stop offset="1" stop-color="#4042e2"/></linearGradient><linearGradient id="linear-gradient-5" x1="1802.78" y1="1423.54" x2="1890.92" y2="637.11" xlink:href="#linear-gradient-3"/><linearGradient id="linear-gradient-6" x1="2787.51" y1="845.18" x2="1838.37" y2="2845.16" xlink:href="#linear-gradient-4"/><linearGradient id="linear-gradient-7" x1="1997.31" y1="2790.63" x2="1448.16" y2="1753.35" xlink:href="#linear-gradient-4"/><linearGradient id="linear-gradient-8" x1="1653.32" y1="1458.08" x2="649.94" y2="2698.75" xlink:href="#linear-gradient-4"/><linearGradient id="linear-gradient-9" x1="757.82" y1="2576.09" x2="-173.86" y2="1614.6" xlink:href="#linear-gradient-4"/><linearGradient id="linear-gradient-10" x1="2683.44" y1="1258.27" x2="2854.54" y2="1059.67" gradientTransform="matrix(0.56, 0.83, -0.83, 0.56, 1122.93, -2348.55)" gradientUnits="userSpaceOnUse"><stop offset="0" stop-color="#e1473d"/><stop offset="1" stop-color="#e9605a"/></linearGradient><linearGradient id="linear-gradient-11" x1="2951.22" y1="914.82" x2="2445.28" y2="1679.16" gradientTransform="matrix(0.74, 0.68, -0.68, 0.74, 447.45, -2098.82)" xlink:href="#linear-gradient-2"/><linearGradient id="linear-gradient-12" x1="1810.74" y1="784.95" x2="1895.49" y2="269.71" xlink:href="#linear-gradient-2"/><linearGradient id="linear-gradient-13" x1="2908.82" y1="1103.1" x2="3188.05" y2="778.99" gradientTransform="translate(-1064.5 -323.72) rotate(-2.35)" xlink:href="#linear-gradient-10"/><linearGradient id="linear-gradient-14" x1="3345.83" y1="542.6" x2="2520.13" y2="1790" gradientTransform="matrix(0.74, 0.68, -0.68, 0.74, 332.47, -2414.67)" xlink:href="#linear-gradient-2"/><linearGradient id="linear-gradient-15" x1="1390.52" y1="3006.09" x2="1529.49" y2="2504.44" gradientTransform="translate(-18.52 -139.04) rotate(12.83)" xlink:href="#linear-gradient-2"/><linearGradient id="linear-gradient-16" x1="3044.16" y1="1577.66" x2="3331.48" y2="1244.15" gradientTransform="matrix(0.74, 0.68, -0.68, 0.74, 704.4, -2395.26)" xlink:href="#linear-gradient-10"/><linearGradient id="linear-gradient-17" x1="3493.84" y1="1000.91" x2="2644.21" y2="2284.46" gradientTransform="matrix(0.74, 0.68, -0.68, 0.74, 704.4, -2395.26)" xlink:href="#linear-gradient-2"/><linearGradient id="linear-gradient-18" x1="1230.65" y1="3120.69" x2="1478.09" y2="2583.44" gradientTransform="translate(-18.52 -139.04) rotate(12.83)" xlink:href="#linear-gradient-2"/><linearGradient id="linear-gradient-19" x1="3370.34" y1="1152.78" x2="3600.13" y2="886.06" gradientTransform="matrix(0.06, 1, -1, 0.06, 3227.45, -3244.07)" xlink:href="#linear-gradient-10"/><linearGradient id="linear-gradient-20" x1="3729.98" y1="691.52" x2="3050.48" y2="1718.06" gradientTransform="matrix(0.74, 0.68, -0.68, 0.74, 518.6, -2681.5)" xlink:href="#linear-gradient-2"/><linearGradient id="linear-gradient-21" x1="1651.68" y1="2936.96" x2="1826.25" y2="2420.05" gradientTransform="translate(-18.52 -139.04) rotate(12.83)" xlink:href="#linear-gradient-2"/><linearGradient id="linear-gradient-22" x1="447.19" y1="2719.59" x2="684.85" y2="2719.59" gradientUnits="userSpaceOnUse"><stop offset="0" stop-color="#53d8ff"/><stop offset="1" stop-color="#3840f7"/></linearGradient><linearGradient id="linear-gradient-23" x1="447.18" y1="2673.01" x2="678.14" y2="2673.01" gradientUnits="userSpaceOnUse"><stop offset="0" stop-color="#09005d"/><stop offset="1" stop-color="#1a0f91"/></linearGradient><linearGradient id="linear-gradient-24" x1="469.13" y1="2607.98" x2="536.08" y2="2607.98" xlink:href="#linear-gradient-3"/><linearGradient id="linear-gradient-25" x1="22.99" y1="2778.52" x2="114.07" y2="2778.52" xlink:href="#linear-gradient-22"/><linearGradient id="linear-gradient-26" x1="23.66" y1="2687.89" x2="157.34" y2="2687.89" xlink:href="#linear-gradient-23"/><linearGradient id="linear-gradient-27" x1="93.14" y1="2573.07" x2="173.15" y2="2573.07" xlink:href="#linear-gradient-3"/><linearGradient id="linear-gradient-28" x1="-1443.6" y1="3895.64" x2="1566.54" y2="1129.57" xlink:href="#linear-gradient-23"/><linearGradient id="linear-gradient-29" x1="525.67" y1="1915.92" x2="588.04" y2="1793.62" xlink:href="#linear-gradient-4"/><linearGradient id="linear-gradient-30" x1="1193.59" y1="887.83" x2="876.72" y2="1300.07" xlink:href="#linear-gradient-3"/><linearGradient id="linear-gradient-31" x1="-79.76" y1="2040.43" x2="632.1" y2="1206.54" xlink:href="#linear-gradient-2"/><linearGradient id="linear-gradient-32" x1="1325.33" y1="220.87" x2="267.72" y2="1827.63" gradientTransform="matrix(1, 0, 0, 1, 0, 0)" xlink:href="#linear-gradient-10"/><linearGradient id="linear-gradient-33" x1="505.34" y1="1215.58" x2="518.9" y2="890.16" xlink:href="#linear-gradient-3"/><linearGradient id="linear-gradient-34" x1="581.09" y1="820.36" x2="383.3" y2="971.7" xlink:href="#linear-gradient-3"/><linearGradient id="linear-gradient-35" x1="441.86" y1="700.53" x2="626.07" y2="937.7" xlink:href="#linear-gradient-23"/><linearGradient id="linear-gradient-36" x1="556.56" y1="788.3" x2="358.77" y2="939.63" xlink:href="#linear-gradient-3"/><linearGradient id="linear-gradient-37" x1="323.87" y1="1770.19" x2="839.12" y2="1105.79" xlink:href="#linear-gradient-3"/><linearGradient id="linear-gradient-38" x1="-3808.68" y1="1425.62" x2="-4121.43" y2="1511.33" gradientTransform="matrix(-1, -0.05, -0.05, 1, -3303.79, -77.82)" xlink:href="#linear-gradient-23"/><linearGradient id="linear-gradient-39" x1="-4177.34" y1="1334.66" x2="-4397.95" y2="1567.83" gradientTransform="matrix(-1, 0, 0, 1, -3323.32, 0)" xlink:href="#linear-gradient-23"/></defs><title>Asset 2</title><g id="Layer_2" data-name="Layer 2"><g id="Illustration"><path class="cls-1" d="M2424,2367.18c-56.3,59.27-109.58,97.5-151.66,127.7-494.75,355-1080.17,251.51-1204.59,226.24C884,2683.8,528.9,2611.67,272.15,2309.73c-388.46-456.82-328-1176.52-26.66-1651.6,55.12-86.9,346.25-569.22,938-646.57C1541.57-35.25,1959,59.16,2261.3,312.42,2895.84,844.05,2850.67,1918,2424,2367.18Z"/><path class="cls-2" d="M783,179.83a3.69,3.69,0,0,1-3.16-1.41c-3-3.82-6-7.6-9.16-11.26a3.67,3.67,0,0,1,5.59-4.77c3.19,3.74,6.35,7.62,9.38,11.53a3.67,3.67,0,0,1-2.65,5.91Z"/><path class="cls-2" d="M560.14,677.65c-5.55.45-11.28.63-16.87.71a3.67,3.67,0,0,1-3.73-3.61,3.72,3.72,0,0,1,3.62-3.73c5.45-.08,11.09-.35,16.47-.7,4-.28,8-.64,12.1-1.09a3.56,3.56,0,0,1,4,3.25,3.67,3.67,0,0,1-3.25,4C568.39,677,564.22,677.36,560.14,677.65Zm58.47-9.83a3.67,3.67,0,0,1-1.2-7.21c8.9-2.39,17.83-5.23,26.53-8.43l.76-.28a3.67,3.67,0,0,1,2.53,6.9l-.75.28c-8.91,3.27-18.05,6.18-27.16,8.62A2.93,2.93,0,0,1,618.61,667.82ZM689,639.39a3.68,3.68,0,0,1-2-6.88c8.34-4.62,16.53-9.69,24.35-15a3.67,3.67,0,1,1,4.15,6.06c-8,5.48-16.4,10.67-24.93,15.4A3.76,3.76,0,0,1,689,639.39Zm61.29-44.7a3.62,3.62,0,0,1-2.93-1.15,3.67,3.67,0,0,1,.16-5.19c6.92-6.5,13.62-13.41,19.91-20.55a3.67,3.67,0,0,1,5.51,4.86c-6.44,7.31-13.3,14.38-20.39,21.05A3.64,3.64,0,0,1,750.26,594.69Zm48.48-58.34a3.67,3.67,0,0,1-3.34-5.65c5.13-8,9.94-16.33,14.32-24.78a3.67,3.67,0,1,1,6.52,3.37c-4.47,8.66-9.41,17.19-14.66,25.38A3.68,3.68,0,0,1,798.74,536.35ZM831.61,468a3.69,3.69,0,0,1-3.73-4.84c3-9,5.7-18.28,7.88-27.52a3.67,3.67,0,1,1,7.15,1.69c-2.24,9.46-4.95,18.95-8.07,28.18A3.69,3.69,0,0,1,831.61,468Zm15.3-74.33a3.37,3.37,0,0,1-.55,0,3.67,3.67,0,0,1-3.37-3.95c.75-9.5,1.06-19.13.92-28.62a3.62,3.62,0,0,1,3.62-3.72,3.67,3.67,0,0,1,3.73,3.61c.14,9.73-.18,19.59-1,29.31A3.67,3.67,0,0,1,846.91,393.63Zm-3.38-75.83a3.67,3.67,0,0,1-3.87-3.05c-1.59-9.37-3.65-18.78-6.12-28a3.67,3.67,0,1,1,7.09-1.9c2.53,9.41,4.64,19.05,6.27,28.64a3.68,3.68,0,0,1-3,4.24Zm-21.77-72.71a3.67,3.67,0,0,1-3.61-2.19c-3.83-8.74-8.1-17.37-12.69-25.66a3.67,3.67,0,0,1,6.43-3.56c4.7,8.48,9.07,17.32,13,26.27a3.68,3.68,0,0,1-1.9,4.84A3.76,3.76,0,0,1,821.76,245.09Z"/><path class="cls-2" d="M496.34,675.44a4,4,0,0,1-.77,0c-4.87-.68-9.8-1.49-14.65-2.4a3.67,3.67,0,1,1,1.35-7.22c4.74.89,9.56,1.68,14.32,2.34a3.67,3.67,0,0,1-.25,7.3Z"/><path class="cls-2" d="M287.6,549.49a3.7,3.7,0,0,1-3.25-1.53c-2.85-4-5.66-8.1-8.36-12.28a3.67,3.67,0,1,1,6.16-4c2.64,4.08,5.39,8.11,8.17,12a3.67,3.67,0,0,1-.84,5.13A3.71,3.71,0,0,1,287.6,549.49Z"/><path class="cls-2" d="M257.18,496.7a3.68,3.68,0,0,1-3.6-2.16c-3.09-6.84-6-13.9-8.58-21-.71-1.94-1.41-3.89-2.08-5.83a3.67,3.67,0,0,1,6.94-2.41c.66,1.9,1.34,3.81,2,5.71,2.54,6.89,5.36,13.78,8.38,20.47a3.68,3.68,0,0,1-1.84,4.86A3.5,3.5,0,0,1,257.18,496.7Zm-22.39-71.24a3.66,3.66,0,0,1-3.86-3c-1.75-9.42-3.09-19-4-28.57a3.68,3.68,0,0,1,3.32-4,3.73,3.73,0,0,1,4,3.33c.86,9.32,2.16,18.7,3.87,27.9a3.67,3.67,0,0,1-2.94,4.28A3,3,0,0,1,234.79,425.46Zm-4.63-74.54h-.48a3.68,3.68,0,0,1-3.44-3.89c.57-9.56,1.6-19.21,3-28.68a3.67,3.67,0,0,1,7.26,1.12c-1.42,9.24-2.42,18.66-3,28A3.67,3.67,0,0,1,230.16,350.92Zm13.46-73.44a3.68,3.68,0,0,1-3.76-4.76c2.85-9.14,6.16-18.26,9.84-27.1a3.67,3.67,0,1,1,6.78,2.81c-3.59,8.64-6.83,17.55-9.61,26.48A3.68,3.68,0,0,1,243.62,277.48Zm30.61-68.09a3.67,3.67,0,0,1-3.39-5.56c4.94-8.2,10.33-16.26,16-24a3.67,3.67,0,1,1,5.91,4.36c-5.55,7.54-10.81,15.41-15.64,23.41A3.66,3.66,0,0,1,274.23,209.39Zm46-58.79a3.67,3.67,0,0,1-2.85-6.26c6.76-6.77,13.93-13.3,21.3-19.43a3.67,3.67,0,0,1,4.69,5.65c-7.2,6-14.19,12.37-20.79,19A3.7,3.7,0,0,1,320.23,150.6Zm58.79-46a3.67,3.67,0,0,1-2.15-6.81c8.2-4.94,16.74-9.55,25.37-13.71a3.67,3.67,0,1,1,3.19,6.61c-8.43,4.07-16.76,8.57-24.77,13.4A3.83,3.83,0,0,1,379,104.61Zm68.13-30.53a3.67,3.67,0,0,1-1.34-7.17c9.15-2.85,18.53-5.31,27.9-7.3a3.67,3.67,0,1,1,1.53,7.18c-9.14,1.95-18.32,4.35-27.25,7.13A3.56,3.56,0,0,1,447.15,74.08Zm102-13.78h-.38c-9.37-.32-18.84-.2-28.16.35a3.67,3.67,0,0,1-.47-7.33h0c9.56-.57,19.27-.69,28.85-.36a3.67,3.67,0,0,1,.14,7.33Z"/><path class="cls-2" d="M609.65,68.42a4.13,4.13,0,0,1-1.1-.09c-4.67-1.11-9.45-2.12-14.19-3a3.67,3.67,0,0,1,1.35-7.22c4.86.91,9.75,1.94,14.53,3.08a3.67,3.67,0,0,1-.59,7.24Z"/><path class="cls-2" d="M621.65,143.21a3.71,3.71,0,0,0-4.26.67l-32.28,31.55a196.8,196.8,0,0,0-63.55-4.6L494.16,135a3.71,3.71,0,0,0-4.12-1.27l-51.39,17.07a3.72,3.72,0,0,0-2.54,3.48l-.51,45.11a196.69,196.69,0,0,0-48.16,41.71l-44.75-6a3.71,3.71,0,0,0-3.81,2l-24.27,48.4a3.72,3.72,0,0,0,.66,4.26l31.56,32.28a196.52,196.52,0,0,0-4.6,63.55L306.38,413a3.73,3.73,0,0,0-1.26,4.12l17.07,51.39a3.71,3.71,0,0,0,3.47,2.54l45.12.52a196.63,196.63,0,0,0,41.71,48.16l-6,44.75a3.69,3.69,0,0,0,2,3.8l48.41,24.27a3.71,3.71,0,0,0,4.26-.66l32.28-31.56A196.8,196.8,0,0,0,557,565l27.4,35.84a3.71,3.71,0,0,0,4.12,1.27L639.94,585a3.72,3.72,0,0,0,2.54-3.48l.51-45.11a196.75,196.75,0,0,0,48.17-41.72l44.74,6a3.71,3.71,0,0,0,3.81-2L764,450.25a3.71,3.71,0,0,0-.66-4.25l-31.56-32.29a196.78,196.78,0,0,0,4.61-63.55l35.84-27.4a3.71,3.71,0,0,0,1.26-4.11L756.4,267.26a3.69,3.69,0,0,0-3.47-2.55l-45.12-.51A196.45,196.45,0,0,0,666.1,216l6-44.75a3.72,3.72,0,0,0-2-3.81Z"/><path class="cls-3" d="M543.06,421.38a54.12,54.12,0,0,1-15.33-1.15,53.33,53.33,0,1,1,15.33,1.15Zm-6.76-96a42.65,42.65,0,1,0,12.18.91A42.89,42.89,0,0,0,536.3,325.41Z"/><path class="cls-3" d="M548,504.89a136.35,136.35,0,0,1-138.38-93,137.51,137.51,0,0,1-6.69-33.79,136.34,136.34,0,0,1,93-138.37c.9-.29,1.81-.59,2.71-.86a136.59,136.59,0,0,1,22.74-5c1-.13,1.92-.24,2.87-.35l1.19,10.95a126.24,126.24,0,0,0-26,5.69h0a124.3,124.3,0,0,0-70,58q-1.27,2.32-2.48,4.71a124.37,124.37,0,0,0-13,64.48,125.67,125.67,0,0,0,6.15,31.06,125.16,125.16,0,1,0,200.47-134.3l7.18-8.36a136.42,136.42,0,0,1,47,93.79c4.19,60.51-32.78,118.67-92.94,138.65A136.88,136.88,0,0,1,548,504.89Z"/><path class="cls-2" d="M451,648a4.48,4.48,0,0,1-4-1.89c-3.36-4.77-7-9.43-10.76-13.85a4.49,4.49,0,0,1,6.83-5.84c3.95,4.63,7.75,9.52,11.27,14.51a4.49,4.49,0,0,1-1.08,6.26A4.44,4.44,0,0,1,451,648Z"/><path class="cls-2" d="M333.46,949.73a4.49,4.49,0,0,1-1.26-8.87,192.12,192.12,0,0,0,25.29-7.38q4.38-1.62,8.62-3.41a4.49,4.49,0,1,1,3.5,8.27c-3,1.26-6,2.44-9,3.57a203,203,0,0,1-26.48,7.73A3.74,3.74,0,0,1,333.46,949.73Zm84.93-42.05a4.49,4.49,0,0,1-3.23-7.89,189,189,0,0,0,24.74-25.53,4.49,4.49,0,1,1,7,5.62A198.56,198.56,0,0,1,421,906.62,4.44,4.44,0,0,1,418.39,907.68Zm54.84-77.25a4.38,4.38,0,0,1-1.94-.29,4.49,4.49,0,0,1-2.55-5.82,191.32,191.32,0,0,0,9.77-34.21,4.49,4.49,0,0,1,8.83,1.65,199.73,199.73,0,0,1-10.24,35.82A4.46,4.46,0,0,1,473.23,830.43Zm11.84-94a4.48,4.48,0,0,1-4.76-3.93,189.8,189.8,0,0,0-7.64-34.74,4.49,4.49,0,0,1,8.55-2.75,200.18,200.18,0,0,1,8,36.39,4.5,4.5,0,0,1-3.91,5Z"/><path class="cls-2" d="M274.35,953.33a6.12,6.12,0,0,1-.74,0c-6.08-.57-12.2-1.43-18.19-2.56a4.49,4.49,0,0,1,1.67-8.83c5.71,1.08,11.55,1.9,17.36,2.44a4.5,4.5,0,0,1-.1,9Z"/><path class="cls-2" d="M134.53,873.19a4.51,4.51,0,0,1-4-1.86c-3.54-5-6.91-10.14-10-15.43a4.49,4.49,0,0,1,7.76-4.53c3,5,6.16,10,9.54,14.72a4.49,4.49,0,0,1-1,6.27A4.53,4.53,0,0,1,134.53,873.19Z"/><path class="cls-2" d="M103.22,804.18a4.51,4.51,0,0,1-4.67-3.46,199,199,0,0,1-4.79-31.64c-.1-1.56-.19-3.11-.26-4.66a4.64,4.64,0,0,1,4.29-4.69,4.49,4.49,0,0,1,4.68,4.29c.07,1.48.15,3,.26,4.44a189.33,189.33,0,0,0,4.56,30.21,4.49,4.49,0,0,1-3.34,5.4A6.13,6.13,0,0,1,103.22,804.18Zm1.19-93.2a4.52,4.52,0,0,1-1.45-.14,4.48,4.48,0,0,1-3.2-5.48,200.06,200.06,0,0,1,12.48-34.43,4.49,4.49,0,0,1,8.13,3.83,191.37,191.37,0,0,0-11.92,32.88A4.5,4.5,0,0,1,104.41,711Zm44.44-81.92a4.43,4.43,0,0,1-3.33-1.16,4.48,4.48,0,0,1-.3-6.34,198.64,198.64,0,0,1,27.08-24.68,4.49,4.49,0,0,1,5.41,7.17,189.31,189.31,0,0,0-25.85,23.56A4.42,4.42,0,0,1,148.85,629.06Zm77.51-51.72a4.49,4.49,0,0,1-1.83-8.7A199.62,199.62,0,0,1,260,559.39a4.39,4.39,0,0,1,5.16,3.71,4.48,4.48,0,0,1-3.7,5.15,191.64,191.64,0,0,0-33.85,8.84A4.35,4.35,0,0,1,226.36,577.34Z"/><path class="cls-2" d="M336.86,571a4.41,4.41,0,0,1-1.35-.11c-5.67-1.34-11.47-2.44-17.23-3.25a4.49,4.49,0,1,1,1.25-8.89c6,.85,12.11,2,18.05,3.4a4.49,4.49,0,0,1-.72,8.85Z"/><path class="cls-2" d="M344.24,615.77a2.33,2.33,0,0,0-2.67.42L321.29,636a123.67,123.67,0,0,0-39.93-2.89L264.15,610.6a2.32,2.32,0,0,0-2.59-.79l-32.28,10.72a2.32,2.32,0,0,0-1.6,2.19l-.32,28.34a123.48,123.48,0,0,0-30.26,26.2L169,673.51a2.35,2.35,0,0,0-2.4,1.27l-15.24,30.41a2.32,2.32,0,0,0,.41,2.67l19.83,20.29a123.31,123.31,0,0,0-2.89,39.92l-22.52,17.21a2.35,2.35,0,0,0-.8,2.59l10.73,32.29a2.32,2.32,0,0,0,2.18,1.59l28.34.32a123.51,123.51,0,0,0,26.21,30.26l-3.75,28.12a2.35,2.35,0,0,0,1.26,2.39l30.42,15.24a2.32,2.32,0,0,0,2.67-.41l20.28-19.83a123.65,123.65,0,0,0,39.93,2.9l17.21,22.51a2.34,2.34,0,0,0,2.59.8l32.28-10.72a2.34,2.34,0,0,0,1.6-2.19l.32-28.34a123.51,123.51,0,0,0,30.26-26.21L416,840.34a2.3,2.3,0,0,0,2.39-1.26l15.25-30.41a2.33,2.33,0,0,0-.42-2.68l-19.82-20.28a123.33,123.33,0,0,0,2.89-39.92l22.52-17.22a2.33,2.33,0,0,0,.8-2.58L428.9,693.7a2.35,2.35,0,0,0-2.18-1.6l-28.35-.32a123.66,123.66,0,0,0-26.2-30.26l3.75-28.11a2.33,2.33,0,0,0-1.26-2.39Z"/><path class="cls-3" d="M295.11,793.77a36.94,36.94,0,0,1-22.48-68h0a37,37,0,1,1,22.48,68Zm-15.23-56.63a23.47,23.47,0,1,0,32.41,7.16,23.51,23.51,0,0,0-32.41-7.16Z"/><path class="cls-3" d="M298.2,846.26a88.85,88.85,0,0,1-15.49-177l1.45,13.39a76,76,0,0,0-15.68,3.43,74.81,74.81,0,0,0-42.39,35.41l-.41.76-.81,1.57a75.36,75.36,0,1,0,142.58,28.71,76,76,0,0,0-3.7-18.69,75.23,75.23,0,0,0-22.33-33.35l8.78-10.22a88.9,88.9,0,0,1-52,156Z"/><path class="cls-4" d="M1229.24,1852.14c3,.51,6.09,1,9.15,1.51,462.07,73.06,896.53-246.39,970.39-713.52L1363,1006.39Z"/><path class="cls-5" d="M1366.9,1005.35,798.43,1645.91c115.5,102.69,260.2,175.39,423.75,203.44,5.15.88,10.3,1.7,15.44,2.49Z"/><path class="cls-2" d="M1363,1006.38,524,834.85q-1.6,7.89-3.09,15.84c-56.54,305.81,57,603.67,273.58,796.25Z"/><path class="cls-6" d="M1467.52,935.93,2297.89,1097c75.17-387.46-123.71-764.49-461.41-931L1464.3,929.47A4.55,4.55,0,0,0,1467.52,935.93Z"/><path class="cls-7" d="M1366.08,1008.24l355.1-777.68c-67.68-32.19-128.17-50.12-205.52-63.91-360.84-64.31-709.08,107.54-886.18,404.84Z"/><path class="cls-3" d="M629.88,563.87a853.57,853.57,0,0,0-106.5,271.94h0l838.77,172.4Z"/><path class="cls-2" d="M776.58,437.82a6.78,6.78,0,0,1-4.79-11.58,837.15,837.15,0,0,1,324-200.26C1221,184.09,1356.62,172.92,1488,193.69c11.74,1.86,23.59,4,35.21,6.34a6.78,6.78,0,0,1-2.68,13.29c-11.44-2.31-23.1-4.41-34.65-6.23C1229,166.47,965.69,252,781.37,435.84A6.76,6.76,0,0,1,776.58,437.82Z"/><path class="cls-8" d="M791.65,1617.22a6.74,6.74,0,0,1-4.67-1.87c-168.28-160-262.5-384.27-258.51-615.29a6.79,6.79,0,0,1,6.78-6.66h.12a6.78,6.78,0,0,1,6.66,6.9c-3.93,227.23,88.76,447.82,254.29,605.23a6.78,6.78,0,0,1-4.67,11.69Z"/><path class="cls-9" d="M1562.89,1817.66a6.78,6.78,0,0,1-1.68-13.34c164-42.16,309-132.77,419.09-262a6.78,6.78,0,1,1,10.32,8.79c-111.95,131.39-259.27,223.49-426,266.35A6.52,6.52,0,0,1,1562.89,1817.66Z"/><path class="cls-2" d="M1666.22,606.08a6.79,6.79,0,0,1-6.07-9.79L1854,204.49l6.33,3.87c63.73,39,122.46,83.91,184.8,141.35a6.78,6.78,0,1,1-9.19,10c-59.61-54.92-115.83-98.24-176.37-135.86L1672.31,602.3A6.8,6.8,0,0,1,1666.22,606.08Z"/><path class="cls-2" d="M1954.43,999a6.69,6.69,0,0,1-1.25-.12l-437.26-81.7a10.24,10.24,0,0,1-7.3-14.62l39.45-79.69a6.78,6.78,0,1,1,12.15,6l-37.51,75.77,433,80.89a6.78,6.78,0,0,1-1.24,13.45Z"/><path class="cls-10" d="M1794.47,2513.6l517.93-992.24H2206.29c-19.57,0-30.33-22.75-17.92-37.88l552-672.78c23.92-29.16,71.18-10.67,69,27l-38.8,657.9a65.75,65.75,0,0,1-73.1,61.45l-74-8.47L2109.57,2661.45a81.82,81.82,0,0,1-74.29,47.53H1857.17Z"/><path class="cls-11" d="M1366.26,1817.69l365.65,812.24A134.08,134.08,0,0,0,1854.18,2709h188.5a68.82,68.82,0,0,0,60.18-35.44l6.71-12.09h0a53.89,53.89,0,0,1-48-29.39L1574.38,1677.5Z"/><path class="cls-12" d="M1623.59,1773.92h0a80,80,0,0,0-116.12,18.45l-537.6,807.71a232.25,232.25,0,0,1-193.33,103.56H700.89l-61.56-177.35S1139.11,1760,1267.93,1644c0,0,128.28-115.62,254.77-28.2,33.41,23.09,58.78,56.05,74.28,93.6Z"/><path class="cls-13" d="M54.61,2049.32s90-112.48,264.38-130c0,0,82.82,28.22,247.83,323.88s274.52,430.5,403,356.86l-10.64,17.66a193.82,193.82,0,0,1-166,93.83H722.11c-78.26,0-146.22-120.55-191.92-184.08C401.76,2349,133.5,2077,54.61,2049.32Z"/><path class="cls-2" d="M2747.06,1045.67a3.69,3.69,0,0,1-.58,0A5.07,5.07,0,0,1,2742,1040l3.64-32.13a5.08,5.08,0,0,1,10.1,1.15l-3.64,32.12A5.08,5.08,0,0,1,2747.06,1045.67Z"/><path class="cls-2" d="M2286.25,1451.17a5.08,5.08,0,0,1-4-8.19l455.82-592.27a19.08,19.08,0,0,1,34.07,13.78l-8,71a5.08,5.08,0,0,1-10.1-1.14l8-71a8.9,8.9,0,0,0-15.9-6.43l-455.82,592.28A5.08,5.08,0,0,1,2286.25,1451.17Z"/><path class="cls-2" d="M1252.18,2072.07a5.07,5.07,0,0,1-4.21-7.92l235.74-349.44a41.51,41.51,0,0,1,71.92,5.46,5.08,5.08,0,0,1-9.19,4.35,31.34,31.34,0,0,0-54.3-4.12l-235.75,349.43A5.05,5.05,0,0,1,1252.18,2072.07Z"/><path class="cls-2" d="M1190.92,2162.88a5.08,5.08,0,0,1-4.21-7.93l15.11-22.41a5.09,5.09,0,1,1,8.43,5.69l-15.11,22.41A5.1,5.1,0,0,1,1190.92,2162.88Z"/><circle class="cls-14" cx="1834.21" cy="613.81" r="127.55" transform="translate(354.13 1858.97) rotate(-58.58)"/><circle class="cls-15" cx="1834.21" cy="613.81" r="123.31" transform="translate(103.2 1476.76) rotate(-45)"/><path class="cls-16" d="M1730.68,570.92a4,4,0,0,1-1.87-.37,4.11,4.11,0,0,1-2-5.45A117.44,117.44,0,0,1,1829.37,496a119.48,119.48,0,0,1,21.33,1,4.12,4.12,0,1,1-1.14,8.16,112.36,112.36,0,0,0-19.85-1,109.26,109.26,0,0,0-95.44,64.31A4.13,4.13,0,0,1,1730.68,570.92Z"/><circle class="cls-16" cx="1837.01" cy="616.38" r="104.37" transform="translate(102.2 1479.49) rotate(-45)"/><path class="cls-17" d="M1830,694.32l-.47-11.34c-11.84,0-23.66-2.3-32.12-5.6a6.56,6.56,0,0,1-3.94-7.6l2.45-10.69a6.61,6.61,0,0,1,8.8-4.69,77,77,0,0,0,29.64,5c11.4-.47,19.73-4.68,19.41-12.6-.3-7.14-7-11.12-23-14.72-22.85-5.25-39.47-14.43-40.29-34.31-.73-18,11.83-32.21,34.46-36.81l-.46-11.35a6.62,6.62,0,0,1,6.34-6.88l6.66-.27a6.61,6.61,0,0,1,6.88,6.34l.42,10.18a84.19,84.19,0,0,1,25.42,3.5,6.58,6.58,0,0,1,4.44,7.77l-2.25,9.88a6.6,6.6,0,0,1-8.52,4.81,68.92,68.92,0,0,0-24.93-3.48c-13.52.56-17.15,6.32-16.94,11.34.25,6.18,8.54,10.09,26.33,14.77,25.41,6.5,36.26,16.5,37,35.23.71,17.18-11.4,33.15-36,38l.53,12.7a6.62,6.62,0,0,1-6.34,6.88l-6.67.27A6.62,6.62,0,0,1,1830,694.32Z"/><circle class="cls-18" cx="2157.99" cy="317.09" r="208.17"/><circle class="cls-19" cx="2157.99" cy="317.09" r="201.24" transform="translate(407.85 1618.8) rotate(-45)"/><path class="cls-16" d="M1988.91,244.24a3.91,3.91,0,0,1-1.76-.35,3.86,3.86,0,0,1-1.92-5.11,188.85,188.85,0,0,1,165-111.17,191.52,191.52,0,0,1,34.31,1.67,3.87,3.87,0,1,1-1.08,7.66,183.38,183.38,0,0,0-32.91-1.61A181.16,181.16,0,0,0,1992.27,242,3.86,3.86,0,0,1,1988.91,244.24Z"/><circle class="cls-16" cx="2162.55" cy="321.29" r="170.33" transform="translate(406.21 1623.26) rotate(-45)"/><path class="cls-20" d="M2151.05,448.49l-.76-18.51c-19.34,0-38.61-3.75-52.42-9.13a10.72,10.72,0,0,1-6.44-12.41l4-17.44a10.8,10.8,0,0,1,14.36-7.67c13.68,5.09,30.48,8.87,48.38,8.13,18.6-.76,32.2-7.64,31.67-20.55-.48-11.66-11.48-18.15-37.6-24-37.28-8.57-64.41-23.55-65.74-56-1.21-29.31,19.3-52.56,56.23-60.07l-.76-18.52a10.8,10.8,0,0,1,10.35-11.23l10.88-.45A10.8,10.8,0,0,1,2174.43,211l.68,16.62c17.89,0,31,2.5,41.48,5.71a10.74,10.74,0,0,1,7.25,12.68l-3.67,16.13a10.77,10.77,0,0,1-13.91,7.85,112.4,112.4,0,0,0-40.69-5.68c-22.05.91-28,10.31-27.64,18.5.41,10.08,13.93,16.47,43,24.12,41.46,10.6,59.18,26.92,60.43,57.48,1.16,28.05-18.6,54.11-58.68,62.07l.85,20.72a10.78,10.78,0,0,1-10.34,11.23l-10.88.45A10.8,10.8,0,0,1,2151.05,448.49Z"/><circle class="cls-21" cx="2320.52" cy="775.75" r="214.2" transform="translate(131.13 1868.07) rotate(-45)"/><circle class="cls-22" cx="2320.52" cy="775.75" r="207.08" transform="translate(131.13 1868.07) rotate(-45)"/><path class="cls-16" d="M2146.54,700.68a3.86,3.86,0,0,1-3.68-5.46,194.22,194.22,0,0,1,169.66-114.33,196.71,196.71,0,0,1,35.27,1.73,3.86,3.86,0,1,1-1.07,7.65,188.7,188.7,0,0,0-33.89-1.65A186.52,186.52,0,0,0,2149.9,698.41,3.86,3.86,0,0,1,2146.54,700.68Z"/><circle class="cls-16" cx="2325.22" cy="780.07" r="175.27" transform="translate(129.44 1872.65) rotate(-45)"/><path class="cls-23" d="M2313.38,911l-.78-19.06c-19.9,0-39.73-3.85-53.94-9.39a11,11,0,0,1-6.62-12.77l4.11-17.94a11.11,11.11,0,0,1,14.78-7.89c14.08,5.23,31.36,9.12,49.78,8.36,19.13-.78,33.13-7.86,32.59-21.15-.5-12-11.81-18.68-38.69-24.72-38.36-8.81-66.28-24.23-67.65-57.63-1.24-30.15,19.86-54.08,57.87-61.81l-.79-19.05a11.12,11.12,0,0,1,10.65-11.56l11.19-.46a11.11,11.11,0,0,1,11.56,10.65l.7,17.1c18.41,0,31.92,2.58,42.69,5.87a11.06,11.06,0,0,1,7.45,13.05l-3.78,16.6a11.07,11.07,0,0,1-14.31,8.07,115.71,115.71,0,0,0-41.86-5.83c-22.7.93-28.8,10.6-28.45,19,.43,10.37,14.34,16.95,44.21,24.81,42.67,10.92,60.9,27.71,62.19,59.16,1.19,28.85-19.14,55.67-60.38,63.86l.88,21.32a11.12,11.12,0,0,1-10.65,11.56l-11.19.46A11.11,11.11,0,0,1,2313.38,911Z"/><circle class="cls-24" cx="2573.14" cy="408.36" r="171.31" transform="translate(2109.99 2972.2) rotate(-88.78)"/><circle class="cls-25" cx="2573.14" cy="408.36" r="165.61" transform="translate(464.9 1939.09) rotate(-45)"/><path class="cls-16" d="M2434,349.44a4.21,4.21,0,0,1-4-6,156.45,156.45,0,0,1,136.66-92.09,158.62,158.62,0,0,1,28.42,1.38,4.22,4.22,0,0,1-1.17,8.36,150.06,150.06,0,0,0-26.9-1.31A148.06,148.06,0,0,0,2437.71,347,4.21,4.21,0,0,1,2434,349.44Z"/><circle class="cls-16" cx="2576.9" cy="411.81" r="140.17" transform="translate(463.56 1942.76) rotate(-45)"/><path class="cls-26" d="M2567.43,516.5l-.62-15.24c-15.91,0-31.78-3.09-43.14-7.51a8.83,8.83,0,0,1-5.3-10.22l3.29-14.35a8.9,8.9,0,0,1,11.82-6.31,103.1,103.1,0,0,0,39.82,6.69c15.3-.63,26.49-6.28,26-16.91-.39-9.6-9.44-14.94-30.94-19.77-30.68-7.05-53-19.38-54.1-46.09-1-24.12,15.88-43.25,46.28-49.44l-.63-15.23a8.89,8.89,0,0,1,8.52-9.25l8.95-.37a8.89,8.89,0,0,1,9.24,8.52l.57,13.68c14.72,0,25.52,2.06,34.13,4.69a8.83,8.83,0,0,1,6,10.44l-3,13.27a8.85,8.85,0,0,1-11.44,6.46,92.66,92.66,0,0,0-33.49-4.67c-18.15.75-23,8.48-22.75,15.22.34,8.3,11.47,13.56,35.37,19.85,34.12,8.73,48.7,22.16,49.73,47.31.95,23.08-15.31,44.53-48.29,51.08l.7,17a8.88,8.88,0,0,1-8.51,9.24l-9,.37A8.88,8.88,0,0,1,2567.43,516.5Z"/><path class="cls-27" d="M678.14,2708.09c-40.71,3.52-111.37,9.24-167.08,11.69-33.49,1.47-52.77-1.81-63.87-6.25,0,1.25.05,2.43.1,3.53a11.53,11.53,0,0,0,10.95,10.88c105.26,5.88,189,2,218.78.22a8.2,8.2,0,0,0,6.68-12.32A67,67,0,0,0,678.14,2708.09Z"/><path class="cls-28" d="M511.06,2719.78c55.71-2.45,126.37-8.17,167.08-11.69-40-49.11-167.08-82.21-167.08-82.21H475.17c-24.68,35.58-28.25,69.45-28,87.65C458.29,2718,477.57,2721.25,511.06,2719.78Z"/><path class="cls-29" d="M469.13,2567.3l3.36,66.45a15.17,15.17,0,0,0,13,14.27,58.92,58.92,0,0,0,26.95-2.23A18,18,0,0,0,524.47,2632l11.61-64.68Z"/><path class="cls-30" d="M52.65,2784.75c-17.66-3.18-25.65-15-29-27.71,0,.11-.05.23-.07.34-2.6,13.37,3.42,27.22,15.46,33.81,14.55,8,30.46,9.32,42.82,8.66a39.58,39.58,0,0,0,32.1-19.13l.1-.17C100.77,2789.05,82.09,2790.06,52.65,2784.75Z"/><path class="cls-31" d="M135.9,2587.77H106.3c-45.07-1.19-73.38,121.68-82.64,169.27,3.34,12.67,11.33,24.53,29,27.71,29.44,5.31,48.12,4.3,61.42-4.2,24.35-41.42,36.42-102.08,42.23-137.48C162.9,2602.81,135.9,2587.77,135.9,2587.77Z"/><path class="cls-32" d="M110.11,2526.09l-16.44,65.36a17.74,17.74,0,0,0,9.23,20.1c9.2,4.72,22.14,9.68,34,8.24a14.8,14.8,0,0,0,12.09-9.88l24.13-68.76Z"/><path class="cls-33" d="M688.17,1665.29s-146.85,917.94-144.43,923c0,0-40.56,18.44-84.78,2.35,0,0,13.28-490.7,44.4-678.85,0,0-250.63,438.59-330.21,657.14,0,0-41.51-4.95-75.87-27.57,0,0,269.85-789.44,341.84-894.59Z"/><path class="cls-34" d="M509.22,1907a4.39,4.39,0,0,1-2.3-.65,4.34,4.34,0,0,1-1.37-6l54.88-87.66a4.35,4.35,0,0,1,2.81-2l40.39-8.13a4.34,4.34,0,1,1,1.71,8.51l-38.55,7.76L512.9,1905A4.34,4.34,0,0,1,509.22,1907Z"/><path class="cls-35" d="M1362.05,766.44s-99.09,21.85-159.36,49.68a55.07,55.07,0,0,0-27,27.1c-18,39.49-72,138.5-176.54,185.75,15.06,20,39.31,61.58,49.88,131.47,62.81-46.75,117-124.83,143.08-252.89,0,0,19.83,10.78,44.56-1.23,13.07-6.35,28.15-15.35,39.48-22.43a51.73,51.73,0,0,0,23-30.82c4.31-16.91,1.77-31.78,1.77-47.74l50.94-15.78S1367.16,783.77,1362.05,766.44Z"/><path class="cls-36" d="M1049.07,1160.44c-10.57-69.89-34.82-111.48-49.88-131.47-65,29.36-149.49,38.74-257.11,1.45a114.43,114.43,0,0,0-30.76-6.07C654,1021,465.23,1014.86,309,1066.48a121.38,121.38,0,0,0-73.23,66.66c-42.26,97-110.68,317.85,79.26,429.35a470.51,470.51,0,0,1,45.84-86.75c-30.59-51.59-39.65-122.06,14.63-213.83,39.58,106.88,58.15,262.82,62,331.83a148.25,148.25,0,0,1-11.63,66.38l-1,2.29a7.85,7.85,0,0,0,5.52,10.72c106.93,24,218.14,17.5,251.37,14.75A13.71,13.71,0,0,0,694,1677.42c52-219.1,52.12-368.55,39.38-463C782.06,1225.27,930.8,1248.46,1049.07,1160.44Z"/><path class="cls-37" d="M733.64,1220.29a4.34,4.34,0,0,1-4.3-3.77c-12.21-92.25-37.08-132.5-37.33-132.9a4.34,4.34,0,0,1,7.33-4.64c1.06,1.66,26.1,42,38.6,136.4a4.34,4.34,0,0,1-3.73,4.87A5.66,5.66,0,0,1,733.64,1220.29Z"/><path class="cls-38" d="M469.75,896.72s-10.82,114.38-20.34,148.21a11.56,11.56,0,0,0,5.45,13.21c16.16,9.23,54.93,24.3,108-1.69a24.06,24.06,0,0,0,13.35-22.64l-4.67-110.53Z"/><path class="cls-39" d="M573.84,750.4s34.6,79.48,36.92,121.2,11.32,68.78-36.92,77.18S485,933.15,463,891.6c0,0-34.49-64-26.75-90.25S573.84,750.4,573.84,750.4Z"/><path class="cls-40" d="M479.44,861.72l2.75-1.21a6.62,6.62,0,0,0,3.23-9.09c-6.8-13.15-20.06-43.26-2.93-50.29,22.08-9,109.52-26.88,128.39-57.91C629,713.4,613,674.9,588.8,664a3.31,3.31,0,0,0-4.35,1.41l-2,3.81a3.28,3.28,0,0,1-6.05-.62,3.26,3.26,0,0,0-5.9-.85c-5.8,9.29-21.46,24.34-63.33,32.06-59.5,11-98.84,35.07-99.82,76.19a3.29,3.29,0,0,1-5.08,2.7c-4.39-2.68-11.42-3.93-20.82,4-16.34,13.74-9.65,49.39,26.17,78.71a3.26,3.26,0,0,1-.15,5.25c-6.5,4.22-16.18,14.28,8.91,27.69,25.95,13.87,45.32,12.74,52.78,11.51a3.27,3.27,0,0,0,2.65-3.95l-8-36.14a3.27,3.27,0,0,1,3.2-4Z"/><path class="cls-41" d="M480.94,869.35s-13.2-50.77-36-36.54,11.81,56.89,30.11,58.79Z"/><path class="cls-42" d="M1218.58,895.74a4.33,4.33,0,0,1-3.36-7.07c3.74-4.61,37-45.27,49.81-52.51,4.66-2.63,7.44-5.35,8-7.86a6.46,6.46,0,0,0-.58-4.08l-39.07,7.83-22.14,19a4.34,4.34,0,0,1-5.65-6.58l23-19.73a4.19,4.19,0,0,1,2-1l43.25-8.67a4.31,4.31,0,0,1,4.45,1.83c3.17,4.7,4.22,9.07,3.21,13.36-1.19,5.07-5.18,9.46-12.2,13.43-9.64,5.44-37.45,38.24-47.36,50.42A4.28,4.28,0,0,1,1218.58,895.74Z"/><path class="cls-43" d="M479.26,1617.46l152.93,1.89L578.67,1569a40,40,0,0,0-49-4.59,115.78,115.78,0,0,0-27.19,24.23s-95.4-34.86-141.64-112.87A470.51,470.51,0,0,0,315,1562.49C356.49,1586.83,410.23,1606,479.26,1617.46Z"/><path class="cls-44" d="M495.74,1637.18a8.81,8.81,0,0,0,.89,0l388.21-.41a17.2,17.2,0,1,0,0-34.39l-388.21.42a17.19,17.19,0,0,0-.85,34.36Z"/><path class="cls-45" d="M1233.81,1288.44H910.51a61.69,61.69,0,0,0-55.73,35L705.32,1637H1107.1a37.42,37.42,0,0,0,34.82-23.44l115.9-290.16C1264.52,1306.61,1252,1288.44,1233.81,1288.44Z"/><ellipse class="cls-2" cx="1030.29" cy="1456.94" rx="41.01" ry="25.44" transform="translate(-675.95 1979.38) rotate(-71.76)"/></g></g></svg>