<svg xmlns="http://www.w3.org/2000/svg" xmlns:xlink="http://www.w3.org/1999/xlink" viewBox="0 0 371.41 395.04"><defs><style>.cls-1,.cls-6{fill:none;}.cls-2{isolation:isolate;}.cls-15,.cls-3{fill:#7557e4;}.cls-4{clip-path:url(#clip-path);}.cls-5{fill:#788fec;}.cls-6{stroke:#fff;stroke-miterlimit:10;stroke-width:0.5px;}.cls-7{clip-path:url(#clip-path-2);}.cls-10,.cls-8{fill:#ff597d;}.cls-9{fill:#3a5dec;}.cls-10{opacity:0.23;}.cls-11,.cls-13{fill:#292929;}.cls-12{fill:#edf1ff;}.cls-13{opacity:0.2;mix-blend-mode:multiply;}.cls-14{fill:#fff;}.cls-15{fill-rule:evenodd;}.cls-16{fill:url(#Degradado_sin_nombre_214);}.cls-17{fill:#afafaf;}</style><clipPath id="clip-path"><path class="cls-1" d="M259,316.4c4.92-14.67,18.14-24.91,31.6-32.55s28.07-13.79,39.33-24.41A64.48,64.48,0,0,0,348.44,227c2.39-10.54,1.15-23.41-7.82-29.44-5.47-3.67-12.75-3.86-19-1.8s-11.67,6.11-16.59,10.5c-29.52,26.31-44.44,64.86-58.34,101.88-1.12,3-2.25,6.09-1.85,9.23s2.89,6.27,6.06,6.22,5.49-4.63,3.06-6.66"/></clipPath><clipPath id="clip-path-2"><path class="cls-1" d="M152.24,359.56c-8.44-16.13-25.71-25.58-42.76-32S74.3,316.78,59.25,306.52a75.86,75.86,0,0,1-27.52-34.26c-4.73-11.81-5.68-27,3.63-35.66,5.68-5.28,14.09-6.85,21.75-5.62s14.69,4.94,21.22,9.12C117.52,265.2,142,307.23,165,347.67c1.84,3.24,3.74,6.65,3.85,10.38s-2.19,7.81-5.88,8.35-7.24-4.36-4.79-7.17"/></clipPath><linearGradient id="Degradado_sin_nombre_214" x1="191.69" y1="327.27" x2="64.19" y2="472.71" gradientTransform="translate(-42.51 36.64) rotate(-9.63)" gradientUnits="userSpaceOnUse"><stop offset="0" stop-color="#fff"/><stop offset="1" stop-color="#d9b7b3"/></linearGradient></defs><title>Asset 1</title><g class="cls-2"><g id="Layer_2" data-name="Layer 2"><g id="OBJECTS"><path class="cls-3" d="M289.08,162.87A2.57,2.57,0,0,1,291,161a2.55,2.55,0,0,1,2.16-4.47l.4.09,6,1.49s-.07-5.68,1.05-8.47,5.31-3.2,4.66,0-.5,4.42,1.37,7.81a22.86,22.86,0,0,1,2,4.73,2.76,2.76,0,0,1,0,1.34L306,175.77a1.24,1.24,0,0,1-1.48.94l-14.7-3.28-.41-.09a2.42,2.42,0,0,1-2-2.94c.35-1.11,1.82-1.23,1.82-1.23a1.92,1.92,0,0,1-1.28-2.19,1.73,1.73,0,0,1,2-1.58A2.57,2.57,0,0,1,289.08,162.87Z"/><rect class="cls-3" x="304.34" y="168.16" width="17.43" height="8.66" rx="1.61" transform="translate(76.44 440.38) rotate(-77.4)"/><g class="cls-4"><path class="cls-5" d="M259,316.4c4.92-14.67,18.14-24.91,31.6-32.55s28.07-13.79,39.33-24.41A64.48,64.48,0,0,0,348.44,227c2.39-10.54,1.15-23.41-7.82-29.44-5.47-3.67-12.75-3.86-19-1.8s-11.67,6.11-16.59,10.5c-29.52,26.31-44.44,64.86-58.34,101.88-1.12,3-2.25,6.09-1.85,9.23s2.89,6.27,6.06,6.22,5.49-4.63,3.06-6.66"/><path class="cls-6" d="M352.58,191.83s-56.09,35.48-109.46,143.09"/><path class="cls-6" d="M321.54,218.83s-1.67-24.63,1.91-36.87"/><path class="cls-6" d="M314.59,227.23s33.11,10.52,50.45,3.16"/><path class="cls-6" d="M327.5,213.57s33.14,3.68,43.75-5.3"/><path class="cls-6" d="M307.75,233.64s-10.71-21.57-11-36.47"/><path class="cls-6" d="M299.44,244.38s44,16.82,59.37,2.11"/><path class="cls-6" d="M293.31,252.44s-19.24-26.54-17.84-42.53"/><path class="cls-6" d="M288.85,259.39s30,15.55,40.17,13.37"/><path class="cls-6" d="M282.8,266.25s-23.45-17.15-26.7-29.41"/><path class="cls-6" d="M277.36,276s27.51,16.6,48.18,13.87"/><path class="cls-6" d="M270.36,285.17s-27.76-19-31.09-30.09"/></g><path class="cls-3" d="M278.7,322.21c2.52-9.73,11-16.95,20.24-20.92s19.35-5.3,29.19-7.33,19.88-5,27.52-11.52c3.34-2.86,6.22-6.54,7-10.87s-1.13-9.32-5.13-11.13c-6.34-2.88-13,2.95-17.77,8a181.18,181.18,0,0,1-40,31.49"/><g class="cls-7"><path class="cls-3" d="M152.24,359.56c-8.44-16.13-25.71-25.58-42.76-32S74.3,316.78,59.25,306.52a75.86,75.86,0,0,1-27.52-34.26c-4.73-11.81-5.68-27,3.63-35.66,5.68-5.28,14.09-6.85,21.75-5.62s14.69,4.94,21.22,9.12C117.52,265.2,142,307.23,165,347.67c1.84,3.24,3.74,6.65,3.85,10.38s-2.19,7.81-5.88,8.35-7.24-4.36-4.79-7.17"/><path class="cls-6" d="M20.4,232.16s71.75,30.83,153.72,146"/><path class="cls-6" d="M61.47,257.78s-2.62-28.93-9-42.48"/><path class="cls-6" d="M71.11,266.26s-36.52,18.36-58,13"/><path class="cls-6" d="M53.57,252.78S15.75,263.2,1.75,254.73"/><path class="cls-6" d="M80.24,272.44s8.44-27.06,6-44.41"/><path class="cls-6" d="M91.89,283.37s-48,27.7-68.59,13.46"/><path class="cls-6" d="M100.51,291.6s17.44-34.4,12.84-52.72"/><path class="cls-6" d="M107,298.85s-31.95,23.63-44.19,23"/><path class="cls-6" d="M115.28,305.7s24.07-24.27,25.58-39.13"/><path class="cls-6" d="M123.4,316S94.52,340.36,70,341"/><path class="cls-6" d="M133.25,325.38s28.72-27.26,30.53-40.73"/></g><path class="cls-8" d="M212.33,331.84c5.51-6.57,15.56-6.13,24.07-5.13-3.24.22-6.12-3.06-5.85-6.3a7.18,7.18,0,0,1,6.53-6.16,9.2,9.2,0,0,1,8.21,4.34c-2.91-3.59-5.9-7.35-6.95-11.85s.47-9.95,4.65-11.93c3.46-1.65,7.73-.44,10.71,2s4.93,5.83,6.81,9.17c0-5.79-3.07-11.07-6-16s-6-10.26-6-16,4.36-12,10.14-11.75,9.41,6.15,11.42,11.53a79.69,79.69,0,0,1,4.88,31.82,85.48,85.48,0,0,1,10.85-32.36,7.75,7.75,0,0,1,2.7-3.1c2.07-1.13,4.81-.14,6.32,1.68a12.57,12.57,0,0,1,2.33,6.58,43,43,0,0,1-5.76,27.19c3.39-2.5,5-6.72,6.25-10.74s2.57-8.26,5.63-11.15,8.56-3.69,11.26-.45c1.86,2.22,1.79,5.46,1.22,8.3a30.9,30.9,0,0,1-10.05,17.15,51.54,51.54,0,0,1,16.56-12.14c2.39-1.1,5.16-2,7.59-1,4.6,1.88,4.22,8.85,1.26,12.84s-7.57,6.7-9.91,11.09a20.8,20.8,0,0,1,35.88,16.75l-105,1.13c-14.1.15-28.22.31-42.29-.5"/><path class="cls-8" d="M115.34,364.61c-2.73-10.54-11.92-18.36-21.92-22.66s-21-5.74-31.61-7.94S40.28,328.62,32,321.54c-3.62-3.1-6.74-7.09-7.56-11.78s1.22-10.08,5.55-12.05c6.87-3.11,14,3.19,19.25,8.64a196.23,196.23,0,0,0,43.33,34.11"/><path class="cls-9" d="M55.54,359c5.58-6.66,15.77-6.22,24.4-5.2-3.29.22-6.21-3.1-5.93-6.39a7.28,7.28,0,0,1,6.62-6.25,9.31,9.31,0,0,1,8.32,4.4c-3-3.64-6-7.45-7-12s.49-10.09,4.72-12.1c3.51-1.67,7.84-.44,10.86,2s5,5.91,6.91,9.29c0-5.86-3.12-11.22-6.11-16.25s-6.09-10.41-6.08-16.27,4.42-12.15,10.28-11.91S112,294.54,114.06,300a80.76,80.76,0,0,1,5,32.26,86.68,86.68,0,0,1,11-32.81,7.8,7.8,0,0,1,2.73-3.14c2.11-1.15,4.88-.15,6.41,1.7a12.75,12.75,0,0,1,2.37,6.67,43.68,43.68,0,0,1-5.84,27.57c3.43-2.54,5-6.82,6.33-10.89s2.61-8.37,5.71-11.31,8.68-3.73,11.42-.46c1.89,2.26,1.81,5.54,1.23,8.42a31.3,31.3,0,0,1-10.18,17.39A52.2,52.2,0,0,1,167,323.09c2.42-1.11,5.23-2,7.69-1,4.67,1.91,4.29,9,1.28,13s-7.67,6.79-10,11.24a21.09,21.09,0,0,1,36.38,17L95.84,364.45c-14.3.16-28.61.31-42.88-.5"/><ellipse class="cls-10" cx="220.42" cy="374.6" rx="96.99" ry="13.81" transform="translate(-56.1 39.27) rotate(-9.04)"/><path class="cls-11" d="M247.49,73.74l45.77,267.94a22.83,22.83,0,0,1,.32,4.57,20.16,20.16,0,0,1-.19,2.21c-.05.38-.11.75-.17,1.11a22.15,22.15,0,0,1-2.11,6.18,23.19,23.19,0,0,1-1.68,2.79,24.64,24.64,0,0,1-2.06,2.5c-.5.52-1,1-1.57,1.51h0c-.54.48-1.11.92-1.7,1.35h0a21.82,21.82,0,0,1-2.82,1.71h0a20.57,20.57,0,0,1-2,.91,23.27,23.27,0,0,1-4.42,1.22L164.89,386.52a23.14,23.14,0,0,1-4.82.3l-.78-.05-.87-.08a23,23,0,0,1-3.55-.72c-.58-.17-1.15-.36-1.7-.56l-.76-.31c-.54-.22-1.07-.47-1.59-.73a23,23,0,0,1-4.48-3c-.55-.47-1.07-1-1.58-1.5a22.1,22.1,0,0,1-2.08-2.52,21.24,21.24,0,0,1-2.19-3.82h0a22.45,22.45,0,0,1-1.66-5.44L93.06,100.13a22.6,22.6,0,0,1,18.47-26.07l109.9-18.77A22.59,22.59,0,0,1,247.49,73.74Z"/><path class="cls-12" d="M242.6,74.58l45.77,267.93a18,18,0,0,1,.25,3.59,14.64,14.64,0,0,1-.14,1.67l-.16,1a17.11,17.11,0,0,1-1.62,4.71,16.28,16.28,0,0,1-1.33,2.18,16.59,16.59,0,0,1-1.62,2c-.29.3-.65.65-1.06,1l-.16.15c-.35.3-.7.59-1.07.87l-.27.17a15.5,15.5,0,0,1-1.95,1.21l-.24.12a16.35,16.35,0,0,1-1.57.71,18.2,18.2,0,0,1-3.47,1l-109.9,18.77a17,17,0,0,1-3.76.24c-.42,0-.85,0-1.26-.09a18.3,18.3,0,0,1-2.82-.57c-.45-.13-.89-.28-1.28-.43l-.55-.21-.12-.05a13,13,0,0,1-1.19-.56,18.2,18.2,0,0,1-3.51-2.37c-.45-.38-.84-.76-1.21-1.14a17.64,17.64,0,0,1-1.63-2,16.66,16.66,0,0,1-1.6-2.73l-.12-.26a17.85,17.85,0,0,1-1.29-4.25L98,99.29A17.66,17.66,0,0,1,112.36,79L222.27,60.18a17.64,17.64,0,0,1,20.33,14.4Z"/><path class="cls-13" d="M280.1,267.48c-.06-1-.1-2.22-.13-3.6L283.58,285a66,66,0,0,1-3.19-6.34C279.68,276.52,279.8,271.7,280.1,267.48Z"/><path class="cls-11" d="M259.08,141.59h0L253.68,110h0a4.53,4.53,0,0,1,5.23,3.7l3.88,22.7A4.53,4.53,0,0,1,259.08,141.59Z"/><path class="cls-11" d="M98.34,136.22h2.17a2.36,2.36,0,0,1,2.36,2.36v11.33a2.36,2.36,0,0,1-2.36,2.36H98.34a0,0,0,0,1,0,0v-16a0,0,0,0,1,0,0Z" transform="translate(224.05 269.5) rotate(170.31)"/><path class="cls-11" d="M101.59,155.3h2.17a2.36,2.36,0,0,1,2.36,2.36V169a2.36,2.36,0,0,1-2.36,2.36h-2.17a0,0,0,0,1,0,0v-16A0,0,0,0,1,101.59,155.3Z" transform="translate(233.73 306.83) rotate(170.31)"/><path class="cls-11" d="M184.82,73.47l-32.68,5.58a10.08,10.08,0,0,1-11.65-8.25h0l52.58-9h0A10.1,10.1,0,0,1,184.82,73.47Z"/><path class="cls-5" d="M322.48,362.81a12.76,12.76,0,0,0,.42,1.53l2.77,0,1.37,2.38-1.42,2.39a13.78,13.78,0,0,0,2.37,2.14l2.22-1.66,2.52,1.12.24,2.77a13.8,13.8,0,0,0,3.09.33l.83-2.65,2.7-.55,1.82,2.11a14.07,14.07,0,0,0,2.78-1.58l-.89-2.64,1.86-2,2.7.63a13.4,13.4,0,0,0,1.32-2.91l-2.26-1.61.31-2.73,2.55-1.08a12.08,12.08,0,0,0-.24-1.66,14.47,14.47,0,0,0-.4-1.47l-2.78,0L345,353.24l1.44-2.38a13.92,13.92,0,0,0-2.38-2.16l-2.22,1.66-2.51-1.13-.24-2.77a14,14,0,0,0-3.18-.35l-.83,2.66-2.69.56-1.82-2.11a13.87,13.87,0,0,0-2.78,1.6l.89,2.63-1.85,2-2.7-.63a13.66,13.66,0,0,0-1.31,2.92l2.27,1.6-.29,2.74-2.56,1.09A12.62,12.62,0,0,0,322.48,362.81Zm8.68-6.73a6.2,6.2,0,1,1,1,8.72A6.21,6.21,0,0,1,331.16,356.08Z"/><path class="cls-3" d="M229.35,29.07a14.45,14.45,0,0,0,.08,1.75l3,.63.92,2.92-2.12,2.25a15.23,15.23,0,0,0,2.06,2.9l2.82-1.27,2.46,1.82-.39,3.07a14.66,14.66,0,0,0,3.27,1.11L243,41.57l3.06,0,1.47,2.73A15.18,15.18,0,0,0,251,43.29l-.33-3.07,2.51-1.77,2.79,1.34a15.68,15.68,0,0,0,2.13-2.85L256,34.64l1-2.9,3-.56a16,16,0,0,0,.13-1.85c0-.58,0-1.15-.08-1.71l-3-.63-.91-2.93,2.14-2.24a16.18,16.18,0,0,0-2.06-2.92l-2.83,1.27-2.46-1.83.41-3.07A15.38,15.38,0,0,0,248,14.13l-1.54,2.69-3.07,0-1.47-2.73a15.48,15.48,0,0,0-3.4,1.07l.33,3.08L236.32,20l-2.79-1.33a15.75,15.75,0,0,0-2.13,2.86l2.09,2.29-1,2.91-3,.56A13.53,13.53,0,0,0,229.35,29.07Zm11.06-5.24a6.9,6.9,0,1,1-1,9.72A6.91,6.91,0,0,1,240.41,23.83Z"/><path class="cls-3" d="M54,64.62a11,11,0,0,0,.06,1.29l2.24.46L57,68.53l-1.56,1.66A11.08,11.08,0,0,0,57,72.33L59,71.39l1.81,1.34L60.56,75a11.47,11.47,0,0,0,2.42.81l1.14-2,2.26,0,1.08,2A11.08,11.08,0,0,0,70,75.11l-.24-2.27,1.85-1.3,2.06,1a11.16,11.16,0,0,0,1.57-2.1l-1.53-1.69.73-2.14,2.25-.41a12.44,12.44,0,0,0,.09-1.37q0-.65-.06-1.26l-2.23-.47-.67-2.16,1.58-1.65a11.65,11.65,0,0,0-1.53-2.15l-2.08.93L70,56.7l.3-2.26a11.23,11.23,0,0,0-2.49-.84l-1.13,2-2.26,0-1.09-2a11.65,11.65,0,0,0-2.51.79L61,56.6l-1.85,1.31-2.06-1A11.18,11.18,0,0,0,55.55,59l1.53,1.68-.72,2.15-2.24.41A9.94,9.94,0,0,0,54,64.62Zm8.16-3.87a5.09,5.09,0,1,1-.75,7.17A5.09,5.09,0,0,1,62.19,60.75Z"/><path class="cls-9" d="M260.29,38a6.41,6.41,0,0,0,0,.88l1.53.32.46,1.48-1.07,1.13a8,8,0,0,0,1,1.47l1.42-.65,1.25.92-.2,1.55a7.13,7.13,0,0,0,1.65.56l.78-1.35,1.55,0,.74,1.38a7.8,7.8,0,0,0,1.72-.53L271,43.65l1.27-.89,1.41.68A7.58,7.58,0,0,0,274.78,42l-1-1.16.5-1.46,1.53-.28a7.3,7.3,0,0,0,.07-.94c0-.29,0-.58,0-.86L274.27,37l-.46-1.48,1.08-1.13a7.65,7.65,0,0,0-1-1.47l-1.43.64-1.24-.93.21-1.55a7.64,7.64,0,0,0-1.71-.57l-.77,1.35h-1.55l-.74-1.38a7.66,7.66,0,0,0-1.72.54l.17,1.55-1.26.9-1.41-.67a7.58,7.58,0,0,0-1.07,1.44l1.05,1.15-.5,1.47-1.53.29A6.84,6.84,0,0,0,260.29,38Zm5.58-2.64a3.48,3.48,0,1,1-.51,4.9A3.48,3.48,0,0,1,265.87,35.39Z"/><path class="cls-8" d="M100.88,382a8.7,8.7,0,0,0,0,.89l1.53.32.46,1.47-1.07,1.14a7.58,7.58,0,0,0,1,1.46l1.43-.64,1.24.92-.2,1.55a8.44,8.44,0,0,0,1.65.56l.78-1.36,1.55,0,.74,1.37a7.64,7.64,0,0,0,1.72-.53l-.17-1.55,1.27-.89,1.41.67a8,8,0,0,0,1.08-1.43l-1-1.16.5-1.47,1.53-.28a7.16,7.16,0,0,0,.07-.94,8.25,8.25,0,0,0,0-.86l-1.53-.32-.46-1.47,1.08-1.13a8,8,0,0,0-1-1.48l-1.43.64-1.24-.92L112,375a8.32,8.32,0,0,0-1.7-.58l-.78,1.36-1.55,0-.74-1.37a7.8,7.8,0,0,0-1.72.53l.17,1.56-1.26.89-1.41-.67a7.91,7.91,0,0,0-1.07,1.44l1,1.16-.49,1.47-1.54.28A7,7,0,0,0,100.88,382Zm5.58-2.64a3.48,3.48,0,1,1-.51,4.91A3.48,3.48,0,0,1,106.46,379.33Z"/><path class="cls-8" d="M19.34,101.06a25.29,25.29,0,0,0,.22,3l5.27,1,1.7,5-3.6,4a26.74,26.74,0,0,0,3.69,5l4.84-2.32,4.34,3.07-.57,5.34A26.12,26.12,0,0,0,41,127l2.58-4.72,5.32,0,2.65,4.68a27.16,27.16,0,0,0,5.87-2l-.69-5.33L61,116.46l4.89,2.22a26.34,26.34,0,0,0,3.59-5l-3.67-3.91,1.6-5.07,5.26-1.08a26.31,26.31,0,0,0,.16-3.22c0-1-.09-2-.2-2.95l-5.28-1-1.68-5,3.62-4a27,27,0,0,0-3.68-5l-4.86,2.3-4.33-3.08.6-5.34a26.32,26.32,0,0,0-5.9-1.86l-2.57,4.72-5.32,0-2.65-4.68a27,27,0,0,0-5.87,2l.7,5.32L31.11,85l-4.9-2.21a26.31,26.31,0,0,0-3.58,5l3.7,3.89-1.59,5.08-5.26,1.09A27.39,27.39,0,0,0,19.34,101.06Zm19-9.49a12,12,0,1,1-1.4,16.9A12,12,0,0,1,38.33,91.57Z"/><path class="cls-8" d="M230.79,95.35V112.2a10.34,10.34,0,0,0,10.33,10.33h8.2V136.4l15.17-13.87h26.28a18.75,18.75,0,0,0,18.75-18.76h0A18.74,18.74,0,0,0,290.77,85H241.12A10.33,10.33,0,0,0,230.79,95.35Z"/><path class="cls-14" d="M257.31,103.25a3.18,3.18,0,1,1-3.18-3.18A3.17,3.17,0,0,1,257.31,103.25Z"/><path class="cls-14" d="M273.15,103.25a3.18,3.18,0,1,1-3.18-3.18A3.18,3.18,0,0,1,273.15,103.25Z"/><path class="cls-14" d="M289,103.25a3.18,3.18,0,1,1-3.17-3.18A3.17,3.17,0,0,1,289,103.25Z"/><rect class="cls-14" x="127.75" y="101.29" width="102.92" height="73.25" transform="translate(-19.36 29.72) rotate(-9)"/><polygon class="cls-15" points="187.55 141.91 172.79 135.82 175.4 152.25 187.55 141.91"/><rect class="cls-14" x="144.73" y="191.68" width="100.72" height="70.95" transform="translate(-35.13 35.7) rotate(-9.6)"/><rect class="cls-8" x="140.11" y="192.06" width="100.72" height="15.53" transform="translate(-30.64 34.54) rotate(-9.6)"/><rect class="cls-5" x="184.28" y="218.46" width="48.78" height="3.17" transform="translate(-33.76 37.86) rotate(-9.6)"/><rect class="cls-5" x="185.36" y="224.86" width="48.78" height="3.17" transform="translate(-34.81 38.13) rotate(-9.6)"/><rect class="cls-5" x="186.51" y="232.13" width="38.35" height="3.14" transform="translate(-36.08 37.55) rotate(-9.6)"/><rect class="cls-5" x="187.68" y="239.56" width="26.06" height="3.17" transform="translate(-37.39 36.83) rotate(-9.6)"/><rect class="cls-3" x="154" y="225.45" width="26.87" height="23.22" transform="translate(-37.17 31.23) rotate(-9.6)"/><path class="cls-14" d="M151.16,206.79a1.52,1.52,0,1,1-1.75-1.24A1.52,1.52,0,0,1,151.16,206.79Z"/><path class="cls-14" d="M156.85,205.83a1.52,1.52,0,1,1-1.75-1.24A1.52,1.52,0,0,1,156.85,205.83Z"/><path class="cls-14" d="M162.53,204.87a1.52,1.52,0,1,1-1.75-1.25A1.52,1.52,0,0,1,162.53,204.87Z"/><path class="cls-16" d="M252.3,271.8l11.83,69.69h0l-99,16.8-11.83-69.71s0,0,0,0l98.95-16.79Z"/><rect class="cls-9" x="153.92" y="280.08" width="100.38" height="15.47" transform="translate(-45.28 38.21) rotate(-9.63)"/><circle class="cls-8" cx="180.11" cy="325.66" r="13.26" transform="translate(-39.81 25.45) rotate(-7.28)"/><rect class="cls-3" x="197.95" y="306.37" width="48.61" height="3.16" transform="translate(-48.4 41.53) rotate(-9.63)"/><rect class="cls-3" x="199.03" y="312.75" width="48.61" height="3.16" transform="translate(-49.45 41.8) rotate(-9.63)"/><rect class="cls-3" x="200.11" y="319.13" width="48.61" height="3.16" transform="translate(-50.5 42.07) rotate(-9.63)"/><rect class="cls-3" x="201.19" y="325.51" width="48.61" height="3.16" transform="translate(-51.55 42.35) rotate(-9.63)"/><path class="cls-14" d="M180.83,322.8a2.31,2.31,0,0,0,.56-1.9,2.35,2.35,0,1,0-4.63.78,2.31,2.31,0,0,0,1.26,1.67,3.7,3.7,0,0,0-1.61,3.72l.53,3.13L184.3,329l-.53-3.14A3.73,3.73,0,0,0,180.83,322.8Z"/><path class="cls-14" d="M164.72,294.77a1.33,1.33,0,1,1-1.54-1.09A1.34,1.34,0,0,1,164.72,294.77Z"/><path class="cls-14" d="M169.7,293.93a1.33,1.33,0,1,1-1.53-1.09A1.32,1.32,0,0,1,169.7,293.93Z"/><path class="cls-14" d="M174.69,293.08a1.33,1.33,0,1,1-1.54-1.09A1.34,1.34,0,0,1,174.69,293.08Z"/><rect class="cls-9" x="122.82" y="101.58" width="103.31" height="15.47" transform="translate(-15.1 28.98) rotate(-9.1)"/><path class="cls-14" d="M133.63,116.51a1.33,1.33,0,1,1-1.53-1.09A1.33,1.33,0,0,1,133.63,116.51Z"/><path class="cls-14" d="M138.62,115.67a1.33,1.33,0,1,1-2.62.44,1.33,1.33,0,0,1,2.62-.44Z"/><path class="cls-14" d="M143.61,114.82a1.33,1.33,0,1,1-1.54-1.09A1.33,1.33,0,0,1,143.61,114.82Z"/><g id="hands_mobile" data-name="hands &amp; mobile"><path class="cls-8" d="M97.12,180.14a12.2,12.2,0,1,1-15-8.52A12.2,12.2,0,0,1,97.12,180.14Z"/><path class="cls-11" d="M104.14,212.11a2.9,2.9,0,0,1-1,4l-1.29.78a2.89,2.89,0,0,1-4-1L60.73,154.08a2.89,2.89,0,0,1,1-4l1.3-.78a2.9,2.9,0,0,1,4,1Z"/><path class="cls-11" d="M43.4,227.47,22.6,240a3.48,3.48,0,0,1-4.76-1.19L3.31,214.64a3.48,3.48,0,0,1,1.18-4.76l17.83-10.73a3.49,3.49,0,0,1,4.76,1.19Z"/><path class="cls-9" d="M3.67,215.25a12.41,12.41,0,0,0-1.91,15.17l1.71,2.85a12.44,12.44,0,0,0,14.3,5.42Z"/><path class="cls-9" d="M27.08,200.34l14.75,24.52a101.31,101.31,0,0,1,55.26-10.34l-35.52-59A99.82,99.82,0,0,1,27.08,200.34Z"/><path class="cls-9" d="M21.66,240.54a3.25,3.25,0,0,0,.23.29l4.42,3.76a1.73,1.73,0,0,0,2.41-.17l13,22.33.48.8L43,269a1.74,1.74,0,0,0,2.38.59l10.24-6.16a1.75,1.75,0,0,0,.59-2.38l-1.35-2.23a1.77,1.77,0,0,0-2.37-.6s-4.28-5.77-5.91-8.48c-2-3.4-7.48-12.43-9.27-15.42l2.45-2.87a1.74,1.74,0,0,0,.21-1.93Z"/><polygon class="cls-17" points="37.34 234.31 42.77 238.95 41.34 240.96 37.34 234.31"/></g><path class="cls-8" d="M97.52,144.49,91,160.65a1.48,1.48,0,0,1-1.92.82h0a1.49,1.49,0,0,1-.82-1.93l6.55-16.16a1.47,1.47,0,0,1,1.92-.82h0A1.48,1.48,0,0,1,97.52,144.49Z"/><path class="cls-8" d="M112.44,157l-12.29,12.36a1.48,1.48,0,0,1-2.09,0h0a1.48,1.48,0,0,1,0-2.09l12.3-12.37a1.48,1.48,0,0,1,2.09,0h0A1.47,1.47,0,0,1,112.44,157Z"/><path class="cls-8" d="M121.55,173.51,105,179.13a1.47,1.47,0,0,1-1.87-.93h0a1.48,1.48,0,0,1,.92-1.87l16.51-5.62a1.47,1.47,0,0,1,1.87.93h0A1.47,1.47,0,0,1,121.55,173.51Z"/><path class="cls-8" d="M125.4,189.24,108,190.89a1.48,1.48,0,0,1-1.61-1.33h0a1.49,1.49,0,0,1,1.33-1.61l17.36-1.65a1.49,1.49,0,0,1,1.61,1.33h0A1.48,1.48,0,0,1,125.4,189.24Z"/><rect class="cls-9" x="132.8" y="2.51" width="32.45" height="32.45" rx="2.98" transform="translate(-0.58 32.08) rotate(-12.26)"/><path class="cls-14" d="M155.68,10.81a5.82,5.82,0,0,0-7.81,2l-.1.15-.16-.1a5.81,5.81,0,0,0-7.93,1.43,5.67,5.67,0,0,0,1.6,8l8.36,5.1a1.8,1.8,0,0,0,2.42-.52l5.47-8.11A5.66,5.66,0,0,0,155.68,10.81Z"/><polyline class="cls-9" points="159.42 31.85 153.49 40.35 144.99 34.42"/></g></g></g></svg>