<svg xmlns="http://www.w3.org/2000/svg" viewBox="0 0 22.25 22.14"><title>Asset 23</title><g id="Layer_2" data-name="Layer 2"><g id="Process_Layer" data-name="Process Layer"><path d="M16.67,21.51a.49.49,0,0,1-.41-.21.51.51,0,0,1,.11-.7,7.31,7.31,0,0,0,1-.88,10.4,10.4,0,0,0,3.08-7.42A10.51,10.51,0,0,0,2.53,4.87a9.76,9.76,0,0,0-.88,1,.5.5,0,1,1-.81-.59,12.14,12.14,0,0,1,1-1.13A11.51,11.51,0,0,1,21.46,12.3a11.43,11.43,0,0,1-3.37,8.13,10,10,0,0,1-1.13,1A.53.53,0,0,1,16.67,21.51Z"/><rect x="9.46" y="1.29" width="1" height="22.01" transform="translate(-5.78 10.64) rotate(-45)"/><path d="M5.67,17.3,22,1.09,21.16.3,4.87,16.5c-.07.07,0,.31.27.53S5.6,17.37,5.67,17.3Z"/><path d="M2.55,22.14l-.26-2.28L0,19.61l3.71-3.69L6,16.17l.25,2.29Zm-.36-3.29,1,.11.11,1,1.9-1.88-.12-1-1-.11Z"/><path d="M21.75,1H19.2a.5.5,0,0,1,0-1h2.55a.5.5,0,0,1,.5.5A.5.5,0,0,1,21.75,1Z"/><path d="M21.75,3.54a.51.51,0,0,1-.5-.5V.5a.5.5,0,0,1,.5-.5.5.5,0,0,1,.5.5V3A.5.5,0,0,1,21.75,3.54Z"/></g></g></svg>