<svg xmlns="http://www.w3.org/2000/svg" xmlns:xlink="http://www.w3.org/1999/xlink" width="1920" height="676.857" viewBox="0 0 1920 676.857">
  <defs>
    <linearGradient id="linear-gradient" x1="0.027" y1="0.1" x2="0.956" y2="0.885" gradientUnits="objectBoundingBox">
      <stop offset="0" stop-color="#024cd1"/>
      <stop offset="0.45" stop-color="#025adb"/>
      <stop offset="0.75" stop-color="#0265e4"/>
      <stop offset="0.9" stop-color="#0264e6"/>
      <stop offset="0.96" stop-color="#0261ed"/>
      <stop offset="1" stop-color="#035cf8"/>
      <stop offset="1" stop-color="#035bfa"/>
    </linearGradient>
  </defs>
  <g id="Footer_Background" data-name="Footer Background" transform="translate(0)">
    <g id="ELEMENTS">
      <rect id="Rectangle_20" data-name="Rectangle 20" width="1920" height="676.85" fill="url(#linear-gradient)"/>
      <path id="Path_8" data-name="Path 8" d="M280.2,676.66H0V289.85c6.11,2.91,11.32,7.24,14.48,13.57,3.81,7.66,4.23,16.48,5.44,24.95,3.73,26.19,16.42,51.8,37.8,67.37,13.12,9.56,28.19,14.7,44.06,18.1,34,7.29,71.65,6.63,101.5,24.52,25.51,15.3,41,41.41,51.06,70a322.493,322.493,0,0,1,11.13,41A707.133,707.133,0,0,1,280.19,676.2C280.19,676.35,280.2,676.5,280.2,676.66Z" fill="#003a9f"/>
      <path id="Path_9" data-name="Path 9" d="M342.27,676.66c-20.69-.16-41.37.15-62.07,0-93.39-.71-186.8.69-280.2,0V262c22.59-6.76,56.31,13.1,70.6,35.06,22.23,34.15,24.51,76.66,31.18,116.76a294.457,294.457,0,0,0,6.63,31c4.5,16.07,12.76,32.52,27,42,14,9.37,31.46,11.06,47.76,13.07,22,2.7,47.28,3.74,71.17,8.44,26.21,5.13,50.77,14.64,67.6,35.5,11.93,14.8,18.53,33.93,21.68,52.48C348.12,622.84,345.37,650,342.27,676.66Z" fill="#0150dd" opacity="0.82"/>
      <path id="Path_10" data-name="Path 10" d="M1920,132.68V676.85H1648.78c-2.92-56.26-3.4-113.18,9.17-167.1,4-17.09,7.17-35,18.07-49.29a71.17,71.17,0,0,1,20.11-17.87c8.16-4.88,17-7.47,26.11-10,24.82-7,50.37-10.75,75.69-15.43l1.91-.36q18.11-3.4,36.3-6.33c8.09-1.3,16.47-2.62,23.34-7.09,10-6.48,14.91-18.3,18.31-29.68,11-36.87,11.79-75.86,13.43-114.59,1.53-36.19,3.85-72.17,16.08-106C1910.73,143.62,1914.63,136.72,1920,132.68Z" fill="#003a9f"/>
      <path id="Path_11" data-name="Path 11" d="M1920,258V676.85H1568.92a403.776,403.776,0,0,1,3.62-82.21c3.39-23,9.58-47.21,26.55-63.16,15.73-14.78,36.87-19.42,58.86-21.73,12.51-1.32,25.29-1.89,37.51-3.14A275.714,275.714,0,0,0,1745,496.8c12.23-3.58,24.58-8.15,33.93-16.8,11-10.2,16.69-25.06,19.06-39.89a176.793,176.793,0,0,0,1.86-23.34c.2-7.2.19-14.41.45-21.6a303.991,303.991,0,0,1,8.76-62.51c3.5-14.09,8.15-28.21,16.78-39.88,11.82-16,30.34-26.11,49.65-30.87a129.8,129.8,0,0,1,15.74-2.83A190.493,190.493,0,0,1,1920,258Z" fill="#0150dd" opacity="0.8"/>
    </g>
  </g>
</svg>
