<svg xmlns="http://www.w3.org/2000/svg" width="34.98" height="34.98" viewBox="0 0 34.98 34.98">
  <g id="Layer_2" data-name="Layer 2" transform="translate(0.21 -0.317)">
    <g id="Process_Layer" data-name="Process Layer" transform="translate(0.84 1.067)">
      <path id="Path_64" data-name="Path 64" d="M.84,8.293a16.007,16.007,0,0,1,1.565-1.8A18.52,18.52,0,1,1,28.6,32.682a16.008,16.008,0,0,1-1.8,1.565" transform="translate(-0.84 -1.067)" fill="none" stroke="#ee6b04" stroke-linecap="round" stroke-miterlimit="10" stroke-width="1.5"/>
      <line id="Line_23" data-name="Line 23" x1="26.191" y1="26.191" transform="translate(1.565 5.424)" fill="none" stroke="#ee6b04" stroke-linejoin="round" stroke-width="1.5"/>
      <path id="Path_65" data-name="Path 65" d="M7.444,19.165l-.834.819L3.275,23.3l-.268-2.442L.55,20.594l3.335-3.321.834-.834,2.457.268Z" transform="translate(0.983 8.311)" fill="none" stroke="#ee6b04" stroke-miterlimit="10" stroke-width="1.5"/>
      <path id="Path_66" data-name="Path 66" d="M29.429.25,4.86,24.819" transform="translate(3.091 0.393)" fill="none" stroke="#ee6b04" stroke-miterlimit="10" stroke-width="1.5"/>
      <line id="Line_24" data-name="Line 24" x2="3.797" transform="translate(28.738 0.643)" fill="none" stroke="#ee6b04" stroke-linecap="round" stroke-miterlimit="10" stroke-width="1.5"/>
      <line id="Line_25" data-name="Line 25" y2="3.782" transform="translate(32.535 0.643)" fill="none" stroke="#ee6b04" stroke-linecap="round" stroke-miterlimit="10" stroke-width="1.5"/>
    </g>
  </g>
</svg>
