<svg xmlns="http://www.w3.org/2000/svg" viewBox="0 0 87.38 85.38"><defs><style>.cls-1{fill:#727270;fill-rule:evenodd;}</style></defs><title>Asset 2</title><g id="Layer_2" data-name="Layer 2"><g id="_34" data-name="34"><path class="cls-1" d="M0,0V49H24.3V46.65H2.3V2.29H63v20h2.39V0Z"/><path class="cls-1" d="M22,20V69H58.8L75.15,85.38c0-2.58-.19-15.77,0-16.34H87.38V20ZM85,66.65H75.15a2.86,2.86,0,0,0-1.72.76,2.09,2.09,0,0,0-.77,1.72V79.65L60.43,67.41c-.1-.29-.48-.38-.77-.57a1.41,1.41,0,0,0-.86-.19H24.3V22.29H85Z"/></g></g></svg>