<svg xmlns="http://www.w3.org/2000/svg" viewBox="0 0 958.65 637.77"><defs><style>.cls-1{fill:#d1d3d4;}</style></defs><title>Asset 1</title><g id="Layer_2" data-name="Layer 2"><g id="background"><path class="cls-1" d="M187.88,532.54a116.27,116.27,0,0,0,19.11-8.2,49.09,49.09,0,0,0,9.11-6.46c4-3.87,11.38-12.63,14-17.51a64.06,64.06,0,0,0,3.61-8.07l1.25-3a27.06,27.06,0,0,0,1.6-6.63c.11-.81.5-4.44.62-5.75h31.44l13.16-22.33H235.18a25.54,25.54,0,0,0-1.43-3.52c-2.8-5.35-2.6-4.73-6-9.51l-.8-1.15a43.16,43.16,0,0,0-5.13-5.37h46.73l11.86-22.33H169.94c-1.33-.05-2.66-.15-4-.13l-8.46.13H136.27L119,435.06h50.3l3.89.46,2.34.44a40.58,40.58,0,0,1,15.05,6l.12.08c2.89,1.91,3.91,3.1,6.74,5.14l1.46,1.39c2.6,2.57.94.58,4.24,4.79l.66,1.23H136.27l-18.72,22.33h89.82a34.51,34.51,0,0,1-.71,4.95l-.64,2.84a31.74,31.74,0,0,1-2.05,4.42,27,27,0,0,1-4.91,6.85c-3.35,3.4-5,4.83-11.77,8.8a67.85,67.85,0,0,1-11.95,5.55,50.36,50.36,0,0,1-5.25,1.62,101.92,101.92,0,0,1-20.16,3.13l-22.31.21-.07,25.37,88.06,97.09,38.78-.28-87.72-100.3c2.87-.46,5.7-1,8.35-1.59C178.15,534.87,184.84,533.57,187.88,532.54Z"/></g><g id="objects"><path class="cls-1" d="M153,230.84l-23.35-14.06a2.3,2.3,0,0,0-1.74-.25,2.27,2.27,0,0,0-1.4,1.06c-2,3.52-3.93,6.5-5.6,8.87a36.31,36.31,0,0,1-4.41,5.3,11,11,0,0,1-7.86,3.15c-4.38,0-11.61-2-21.57-6l-6.1-2.2c-2.19-.79-4.61-1.63-7.27-2.55,2.14-8.63,3.19-14.69,3.19-18.47,0-3.17-.86-8.28-2.63-15.56H100.7a2.27,2.27,0,0,0,2.27-2.27V167.39a2.27,2.27,0,0,0-2.27-2.28H64.24l-.16-.27q-.33-.6-.6-1c-8.62-15.45-13-27.39-13-35.48,0-9.67,3-17.36,9.13-23.51S73.42,95.59,83,95.59c12.9,0,21.68,5,26.85,15.45,2.66,5.26,4,14.8,4,28.35a2.26,2.26,0,0,0,3.06,2.13l28.75-10.67a2.27,2.27,0,0,0,1.48-2.13c0-19-6.09-34.78-18.09-46.79-11.94-12.2-27.4-18.38-45.95-18.38s-34.39,6.11-47.5,18.18-19.55,27-19.55,44.23c0,11,3.63,24.13,10.81,39.15H7.8a2.28,2.28,0,0,0-2.28,2.28v20.46a2.28,2.28,0,0,0,2.28,2.27H39.56a32.78,32.78,0,0,1,3.5,14.55,58.64,58.64,0,0,1-2.5,15.88c-8.66,1.17-15.76,3.93-21.09,8.18C14.61,232.44,8.35,240.48.35,253.31a2.27,2.27,0,0,0-.27,1.81,2.3,2.3,0,0,0,1.17,1.42l25.11,12.68a2.29,2.29,0,0,0,1,.25,2.1,2.1,0,0,0,.74-.13,2.27,2.27,0,0,0,1.32-1.17c3.18-6.69,6-11.07,8.42-13,2.25-1.83,5.44-2.76,9.48-2.76,5.3,0,14.91,2.65,28.64,7.91,14.78,5.07,25.53,7.53,32.88,7.53,10.16,0,18.9-2.68,26-8,6.89-5.06,13.3-13.84,19.05-26.1A2.29,2.29,0,0,0,153,230.84Z"/><path class="cls-1" d="M957.25,208.13a2.28,2.28,0,0,0,1.35-2.58l-6-28.25a2.28,2.28,0,0,0-1.29-1.59,2.25,2.25,0,0,0-2,.09c-1.83,1-3.63,1.92-5.44,2.71-6.67,3.25-14.93,4.89-24.56,4.89-19.64,0-33.33-5.66-45.77-18.92A71.49,71.49,0,0,1,863,150.19h48.78a2.27,2.27,0,0,0,2.27-2.27V122.59a2.28,2.28,0,0,0-2.27-2.28H854.3c-.19-2.39-.29-4.6-.29-6.71a81.55,81.55,0,0,1,.44-8.25h57.32a2.28,2.28,0,0,0,2.27-2.28V77.74a2.27,2.27,0,0,0-2.27-2.27H863.54a73.39,73.39,0,0,1,9.93-13.55c12.39-13.6,26-19.41,45.63-19.41a63.19,63.19,0,0,1,22.13,4.08,2.28,2.28,0,0,0,2.86-1.19l11.41-25a2.29,2.29,0,0,0,0-1.76,2.32,2.32,0,0,0-1.23-1.27C943.4,12.7,934,9.83,921.05,9.83c-32.3,0-56.44,11.22-76,35.31a110.19,110.19,0,0,0-17.52,30.33H804.72a2.27,2.27,0,0,0-2.28,2.27v25.33a2.28,2.28,0,0,0,2.28,2.28h16.36c-.24,3-.35,5.83-.35,8.5,0,2.28.1,4.51.21,6.46H804.72a2.28,2.28,0,0,0-2.28,2.28v25.33a2.28,2.28,0,0,0,2.28,2.27h22.1a103.33,103.33,0,0,0,23,37.13c18.84,19.45,40.76,28.51,69,28.51A99.83,99.83,0,0,0,957.25,208.13Z"/><path class="cls-1" d="M434.55,196.11V130.72h53.59a2.27,2.27,0,0,0,2.27-2.27V107.86a2.28,2.28,0,0,0-2.27-2.28H438.65l9.27-16.67h40.22a2.27,2.27,0,0,0,2.27-2.27V66.05a2.27,2.27,0,0,0-2.27-2.27H461.73L495,3.37A2.28,2.28,0,0,0,493,0H461.27a2.26,2.26,0,0,0-2,1.18L418.6,75,378.27,1.18a2.25,2.25,0,0,0-2-1.18H344.52a2.26,2.26,0,0,0-2,1.12,2.28,2.28,0,0,0,0,2.25L375.7,63.78H349.41a2.27,2.27,0,0,0-2.27,2.27V86.64a2.27,2.27,0,0,0,2.27,2.27H389.5l9.17,16.67H349.41a2.28,2.28,0,0,0-2.27,2.28v20.59a2.27,2.27,0,0,0,2.27,2.27h53.34v65.39a2.28,2.28,0,0,0,2.28,2.28h27.24A2.28,2.28,0,0,0,434.55,196.11Z"/><path class="cls-1" d="M834.91,480.77h0a222.36,222.36,0,0,0-23.69-12.26c-10.63-4.78-17.73-8.92-21.11-12.3A16.39,16.39,0,0,1,785.27,444a17.29,17.29,0,0,1,6-13.54c4.14-3.71,9.23-5.51,15.58-5.51,10.29,0,18.45,5.75,25,17.56a2.21,2.21,0,0,0,1.36,1.09,2.25,2.25,0,0,0,1.74-.2l22.84-12.77a2.28,2.28,0,0,0,.88-3.09c-5.44-9.75-11.27-17.11-17.34-21.88-5.72-4.5-13-7.61-21.74-9.26v-21a2.26,2.26,0,0,0-2.27-2.27h-20.5a2.26,2.26,0,0,0-2.27,2.27v21.22a68.82,68.82,0,0,0-15.85,6.57,50.73,50.73,0,0,0-13.18,10.73,45.33,45.33,0,0,0-8.2,13.87,47.29,47.29,0,0,0-2.84,16.49c0,12.39,4,23.19,11.9,32,5,6,15.06,12.36,30.67,19.35a183.49,183.49,0,0,1,17.87,9.2,64.54,64.54,0,0,1,10.29,7.34c4.36,4.28,6.47,9.85,6.47,17,0,8.09-2.57,14.49-7.85,19.56s-11.93,7.68-20,7.68c-8.2,0-14.82-2.24-19.6-6.59-4.78-4.78-8.92-13-12.31-24.46a2.27,2.27,0,0,0-2.64-1.58l-25.78,5.39a2.21,2.21,0,0,0-1.44,1,2.28,2.28,0,0,0-.31,1.73c3.91,17.13,10.1,30,18.42,38.35,8,8,19.56,13.43,34.36,16.12V608a2.27,2.27,0,0,0,2.27,2.28h20.5a2.27,2.27,0,0,0,2.27-2.28V585.47a59.91,59.91,0,0,0,31.15-20.7,57.81,57.81,0,0,0,12.43-36.55c0-14-4.66-26.18-13.81-36.07C846.1,488.49,841.24,484.66,834.91,480.77Z"/></g></g></svg>