<svg xmlns="http://www.w3.org/2000/svg" viewBox="0 0 431.46 420.04"><defs><style>.cls-1{fill:#dbdbdb;}.cls-2{fill:#a6a6a6;}.cls-3{fill:#ebebeb;}.cls-4{fill:#263238;}.cls-5{fill:#fff;}.cls-6{fill:#455a64;}.cls-7{fill:#37474f;}.cls-8{fill:#1a5def;}.cls-9{opacity:0.2;}.cls-10{fill:#120e59;}.cls-11{fill:#0b0754;}.cls-12{fill:#030231;}.cls-13{fill:#ed6966;}.cls-14{fill:#fc9290;}.cls-15{fill:#ea8888;}.cls-16{fill:#e75755;}.cls-17{fill:#6d89cf;}.cls-18{fill:#3662c1;}.cls-19{fill:#dde8fd;}.cls-20{fill:#fa7269;}.cls-21{fill:#9e332e;}</style></defs><title>Asset 1</title><g id="Layer_2" data-name="Layer 2"><g id="Shadow"><polygon class="cls-1" points="327.04 264.41 324.74 278.19 309.18 362.25 306.67 362.25 317.99 278.19 319.66 264.41 327.04 264.41"/><polygon class="cls-2" points="319.66 264.41 327.04 264.41 324.74 278.19 317.99 278.19 319.66 264.41"/><polygon class="cls-1" points="375.92 362.25 373.41 362.25 357.85 278.19 355.55 264.41 362.93 264.41 364.6 278.19 375.92 362.25"/><polygon class="cls-2" points="362.93 264.41 364.6 278.19 357.85 278.19 355.55 264.41 362.93 264.41"/><polygon class="cls-1" points="422.61 362.25 420.1 362.25 404.53 278.19 402.24 264.41 409.62 264.41 411.29 278.19 422.61 362.25"/><polygon class="cls-2" points="411.29 278.19 404.53 278.19 402.24 264.41 409.62 264.41 411.29 278.19"/><polygon class="cls-1" points="418.63 270.88 304.57 270.88 304.57 258.87 347.27 258.87 361.62 175.38 414.28 175.38 418.63 270.88"/><polygon class="cls-2" points="418.63 270.88 412.41 270.88 408.36 175.38 414.28 175.38 418.63 270.88"/><polygon class="cls-3" points="9.1 338.63 184.84 338.63 188.49 266.52 5.45 266.52 9.1 338.63"/><path class="cls-1" d="M176.51,299.53H103l-1.38-25h76.46Zm-72.63-.89h71.8l1.49-23.26H102.6Z"/><path class="cls-1" d="M175.15,328.33H105.92l-1.13-22.6h71.78Zm-68.39-.89h67.56l1.3-20.82h-69.9Z"/><path class="cls-1" d="M146.85,289.73H134.5l-.78-6h13.91Zm-11.57-.89h10.79l.55-4.26H134.73Z"/><path class="cls-1" d="M146.85,320.05H134.5l-.78-6h13.91Zm-11.57-.89h10.79l.55-4.26H134.73Z"/><path class="cls-1" d="M90.09,299.53H16.62l-1.38-25H91.7Zm-72.63-.89h71.8l1.49-23.26H16.18Z"/><path class="cls-1" d="M88.73,328.33H19.5l-1.13-22.6H90.15Zm-68.39-.89H87.9l1.3-20.82H19.31Z"/><path class="cls-1" d="M60.43,289.73H48.08l-.77-6h13.9Zm-11.57-.89H59.65l.55-4.26H48.31Z"/><path class="cls-1" d="M60.43,320.05H48.08l-.77-6h13.9Zm-11.57-.89H59.65l.55-4.26H48.31Z"/><polygon class="cls-3" points="24.86 338.63 23.76 346.49 21.54 362.27 17.2 362.27 17.2 338.63 24.86 338.63"/><polygon class="cls-1" points="24.86 338.63 23.76 346.49 17.2 346.49 17.2 338.63 24.86 338.63"/><polygon class="cls-3" points="169.08 338.63 170.18 346.49 172.4 362.27 176.74 362.27 176.74 338.63 169.08 338.63"/><polygon class="cls-1" points="169.08 338.63 170.18 346.49 176.74 346.49 176.74 338.63 169.08 338.63"/><polygon class="cls-4" points="4.4 362.27 57.78 362.03 111.16 361.94 217.93 361.77 324.69 361.94 378.08 362.02 431.46 362.27 378.08 362.51 324.69 362.6 217.93 362.77 111.16 362.6 57.78 362.51 4.4 362.27"/><rect class="cls-3" x="60.92" width="314.01" height="198.71"/><rect class="cls-5" x="68.55" y="7.63" width="298.75" height="183.45"/><rect class="cls-3" x="140.86" y="7.63" width="3.49" height="183.45"/><rect class="cls-3" x="216.18" y="7.63" width="3.49" height="183.45"/><rect class="cls-3" x="216.18" y="-119.56" width="3.49" height="298.75" transform="translate(247.75 -188.11) rotate(90)"/><rect class="cls-3" x="291.51" y="7.63" width="3.49" height="183.45"/><path class="cls-6" d="M160.9,175.78h16a27.72,27.72,0,0,0,.35-4V155.61H157.11V172C157.11,173.61,160.9,175.78,160.9,175.78Z"/><path class="cls-7" d="M157.11,172c0,1.59,3.56,3.67,3.78,3.8-.59-.4-.49-3.56-.49-3.56A19.76,19.76,0,0,0,157.11,172Z"/><path class="cls-5" d="M160.08,160.37c2.37-.19,4.75-.24,7.12-.25s4.75.06,7.12.25c-2.37.2-4.75.25-7.12.25S162.45,160.57,160.08,160.37Z"/><path class="cls-5" d="M160.08,163c1.87-.19,3.73-.23,5.6-.24a55.08,55.08,0,0,1,5.6.24,52.34,52.34,0,0,1-5.6.25A55.22,55.22,0,0,1,160.08,163Z"/><path class="cls-5" d="M160.08,165.7a55.22,55.22,0,0,1,5.6-.25,52.34,52.34,0,0,1,5.6.25c-1.86.19-3.73.24-5.6.25S162,165.89,160.08,165.7Z"/><rect class="cls-7" x="306.3" y="39.32" width="20.18" height="20.18"/><path class="cls-5" d="M309.27,43.74c2.37-.19,4.74-.24,7.12-.25s4.74.06,7.11.25c-2.37.2-4.74.24-7.11.25S311.64,43.94,309.27,43.74Z"/><path class="cls-5" d="M309.27,46.4a25.47,25.47,0,0,1,7.12,0,25.47,25.47,0,0,1-7.12,0Z"/><path class="cls-5" d="M309.27,49.06c1.86-.19,3.73-.24,5.6-.25s3.73.06,5.6.25a55.35,55.35,0,0,1-5.6.25A55.09,55.09,0,0,1,309.27,49.06Z"/><path class="cls-5" d="M309.27,51.72c2.37-.19,4.74-.24,7.12-.25s4.74.06,7.11.25c-2.37.2-4.74.24-7.11.25S311.64,51.92,309.27,51.72Z"/><path class="cls-5" d="M309.27,54.38c1.82-.19,3.65-.24,5.47-.25s3.65.06,5.48.25a52.88,52.88,0,0,1-5.48.25A52.69,52.69,0,0,1,309.27,54.38Z"/><rect class="cls-6" x="178.24" y="96.29" width="20.18" height="20.18" transform="translate(-15.77 34.78) rotate(-10.13)"/><path class="cls-5" d="M180.33,102.05c2.3-.61,4.63-1.07,7-1.5s4.68-.78,7.05-1c-2.3.61-4.63,1.07-7,1.5S182.7,101.82,180.33,102.05Z"/><path class="cls-5" d="M180.79,104.66a23.68,23.68,0,0,1,3.46-.87,23.36,23.36,0,0,1,3.55-.38,25.57,25.57,0,0,1-7,1.25Z"/><path class="cls-5" d="M181.26,107.28c1.8-.52,3.63-.89,5.47-1.23s3.69-.6,5.56-.74a55.25,55.25,0,0,1-5.47,1.23A54.57,54.57,0,0,1,181.26,107.28Z"/><path class="cls-5" d="M181.73,109.9c2.3-.61,4.63-1.07,7-1.5s4.68-.78,7.05-1c-2.3.61-4.62,1.07-7,1.5S184.1,109.68,181.73,109.9Z"/><path class="cls-5" d="M182.2,112.52c1.76-.51,3.55-.88,5.34-1.21a52.21,52.21,0,0,1,5.44-.71,54.38,54.38,0,0,1-5.35,1.2A52,52,0,0,1,182.2,112.52Z"/><rect class="cls-6" x="104.61" y="84.55" width="20.18" height="20.18"/><path class="cls-5" d="M107.58,89c2.37-.2,4.75-.24,7.12-.25s4.75,0,7.12.25c-2.37.19-4.75.24-7.12.25S110,89.16,107.58,89Z"/><path class="cls-5" d="M107.58,91.63a25.47,25.47,0,0,1,7.12,0,25.47,25.47,0,0,1-7.12,0Z"/><path class="cls-5" d="M107.58,94.29a62.84,62.84,0,0,1,11.2,0c-1.86.19-3.73.24-5.6.25S109.45,94.48,107.58,94.29Z"/><path class="cls-5" d="M107.58,97c2.37-.2,4.75-.24,7.12-.25s4.75,0,7.12.25c-2.37.19-4.75.24-7.12.25S110,97.14,107.58,97Z"/><path class="cls-5" d="M107.58,99.61a60.08,60.08,0,0,1,11,0c-1.82.19-3.65.24-5.47.25S109.41,99.8,107.58,99.61Z"/><rect class="cls-7" x="106.13" y="151.58" width="20.18" height="20.18"/><path class="cls-5" d="M109.1,156c2.37-.2,4.75-.24,7.12-.25s4.74.05,7.12.25c-2.38.19-4.75.24-7.12.25S111.47,156.19,109.1,156Z"/><path class="cls-5" d="M109.1,158.66a25.47,25.47,0,0,1,7.12,0,25.47,25.47,0,0,1-7.12,0Z"/><path class="cls-5" d="M109.1,161.32a62.84,62.84,0,0,1,11.2,0c-1.87.19-3.73.24-5.6.25S111,161.51,109.1,161.32Z"/><path class="cls-5" d="M109.1,164c2.37-.2,4.75-.24,7.12-.25s4.74.05,7.12.25c-2.38.19-4.75.24-7.12.25S111.47,164.17,109.1,164Z"/><path class="cls-5" d="M109.1,166.64a60.08,60.08,0,0,1,11,0c-1.82.19-3.65.24-5.47.25S110.92,166.83,109.1,166.64Z"/><rect class="cls-7" x="233.59" y="91.21" width="20.18" height="20.18"/><path class="cls-5" d="M236.56,95.63c2.38-.2,4.75-.24,7.12-.25s4.75.05,7.12.25c-2.37.2-4.75.24-7.12.25S238.94,95.82,236.56,95.63Z"/><path class="cls-5" d="M236.56,98.29a23.77,23.77,0,0,1,3.56-.25,22.43,22.43,0,0,1,3.56.25,22.43,22.43,0,0,1-3.56.25A23.77,23.77,0,0,1,236.56,98.29Z"/><path class="cls-5" d="M236.56,101c1.87-.19,3.74-.24,5.6-.25a55.09,55.09,0,0,1,5.6.25,55.09,55.09,0,0,1-5.6.25C240.3,101.19,238.43,101.14,236.56,101Z"/><path class="cls-5" d="M236.56,103.61c2.38-.19,4.75-.24,7.12-.25s4.75,0,7.12.25c-2.37.2-4.75.24-7.12.25S238.94,103.81,236.56,103.61Z"/><path class="cls-5" d="M236.56,106.27c1.83-.19,3.65-.24,5.48-.25a52.69,52.69,0,0,1,5.47.25,60.08,60.08,0,0,1-10.95,0Z"/><rect class="cls-8" x="249.05" y="52.84" width="20.18" height="20.18" transform="translate(12.17 -37.66) rotate(8.51)"/><path class="cls-5" d="M252.94,56.27c2.38.16,4.73.47,7.08.81s4.68.75,7,1.3c-2.37-.16-4.73-.47-7.08-.81S255.26,56.82,252.94,56.27Z"/><path class="cls-5" d="M252.55,58.9a24.63,24.63,0,0,1,3.55.28,23.43,23.43,0,0,1,3.49.78,24.88,24.88,0,0,1-3.56-.28A23.3,23.3,0,0,1,252.55,58.9Z"/><path class="cls-5" d="M252.15,61.53c1.88.09,3.73.32,5.58.59a55,55,0,0,1,5.5,1.07,54.46,54.46,0,0,1-5.57-.58C255.81,62.32,254,62,252.15,61.53Z"/><path class="cls-5" d="M251.76,64.16c2.38.16,4.73.47,7.08.81s4.68.76,7,1.3c-2.37-.16-4.73-.46-7.08-.8S254.08,64.71,251.76,64.16Z"/><path class="cls-5" d="M251.37,66.8a59.51,59.51,0,0,1,10.83,1.62,54.67,54.67,0,0,1-5.45-.57A54.37,54.37,0,0,1,251.37,66.8Z"/><rect class="cls-8" x="189.44" y="112.88" width="20.18" height="20.18"/><path class="cls-5" d="M192.41,117.3c2.38-.19,4.75-.24,7.12-.25s4.75.06,7.12.25c-2.37.2-4.75.25-7.12.25S194.79,117.5,192.41,117.3Z"/><path class="cls-5" d="M192.41,120a25.47,25.47,0,0,1,7.12,0,21.24,21.24,0,0,1-3.56.25A22.52,22.52,0,0,1,192.41,120Z"/><path class="cls-5" d="M192.41,122.63a55.35,55.35,0,0,1,5.6-.25,52.34,52.34,0,0,1,5.6.25,55.08,55.08,0,0,1-5.6.24C196.15,122.86,194.28,122.82,192.41,122.63Z"/><path class="cls-5" d="M192.41,125.29c2.38-.2,4.75-.24,7.12-.25s4.75,0,7.12.25c-2.37.19-4.75.24-7.12.25S194.79,125.48,192.41,125.29Z"/><path class="cls-5" d="M192.41,128a52.88,52.88,0,0,1,5.48-.25,50.06,50.06,0,0,1,5.47.25c-1.82.19-3.65.24-5.47.25S194.24,128.14,192.41,128Z"/><rect class="cls-8" x="99.76" y="56.1" width="20.18" height="20.18"/><path class="cls-5" d="M102.73,60.52c2.37-.19,4.74-.24,7.12-.25s4.74.06,7.12.25c-2.38.2-4.75.24-7.12.25S105.1,60.72,102.73,60.52Z"/><path class="cls-5" d="M102.73,63.18a25.47,25.47,0,0,1,7.12,0,25.47,25.47,0,0,1-7.12,0Z"/><path class="cls-5" d="M102.73,65.84c1.87-.19,3.73-.24,5.6-.25s3.73.06,5.6.25a62.85,62.85,0,0,1-11.2,0Z"/><path class="cls-5" d="M102.73,68.5c2.37-.19,4.74-.24,7.12-.25s4.74.06,7.12.25c-2.38.2-4.75.24-7.12.25S105.1,68.7,102.73,68.5Z"/><path class="cls-5" d="M102.73,71.16c1.82-.19,3.65-.24,5.47-.25s3.65.06,5.48.25a52.88,52.88,0,0,1-5.48.25A52.69,52.69,0,0,1,102.73,71.16Z"/><rect class="cls-8" x="268.35" y="128.46" width="20.18" height="20.18"/><path class="cls-5" d="M271.32,132.88c2.37-.19,4.74-.24,7.11-.25s4.75.05,7.12.25c-2.37.2-4.74.24-7.12.25S273.69,133.08,271.32,132.88Z"/><path class="cls-5" d="M271.32,135.54a25.4,25.4,0,0,1,7.11,0,25.4,25.4,0,0,1-7.11,0Z"/><path class="cls-5" d="M271.32,138.2c1.86-.19,3.73-.24,5.6-.25s3.73.06,5.6.25a62.84,62.84,0,0,1-11.2,0Z"/><path class="cls-5" d="M271.32,140.86c2.37-.19,4.74-.24,7.11-.25s4.75.06,7.12.25c-2.37.2-4.74.24-7.12.25S273.69,141.06,271.32,140.86Z"/><path class="cls-5" d="M271.32,143.52c1.82-.19,3.65-.24,5.47-.25s3.65.06,5.48.25a60.08,60.08,0,0,1-10.95,0Z"/><path class="cls-8" d="M351.33,86.37H331.16a10.77,10.77,0,0,1-1-4V66.19h20.17V82.56A11.38,11.38,0,0,0,351.33,86.37Z"/><path class="cls-5" d="M333.63,71c2.37-.19,4.74-.24,7.11-.25s4.75.05,7.12.25c-2.37.2-4.74.24-7.12.25S336,71.15,333.63,71Z"/><path class="cls-5" d="M333.63,73.62c2.13-.19,4.26-.24,6.4-.25s4.27,0,6.4.25c-2.13.2-4.27.24-6.4.25S335.76,73.81,333.63,73.62Z"/><path class="cls-5" d="M333.63,76.28c1.86-.19,3.73-.24,5.6-.25a55.35,55.35,0,0,1,5.6.25,55.35,55.35,0,0,1-5.6.25C337.36,76.52,335.49,76.47,333.63,76.28Z"/><path class="cls-5" d="M333.63,78.94c2.37-.19,4.74-.24,7.11-.25s4.75,0,7.12.25c-2.37.2-4.74.24-7.12.25S336,79.14,333.63,78.94Z"/><path class="cls-8" d="M86.79,120.3H107a10.76,10.76,0,0,0,1-4V100.13H87.79V116.5A11.38,11.38,0,0,1,86.79,120.3Z"/><path class="cls-5" d="M90.26,104.89c2.37-.19,4.75-.24,7.12-.25s4.75.06,7.12.25c-2.37.2-4.75.24-7.12.25S92.63,105.09,90.26,104.89Z"/><path class="cls-5" d="M90.26,107.55c2.14-.19,4.27-.24,6.4-.25s4.27.06,6.41.25c-2.14.2-4.27.25-6.41.25S92.4,107.75,90.26,107.55Z"/><path class="cls-5" d="M90.26,110.21c1.87-.19,3.74-.24,5.6-.25s3.74.06,5.6.25a52.34,52.34,0,0,1-5.6.25A55.35,55.35,0,0,1,90.26,110.21Z"/><path class="cls-5" d="M90.26,112.88c2.37-.2,4.75-.24,7.12-.25s4.75.05,7.12.25c-2.37.19-4.75.24-7.12.24S92.63,113.07,90.26,112.88Z"/><path class="cls-8" d="M180.54,170.21H160.36a10.76,10.76,0,0,1-1-4V150h20.18v16.37A11.38,11.38,0,0,0,180.54,170.21Z"/><path class="cls-5" d="M162.83,154.8c2.37-.19,4.75-.24,7.12-.25s4.75.06,7.12.25c-2.37.2-4.75.25-7.12.25S165.2,155,162.83,154.8Z"/><path class="cls-5" d="M162.83,157.46c2.14-.19,4.27-.24,6.4-.25s4.27.06,6.41.25c-2.14.2-4.27.25-6.41.25S165,157.66,162.83,157.46Z"/><path class="cls-5" d="M162.83,160.12a65.45,65.45,0,0,1,11.2,0,52.34,52.34,0,0,1-5.6.25A55.35,55.35,0,0,1,162.83,160.12Z"/><path class="cls-5" d="M162.83,162.79c2.37-.2,4.75-.24,7.12-.25s4.75.05,7.12.25c-2.37.19-4.75.24-7.12.24S165.2,163,162.83,162.79Z"/><path class="cls-6" d="M254.77,59.5H234.59a10.77,10.77,0,0,1-1-4V39.32h20.18V55.69A11.38,11.38,0,0,0,254.77,59.5Z"/><path class="cls-5" d="M237.06,44.09c2.38-.19,4.75-.24,7.12-.25s4.75,0,7.12.25c-2.37.2-4.75.24-7.12.25S239.44,44.29,237.06,44.09Z"/><path class="cls-5" d="M237.06,46.75c2.14-.19,4.27-.24,6.41-.25s4.26.06,6.4.25c-2.14.2-4.27.24-6.4.25S239.2,47,237.06,46.75Z"/><path class="cls-5" d="M237.06,49.41c1.87-.19,3.74-.24,5.6-.25s3.74.06,5.6.25a55.09,55.09,0,0,1-5.6.25A55.35,55.35,0,0,1,237.06,49.41Z"/><path class="cls-5" d="M237.06,52.07c2.38-.19,4.75-.24,7.12-.25s4.75.06,7.12.25c-2.37.2-4.75.24-7.12.25S239.44,52.27,237.06,52.07Z"/><path class="cls-7" d="M185.62,69.24H165.44a10.76,10.76,0,0,1-1-4V49.06h20.18V65.43A11.38,11.38,0,0,0,185.62,69.24Z"/><path class="cls-5" d="M167.92,53.83c2.37-.19,4.74-.24,7.11-.25s4.75.06,7.12.25c-2.37.2-4.74.24-7.12.25S170.29,54,167.92,53.83Z"/><path class="cls-5" d="M167.92,56.49c2.13-.19,4.26-.24,6.4-.25s4.27.06,6.4.25c-2.13.2-4.27.24-6.4.25S170.05,56.69,167.92,56.49Z"/><path class="cls-5" d="M167.92,59.15c1.86-.19,3.73-.24,5.6-.25s3.73.06,5.6.25a55.35,55.35,0,0,1-5.6.25A55.09,55.09,0,0,1,167.92,59.15Z"/><path class="cls-5" d="M167.92,61.81c2.37-.19,4.74-.24,7.11-.25s4.75.06,7.12.25c-2.37.2-4.74.24-7.12.25S170.29,62,167.92,61.81Z"/><path class="cls-7" d="M283.34,165.7H263.16a10.84,10.84,0,0,1-1-4V145.52h20.18v16.37A11.38,11.38,0,0,0,283.34,165.7Z"/><path class="cls-5" d="M265.63,150.29c2.37-.2,4.74-.24,7.12-.25s4.74.05,7.12.25c-2.38.19-4.75.24-7.12.25S268,150.48,265.63,150.29Z"/><path class="cls-5" d="M265.63,153c2.13-.2,4.27-.24,6.4-.25s4.27.05,6.4.25c-2.13.19-4.26.24-6.4.25S267.76,153.14,265.63,153Z"/><path class="cls-5" d="M265.63,155.61a62.84,62.84,0,0,1,11.2,0c-1.87.19-3.73.24-5.6.25S267.5,155.8,265.63,155.61Z"/><path class="cls-5" d="M265.63,158.27c2.37-.2,4.74-.24,7.12-.25s4.74,0,7.12.25c-2.38.19-4.75.24-7.12.25S268,158.46,265.63,158.27Z"/><path class="cls-6" d="M322.93,116.21H306.88a28.51,28.51,0,0,1-.34-4V96h20.17v16.37C326.71,114,322.93,116.21,322.93,116.21Z"/><path class="cls-7" d="M326.71,112.4c0,1.59-3.56,3.67-3.78,3.8.59-.4.49-3.56.49-3.56A19.76,19.76,0,0,1,326.71,112.4Z"/><path class="cls-5" d="M309.51,100.8c2.37-.19,4.74-.24,7.11-.25s4.75.06,7.12.25c-2.37.2-4.74.25-7.12.25S311.88,101,309.51,100.8Z"/><path class="cls-5" d="M309.51,103.46c1.86-.19,3.73-.24,5.6-.25s3.73.06,5.6.25a52.58,52.58,0,0,1-5.6.25A55.09,55.09,0,0,1,309.51,103.46Z"/><path class="cls-5" d="M309.51,106.13a55.09,55.09,0,0,1,5.6-.25,52.58,52.58,0,0,1,5.6.25c-1.87.19-3.74.24-5.6.25S311.37,106.32,309.51,106.13Z"/><path class="cls-6" d="M247.47,130.39h16a27.72,27.72,0,0,0,.35-4V110.21H243.68v16.38C243.68,128.22,247.47,130.39,247.47,130.39Z"/><path class="cls-7" d="M243.68,126.58c0,1.59,3.56,3.67,3.78,3.8-.59-.4-.49-3.56-.49-3.56A19.76,19.76,0,0,0,243.68,126.58Z"/><path class="cls-5" d="M246.65,115c2.37-.19,4.75-.24,7.12-.25s4.75.06,7.12.25c-2.37.2-4.75.24-7.12.25S249,115.18,246.65,115Z"/><path class="cls-5" d="M246.65,117.64c1.87-.19,3.74-.24,5.6-.25s3.74.06,5.6.25a62.85,62.85,0,0,1-11.2,0Z"/><path class="cls-5" d="M246.65,120.3c1.87-.19,3.74-.24,5.6-.25s3.74.06,5.6.25a62.85,62.85,0,0,1-11.2,0Z"/><path class="cls-6" d="M100.91,63.67h-16a27.76,27.76,0,0,1-.35-4V43.49H104.7V59.86C104.7,61.5,100.91,63.67,100.91,63.67Z"/><path class="cls-7" d="M104.7,59.86c0,1.59-3.56,3.67-3.78,3.8.59-.4.49-3.56.49-3.56A19.76,19.76,0,0,1,104.7,59.86Z"/><path class="cls-5" d="M87.49,48.26c2.38-.19,4.75-.24,7.12-.25s4.75.05,7.12.25c-2.37.2-4.74.24-7.12.25S89.87,48.46,87.49,48.26Z"/><path class="cls-5" d="M87.49,50.92c1.87-.19,3.74-.24,5.6-.25s3.74.06,5.61.25a55.41,55.41,0,0,1-5.61.25A55.35,55.35,0,0,1,87.49,50.92Z"/><path class="cls-5" d="M87.49,53.58c1.87-.19,3.74-.24,5.6-.25s3.74.06,5.61.25a55.41,55.41,0,0,1-5.61.25A55.35,55.35,0,0,1,87.49,53.58Z"/><path class="cls-8" d="M197.11,81.5h-16a27.72,27.72,0,0,1-.35-4V61.32H200.9V77.7C200.9,79.33,197.11,81.5,197.11,81.5Z"/><path class="cls-9" d="M200.9,77.69c0,1.59-3.56,3.67-3.78,3.8.59-.4.49-3.56.49-3.56A19.76,19.76,0,0,1,200.9,77.69Z"/><path class="cls-5" d="M183.69,66.09c2.37-.19,4.75-.24,7.12-.25s4.75.06,7.12.25c-2.37.2-4.75.24-7.12.25S186.06,66.29,183.69,66.09Z"/><path class="cls-5" d="M183.69,68.75c1.87-.19,3.74-.24,5.6-.25s3.74.06,5.6.25a55.09,55.09,0,0,1-5.6.25A55.35,55.35,0,0,1,183.69,68.75Z"/><path class="cls-5" d="M183.69,71.41c1.87-.19,3.74-.24,5.6-.25s3.74.06,5.6.25a55.09,55.09,0,0,1-5.6.25A55.35,55.35,0,0,1,183.69,71.41Z"/><path class="cls-1" d="M96.69,17.12H95.57v3.74a.38.38,0,0,1-.38.38.39.39,0,0,1-.39-.38V17.12H93.7a.39.39,0,0,1-.39-.4.38.38,0,0,1,.39-.38h3a.38.38,0,0,1,.38.38A.39.39,0,0,1,96.69,17.12Z"/><path class="cls-1" d="M101.71,17a2.59,2.59,0,0,1,0,3.54,2.29,2.29,0,0,1-1.68.75,2.32,2.32,0,0,1-1.71-.75,2.59,2.59,0,0,1,0-3.54A2.32,2.32,0,0,1,100,16.2,2.29,2.29,0,0,1,101.71,17Zm-.1,1.77a1.76,1.76,0,0,0-.47-1.22A1.51,1.51,0,0,0,100,17a1.49,1.49,0,0,0-1.13.5,1.79,1.79,0,0,0,0,2.44,1.49,1.49,0,0,0,1.13.5,1.51,1.51,0,0,0,1.11-.5A1.76,1.76,0,0,0,101.61,18.72Z"/><path class="cls-1" d="M105.89,20.86V16.72a.38.38,0,0,1,.38-.38h.83a2.45,2.45,0,1,1,0,4.9h-.83A.38.38,0,0,1,105.89,20.86Zm.78-.4h.43a1.67,1.67,0,1,0,0-3.34h-.43Z"/><path class="cls-1" d="M114.68,17a2.56,2.56,0,0,1,0,3.54,2.27,2.27,0,0,1-1.67.75,2.36,2.36,0,0,1-1.72-.75,2.62,2.62,0,0,1,0-3.54A2.36,2.36,0,0,1,113,16.2,2.27,2.27,0,0,1,114.68,17Zm-.09,1.77a1.81,1.81,0,0,0-.47-1.22A1.51,1.51,0,0,0,113,17a1.49,1.49,0,0,0-1.13.5,1.79,1.79,0,0,0,0,2.44,1.49,1.49,0,0,0,1.13.5,1.51,1.51,0,0,0,1.11-.5A1.81,1.81,0,0,0,114.59,18.72Z"/><path class="cls-1" d="M157.08,16.72a.38.38,0,0,1,.38-.38.4.4,0,0,1,.4.38v4.14a.4.4,0,0,1-.4.38.38.38,0,0,1-.38-.38Z"/><path class="cls-1" d="M159.93,20.86a.38.38,0,0,1-.37.38.38.38,0,0,1-.39-.38V16.79h0a.38.38,0,0,1,.15-.32.39.39,0,0,1,.54.08l2.26,3.13V16.79a.38.38,0,1,1,.76,0v4.07a.38.38,0,0,1-.38.38.37.37,0,0,1-.29-.14s0,0,0,0L159.93,18Z"/><path class="cls-1" d="M168.3,19.34h-.86v1.52a.39.39,0,0,1-.78,0V16.72a.39.39,0,0,1,.39-.38h1.25a1.5,1.5,0,1,1,0,3Zm-.86-.78h.86a.72.72,0,1,0,0-1.44h-.86Z"/><path class="cls-1" d="M174,20.66a.39.39,0,0,1-.24.49l-.15,0h0a.49.49,0,0,1-.27-.07.69.69,0,0,1-.23-.25,1.85,1.85,0,0,1-.15-.84.53.53,0,0,0-.08-.3.58.58,0,0,0-.21-.2,1.25,1.25,0,0,0-.39-.17h-.83v1.52a.39.39,0,0,1-.78,0V16.72a.38.38,0,0,1,.39-.38h1.25a1.5,1.5,0,0,1,1,2.65,1.2,1.2,0,0,1,.24.26,1.37,1.37,0,0,1,.23.76,1.76,1.76,0,0,0,0,.41A.38.38,0,0,1,174,20.66Zm-1-2.81a.72.72,0,0,0-.72-.73h-.86v1.44h.86A.71.71,0,0,0,173,17.85Z"/><path class="cls-1" d="M178.86,17a2.56,2.56,0,0,1,0,3.54,2.27,2.27,0,0,1-1.67.75,2.36,2.36,0,0,1-1.72-.75,2.62,2.62,0,0,1,0-3.54,2.36,2.36,0,0,1,1.72-.75A2.27,2.27,0,0,1,178.86,17Zm-.09,1.77a1.81,1.81,0,0,0-.47-1.22,1.51,1.51,0,0,0-1.11-.5,1.49,1.49,0,0,0-1.13.5,1.79,1.79,0,0,0,0,2.44,1.49,1.49,0,0,0,1.13.5,1.51,1.51,0,0,0,1.11-.5A1.81,1.81,0,0,0,178.77,18.72Z"/><path class="cls-1" d="M180.73,18.73a2.59,2.59,0,0,1,4.18-2,.4.4,0,0,1,.08.56.41.41,0,0,1-.57.07,1.81,1.81,0,0,0-1.1-.38,1.77,1.77,0,0,0-1.27.51,1.67,1.67,0,0,0,0,2.42,1.73,1.73,0,0,0,1.27.51,1.9,1.9,0,0,0,1-.26v-1h-1a.41.41,0,0,1-.4-.4.39.39,0,0,1,.4-.39h1.4a.39.39,0,0,1,.4.39v1.55a.5.5,0,0,1,0,.12,0,0,0,0,1,0,0h0a.37.37,0,0,1-.14.17,2.58,2.58,0,0,1-1.58.54A2.54,2.54,0,0,1,180.73,18.73Z"/><path class="cls-1" d="M189.89,20.66a.38.38,0,0,1-.25.49l-.15,0h0a.52.52,0,0,1-.27-.07.67.67,0,0,1-.22-.25,1.85,1.85,0,0,1-.15-.84.63.63,0,0,0-.09-.3.51.51,0,0,0-.21-.2,1.16,1.16,0,0,0-.39-.17h-.83v1.52a.39.39,0,0,1-.77,0V16.72a.38.38,0,0,1,.38-.38h1.26a1.5,1.5,0,0,1,1.5,1.51,1.46,1.46,0,0,1-.55,1.14,1.2,1.2,0,0,1,.24.26,1.37,1.37,0,0,1,.24.76,2,2,0,0,0,0,.41A.38.38,0,0,1,189.89,20.66Zm-1-2.81a.72.72,0,0,0-.72-.73h-.87v1.44h.87A.71.71,0,0,0,188.91,17.85Z"/><path class="cls-1" d="M191,20.86V16.72a.38.38,0,0,1,.39-.38h2.29a.39.39,0,0,1,.38.38.4.4,0,0,1-.38.4h-1.9V18.4h1.63a.39.39,0,1,1,0,.78H191.8v1.28h1.9a.4.4,0,0,1,.38.4.39.39,0,0,1-.38.38h-2.29A.38.38,0,0,1,191,20.86Z"/><path class="cls-1" d="M195,20a.37.37,0,0,1,.51-.05,2.22,2.22,0,0,0,1.34.54,1.52,1.52,0,0,0,.87-.25.64.64,0,0,0,.3-.51.4.4,0,0,0-.06-.22.69.69,0,0,0-.21-.21,2.54,2.54,0,0,0-1-.33h0a4,4,0,0,1-.91-.28,1.55,1.55,0,0,1-.65-.54,1.15,1.15,0,0,1-.16-.58,1.3,1.3,0,0,1,.56-1,2.07,2.07,0,0,1,1.21-.37,2.78,2.78,0,0,1,1.53.56.37.37,0,0,1,.1.5.36.36,0,0,1-.5.1,2,2,0,0,0-1.13-.45,1.34,1.34,0,0,0-.78.24.57.57,0,0,0-.27.44.39.39,0,0,0,0,.2A.66.66,0,0,0,196,18a2.34,2.34,0,0,0,.88.31h0a4.26,4.26,0,0,1,1,.29,1.68,1.68,0,0,1,.7.59,1.13,1.13,0,0,1,.16.59,1.37,1.37,0,0,1-.6,1.09,2.2,2.2,0,0,1-1.29.4,3,3,0,0,1-1.8-.71A.37.37,0,0,1,195,20Z"/><path class="cls-1" d="M199.62,20a.37.37,0,0,1,.51-.05,2.22,2.22,0,0,0,1.34.54,1.52,1.52,0,0,0,.87-.25.64.64,0,0,0,.3-.51.4.4,0,0,0-.06-.22.69.69,0,0,0-.21-.21,2.54,2.54,0,0,0-1-.33h0a4,4,0,0,1-.91-.28,1.49,1.49,0,0,1-.65-.54,1.15,1.15,0,0,1-.16-.58,1.3,1.3,0,0,1,.56-1,2.07,2.07,0,0,1,1.21-.37,2.78,2.78,0,0,1,1.53.56.37.37,0,0,1,.1.5.36.36,0,0,1-.5.1,2,2,0,0,0-1.13-.45,1.34,1.34,0,0,0-.78.24.57.57,0,0,0-.27.44.31.31,0,0,0,0,.2.66.66,0,0,0,.19.18,2.35,2.35,0,0,0,.87.31h0a4.17,4.17,0,0,1,1,.29,1.71,1.71,0,0,1,.71.59,1.13,1.13,0,0,1,.16.59,1.37,1.37,0,0,1-.6,1.09,2.2,2.2,0,0,1-1.29.4,3,3,0,0,1-1.8-.71A.37.37,0,0,1,199.62,20Z"/><path class="cls-1" d="M243.9,17.12h-1.11v3.74a.39.39,0,0,1-.77,0V17.12h-1.11a.39.39,0,0,1-.38-.4.38.38,0,0,1,.38-.38h3a.39.39,0,0,1,.39.38A.4.4,0,0,1,243.9,17.12Z"/><path class="cls-1" d="M245.44,20.86V16.72a.38.38,0,0,1,.39-.38h2.29a.39.39,0,0,1,.38.38.4.4,0,0,1-.38.4h-1.9V18.4h1.63a.39.39,0,1,1,0,.78h-1.63v1.28h1.9a.4.4,0,0,1,.38.4.39.39,0,0,1-.38.38h-2.29A.38.38,0,0,1,245.44,20.86Z"/><path class="cls-1" d="M249.44,20A.37.37,0,0,1,250,20a2.22,2.22,0,0,0,1.34.54,1.52,1.52,0,0,0,.87-.25.64.64,0,0,0,.3-.51.4.4,0,0,0-.06-.22.59.59,0,0,0-.21-.21,2.54,2.54,0,0,0-1-.33h0a4,4,0,0,1-.91-.28,1.55,1.55,0,0,1-.65-.54,1.15,1.15,0,0,1-.16-.58,1.3,1.3,0,0,1,.56-1,2.07,2.07,0,0,1,1.21-.37,2.75,2.75,0,0,1,1.53.56.37.37,0,0,1,.1.5.36.36,0,0,1-.5.1,2,2,0,0,0-1.13-.45,1.34,1.34,0,0,0-.78.24.57.57,0,0,0-.27.44.39.39,0,0,0,.05.2.66.66,0,0,0,.19.18,2.34,2.34,0,0,0,.88.31h0a4.26,4.26,0,0,1,1,.29,1.68,1.68,0,0,1,.7.59,1.13,1.13,0,0,1,.17.59,1.38,1.38,0,0,1-.61,1.09,2.17,2.17,0,0,1-1.29.4,3,3,0,0,1-1.79-.71A.36.36,0,0,1,249.44,20Z"/><path class="cls-1" d="M257.15,17.12H256v3.74a.38.38,0,0,1-.38.38.39.39,0,0,1-.39-.38V17.12h-1.11a.39.39,0,0,1-.38-.4.38.38,0,0,1,.38-.38h3a.39.39,0,0,1,.39.38A.4.4,0,0,1,257.15,17.12Z"/><path class="cls-1" d="M258.74,16.72a.38.38,0,0,1,.39-.38.39.39,0,0,1,.39.38v4.14a.39.39,0,0,1-.39.38.38.38,0,0,1-.39-.38Z"/><path class="cls-1" d="M261.6,20.86a.39.39,0,0,1-.38.38.37.37,0,0,1-.38-.38V16.79h0a.35.35,0,0,1,.15-.32.38.38,0,0,1,.53.08l2.26,3.13V16.79a.38.38,0,0,1,.38-.38.39.39,0,0,1,.39.38v4.07a.39.39,0,0,1-.39.38.37.37,0,0,1-.29-.14l0,0L261.6,18Z"/><path class="cls-1" d="M265.66,18.73a2.59,2.59,0,0,1,4.18-2,.4.4,0,0,1,.08.56.41.41,0,0,1-.57.07,1.84,1.84,0,0,0-1.11-.38,1.76,1.76,0,0,0-1.26.51,1.67,1.67,0,0,0,0,2.42,1.72,1.72,0,0,0,1.26.51,1.94,1.94,0,0,0,1-.26v-1h-1a.4.4,0,0,1-.4-.4.39.39,0,0,1,.4-.39h1.39a.39.39,0,0,1,.41.39v1.55a.5.5,0,0,1,0,.12l0,0h0a.34.34,0,0,1-.13.17,2.59,2.59,0,0,1-1.59.54A2.54,2.54,0,0,1,265.66,18.73Z"/><path class="cls-1" d="M321.85,20.86V16.72a.38.38,0,0,1,.39-.38h.82a2.45,2.45,0,1,1,0,4.9h-.82A.38.38,0,0,1,321.85,20.86Zm.78-.4h.43a1.67,1.67,0,1,0,0-3.34h-.43Z"/><path class="cls-1" d="M330.64,17a2.56,2.56,0,0,1,0,3.54,2.25,2.25,0,0,1-1.67.75,2.32,2.32,0,0,1-1.71-.75,2.59,2.59,0,0,1,0-3.54A2.32,2.32,0,0,1,329,16.2,2.25,2.25,0,0,1,330.64,17Zm-.09,1.77a1.81,1.81,0,0,0-.47-1.22A1.51,1.51,0,0,0,329,17a1.49,1.49,0,0,0-1.13.5,1.79,1.79,0,0,0,0,2.44,1.49,1.49,0,0,0,1.13.5,1.51,1.51,0,0,0,1.11-.5A1.81,1.81,0,0,0,330.55,18.72Z"/><path class="cls-1" d="M333.32,20.86a.39.39,0,0,1-.38.38.38.38,0,0,1-.39-.38V16.79h0a.39.39,0,0,1,.16-.32.38.38,0,0,1,.53.08l2.26,3.13V16.79a.38.38,0,0,1,.38-.38.39.39,0,0,1,.39.38v4.07a.39.39,0,0,1-.39.38.37.37,0,0,1-.29-.14l0,0L333.32,18Z"/><path class="cls-1" d="M337.49,20.86V16.72a.38.38,0,0,1,.38-.38h2.29a.39.39,0,0,1,.39.38.4.4,0,0,1-.39.4h-1.89V18.4h1.63a.39.39,0,0,1,.38.38.39.39,0,0,1-.38.4h-1.63v1.28h1.89a.4.4,0,0,1,.39.4.39.39,0,0,1-.39.38h-2.29A.38.38,0,0,1,337.49,20.86Z"/><path class="cls-4" d="M179.12,41.08a36.71,36.71,0,0,0-19,8.14,25,25,0,0,0-6.43,8.07,18.51,18.51,0,0,0-1.6,4.9,17.23,17.23,0,0,0-.1,5.12,15.73,15.73,0,0,0,4.26,9.12,20.64,20.64,0,0,0,8.82,5.09,41.19,41.19,0,0,0,10.25,1.6,65.67,65.67,0,0,0,10.4-.42,33.89,33.89,0,0,0,9.93-2.81,26.71,26.71,0,0,0,8.34-6A21.46,21.46,0,0,0,209,65a14.72,14.72,0,0,0-.56-10,17.48,17.48,0,0,0-7-7.33A31.81,31.81,0,0,0,191.74,44a39.85,39.85,0,0,0-20.69,1.08,40.12,40.12,0,0,1,20.79-1.54,31.76,31.76,0,0,1,9.91,3.62,18.29,18.29,0,0,1,7.39,7.55,13.25,13.25,0,0,1,1.29,5.21,17.09,17.09,0,0,1-.58,5.33,22.25,22.25,0,0,1-5.19,9.27,27.6,27.6,0,0,1-8.6,6.24,34.45,34.45,0,0,1-10.21,2.94,65.61,65.61,0,0,1-10.58.38,41.85,41.85,0,0,1-10.46-1.69A21.45,21.45,0,0,1,155.63,77a16.21,16.21,0,0,1-4.39-9.63,17.72,17.72,0,0,1,.17-5.34,19.13,19.13,0,0,1,1.72-5,25.3,25.3,0,0,1,6.68-8.17A36.89,36.89,0,0,1,179.12,41.08Z"/><path class="cls-4" d="M112.06,54.82a19.94,19.94,0,0,1,6.6-6.73,14.47,14.47,0,0,1,4.45-1.78,15.39,15.39,0,0,1,4.79-.19,11.44,11.44,0,0,1,8.24,4.66A7.82,7.82,0,0,1,137.2,53a4.77,4.77,0,0,1,.12,2.55,2.88,2.88,0,0,1-4.42,1.73A3.86,3.86,0,0,1,131.61,55a8.49,8.49,0,0,1-.09-2.51A12.41,12.41,0,0,1,133,47.81a14.14,14.14,0,0,1,7.3-6.29,13.89,13.89,0,0,1,9.57-.4,16.36,16.36,0,0,1,7.62,5.64l-.15.12a16.89,16.89,0,0,0-7.7-5,13.08,13.08,0,0,0-4.53-.46,14.37,14.37,0,0,0-4.41,1.11A13.72,13.72,0,0,0,134,48.35a11.93,11.93,0,0,0-1.46,4.25,7.36,7.36,0,0,0,0,2.2,3,3,0,0,0,.9,1.77,1.79,1.79,0,0,0,1.8.19,1.92,1.92,0,0,0,1.23-1.41,5.52,5.52,0,0,0-1-4.15,10.78,10.78,0,0,0-7.67-4.48,16,16,0,0,0-4.63.09,14.25,14.25,0,0,0-4.35,1.6,19.74,19.74,0,0,0-6.7,6.47Z"/><polygon class="cls-4" points="152.33 46.14 157.14 46.59 157.24 41.76 158.1 47.66 152.33 46.14"/><path class="cls-4" d="M236.88,114.87a49.13,49.13,0,0,0-1.71,13.42,35.78,35.78,0,0,0,2.44,13.17,26.35,26.35,0,0,0,3.23,5.83,30.33,30.33,0,0,0,10,8.65c1,.6,2,1,3,1.53s2.08.85,3.13,1.29l-.08.25a31.91,31.91,0,0,1-12.27-6,26.23,26.23,0,0,1-7.86-11.23,36.13,36.13,0,0,1-2.17-13.49,49.27,49.27,0,0,1,2.14-13.44Z"/><polygon class="cls-4" points="251.72 160.91 256.6 158.71 254.05 154 258.11 159.22 251.72 160.91"/><path class="cls-4" d="M302.78,69.37c2-.15,4-.22,5.92-.28s3.95-.08,5.93-.09,3.95,0,5.92.08,3.95.14,5.93.29c-2,.16-4,.23-5.93.29s-3.95.08-5.92.09-3.95,0-5.93-.09S304.75,69.53,302.78,69.37Z"/><path class="cls-4" d="M302.78,72.2a55.71,55.71,0,0,1,12.82,0,54.25,54.25,0,0,1-12.82,0Z"/><path class="cls-4" d="M302.78,75c1.74-.16,3.49-.23,5.24-.29s3.49-.08,5.24-.09,3.49,0,5.24.09,3.5.13,5.24.29c-1.74.15-3.49.22-5.24.28s-3.49.08-5.24.09-3.49,0-5.24-.09S304.52,75.19,302.78,75Z"/><path class="cls-4" d="M302.78,77.87c1.42-.16,2.84-.23,4.26-.29s2.85-.08,4.27-.09,2.84,0,4.26.09,2.85.13,4.27.29c-1.42.15-2.85.22-4.27.29s-2.84.07-4.26.08-2.85,0-4.27-.09S304.2,78,302.78,77.87Z"/><path class="cls-4" d="M183,138.86c2-.15,4-.22,5.93-.28s3.95-.08,5.92-.09,4,0,5.93.08,4,.14,5.92.29c-2,.16-4,.23-5.92.29s-3.95.08-5.93.09-3.95,0-5.92-.09S185,139,183,138.86Z"/><path class="cls-4" d="M183,141.69c1.53-.15,3.05-.22,4.58-.28s3-.08,4.57-.09,3.05,0,4.58.09,3,.13,4.57.28c-1.52.16-3.05.23-4.57.29s-3.05.08-4.58.09-3.05,0-4.57-.09S184.57,141.85,183,141.69Z"/><path class="cls-4" d="M183,144.53c1.75-.16,3.5-.23,5.25-.29s3.49-.08,5.24-.09,3.49,0,5.24.09,3.49.13,5.24.29c-1.75.15-3.49.22-5.24.28s-3.5.08-5.24.09-3.5,0-5.24-.09S184.79,144.68,183,144.53Z"/><path class="cls-8" d="M179.58,290.43a58.51,58.51,0,0,0-1.85,10.46c.1.18.08.83,0,.65,0,.57-.9.47-.9-.1,0-.37,0-.74,0-1.09-2-2.54-5-4.15-7.41-6.35a13.88,13.88,0,0,1-4.06-6.47c-2-6.85-.13-14.12-2.52-21-2.07-5.9-5.77-11-8.9-16.37-3.3-5.65-5.74-11.58-6-18.2-.2-5.07.41-11.82,4.27-15.62,4.09-4,9.16-1,12.29,2.59,9.08,10.42,13.29,23.59,15,37.06.94,7.45,1.91,15,1.69,22.48A60.54,60.54,0,0,1,179.58,290.43Z"/><path class="cls-4" d="M177.77,303.63a128.39,128.39,0,0,0-.25-21.12.1.1,0,0,0,0-.07c.11-5.71.57-11.4.34-17.11A101.28,101.28,0,0,0,175.39,247c0-.07-.12-.06-.11,0a120.23,120.23,0,0,1,2,17.95c.11,3.23.09,6.45-.08,9.68-.06,1-.15,2.1-.22,3.16h0a113,113,0,0,0-17-44.95c-.12-.18-.45,0-.33.21a117.29,117.29,0,0,1,13.82,33.32c-4.36-8.09-11-14.74-15.86-22.52,0,0-.09,0-.07,0,4.4,8.65,11.66,15.48,16.29,24,.8,3.47,1.46,7,1.95,10.51A117.11,117.11,0,0,1,176.83,293a165.73,165.73,0,0,1-7.59-15c-.06-.14-.26,0-.22.1,1.86,5.46,4.34,11.34,7.83,16q0,5.19-.29,10.37c-.54,9.22-2.12,18.32-2.84,27.51,0,.27.36.31.42,0A211.8,211.8,0,0,0,177.77,303.63Z"/><path class="cls-4" d="M168,232.53c0-.07-.12,0-.1.05,1.68,4.65,2.64,9.37,3.85,14.14a.18.18,0,0,0,.35-.05A50.32,50.32,0,0,0,168,232.53Z"/><path class="cls-8" d="M210.75,252.05a71.2,71.2,0,0,1-3.88,7.95c-3,5.51-6.19,10.56-6.77,17a39.25,39.25,0,0,1-1.21,8.5,25.77,25.77,0,0,1-3.39,6.65c-3.29,4.79-7.4,8.91-10.44,13.88a58.31,58.31,0,0,0-6.94,16.73c-.07.32-.58.23-.51-.09a.11.11,0,0,0,0-.07.15.15,0,0,1,0-.07c-.48-13.75.62-27.61,4.81-40.78a142.72,142.72,0,0,1,6.66-17,40.21,40.21,0,0,1,9-12.94c2.56-2.3,8.11-6.67,11.76-4.36C211.56,248.58,211.43,250.33,210.75,252.05Z"/><path class="cls-4" d="M196.93,283.22a113.66,113.66,0,0,1-8,11.48c-1.33,1.74-2.68,3.46-4,5.2-.63.82-1.33,1.64-1.91,2.53.36-1.45.72-2.9,1.09-4.34,1.77-6.95,3.48-14,6.12-20.64a140.1,140.1,0,0,1,9.54-18.71c.1-.16-.16-.27-.25-.12-2.91,4.78-5.86,9.55-8.3,14.59a75.34,75.34,0,0,0-3.52,8.65,133.19,133.19,0,0,1,4.69-18.49c0-.06-.06-.1-.09,0a63.48,63.48,0,0,0-4.86,19.23s0,0,0,0q-.9,2.67-1.66,5.4c-2.16,7.69-4.06,15.46-5.83,23.26A83.37,83.37,0,0,1,181.29,296a.09.09,0,0,0-.18,0,48.4,48.4,0,0,0-1.33,16.12c-.67,3-1.31,5.94-1.95,8.91-1.35,6.34-3,12.79-3.8,19.22a.13.13,0,0,0,.25,0c.95-3.47,1.52-7.06,2.29-10.57s1.57-7,2.39-10.56q1.78-7.67,3.72-15.31c.85-1.87,2.5-3.53,3.73-5.09,1.35-1.72,2.71-3.44,4-5.19a76.78,76.78,0,0,0,6.62-10.24C197.09,283.19,197,283.14,196.93,283.22Z"/><path class="cls-4" d="M197.51,277.33a71.9,71.9,0,0,0-7.81,12.43c0,.05.05.11.09.06,2.63-4.13,5.22-8.28,7.85-12.41C197.68,277.34,197.56,277.27,197.51,277.33Z"/><path class="cls-8" d="M139,265.08c1.78,3.07,3.81,6.76,3,10.44-.49,2.33-2.19,4.23-2.5,6.6-.69,5.26,4.54,8.73,8.33,11.21,9.44,6.19,22.39,11.72,24.1,24.36.07.45.84.34.79-.1a.24.24,0,0,0,0-.08s0,0,0-.08a48.34,48.34,0,0,0-.17-19.32c-1.41-6.52-4.26-12.37-7.62-18.1-5.68-9.7-11.69-19.62-20.28-27-2.38-2.05-7.25-5.74-9.15-1.11S136.8,261.34,139,265.08Z"/><path class="cls-4" d="M147.63,285.63c6.26,6.78,16.21,10.58,21.6,18.17a76,76,0,0,0-16.6-31.18.24.24,0,0,1,.34-.35,61.59,61.59,0,0,1,13.57,19.65A88.63,88.63,0,0,0,160.7,277c-.09-.18.17-.34.27-.16a56.89,56.89,0,0,1,6.3,16.79c7.1,17.19,7.76,37.34,6.27,55.46,0,.25-.42.26-.41,0,.41-14.28.18-28.8-3.25-42.75-.07-.29-.15-.57-.22-.86-5.86-8.17-15.77-12-22.14-19.72C147.46,285.67,147.56,285.56,147.63,285.63Z"/><path class="cls-4" d="M146.18,279.81c3.28,3,6.52,6.1,9.81,9.11,0,0,0,.09-.05.07a48.35,48.35,0,0,1-10-9A.14.14,0,0,1,146.18,279.81Z"/><path class="cls-4" d="M145.66,266.75a102.5,102.5,0,0,0,9.83,13.52c0,.06,0,.14-.08.09a47.79,47.79,0,0,1-9.93-13.51A.1.1,0,0,1,145.66,266.75Z"/><polygon class="cls-6" points="160.45 361.84 189.23 361.84 185.35 323.12 164.88 323.12 160.45 361.84"/><polygon class="cls-4" points="164.16 329.41 185.99 329.41 185.35 323.12 164.88 323.12 164.16 329.41"/><rect class="cls-6" x="161.35" y="318.83" width="26.98" height="6.18" transform="translate(349.68 643.84) rotate(180)"/><ellipse class="cls-3" cx="217.93" cy="396.97" rx="203" ry="23.07"/><path class="cls-10" d="M35.73,386.85S35,381,33.25,377.54s-12.79-1.26-12.79-1.26-2.21,1.89-2.68,10.73Z"/><path class="cls-10" d="M73.37,386.77c-2.6-1.58-1.12-13.4-1.12-13.4s12.1-9.68,13.76-2.27,11.49,10.73,17.08,11.64c3.86.63,5.06,2.77,5.43,4Z"/><path class="cls-11" d="M48.32,300.81a55.16,55.16,0,0,1,.88,6.53c1.13,21.93,18.46,72.08,21.57,73.25,4.79,1.81,12.35-2,16.3-3.3a3.38,3.38,0,0,0,2.38-3.85c-8.58-39.47-11.74-96.31-12.89-130a152.49,152.49,0,0,0-3.49-28.65s-42.28-11.29-42.53,3C30.32,230.44,44.54,280,48.32,300.81Z"/><path class="cls-12" d="M48.32,300.81l28.24-57.33a152.49,152.49,0,0,0-3.49-28.65s-42.28-11.29-42.53,3C30.32,230.44,44.54,280,48.32,300.81Z"/><path class="cls-11" d="M57.72,217.86l-22.35,162s-9.82,2.36-17.45.47c0,0-6.55-86.17-6-107s-4.7-55.74,1.2-59.59S57.72,217.86,57.72,217.86Z"/><path class="cls-13" d="M8.76,215.16A3.1,3.1,0,0,0,11,218.37c3.12.9,6.71,1.53,13.64,3a132.94,132.94,0,0,0,26,2.62c17.13.11,23.61-5.8,23.61-5.8.74,0-.39-3.57-1.41-20.6-.34-5.78-.67-13.09-.91-22.34-.22-8.32-.36-18.2-.38-29.93,0-14.11-21.85-29.28-22.25-29.28h0c0,2-3.2,5.78-8.13,6.11-5.85.38-13-2.53-13-5.9,0,0-10.58,16.92-14.33,35-.48,2.29-.85,4.7-1.14,7.25C11.8,166.12,12.66,160.65,8.76,215.16Z"/><path class="cls-13" d="M49.34,116s20.3-.17,25.19,6.68,15.6,43.72,10,56-16.06-5.07-21.86-12.58S49.34,116,49.34,116Z"/><path class="cls-14" d="M49.55,112.91l0,2.1s.58,6.56-7.51,7.52-14.1-1.21-13.88-6.27a74,74,0,0,0,1.48-11.21,22.27,22.27,0,0,0-.29-3.93L45,100.8l4.62.76Z"/><path class="cls-15" d="M49.61,101.56l-.06,11.35a13.36,13.36,0,0,1-5.65,1.25c-7.2,0-11.85-5.28-14.28-9.11a22.27,22.27,0,0,0-.29-3.93L45,100.8Z"/><path class="cls-14" d="M28.13,98.6c1.82,9.78,14.44,9.45,19.89,8.84,1.54-.17,2.5-.37,2.5-.37,1.73-.46,2.7-3.18,3.14-6.76.9-7.06-.23-17.43-1.42-20.08-1.8-4-5.18-8.31-17.89-5.2S25.8,86.07,28.13,98.6Z"/><path class="cls-16" d="M70.1,143.48S78,160.82,77.72,166a27.24,27.24,0,0,0-7.62,1C64,168.83,70.1,143.48,70.1,143.48Z"/><path class="cls-10" d="M56.14,70.92A42,42,0,0,1,44,67.62c-5.36-2.33-12.11.23-14.31,1.39a3.22,3.22,0,0,1,.54-1.32,2.93,2.93,0,0,0-1.13,1.67c-.1.08-.15.13-.12.15a3.71,3.71,0,0,0-1.84.12s.51-.08.68.25a.38.38,0,0,0,.09.09c-8.36,4-9.13,17.23-6.44,20.29,3.23,3.67,8,11.85,8,11.85A12.76,12.76,0,0,0,29.36,97c-.59-3.23,2.2-3.23,5.73-4.7s.59-5.59,3.67-8.09,14.41-1,14.26-2.94C57.23,79.76,56.14,71.35,56.14,70.92Z"/><path class="cls-16" d="M25.57,176c3.32,13.31,39.17,20.19,47.31,21.59-.34-5.78-.67-13.09-.91-22.34Z"/><path class="cls-14" d="M33.44,180.29c-.34,0-8-1.13-9.33-1.82s-7.62-9.56-3.53-11.84,15.08,6.83,15.08,6.83Z"/><path class="cls-13" d="M79.84,182.93s-29.51,1.6-49.3-2.64A8.51,8.51,0,0,1,36.26,172s30.85-6.54,38.27-4.71S79.84,182.93,79.84,182.93Z"/><path class="cls-13" d="M12.09,159.78c6.12,7.38,14.12,13.41,22.94,14.82h0a16.47,16.47,0,0,0,2.18-9.85A19.65,19.65,0,0,0,34,155.7a19.92,19.92,0,0,1-1.74-3.49c-4.82-12.3-4.1-36-4.1-36S7.71,118.36,1.34,127.47C-2.57,133.05,2.41,148.11,12.09,159.78Z"/><path class="cls-15" d="M48,107.44c1.54-.17,2.5-.37,2.5-.37,1.73-.46,2.7-3.18,3.14-6.76a8.56,8.56,0,0,0-5.35,4.38A6.35,6.35,0,0,0,48,107.44Z"/><path class="cls-14" d="M56.26,113s7.07-11.66,1.57-12.17a8.32,8.32,0,0,0-8.49,4.58c-.8,1.37.21,7.53.21,7.53Z"/><path class="cls-13" d="M29.33,164.36a15.24,15.24,0,0,0,1.21,4A19.25,19.25,0,0,0,35,174.6h0c18.35-8.28,22.06-36.73,22.68-52.36.26-6.28,0-10.49,0-10.49-8.27-2.75-10.6,2-10.6,2S37.34,137,32.27,152.21C30.33,158,29.08,162.65,29.33,164.36Z"/><path class="cls-16" d="M12.09,159.78c6.12,7.38,14.12,13.41,22.94,14.82h0c18.35-8.28,22.06-36.73,22.68-52.36,0,0-8.68,31.5-20.5,42.51a12.9,12.9,0,0,1-6.68,3.65s-14.91-4.21-18-8.18A2,2,0,0,0,12.09,159.78Z"/><path class="cls-11" d="M371.55,79.37c-5.85-3-10.54-1.13-10.54-1.13-17.89-2.1-23.11,18.77-22.87,26s1.06,14.89-6.93,24.22c-23.08,27,25.26,28.14,25.26,28.14.41-21.53,26.22-13.68,25.09-11.5C414.64,153,384.85,86.27,371.55,79.37Z"/><path class="cls-14" d="M302.52,169.12s-3.15-4.79-5.68-4.88-7.23-1.41-6.86-.47,3.29,1,3.57,1.59-4.32,1.41-5.64,1.51-4.41,0-4.32.65,5.59,3.39,9.47,3a26.4,26.4,0,0,1,8.66,1.13Z"/><path class="cls-17" d="M348,170.67a47.12,47.12,0,0,1-4.81,7.28c-3.74,4.68-9.51,10.1-16.75,11.16a18,18,0,0,1-9.94-1.61h0c-8.8-3.91-15.41-12.88-15.41-12.88a7.24,7.24,0,0,1,1-7.1s17.75,4,19.44,3.15,11.56-29.26,13.9-32.83,10.36-5.42,10.36-5.42Z"/><path class="cls-18" d="M343.22,178c-3.74,4.68-9.51,10.1-16.75,11.16a18,18,0,0,1-9.94-1.61c.34,0,9.12,1.13,12.62-5.13s7.43-16.54,12.74-13.16C344.17,170.67,344.07,174.3,343.22,178Z"/><path class="cls-10" d="M414.27,362.32s5.42,4.94,4.36,8.45-5.95,5.86-6.61,10.15-3.3,6.64-5.68,6.64H395s-1.75-3,2.48-3.94S403.3,377.67,403,373a81.85,81.85,0,0,1,.39-10.92l9-2.09Z"/><path class="cls-10" d="M368.42,364.41s1.95,20.95-.43,22.12l-30.44-.06s0-3.52,4.89-4.3,13.48-3.64,14.93-10S368.42,364.41,368.42,364.41Z"/><path class="cls-14" d="M390.11,214.16c-6.27-14-10.1-18.08-9.37-22.44.55-3.25-1.66-60.5-1.66-60.5-.74-.23-2.23-.44-3-.62a7.64,7.64,0,0,1-5.58-4.85,38.87,38.87,0,0,1-1.9-12.92l-.8.16-13.49,2.67s.31,4.24.32,8.24v.1a7.76,7.76,0,0,1-5.6,7.5l-3.19.92a123.89,123.89,0,0,0-5.9,28.67c-.95,14.53,9,20.84-.08,49.87C330.55,240.62,393.57,221.92,390.11,214.16Z"/><path class="cls-15" d="M354.27,115.66s.31,4.24.32,8.24c7.54-.21,11.54-7.1,13.17-10.91Z"/><path class="cls-14" d="M351.75,119.44s17.86.3,17.87-10.83S372,90,360.54,89.37,346.92,93,346,96.67,347.1,119.08,351.75,119.44Z"/><path class="cls-11" d="M352.41,89.1s4.89,13.05,12.4,15,10.76-.08,10.76-.08a21.26,21.26,0,0,1-7-12.55S356.1,82.89,352.41,89.1Z"/><path class="cls-11" d="M353.62,90.16s-3.63,1.36-5.12,4a18,18,0,0,0-2.41,10.22s-3.69-8.88.45-13.9C350.93,85.16,353.62,90.16,353.62,90.16Z"/><path class="cls-19" d="M355.63,112.54a4.49,4.49,0,0,1-3.69,1.51,3.31,3.31,0,0,1-2.76-1.82S352.83,111.35,355.63,112.54Z"/><path class="cls-17" d="M391.83,156.55a122,122,0,0,1,0,14.06c-.3,5.09-5.45,11.9-6.18,13.59-1.83,4.23-3.89,4.91-3.89,4.91l-16,3.92-5.61,1.38-17.72-5.3s-8.08-22.52-4.83-35.21a97.35,97.35,0,0,1,8.19-21.48s14.46,14.15,33.29-1.2Z"/><path class="cls-20" d="M387.15,172.69c-.3,5.09-.77,9.82-1.5,11.51-1.83,4.23-3.89,4.91-3.89,4.91l-16,3.92-6.94-2s23.17-3.51,20.61-23.45Z"/><path class="cls-16" d="M343.56,192.53s-8.77,27.32-9.34,36.62S351,361.26,351.7,365.54c.65,4,5.67,6.62,5.67,6.62a7.6,7.6,0,0,0,5.6.43c4.57-1.29,6-2.84,6-2.84s6.83-87.58,2.6-118.87a496.46,496.46,0,0,1-4.27-58.35Z"/><path class="cls-13" d="M380.74,191.72s13.39,18,14.64,30.1,1.95,54.79,4.61,66.62,12.43,34.62,12.43,71.53a7.39,7.39,0,0,1-4.15,3.25,34.61,34.61,0,0,1-3.65,1,5.75,5.75,0,0,1-6.42-3.05c-6.6-13.3-27.64-56.18-28.72-65.08-.76-6.3-7.4-48-21.89-72.46-3.48-5.88,2.13-29.23,2.13-29.23Z"/><path class="cls-5" d="M355.24,112.84s-.31,1.31-3.57,1.11c0,0-2.74-.17-2.66-1.61A8.8,8.8,0,0,1,355.24,112.84Z"/><path class="cls-10" d="M342.16,188.32s3.52,2.78,10.52,2.92c8.36.17,29.08-2.13,29.08-2.13a17.09,17.09,0,0,1,.88,5.29s-25.3,6.38-40,.93C342.68,195.33,340.79,191.77,342.16,188.32Z"/><path class="cls-5" d="M350.68,198.45a4.35,4.35,0,1,1,3.81-4.32A4.1,4.1,0,0,1,350.68,198.45Zm0-7.37a3.1,3.1,0,1,0,2.55,3A2.84,2.84,0,0,0,350.68,191.08Z"/><rect class="cls-21" x="363.4" y="163.28" width="34.37" height="47.04" transform="translate(-29.11 295.84) rotate(-41.05)"/><path class="cls-14" d="M375.91,193.34s-9.5,1.11-9.47,3.36,2.37,6.89,3.54,7.1,7.73-6.27,7.73-6.27Z"/><path class="cls-17" d="M379.09,131.22s12.67.88,17.53,12.7,14.09,31.65,14.09,35-5.16,13.62-32.82,19.54c0,0-2.86-3-2.69-5.39,0,0,17.27-14.84,17.23-16.57-.09-3.28-2.84-7.61-18-22.77C370.31,149.59,379.09,131.22,379.09,131.22Z"/></g></g></svg>