<?xml version="1.0" encoding="utf-8"?>
<!-- Generator: Adobe Illustrator 24.0.1, SVG Export Plug-In . SVG Version: 6.00 Build 0)  -->
<svg version="1.1" id="Layer_1" xmlns="http://www.w3.org/2000/svg" xmlns:xlink="http://www.w3.org/1999/xlink" x="0px" y="0px"
	 viewBox="0 0 373.6 282" style="enable-background:new 0 0 373.6 282;" xml:space="preserve">
<style type="text/css">
	.st0{fill:#FFFFFF;stroke:#263238;stroke-linecap:round;stroke-linejoin:round;}
	.st1{fill:#263238;}
	.st2{fill:#FF597D;stroke:#263238;stroke-linecap:round;stroke-linejoin:round;}
	.st3{fill:#FFFFFF;}
	.st4{fill:none;stroke:#263238;stroke-linecap:round;stroke-linejoin:round;}
	.st5{fill:none;stroke:#263238;stroke-width:0.5;stroke-linecap:round;stroke-linejoin:round;}
	.st6{fill:#FF597D;}
	.st7{opacity:0.6;fill:#FFFFFF;enable-background:new    ;}
	.st8{fill:none;stroke:#263238;stroke-miterlimit:10;}
	.st9{opacity:0.5;}
	.st10{opacity:0.5;fill:#FFFFFF;enable-background:new    ;}
	.st11{fill:#263238;stroke:#263238;stroke-linecap:round;stroke-linejoin:round;}
	.st12{fill:none;stroke:#FFFFFF;stroke-width:0.5;stroke-linecap:round;stroke-linejoin:round;}
	.st13{fill:none;stroke:#FFFFFF;stroke-miterlimit:10;}
	.st14{clip-path:url(#SVGID_2_);}
	.st15{opacity:0.5;fill:#FF597D;enable-background:new    ;}
	.st16{clip-path:url(#SVGID_4_);}
	.st17{fill:#FFFFFF;stroke:#263238;stroke-miterlimit:10;}
	.st18{clip-path:url(#SVGID_6_);}
	.st19{clip-path:url(#SVGID_8_);}
</style>
<title>Asset 2</title>
<g>
	<g id="Layer_2_1_">
		<g id="Character">
			<path class="st0" d="M112.7,161.9c0,0,1.2-0.8,8.5,2.3c7.4,3.1,10.3,2.4,17.4,1.2c8.6-1.5,15.7-3,16.6,0.5
				c1.5,6-4.5,5.9-15.4,7.1s-17.1-2.1-20.6-3.7c-1.6-0.7-3.2-1.4-4.6-2.3L112.7,161.9z"/>
			<path class="st0" d="M96.1,165c0,0,9.7,11.2,13.9,8.1s3.9-13.1,0-16.3S95.3,159.6,96.1,165z"/>
			<path class="st0" d="M125.5,134.1c0,0,0.4,10.4-2.3,17.4s-7.7,11.6-8.5,15.5s-0.4,9.3-4.3,10.8s-3.9-1.2-3.5-4.3
				s1.2-14.7,1.2-14.7l-12.8,7.7c0,0,3.5,9.7-3.9,10.8S75.2,167.4,74,158.9s3.5-27.5,11.6-32.5s18.6-4.3,24-4.3
				S123.2,126,125.5,134.1z"/>
			<path class="st1" d="M94.7,123.3c0,0-2,1-5.5,6.5s3.5,10.2,7.2,7.7s0.5-7.7,3.2-10.2c1.6-1.3,2.6-3.2,3-5.2L94.7,123.3z"/>
			<path class="st1" d="M83.4,131.1c-1.8,1.3-3,3.3-3.3,5.5c-0.3,3.5,6-3,6.7-6S83.4,131.1,83.4,131.1z"/>
			<path class="st2" d="M105.8,123.3c-1.8,3.3-1.7,7.3,0.4,10.4c3.5,5.4,11.2,7.7,14.3,3.9s4.3-5.8,3.1-7.7S111.2,120.2,105.8,123.3
				z"/>
			<path class="st0" d="M134.4,104.3c-3,0.3-5.9-0.7-8.1-2.7c-3.9-3.5-7.4-11.2-8.9-10.8s-7,11.6-7,11.6s-9.3,0.8-10.1,3.5
				s3.5,15.5,7,20.9c3.3,4.9,8.8,7.9,14.7,8.1c4.6,0,18.6,1.2,20.5-3.5s0.4-18.6,0.4-18.6s6.2-6.2,3.5-7.3S134.4,104.3,134.4,104.3z
				"/>
			<path class="st1" d="M132.5,123.7c-0.5-0.6-0.9-1.2-1.4-1.9c-0.7-1.1-2.5-2.7-5.8-1.7c-4.7,1.5-8,6-2.7,9.7
				C127.6,133.4,137.5,130.2,132.5,123.7z"/>
			<path class="st0" d="M110.4,102.3c0,0,5.4,3.1,8.5,1.9s1.2-14.3-1.5-13.5S110,97.3,110.4,102.3z"/>
			<path class="st0" d="M146.4,105.4c0,0-5-0.4-8.1,3.1s-1.2,7,3.1,7.7S147.9,105.4,146.4,105.4z"/>
			<path class="st2" d="M116.2,127.1c0,0-5-3.9-3.9-0.8s3.1,3.5,5,2.7S116.2,127.1,116.2,127.1z"/>
			<path class="st1" d="M113.4,117.4c-0.3,1-1.1,1.7-1.8,1.5s-1.1-1.2-0.8-2.2s1.1-1.7,1.8-1.5S113.7,116.4,113.4,117.4z"/>
			<path class="st3" d="M125.4,126.6c-0.7,0.6-1.7,0.5-2.4-0.2c-0.4-0.7,0.1-1.6,1-2.2c0.7-0.6,1.7-0.5,2.4,0.2
				C126.7,125.1,126.3,126,125.4,126.6z"/>
			<path class="st0" d="M90.7,151.1c0,0-1.2,8.5,0.4,12s3.1,16.6,6.2,17s1.9-7,1.9-8.1s0.4-13.5,0.4-13.5s2.7-5.8,4.3-8.9"/>
			<path class="st4" d="M77.9,150.7c0,0,10.4-3.1,11.6,8.5"/>
			<path class="st4" d="M108.1,158.9c0,0,8.9-4.6,9.3-14.7"/>
			<line class="st4" x1="0.5" y1="174.7" x2="7.1" y2="173.2"/>
			<line class="st4" x1="355.4" y1="268.8" x2="346.8" y2="264.3"/>
			<line class="st4" x1="10.8" y1="172.4" x2="36.5" y2="166.6"/>
			<line class="st4" x1="341.5" y1="261.5" x2="131.6" y2="151.9"/>
			<path class="st2" d="M55.5,213.6l53.1-15.1c1.7-0.2,3.4,0.2,4.8,1.2l86.5,55.3c1,0.7,1.3,2,0.6,3c-0.3,0.5-0.9,0.9-1.5,1
				l-72.7,22.6L55.5,213.6z"/>
			<polygon class="st1" points="86.6,216.8 94.1,222 102.8,219.5 95.3,214.3 			"/>
			<polygon class="st1" points="91.3,231.3 83.7,226.1 75,228.6 82.6,233.8 			"/>
			<polygon class="st1" points="105.5,220 113,225.1 121.7,222.7 114.2,217.5 			"/>
			<polygon class="st1" points="114.3,226 121.8,231.2 130.5,228.7 123,223.5 			"/>
			<polygon class="st1" points="95.3,222.8 102.9,228 111.6,225.6 104,220.4 			"/>
			<polygon class="st1" points="76.4,219.6 83.9,224.8 92.6,222.4 85.1,217.2 			"/>
			<polygon class="st1" points="136.5,252.6 128.9,247.4 120.3,249.9 127.8,255 			"/>
			<polygon class="st1" points="126.3,255.4 118.8,250.3 110.1,252.7 117.6,257.9 			"/>
			<polygon class="st1" points="100,237.3 92.5,232.1 83.8,234.6 91.3,239.8 			"/>
			<polygon class="st1" points="145.2,258.6 137.7,253.4 129,255.9 136.5,261.1 			"/>
			<polygon class="st1" points="108.8,243.4 101.3,238.2 92.6,240.6 100.1,245.8 			"/>
			<polygon class="st1" points="117.6,249.4 110,244.2 101.3,246.7 108.8,251.9 			"/>
			<polygon class="st1" points="123,232 130.5,237.2 139.2,234.8 131.7,229.6 			"/>
			<polygon class="st1" points="85.2,225.7 92.7,230.9 101.4,228.4 93.9,223.2 			"/>
			<polygon class="st1" points="155.4,255.8 147.9,250.6 139.2,253 146.7,258.2 			"/>
			<polygon class="st1" points="129.1,237.6 121.6,232.4 112.9,234.9 120.4,240.1 			"/>
			<polygon class="st1" points="110.2,234.5 102.7,229.3 93.9,231.7 101.5,236.9 			"/>
			<polygon class="st1" points="73.7,219.2 69.3,216.2 63.4,217.8 66.9,221.1 			"/>
			<polygon class="st1" points="82.5,225.3 75,220.1 67.8,222.1 73.7,227.7 73.8,227.7 			"/>
			<polygon class="st1" points="104.1,228.9 111.6,234.1 120.3,231.6 112.8,226.4 			"/>
			<polygon class="st1" points="118.9,240.5 111.4,235.3 102.7,237.8 110.2,243 			"/>
			<polygon class="st1" points="156.8,246.9 149.3,241.7 140.6,244.1 148.1,249.3 			"/>
			<polygon class="st1" points="131.8,238.1 139.3,243.3 148,240.8 140.5,235.6 			"/>
			<polygon class="st1" points="146.6,249.7 139.1,244.5 130.4,247 137.9,252.2 			"/>
			<polygon class="st1" points="137.9,243.7 130.3,238.5 121.6,240.9 129.2,246.1 			"/>
			<polygon class="st1" points="127.7,246.5 120.2,241.4 111.5,243.8 119,249 			"/>
			<polygon class="st1" points="89.9,240.2 82.3,235 81.7,235.2 87.6,240.8 			"/>
			<polygon class="st1" points="156.6,256.6 147.9,259.1 156.9,265.3 165.4,262.7 			"/>
			<polygon class="st1" points="146.5,259.5 137.8,261.9 147.1,268.3 155.5,265.7 			"/>
			<polygon class="st1" points="107.4,252.3 99.9,247.1 95.5,248.3 101.4,254 			"/>
			<polygon class="st1" points="165.5,252.9 158,247.7 149.3,250.2 156.8,255.3 			"/>
			<polygon class="st1" points="116.2,258.3 108.6,253.1 102.4,254.9 108.4,260.5 			"/>
			<polygon class="st1" points="124.9,264.4 117.4,259.2 109.3,261.5 115.3,267.1 			"/>
			<polygon class="st1" points="135.1,261.5 127.6,256.3 118.9,258.8 126.4,264 			"/>
			<path class="st1" d="M184.2,253.4l-5-3.1l-11,3.1l8.5,5.9l6.6-2c1.1-0.1,2-1.1,1.9-2.3C185.1,254.3,184.8,253.7,184.2,253.4z"/>
			<polygon class="st1" points="126.2,265.2 116.3,268 124.1,275.4 135.8,271.8 			"/>
			<polygon class="st1" points="169.9,244.3 159.5,247.3 167,252.5 177.9,249.4 			"/>
			<polygon class="st1" points="166.8,253.7 158.1,256.2 166.8,262.2 175.3,259.6 			"/>
			<polygon class="st1" points="105.6,210.2 112.8,208.2 108.2,205.3 101.3,207.2 			"/>
			<polygon class="st1" points="145.6,268.8 136.3,262.4 127.6,264.8 137.2,271.4 			"/>
			<polygon class="st1" points="106.9,211.1 114.4,216.2 122.1,214.1 114.1,209 			"/>
			<polygon class="st1" points="124.4,223.1 131.9,228.3 140.7,225.8 132.7,220.8 			"/>
			<polygon class="st1" points="115.6,217.1 123.2,222.3 131.4,220 123.4,214.9 			"/>
			<polygon class="st1" points="133.2,229.2 140.7,234.4 150,231.7 142,226.7 			"/>
			<polygon class="st1" points="141.9,235.2 149.5,240.4 159.3,237.6 151.3,232.6 			"/>
			<polygon class="st1" points="160.6,238.4 150.7,241.3 158.2,246.4 168.6,243.5 			"/>
			<polygon class="st1" points="96.7,213.9 104.3,219.1 112.9,216.6 105.4,211.5 			"/>
			<polygon class="st1" points="79.2,232.8 80.7,234.3 81.1,234.2 			"/>
			<polygon class="st1" points="75.2,218.8 83.9,216.3 79.5,213.3 70.8,215.8 			"/>
			<polygon class="st1" points="85.3,215.9 94,213.5 89.7,210.5 80.9,212.9 			"/>
			<polygon class="st1" points="91.1,210.1 95.5,213.1 104.2,210.6 99.8,207.6 			"/>
			<polygon class="st1" points="98.6,246.2 91.1,241.1 88.6,241.8 94.5,247.4 			"/>
			<path class="st2" d="M126.3,281.5l-23-93.1c-0.5-2.1-1.7-4-3.3-5.5l-62-57.8c-0.7-0.6-1.7-0.6-2.4,0.1c-0.4,0.4-0.5,1-0.4,1.5
				l20.2,86.9L126.3,281.5z"/>
			<path class="st5" d="M91.5,179.1l7.1,6.2c0,0,2.2,0.4,4.4,11.5"/>
			<line class="st5" x1="104.3" y1="202.5" x2="117.4" y2="259.2"/>
			<path class="st6" d="M66.1,176.5c3.1,7.5,2.8,14.6-0.6,16.1s-8.7-3.5-11.8-11s-2.8-14.6,0.6-16S63,169.1,66.1,176.5z"/>
			<path class="st7" d="M66.1,176.5c3.1,7.5,2.8,14.6-0.6,16.1s-8.7-3.5-11.8-11s-2.8-14.6,0.6-16S63,169.1,66.1,176.5z"/>
			
				<ellipse transform="matrix(0.9247 -0.3807 0.3807 0.9247 -63.6808 36.2845)" class="st8" cx="59.9" cy="179.1" rx="4.8" ry="10.4"/>
			<path class="st1" d="M70.8,207.1c1.6,3.9,0.9,7.8-1.5,8.8s-5.6-1.3-7.2-5.2s-0.9-7.8,1.5-8.8S69.2,203.3,70.8,207.1z"/>
			<path class="st6" d="M67.5,213.7c-1.5,0-3.2-1.4-4-3.5c-0.5-1.1-0.6-2.3-0.5-3.5c0.1-1,0.7-1.9,1.6-2.3c1.7-0.7,3.8,0.8,4.9,3.3
				l0,0c1.1,2.6,0.6,5.1-1.1,5.8C68.1,213.6,67.8,213.7,67.5,213.7z M65.5,205.2c-0.2,0-0.3,0-0.5,0.1c-0.6,0.3-1,0.9-1,1.6
				c-0.1,1,0,2,0.4,2.9c0.8,2,2.5,3.3,3.6,2.8s1.4-2.5,0.6-4.5C67.9,206.4,66.5,205.2,65.5,205.2L65.5,205.2z"/>
			<g class="st9">
				<path class="st3" d="M67.5,213.7c-1.5,0-3.2-1.4-4-3.5c-0.5-1.1-0.6-2.3-0.5-3.5c0.1-1,0.7-1.9,1.6-2.3c1.7-0.7,3.8,0.8,4.9,3.3
					l0,0c1.1,2.6,0.6,5.1-1.1,5.8C68.1,213.6,67.8,213.7,67.5,213.7z M65.5,205.2c-0.2,0-0.3,0-0.5,0.1c-0.6,0.3-1,0.9-1,1.6
					c-0.1,1,0,2,0.4,2.9c0.8,2,2.5,3.3,3.6,2.8s1.4-2.5,0.6-4.5C67.9,206.4,66.5,205.2,65.5,205.2L65.5,205.2z"/>
			</g>
			<path class="st1" d="M88.6,208.4l-5.7,9c-0.3,0.4-0.3,1,0,1.5l12.2,17.8c0.4,0.6,1.2,0.8,1.9,0.4c0.1,0,0.1-0.1,0.1-0.1l6.3-5.1
				c0.5-0.4,0.7-1.2,0.3-1.7l-12.8-21.6c-0.4-0.6-1.2-0.9-1.8-0.5C88.9,208,88.8,208.2,88.6,208.4z"/>
			<path class="st6" d="M78.7,220.3c0,0,15.8-2.6,26.6,19.6l2.7-3.3c0,0-10.4-17.4-18.9-18.9s-11.6-1.5-11.6-1.5L78.7,220.3z"/>
			<path class="st10" d="M78.7,220.3c0,0,15.8-2.6,26.6,19.6l2.7-3.3c0,0-10.4-17.4-18.9-18.9s-11.6-1.5-11.6-1.5L78.7,220.3z"/>
			<line class="st5" x1="38.8" y1="129.5" x2="89.3" y2="176.4"/>
			<path class="st1" d="M183.4,163.8c0,0,1.8-3.2,2.6,0.8L183.4,163.8z"/>
			<polygon class="st11" points="137.1,194.8 181.2,223.3 217.5,208.5 168.6,183.6 			"/>
			<line class="st12" x1="165.4" y1="188.9" x2="147.9" y2="195.1"/>
			<polyline class="st12" points="150.6,197.2 182.3,217.2 208.2,207.2 			"/>
			<path class="st11" d="M318.8,60.5c0,0,25.3,4,33.4,17.5s2.3,34.8-0.4,42.2c-2.5,6.7,4.8,12.2,9.2,15.9c10,8.1,15.1,19.6,10,32.1
				c-3.2,7.8-17.6,11.2-15.7,20.6s10.4,22.4-0.4,32.1c-11.4,10.2-28.6,4.9-38.6-4.6c-11.3-10.7-15.1-29.4-9.4-43.8
				c7-17.4,10.8-28.6,4.3-36s-15.1-12-15.1-22.4s9.3-13.5,13.2-24s-1.5-21.3-1.5-21.3L318.8,60.5z"/>
			<path class="st13" d="M342.5,78.5c4.9,3.7,9.3,9.9,7.8,20c-3.1,20.5-18.3,21.8-8.5,34.8s18.7,7.1,16.9,23.2s-7.6,21.8-7.6,21.8"
				/>
			<path class="st13" d="M332,73.6c2,0.5,3.9,1.1,5.7,2"/>
			<path class="st13" d="M327.1,79.4c0,0,12.9,3.6,16.9,14.3s-12,19.6-12.9,26.3"/>
			<path class="st2" d="M326.6,253.8c-0.2-6.1-0.3-14.3,0.1-22.9c0.8-17.8,22.1-41.4,22.8-45.7s-1.2-5-1.2-5L306.2,162
				c-19.6,12.9-24.4,50.3-25.5,67.8L326.6,253.8z"/>
			<path class="st5" d="M343.8,181.3c0,0,3.5,2.2,0,5.8s-13.3,18.6-17.3,27.4"/>
			<path class="st5" d="M324.8,218.9c0,0-3.1,7.1-2.6,14.2s0.4,13.7,0.4,13.7"/>
			<path class="st3" d="M242,171.7c1.9,4.8,4.1,15.3,2.6,21.2c-0.8,3.1-3.4,9.6-5.6,15.1l56.9,29.7c-0.1-11.8,0.1-30.5,1.6-34
				c2.2-5.2,20.1-54.3,19-65.5S293.7,111,293.7,111l3.3-27.2l-19.7,12c0,0-2.2,10.8-4.5,13.4s-20.5,6.3-25.7,13
				c-5.2,6.7-3.4,27.2-3.4,28.3S240.1,166.8,242,171.7z"/>
			<g>
				<defs>
					<path id="SVGID_1_" d="M242,171.7c1.9,4.8,4.1,15.3,2.6,21.2c-0.8,3.1-3.4,9.6-5.6,15.1l56.9,29.7c-0.1-11.8,0.1-30.5,1.6-34
						c2.2-5.2,20.1-54.3,19-65.5S293.7,111,293.7,111l3.3-27.2l-19.7,12c0,0-2.2,10.8-4.5,13.4s-20.5,6.3-25.7,13
						c-5.2,6.7-3.4,27.2-3.4,28.3S240.1,166.8,242,171.7z"/>
				</defs>
				<clipPath id="SVGID_2_">
					<use xlink:href="#SVGID_1_"  style="overflow:visible;"/>
				</clipPath>
				<g class="st14">
					<path class="st15" d="M316.4,138.2c-1.1-11.2-22.7-27.2-22.7-27.2l3.3-27.2l-19.7,12c0,0-0.6,3.1-1.6,6.4
						c1.3-0.1,2.7-0.3,4.3-0.6c7.5-1.3,11.5-4,11.5-4l-4,16.8c0,0,20.4,12,25.7,26.6c0.7,2,1.5,3.9,2.3,5.7
						C316.2,143.9,316.5,141.1,316.4,138.2z"/>
				</g>
			</g>
			<path class="st4" d="M242,171.7c1.9,4.8,4.1,15.3,2.6,21.2c-0.8,3.1-3.4,9.6-5.6,15.1l56.9,29.7c-0.1-11.8,0.1-30.5,1.6-34
				c2.2-5.2,20.1-54.3,19-65.5S293.7,111,293.7,111l3.3-27.2l-19.7,12c0,0-2.2,10.8-4.5,13.4s-20.5,6.3-25.7,13
				c-5.2,6.7-3.4,27.2-3.4,28.3S240.1,166.8,242,171.7z"/>
			<path class="st11" d="M242,171.7c1.9,4.8,4.1,15.3,2.6,21.2c-0.8,3.1-3.4,9.6-5.6,15.1l56.9,29.7c-0.1-11.8,0.1-30.5,1.6-34
				c2.2-5.2,20.1-54.3,19-65.5c-0.7-6.9-9.3-15.8-15.7-21.4c-6.3,6.7-20,19.2-30,13.6c-9-5-8.4-12.6-7.1-17.1
				c-6.1,2.2-13.4,5.1-16.3,8.9c-5.2,6.7-3.4,27.2-3.4,28.3S240.1,166.8,242,171.7z"/>
			<path class="st0" d="M275.2,158.5l-12.4-5.8c0,0-3.5-5.8-5.4-5.8s-3.1,8.1-3.1,8.1s-6.6,6.2-4.3,12.4s10.8,15.5,21.3,12
				s7.4-14.4,7.4-14.4s4.3-7.4,4.3-8.9S275.2,158.5,275.2,158.5z"/>
			<path class="st3" d="M248.7,38.5c0,0,2.6,13.4,2.2,22.7s-4.1,13-3,17.1s14.5,19.3,22.7,20.8s27.6-11.1,33.1-16.7
				s6.3-13.8,5.6-17.1s-3.7-30.1-14.9-40.9S253.9,14.7,248.7,38.5z"/>
			<g>
				<defs>
					<path id="SVGID_3_" d="M248.7,38.5c0,0,2.6,13.4,2.2,22.7s-4.1,13-3,17.1s14.5,19.3,22.7,20.8s27.6-11.1,33.1-16.7
						s6.3-13.8,5.6-17.1s-3.7-30.1-14.9-40.9S253.9,14.7,248.7,38.5z"/>
				</defs>
				<clipPath id="SVGID_4_">
					<use xlink:href="#SVGID_3_"  style="overflow:visible;"/>
				</clipPath>
				<g class="st16">
					<path class="st15" d="M294.5,24.4c-4.2-4-10.9-6.4-17.9-6.5l-0.5,13.9c0,0-2.2,13.7,5.8,24.8s15,14.2,15.9,18.6
						s-3.1,8.9-13.3,16.4c-4,3-8.2,5.6-12.7,7.8c8.7,0.3,26.7-11.5,32-16.8c5.6-5.6,6.3-13.8,5.6-17.1S305.6,35.2,294.5,24.4z"/>
				</g>
			</g>
			<path class="st4" d="M248.7,38.5c0,0,2.6,13.4,2.2,22.7s-4.1,13-3,17.1s14.5,19.3,22.7,20.8s27.6-11.1,33.1-16.7
				s6.3-13.8,5.6-17.1s-3.7-30.1-14.9-40.9S253.9,14.7,248.7,38.5z"/>
			<path class="st4" d="M262.9,66c0,0-1.1,7.1-3,9.3c1.5,1.3,3.3,2.1,5.2,2.2"/>
			<path class="st4" d="M263.6,83.9c4.9,2.2,10.6,1.9,15.3-0.7"/>
			<path class="st1" d="M277,62.3c0,1.2-0.6,2.2-1.3,2.2s-1.3-1-1.3-2.2s0.6-2.2,1.3-2.2S277,61.1,277,62.3z"/>
			<path class="st1" d="M258.6,59.3c0,1.2-0.6,2.2-1.3,2.2s-1.3-1-1.3-2.2s0.6-2.2,1.3-2.2S258.6,58.1,258.6,59.3z"/>
			<path class="st4" d="M253.6,49.7c2.1-1.3,4.7-1.7,7.1-1.1"/>
			<path class="st4" d="M271,50c0,0,2.2-1.1,7.1,1.9"/>
			<path class="st11" d="M273.3,28.5c0,0-10.4,8.5-15.6,13.8s-7.4,8.9-15.3,5.6s-13.4-14.9-3-28.6s30.5-17.9,50.2-12.3
				s27.9,18.2,29.4,32s-1.5,29-8.5,33.1s-22.7-12.7-28.3-23.1C278.7,42.3,275.7,35.5,273.3,28.5z"/>
			<path class="st13" d="M273.3,28.5c0,0-28.1,4.1-29.4,10.4s7.2,4.4,7.2,4.4"/>
			<path class="st13" d="M240.2,32.6c-1.9,4.1-0.4,6.7-0.4,6.7"/>
			<path class="st13" d="M301.3,15.2c0,0-27.2-4.4-27.2,7.6c0,0-16.5-5.8-27.2,2.2c-1.6,1.2-3.1,2.5-4.4,4"/>
			<path class="st13" d="M275.5,25.5c0,0,6.9,22.4,21.4,28.1"/>
			<path class="st13" d="M289.9,31.5c5.6,4.6,13.5,9.1,23,8.7"/>
			<path class="st13" d="M281.3,22.3c1.3,1.8,2.7,3.5,4.3,5.1"/>
			<path class="st4" d="M246.1,51.5l43.5,7.5c0,0,0,6.6-1.9,10s-4.1,3.4-8.9,3.4s-11.6-3-11.9-4.1c-0.8-2.6-0.3-11.3-0.3-11.3
				l-3.5-0.6c0,0,0.5,10.1-1.4,11.3s-14.1-1.1-16.4-4.1S244.6,51.2,246.1,51.5z"/>
			<polygon class="st2" points="289.6,59 309,55.6 309,58.2 289.6,63 			"/>
			
				<ellipse transform="matrix(0.1587 -0.9873 0.9873 0.1587 204.1978 358.757)" class="st2" cx="312.6" cy="59.6" rx="17.3" ry="10.8"/>
			<path class="st2" d="M326.4,61.7c-1.3,7.9-5.7,13.8-9.8,13.1s-6.5-7.6-5.2-15.5s5.7-13.8,9.8-13.1S327.6,53.7,326.4,61.7z"/>
			<path class="st0" d="M320.5,28.5c0.7,10.4-0.4,20.9-3.4,30.9c0,0-0.4,6,5.2,3.3s4.8-25.3,4.1-34.6S318.6,21.4,320.5,28.5z"/>
			<path class="st2" d="M299.7,11c0,0,8.5-2.2,13,5.6s3.7,14.9,10,15.6s6.7-6.3,3.4-15.3S315.7,1.3,306,0.6s-14.5,7.1-14.5,7.1
				S296.7,8.4,299.7,11z"/>
			<path class="st17" d="M174.1,228.4c-3.1,0.5-6.2,0.8-9.3,0.9c-4.8,0.2-6.9,0.2-6.1,1.3s6.5,2.2,8.6,2.6S174.1,228.4,174.1,228.4z
				"/>
			<path class="st3" d="M298.9,150.1l-25.7,58.4c0,0-69.9,13-76.3,13s-19,4.5-21.6,5.9s-27.9,13.1-23,13.9c3,0.4,10.8-3.8,10.8-3.8
				s-12.3,5.9-11.2,7.8s16-5.6,16-5.6s-13.6,8-10.8,8.5c2.5,0.4,5.6-1,8.2-2.9c2.3-1.4,4.7-2.5,7.3-3.2c0,0-6,4-6.7,5.8
				s1.5,0.7,3.7,0c4.2-1.8,8.2-3.9,12.1-6.3c1.5-1.1,5.9-3.4,8.9-6l5.9-5.2c0,0,39.8,1.1,58,0.4s27.2-2.6,33.9-9.3
				s25.7-49.1,30.1-60.6s1.5-18.2-3-26"/>
			<g>
				<defs>
					<path id="SVGID_5_" d="M298.9,150.1l-25.7,58.4c0,0-69.9,13-76.3,13s-19,4.5-21.6,5.9s-27.9,13.1-23,13.9
						c3,0.4,10.8-3.8,10.8-3.8s-12.3,5.9-11.2,7.8s16-5.6,16-5.6s-13.6,8-10.8,8.5c2.5,0.4,5.6-1,8.2-2.9c2.3-1.4,4.7-2.5,7.3-3.2
						c0,0-6,4-6.7,5.8s1.5,0.7,3.7,0c4.2-1.8,8.2-3.9,12.1-6.3c1.5-1.1,5.9-3.4,8.9-6l5.9-5.2c0,0,39.8,1.1,58,0.4
						s27.2-2.6,33.9-9.3s25.7-49.1,30.1-60.6s1.5-18.2-3-26"/>
				</defs>
				<clipPath id="SVGID_6_">
					<use xlink:href="#SVGID_5_"  style="overflow:visible;"/>
				</clipPath>
				<g class="st18">
					<path class="st15" d="M300,188.4c-12,22.6-22.1,29.6-32.8,35s-69.1,6.6-69.1,6.6l2.5,0.6c10.6,0.3,39.3,0.9,54,0.3
						c18.2-0.7,27.2-2.6,33.9-9.3s25.7-49.1,30.1-60.6c2.1-5.3,2.5-9.6,2-13.5l-2.5,1.6C312.9,162.5,306.8,175.6,300,188.4z"/>
				</g>
			</g>
			<path class="st8" d="M298.9,150.1l-25.7,58.4c0,0-69.9,13-76.3,13s-19,4.5-21.6,5.9s-27.9,13.1-23,13.9c3,0.4,10.8-3.8,10.8-3.8
				s-12.3,5.9-11.2,7.8s16-5.6,16-5.6s-13.6,8-10.8,8.5c2.5,0.4,5.6-1,8.2-2.9c2.3-1.4,4.7-2.5,7.3-3.2c0,0-6,4-6.7,5.8
				s1.5,0.7,3.7,0c4.2-1.8,8.2-3.9,12.1-6.3c1.5-1.1,5.9-3.4,8.9-6l5.9-5.2c0,0,39.8,1.1,58,0.4s27.2-2.6,33.9-9.3
				s25.7-49.1,30.1-60.6s1.5-18.2-3-26"/>
			<path class="st11" d="M298.5,148.6l-7.8,20.2c5.7-3.1,16.5-7.2,25.1-1c1.2-2.8,2.2-5.2,2.9-7c4.5-11.5,1.5-18.2-3-26"/>
			<path class="st3" d="M243.2,175.5c-7.6,2.2-37.4,10.9-40.1,11.6c-1.7,0.4-3.5,0.7-5.2,0.9c0,0-10.4-4.5-13.2-6.5s-6.1-0.8-7.8,0
				s-3,6,0.2,6s3.7-0.2,7.3,2.8s3.5,4.5,6.1,5.6s6.9,0.4,9.1,0c2-0.3,36.6-2.6,45.1-3.1C245.8,188.1,244.6,180.8,243.2,175.5z"/>
			<g>
				<defs>
					<path id="SVGID_7_" d="M243.2,175.5c-7.6,2.2-37.4,10.9-40.1,11.6c-1.7,0.4-3.5,0.7-5.2,0.9c0,0-10.4-4.5-13.2-6.5
						s-6.1-0.8-7.8,0s-3,6,0.2,6s3.7-0.2,7.3,2.8s3.5,4.5,6.1,5.6s6.9,0.4,9.1,0c2-0.3,36.6-2.6,45.1-3.1
						C245.8,188.1,244.6,180.8,243.2,175.5z"/>
				</defs>
				<clipPath id="SVGID_8_">
					<use xlink:href="#SVGID_7_"  style="overflow:visible;"/>
				</clipPath>
				<g class="st19">
					<path class="st15" d="M244.4,180.9l-44.9,14.9c2-0.3,36.6-2.6,45.1-3.1C245.4,189.5,245.1,185.1,244.4,180.9z"/>
				</g>
			</g>
			<path class="st4" d="M243.2,175.5c-7.6,2.2-37.4,10.9-40.1,11.6c-1.7,0.4-3.5,0.7-5.2,0.9c0,0-10.4-4.5-13.2-6.5s-6.1-0.8-7.8,0
				s-3,6,0.2,6s3.7-0.2,7.3,2.8s3.5,4.5,6.1,5.6s6.9,0.4,9.1,0c2-0.3,36.6-2.6,45.1-3.1C245.8,188.1,244.6,180.8,243.2,175.5z"/>
			<path class="st0" d="M168.7,187.6c0,0-3.9,2.2-5,4.8s1.1,1.9,1.9,1.3s3.9-3.2,3.9-3.2L168.7,187.6z"/>
			<path class="st0" d="M169.8,185.8c-1.5,1-2.3,2.7-2,4.5c0.4,3.2,3.7,7.8,4.1,6S169.8,185.8,169.8,185.8z"/>
			<path class="st0" d="M174.4,183c0,0-3.5,0.9-4.6,2.8s0.7,9.9,2.1,10.4c1,0.5,2.2,0,2.6-1c0.1-0.2,0.1-0.3,0.1-0.5
				C175,193.4,174.4,183,174.4,183z"/>
			<path class="st0" d="M178.9,181.1c0,0-4.7,0-5.2,2.2s-1.5,11.9-0.6,13.4s2.4,0.9,3.2-0.9S178.9,181.1,178.9,181.1z"/>
			<path class="st1" d="M183.1,163.8l-7.6,34.8l1.2,4.4c0.1,0.2,0.3,0.3,0.5,0.3c0.1,0,0.1-0.1,0.2-0.1l3.3-3.3l5.6-35.2
				L183.1,163.8z"/>
			<path class="st0" d="M190.6,191.9c0,0-4.3,1.7-7.6,3.2s-6.7,2.2-6.3,4.3s1.9,1.3,4.3,0.6c3.3-1.2,6.8-2,10.2-2.4
				c4.6-0.6,8.4-4.8,8.4-4.8"/>
			<path class="st12" d="M175.6,199.1l0.8,3.3c0.1,0.5,0.6,0.8,1.1,0.7c0.2,0,0.3-0.1,0.4-0.2l1.8-1.7"/>
			<line class="st12" x1="175.5" y1="198.6" x2="179.5" y2="181"/>
		</g>
	</g>
</g>
</svg>
