<svg xmlns="http://www.w3.org/2000/svg" xmlns:xlink="http://www.w3.org/1999/xlink" viewBox="0 0 1917.86 890.15"><defs><style>.cls-1{fill:url(#linear-gradient);}.cls-2{fill:#1a6bf7;}.cls-2,.cls-3,.cls-5{opacity:0.5;}.cls-3{fill:#1b6cfa;}.cls-4{opacity:0.81;}.cls-5{fill:none;stroke:#fff;stroke-miterlimit:10;stroke-width:3px;}.cls-6{fill:#fff;}</style><linearGradient id="linear-gradient" x1="101.57" y1="241.8" x2="1884.63" y2="754.27" gradientUnits="userSpaceOnUse"><stop offset="0" stop-color="#004dd4"/><stop offset="0.26" stop-color="#084fd9"/><stop offset="0.66" stop-color="#1e55e5"/><stop offset="1" stop-color="#355cf3"/></linearGradient></defs><title>Asset 6</title><g id="Layer_2" data-name="Layer 2"><g id="ELEMENTS"><path class="cls-1" d="M1917.86,292.08V888.65H.11V272.39C9.47,275,20,279.33,24.52,280.27c13.56,2.8,30.06,6.7,45.92,7,12.09.24,24.7-1.64,34.93-8.5,45.6-30.59,12.56-103,47.6-139.41,16-16.61,39.67-24.14,61-29,24.83-5.59,47.7-12.7,72.48-18.44,1.67-.39,12.36-2.46,22.81-4.21V201a20.47,20.47,0,0,0,20.47,20.47H1591.88A20.48,20.48,0,0,0,1612.35,201V0l.69.26c59.7,24.15,108.29,74,130,134.68,8.35,23.33,12.94,48.26,25.32,69.73,9.06,15.71,21.88,28.77,36.56,39.54a196.71,196.71,0,0,0,28.46,17.21c20.56,10.27,42.41,17.57,64.16,24.86C1904,288.44,1911,290.13,1917.86,292.08Z"/><circle class="cls-2" cx="1552.06" cy="466.36" r="87.53"/><circle class="cls-3" cx="1658.96" cy="608.95" r="188.02"/><g class="cls-4"><path class="cls-5" d="M238.4,192.14A190.34,190.34,0,0,1,270.7,238"/><path class="cls-5" d="M297.41,296.39c1.69,8.69,6.69,16.3,10.55,24.27a100,100,0,0,1,9.86,49"/><path class="cls-5" d="M335.52,420.69A196.09,196.09,0,0,1,341,491.17"/><path class="cls-5" d="M319.22,549a113.56,113.56,0,0,1-32.43,59.35"/><path class="cls-5" d="M240.48,650.92A153.28,153.28,0,0,1,188,691.83"/><path class="cls-5" d="M136.9,722.17a702.86,702.86,0,0,0-66.2,31.46"/><path class="cls-5" d="M195.1,837.39a407,407,0,0,0-54.9,21.38"/><path class="cls-5" d="M74.89,878.92A653.08,653.08,0,0,1,.11,888.65"/><path class="cls-5" d="M250,805c7.19-.21,13.93-3.38,20.42-6.49l37.48-18"/><path class="cls-5" d="M350.6,744.73c18.21-11.67,31.66-29.27,44.73-46.49"/><path class="cls-5" d="M435.83,641.51a79.81,79.81,0,0,0,28.27-57.24"/><path class="cls-5" d="M476.61,520.62a99,99,0,0,0-7.07-59.47"/><path class="cls-5" d="M453.26,390.75a111.05,111.05,0,0,0-4.91-20.26A130.05,130.05,0,0,0,430,336.32"/><path class="cls-5" d="M402.67,279.26a122.2,122.2,0,0,0-22-28.92"/><path class="cls-5" d="M211.6,159a70.5,70.5,0,0,0-24.35-22.28"/><path class="cls-6" d="M43.21,757.67a1.5,1.5,0,0,0,0-3,1.5,1.5,0,0,0,0,3Z"/><path class="cls-6" d="M161.8,704.73a1.5,1.5,0,0,0,0-3,1.5,1.5,0,0,0,0,3Z"/><path class="cls-6" d="M266.62,630.61a1.5,1.5,0,0,0,0-3,1.5,1.5,0,0,0,0,3Z"/><path class="cls-6" d="M329.09,520.49a1.5,1.5,0,0,0,0-3,1.5,1.5,0,0,0,0,3Z"/><path class="cls-6" d="M331.21,393.43a1.5,1.5,0,0,0,0-3,1.5,1.5,0,0,0,0,3Z"/><path class="cls-6" d="M287.8,277a1.5,1.5,0,0,0,0-3,1.5,1.5,0,0,0,0,3Z"/><path class="cls-6" d="M220,173.2a1.5,1.5,0,0,0,0-3,1.5,1.5,0,0,0,0,3Z"/><path class="cls-6" d="M415.91,302.38a1.5,1.5,0,0,0,0-3,1.5,1.5,0,0,0,0,3Z"/><path class="cls-6" d="M463.56,423.08a1.5,1.5,0,0,0,0-3,1.5,1.5,0,0,0,0,3Z"/><path class="cls-6" d="M472,551.2a1.5,1.5,0,0,0,0-3,1.5,1.5,0,0,0,0,3Z"/><path class="cls-6" d="M421.21,668.73a1.5,1.5,0,0,0,0-3,1.5,1.5,0,0,0,0,3Z"/><path class="cls-6" d="M333.32,758.73a1.5,1.5,0,0,0,0-3,1.5,1.5,0,0,0,0,3Z"/><path class="cls-6" d="M221.09,825.43a1.5,1.5,0,0,0,0-3,1.5,1.5,0,0,0,0,3Z"/><path class="cls-6" d="M101.44,867.79a1.5,1.5,0,0,0,0-3,1.5,1.5,0,0,0,0,3Z"/></g></g></g></svg>